<?xml version="1.0" encoding="utf-8" ?>
<svg xmlns="http://www.w3.org/2000/svg" xmlns:xlink="http://www.w3.org/1999/xlink" width="1024" height="1024">
	<path fill="#FEFEFE" d="M839.938 888.315C840.884 888.38 842.029 888.383 842.931 888.721C844.312 889.238 844.709 889.962 845.327 891.218C845.409 893.051 844.816 894.08 843.962 895.671C842.8 895.709 841.717 895.644 840.631 895.17C839.571 894.708 838.793 893.641 838.573 892.526C838.258 890.934 839.16 889.601 839.938 888.315Z"/>
	<path fill="#FEFEFE" d="M880.3 168.818C881.498 169.115 882.678 169.417 883.668 170.2C884.327 170.722 884.846 171.639 884.938 172.451C885.182 174.614 883.98 175.839 882.679 177.364C881.527 177.038 880.087 176.598 879.175 175.761C878.262 174.923 877.768 173.821 877.882 172.569C878.022 171.032 879.291 169.862 880.3 168.818Z"/>
	<path fill="#FEFEFE" d="M263.929 893.366C265.507 893.426 267.209 893.493 268.539 894.466C269.554 895.21 270.121 896.172 270.194 897.449C270.289 899.081 269.109 900.466 268.208 901.703C266.468 901.739 264.101 901.603 262.797 900.267C261.857 899.304 261.471 898.432 261.571 897.063C261.682 895.55 262.941 894.392 263.929 893.366Z"/>
	<path fill="#FEFEFE" d="M170.165 104.89C171.561 104.898 172.992 104.929 174.197 105.75C175.282 106.489 175.956 107.393 176.1 108.731C176.377 111.302 174.84 112.886 173.211 114.571C171.682 114.548 170.3 114.214 169.114 113.18C168.252 112.428 167.791 111.534 167.69 110.397C167.473 107.98 168.64 106.578 170.165 104.89Z"/>
	<path fill="#FEFEFE" d="M920.207 540.324C920.378 540.344 920.55 540.355 920.72 540.385C922.793 540.749 925.048 541.707 926.08 543.66C926.64 544.721 926.719 545.864 926.437 547.015C925.793 549.638 924.086 550.711 921.871 552.003C920.071 551.513 918.107 551.037 916.823 549.569C915.919 548.534 915.441 547.457 915.578 546.055C915.852 543.256 918.083 541.776 920.207 540.324Z"/>
	<path fill="#F3D8AD" d="M143.546 894.765C143.694 894.318 143.838 893.87 144.007 893.431C145.482 889.586 147.939 886.074 151.848 884.423C156.515 882.453 160.972 883.656 165.389 885.546C161.7 892.224 158.108 895.017 150.845 897.164C148.367 896.472 145.882 895.863 143.546 894.765Z"/>
	<path fill="#D1964E" d="M165.389 885.546C167.396 887.177 168.942 888.725 170.253 890.965C171.688 895.31 172.259 899.351 170.17 903.648C168.543 906.997 165.498 909.572 161.956 910.698C158.316 911.856 154.325 911.5 150.983 909.632C147.391 907.624 145.594 904.724 143.981 901.06C143.472 898.908 143.48 896.956 143.546 894.765C145.882 895.863 148.367 896.472 150.845 897.164C158.108 895.017 161.7 892.224 165.389 885.546Z"/>
	<path fill="#F8B064" d="M165.389 885.546C167.396 887.177 168.942 888.725 170.253 890.965C166.212 896.2 161.954 901.751 154.907 902.688C151.238 903.176 147.422 902.3 143.981 901.06C143.472 898.908 143.48 896.956 143.546 894.765C145.882 895.863 148.367 896.472 150.845 897.164C158.108 895.017 161.7 892.224 165.389 885.546Z"/>
	<defs>
		<linearGradient id="gradient_0" gradientUnits="userSpaceOnUse" x1="154.36562" y1="189.50589" x2="133.08934" y2="176.08769">
			<stop offset="0" stop-color="#1660D7"/>
			<stop offset="1" stop-color="#0F91EB"/>
		</linearGradient>
	</defs>
	<path fill="url(#gradient_0)" d="M145.806 161.812C150.816 164.118 154.98 167.37 157.062 172.662C158.974 177.521 158.78 183.186 156.655 187.942C154.608 192.522 150.752 196.165 146.06 197.942C141.3 199.746 135.553 199.569 130.923 197.445C127.189 195.733 123.817 192.68 121.812 189.089C124.745 189.078 127.806 189.194 130.704 188.692C135.888 187.795 140.97 185.457 144.015 181.011C148.039 175.135 146.978 168.355 145.806 161.812Z"/>
	<path fill="#20B3EE" d="M121.812 189.089C119.802 184.729 118.83 180.302 119.942 175.543C121.141 170.417 124.547 165.97 129.092 163.341C134.625 160.141 139.85 160.272 145.806 161.812C146.978 168.355 148.039 175.135 144.015 181.011C140.97 185.457 135.888 187.795 130.704 188.692C127.806 189.194 124.745 189.078 121.812 189.089Z"/>
	<path fill="#6BD1D7" d="M134.562 167.491C135.265 167.486 135.971 167.482 136.672 167.533C138.027 167.632 139.06 168.039 139.932 169.139C140.526 169.889 140.659 171.09 140.462 172.019C139.609 176.051 136.088 178.823 132.834 180.917C130.923 180.62 129.017 180.5 127.763 178.836C127.024 177.854 127.049 176.717 127.333 175.562C128.205 172.016 131.664 169.34 134.562 167.491Z"/>
	<path fill="#EC9E9D" d="M802.702 105.565C803.05 101.363 803.969 97.169 805.799 93.3543C808.535 87.65 813.279 83.3371 819.285 81.2977C826.862 78.7251 833.829 80.2391 840.791 83.5962C838.226 92.6865 835.449 101.098 826.615 106.094C821.601 108.93 813.851 110.029 808.194 108.419C806.263 107.869 804.291 106.792 802.702 105.565Z"/>
	<path fill="#F3D8AD" d="M821.746 84.5194C822.888 84.4657 823.993 84.4643 825.114 84.7126C826.724 85.0693 827.428 85.7367 828.287 87.0908C828.389 88.204 828.312 89.016 827.837 90.0475C825.608 94.8805 821.357 97.2473 816.637 98.994C816.02 98.9837 815.401 98.9718 814.786 98.9138C813.153 98.7596 811.888 98.2657 810.857 96.9579C810.534 95.8504 810.485 95.0916 810.892 93.9839C812.671 89.145 817.272 86.3917 821.746 84.5194Z"/>
	<path fill="#A4497F" d="M840.791 83.5962C842.318 84.8246 843.914 86.0144 845.308 87.394C849.688 92.6672 852.432 98.7242 851.914 105.73C851.412 112.521 847.86 118.777 842.626 123.067C837.404 127.347 830.449 129.603 823.709 128.795C816.814 127.968 811.111 124.018 807.085 118.484C806.586 117.798 806.165 117.08 805.738 116.348C803.642 113.146 802.915 109.323 802.702 105.565C804.291 106.792 806.263 107.869 808.194 108.419C813.851 110.029 821.601 108.93 826.615 106.094C835.449 101.098 838.226 92.6865 840.791 83.5962Z"/>
	<path fill="#DA6B89" d="M840.791 83.5962C842.318 84.8246 843.914 86.0144 845.308 87.394C843.964 97.7025 841.043 106.669 832.492 113.256C827.123 117.392 820.532 119.57 813.734 118.609C811.007 118.224 808.31 117.292 805.738 116.348C803.642 113.146 802.915 109.323 802.702 105.565C804.291 106.792 806.263 107.869 808.194 108.419C813.851 110.029 821.601 108.93 826.615 106.094C835.449 101.098 838.226 92.6865 840.791 83.5962Z"/>
	<path fill="#21539A" d="M946.877 841.539C953.585 849.982 957.096 859.301 955.918 870.203C954.9 879.616 949.942 888.379 942.487 894.205C934.754 900.248 924.173 903.3 914.415 902.058C905.291 900.896 897.268 896.026 891.732 888.725C889.159 885.332 887.122 881.469 885.772 877.431C893.638 881.696 901.471 884.978 910.567 884.801C920.524 884.607 930.518 880.065 937.395 872.895C946.018 863.904 947.184 853.496 946.877 841.539Z"/>
	<path fill="#5561A7" d="M936.094 832.754C940.387 835.147 943.576 837.916 946.877 841.539C947.184 853.496 946.018 863.904 937.395 872.895C930.518 880.065 920.524 884.607 910.567 884.801C901.471 884.978 893.638 881.696 885.772 877.431C883.187 869.984 883.246 863.526 884.487 855.82C888.523 858.252 891.732 861.794 896.052 863.888C902.282 866.908 909.486 867.154 915.975 864.818C924.519 861.743 934.063 853.201 935.175 843.724C935.515 840.829 934.419 835.84 935.703 833.426C935.825 833.198 935.964 832.978 936.094 832.754Z"/>
	<path fill="#1B90C2" d="M884.487 855.82C884.979 853.568 885.678 851.399 886.636 849.302C890.474 840.905 897.872 834.112 906.54 830.977C916.598 827.34 926.534 828.189 936.094 832.754C935.964 832.978 935.825 833.198 935.703 833.426C934.419 835.84 935.515 840.829 935.175 843.724C934.063 853.201 924.519 861.743 915.975 864.818C909.486 867.154 902.282 866.908 896.052 863.888C891.732 861.794 888.523 858.252 884.487 855.82Z"/>
	<path fill="#20B3EE" d="M913.306 833.077C915.958 832.798 919.099 832.615 921.71 833.299C923.318 833.72 925.072 834.629 925.746 836.243C926.553 838.175 926.001 840.352 925.199 842.185C922.128 849.209 915.088 853.408 908.245 856.017C905.643 856.675 902.615 856.891 899.98 856.289C898.5 855.951 897.078 855.045 896.391 853.647C895.12 851.06 896.18 847.513 897.346 845.091C900.596 838.344 906.558 835.293 913.306 833.077Z"/>
	<defs>
		<linearGradient id="gradient_1" gradientUnits="userSpaceOnUse" x1="418.6705" y1="820.07983" x2="419.70316" y2="766.03235">
			<stop offset="0" stop-color="#006F88"/>
			<stop offset="1" stop-color="#0793C1"/>
		</linearGradient>
	</defs>
	<path fill="url(#gradient_1)" d="M339.282 763.692L341.588 763.395L341.491 763.933L341.444 765.034C344.237 767.524 356.516 775.395 359.859 776.237C377.049 785.693 422.785 806.067 442.011 805.642C454.992 808.319 468.166 810.97 481.412 811.913C490.626 812.569 500.604 811.778 509.65 813.345C505.224 816.574 500.046 818.986 495.917 822.556C441.56 822.597 372.375 797.534 328.89 765.343C332.442 764.999 335.833 764.638 339.282 763.692Z"/>
	<path fill="#364286" d="M837.918 245.376C865.341 239.535 913.566 236.2 937.855 251.773C946.006 257 951.168 264.5 953.113 273.983C959.603 305.615 932.185 348.819 915.082 374.357C897.681 400.341 876.673 424.98 854.627 447.12C843.727 458.066 829.558 469.939 819.735 481.526C818.23 483.302 818.348 484.527 818.316 486.754C816.923 477.64 816.192 468.387 815.026 459.236C814.427 456.121 813.768 453.016 813.127 449.908C815.874 445.968 820.407 442.324 823.759 438.819C827.326 435.089 830.592 431.036 833.97 427.134C856.21 401.453 878.808 375.656 895.955 346.168C904.653 331.209 915.681 309.847 910.821 292.032C908.768 284.509 903.972 279.044 897.292 275.237C866.683 257.795 791.335 272.963 758.25 281.23C747.81 283.838 737.349 287.135 726.962 290.017L724.139 287.286L717.043 280.403C724.238 279.081 731.845 275.113 738.69 272.46C746.953 269.258 755.34 266.426 763.796 263.78C776.308 259.864 789.008 256.191 801.775 253.215C813.78 250.416 825.931 248.238 837.918 245.376Z"/>
	<path fill="#1A2563" d="M724.139 287.286C731.904 282.302 745.596 279.604 754.562 277.185C793.26 266.744 847.717 253.61 887.176 262.146C898.432 264.58 910.36 269.859 916.729 279.962C922.909 289.768 922.311 301.644 919.706 312.509C909.933 353.272 872.371 396.043 845.487 427.075C836.082 437.933 826.498 450.595 815.026 459.236C814.427 456.121 813.768 453.016 813.127 449.908C815.874 445.968 820.407 442.324 823.759 438.819C827.326 435.089 830.592 431.036 833.97 427.134C856.21 401.453 878.808 375.656 895.955 346.168C904.653 331.209 915.681 309.847 910.821 292.032C908.768 284.509 903.972 279.044 897.292 275.237C866.683 257.795 791.335 272.963 758.25 281.23C747.81 283.838 737.349 287.135 726.962 290.017L724.139 287.286Z"/>
	<path fill="#364286" d="M726.962 290.017C737.349 287.135 747.81 283.838 758.25 281.23C791.335 272.963 866.683 257.795 897.292 275.237C903.972 279.044 908.768 284.509 910.821 292.032C915.681 309.847 904.653 331.209 895.955 346.168C878.808 375.656 856.21 401.453 833.97 427.134C830.592 431.036 827.326 435.089 823.759 438.819C820.407 442.324 815.874 445.968 813.127 449.908C811.296 439.559 808.498 429.441 805.75 419.308C791.934 374.804 772.171 340.621 741.742 305.454C736.222 301.063 731.668 295.267 726.962 290.017Z"/>
	<path fill="#1A2563" d="M741.742 305.454C751.004 302.227 760.961 300.744 770.575 298.867C794.899 294.117 830.709 286.092 853.793 297.19C860.225 300.281 865.219 305.075 867.488 311.986C871.671 324.727 865.526 339.772 859.648 350.948C855.984 357.916 851.734 364.58 847.182 371C841.232 379.391 813.622 414.863 805.75 419.308C791.934 374.804 772.171 340.621 741.742 305.454Z"/>
	<path fill="#1B90C2" d="M651.585 233.352C661.306 239.142 671.134 244.773 680.487 251.154C693.382 259.95 705.417 270.011 717.043 280.403L724.139 287.286L726.962 290.017C731.668 295.267 736.222 301.063 741.742 305.454C772.171 340.621 791.934 374.804 805.75 419.308C808.498 429.441 811.296 439.559 813.127 449.908C813.768 453.016 814.427 456.121 815.026 459.236C816.192 468.387 816.923 477.64 818.316 486.754C819.142 495.053 819.128 503.452 819.114 511.782C818.999 582.251 792.583 653.032 747.926 707.498C696.648 770.039 620.148 813.859 539.149 821.761C525.259 823.116 509.788 824.27 495.917 822.556C500.046 818.986 505.224 816.574 509.65 813.345L513.155 812.508C520.085 808.446 527.749 805.043 534.982 801.514C548.199 795.065 561.436 788.68 574.547 782.016C603.078 767.514 630.967 751.02 658.105 734.064C677.041 722.232 695.967 710.245 714.547 697.858C722.828 692.337 760.152 664.647 764.819 663.388C773.675 649.272 780.891 634.311 787.386 618.988C793.543 609.419 797.054 594.457 800.247 583.496C807.08 562.872 810.975 534.534 811.083 512.874C811.363 502.716 811.119 492.444 810.323 482.314C809.502 475.017 808.96 467.719 807.988 460.434C807.795 457.54 807.13 454.531 806.695 451.654C805.357 444.48 803.9 437.419 802.13 430.338C801.197 421.79 792.826 398.378 788.329 390.981C772.951 385.346 757.334 382.098 741.901 389.294C731.193 394.287 721.536 402.739 714.199 411.918C712.846 405.187 712.924 397.757 712.313 390.887C710.904 375.05 707.743 359.31 701.693 344.565L701.54 343.679C697.57 329.315 686.844 310.586 677.364 299.358C672.694 293.826 667.212 289.035 662.536 283.468C666.523 273.757 669.135 263.559 672.711 253.688C665.06 248.311 654.804 245.107 647.95 238.905C647.367 238.378 646.762 237.903 646.145 237.416C648.132 236.194 649.82 234.873 651.585 233.352Z"/>
	<defs>
		<linearGradient id="gradient_2" gradientUnits="userSpaceOnUse" x1="722.3512" y1="311.94388" x2="659.92847" y2="287.14655">
			<stop offset="0" stop-color="#064F7E"/>
			<stop offset="1" stop-color="#08648C"/>
		</linearGradient>
	</defs>
	<path fill="url(#gradient_2)" d="M662.536 283.468C666.523 273.757 669.135 263.559 672.711 253.688C681.745 260.899 691.361 267.327 700.328 274.647C710.299 282.787 719.273 291.852 728.411 300.885C719.403 315.095 711.96 330.408 701.54 343.679C697.57 329.315 686.844 310.586 677.364 299.358C672.694 293.826 667.212 289.035 662.536 283.468Z"/>
	<defs>
		<linearGradient id="gradient_3" gradientUnits="userSpaceOnUse" x1="788.20514" y1="383.68738" x2="700.86646" y2="347.43561">
			<stop offset="0" stop-color="#1F5EAF"/>
			<stop offset="1" stop-color="#1683B9"/>
		</linearGradient>
	</defs>
	<path fill="url(#gradient_3)" d="M728.411 300.885C753.551 328.155 773.577 356.838 788.329 390.981C772.951 385.346 757.334 382.098 741.901 389.294C731.193 394.287 721.536 402.739 714.199 411.918C712.846 405.187 712.924 397.757 712.313 390.887C710.904 375.05 707.743 359.31 701.693 344.565L701.54 343.679C711.96 330.408 719.403 315.095 728.411 300.885Z"/>
	<defs>
		<linearGradient id="gradient_4" gradientUnits="userSpaceOnUse" x1="701.86761" y1="773.3139" x2="576.34509" y2="703.30469">
			<stop offset="0" stop-color="#00376B"/>
			<stop offset="1" stop-color="#0D5586"/>
		</linearGradient>
	</defs>
	<path fill="url(#gradient_4)" d="M513.155 812.508C520.085 808.446 527.749 805.043 534.982 801.514C548.199 795.065 561.436 788.68 574.547 782.016C603.078 767.514 630.967 751.02 658.105 734.064C677.041 722.232 695.967 710.245 714.547 697.858C722.828 692.337 760.152 664.647 764.819 663.388C758.944 672.872 753.057 682.404 746.37 691.344C702.443 750.07 639.635 789.825 568.513 806.508C551.01 810.614 531.197 814.632 513.155 812.508Z"/>
	<path fill="#5561A7" d="M207.359 568.117C208.152 572.54 208.875 576.988 209.775 581.389L210.853 585.627L212.658 592.137C213.705 596.648 214.764 601.394 216.62 605.651L216.528 605.895L221.949 622.328L223.761 627.171C226.634 626.756 229.172 625.965 231.906 625.028C237.761 642.013 246.524 658.336 255.625 673.777C261.093 684.695 274.498 705.639 283.586 713.151C280.674 713.903 277.687 714.506 274.808 715.366C276.325 717.4 277.83 719.437 279.452 721.39C282.608 724.864 285.766 728.395 289.24 731.558C291.774 734.205 294.279 736.89 296.956 739.394L297.072 739.786L302.45 744.859C306.116 748.043 310.052 752.106 314.312 754.425L316.116 756.164C300.768 761.734 285.249 767.361 269.556 771.877C238.169 780.91 205.028 786.674 172.52 789.754C144.56 792.404 104.429 793.459 81.8143 774.452C73.8384 767.749 69.8356 758.812 69.0504 748.506C66.8311 719.377 90.8566 682.796 109.472 661.23C116.293 654.499 122.269 646.494 128.813 639.411C141.148 626.06 154.361 613.299 167.949 601.219C174.454 595.437 181.075 589.771 187.817 584.267C192.398 580.527 204.438 572.215 207.359 568.117Z"/>
	<path fill="#1A2563" d="M302.45 744.859C302.164 745.011 301.885 745.182 301.59 745.316C296.627 747.573 288.53 748.986 283.067 750.645C241.333 763.32 170.281 777.978 127.447 764.548C116.208 761.024 105.808 755.314 100.239 744.499C94.7978 733.932 95.5916 720.652 99.0947 709.621C111.508 670.534 155.995 626.915 186.197 600.339C192.981 594.37 201.777 585.498 209.775 581.389L210.853 585.627L210.274 586.253C204.131 592.785 194.415 599.944 187.522 606.334C159.997 631.852 105.745 683.886 106.653 723.362C106.852 732.01 109.681 739.846 116.122 745.844C133.169 761.72 166.107 760.755 188.116 759.907C212.367 758.974 237.241 754.486 260.786 748.7C270.832 746.231 287.56 740.589 297.072 739.786L302.45 744.859Z"/>
	<path fill="#5561A7" d="M210.853 585.627L212.658 592.137C213.705 596.648 214.764 601.394 216.62 605.651L216.528 605.895C207.878 607.046 174.03 649.264 167.848 657.326C158.447 669.587 146.18 688.82 148.192 705.03C148.98 711.383 152.224 716.592 157.29 720.443C177.493 735.803 217.701 731.299 241.635 727.84C248.681 726.822 274.967 723.595 279.452 721.39C282.608 724.864 285.766 728.395 289.24 731.558C291.774 734.205 294.279 736.89 296.956 739.394L297.072 739.786C287.56 740.589 270.832 746.231 260.786 748.7C237.241 754.486 212.367 758.974 188.116 759.907C166.107 760.755 133.169 761.72 116.122 745.844C109.681 739.846 106.852 732.01 106.653 723.362C105.745 683.886 159.997 631.852 187.522 606.334C194.415 599.944 204.131 592.785 210.274 586.253L210.853 585.627Z"/>
	<path fill="#364286" d="M279.452 721.39C274.967 723.595 248.681 726.822 241.635 727.84C217.701 731.299 177.493 735.803 157.29 720.443C152.224 716.592 148.98 711.383 148.192 705.03C146.18 688.82 158.447 669.587 167.848 657.326C174.03 649.264 207.878 607.046 216.528 605.895L221.949 622.328L223.761 627.171C226.634 626.756 229.172 625.965 231.906 625.028C237.761 642.013 246.524 658.336 255.625 673.777C261.093 684.695 274.498 705.639 283.586 713.151C280.674 713.903 277.687 714.506 274.808 715.366C276.325 717.4 277.83 719.437 279.452 721.39Z"/>
	<path fill="#1A2563" d="M267.009 705.236C257.126 707.389 246.651 708.737 236.563 709.605C221.972 710.861 201.531 711.109 189.728 700.706C185.507 696.986 183.324 692.092 182.994 686.507C181.635 663.545 207.733 638.552 221.949 622.328L223.761 627.171C226.634 626.756 229.172 625.965 231.906 625.028C237.761 642.013 246.524 658.336 255.625 673.777C261.093 684.695 274.498 705.639 283.586 713.151C280.674 713.903 277.687 714.506 274.808 715.366C272.068 712.111 269.57 708.633 267.009 705.236Z"/>
	<path fill="#20B3EE" d="M231.906 625.028C237.761 642.013 246.524 658.336 255.625 673.777C261.093 684.695 274.498 705.639 283.586 713.151C280.674 713.903 277.687 714.506 274.808 715.366C272.068 712.111 269.57 708.633 267.009 705.236C248.967 681.995 233.515 654.964 223.761 627.171C226.634 626.756 229.172 625.965 231.906 625.028Z"/>
	<path fill="#21539A" d="M810.323 482.314C811.119 492.444 811.363 502.716 811.083 512.874C810.975 534.534 807.08 562.872 800.247 583.496C797.054 594.457 793.543 609.419 787.386 618.988C780.891 634.311 773.675 649.272 764.819 663.388C760.152 664.647 722.828 692.337 714.547 697.858C695.967 710.245 677.041 722.232 658.105 734.064C630.967 751.02 603.078 767.514 574.547 782.016C561.436 788.68 548.199 795.065 534.982 801.514C527.749 805.043 520.085 808.446 513.155 812.508L509.65 813.345C500.604 811.778 490.626 812.569 481.412 811.913C468.166 810.97 454.992 808.319 442.011 805.642C422.785 806.067 377.049 785.693 359.859 776.237C356.516 775.395 344.237 767.524 341.444 765.034L341.491 763.933L341.588 763.395L339.282 763.692C335.833 764.638 332.442 764.999 328.89 765.343C324.388 763.03 320.138 759.249 316.116 756.164L314.312 754.425C310.052 752.106 306.116 748.043 302.45 744.859L297.072 739.786L296.956 739.394C294.279 736.89 291.774 734.205 289.24 731.558C285.766 728.395 282.608 724.864 279.452 721.39C277.83 719.437 276.325 717.4 274.808 715.366C277.687 714.506 280.674 713.903 283.586 713.151L285.728 713.011C305.759 709.471 325.663 703.977 345.297 698.688L346.056 698.576C354.933 702.054 369.035 706.04 378.32 707.943L379.939 707.725C384.036 708.935 388.186 709.867 392.349 710.81L392.913 710.868C402.565 715.842 413.543 717.063 423.835 720.105L424.387 720.008C434.21 722.406 443.953 724.612 453.649 727.522L455.109 727.552C455.579 726.981 456.011 726.624 456.651 726.245C461.948 723.106 467.947 720.82 473.499 718.149L508.396 701.206C517.946 696.559 527.564 692.006 536.997 687.124C544.858 683.056 552.654 678.496 560.747 674.924C562.646 674.085 563.811 673.638 565.874 674.119C583.802 656.568 607.911 646.647 632.01 641.233C633.447 640.877 634.888 640.551 636.335 640.235C636.51 639.318 636.596 638.939 637.208 638.215C639.832 635.113 643.335 632.31 646.246 629.44C658.264 617.591 676.776 600.395 682.602 584.702C699.038 573.64 715.266 562.001 730.925 549.856C741.282 541.824 751.261 533.348 761.742 525.467C772.74 517.435 786.378 503.644 796.66 494.138C800.9 490.219 805.377 485.235 810.323 482.314Z"/>
	<path fill="#1A2563" d="M810.323 482.314C811.119 492.444 811.363 502.716 811.083 512.874C793.726 525.877 775.233 540.894 763.264 559.212C755.159 571.617 749.537 585.333 743.252 598.686C726.332 634.63 701.39 637.326 665.023 637.564L663.747 637.923C654.674 637.948 645.268 638.606 636.335 640.235C636.51 639.318 636.596 638.939 637.208 638.215C639.832 635.113 643.335 632.31 646.246 629.44C658.264 617.591 676.776 600.395 682.602 584.702C699.038 573.64 715.266 562.001 730.925 549.856C741.282 541.824 751.261 533.348 761.742 525.467C772.74 517.435 786.378 503.644 796.66 494.138C800.9 490.219 805.377 485.235 810.323 482.314Z"/>
	<path fill="#364286" d="M761.742 525.467L763.05 525.855C762.528 529.526 759.323 533.846 757.362 537.064C748.176 552.144 738.122 561.997 724.215 572.545C718.164 577.133 711.956 581.531 706.827 587.183C698.663 596.177 691.852 606.235 684.341 615.751C678.316 623.384 671.652 630.46 665.023 637.564L663.747 637.923C654.674 637.948 645.268 638.606 636.335 640.235C636.51 639.318 636.596 638.939 637.208 638.215C639.832 635.113 643.335 632.31 646.246 629.44C658.264 617.591 676.776 600.395 682.602 584.702C699.038 573.64 715.266 562.001 730.925 549.856C741.282 541.824 751.261 533.348 761.742 525.467Z"/>
	<path fill="#1B90C2" d="M636.335 640.235C645.268 638.606 654.674 637.948 663.747 637.923C659.193 645.307 645.566 655.215 638.42 661.216C611.378 683.924 581.302 704.273 549.063 718.856C528.832 728.008 507.536 735.204 486.451 742.116C467.231 748.416 448.047 754.647 428.35 759.322C420.376 761.214 412.323 762.674 404.322 764.427C394.895 764.946 385.458 765.329 376.019 765.559L375.592 766.56C375.425 766.61 375.25 766.64 375.09 766.711C373.391 767.461 367.368 773.8 366.503 775.409C366.202 775.97 365.899 776.519 365.611 777.088C364.215 777.27 362.976 776.485 361.738 775.92L359.859 776.237C356.516 775.395 344.237 767.524 341.444 765.034L341.491 763.933L341.588 763.395L339.282 763.692C335.833 764.638 332.442 764.999 328.89 765.343C324.388 763.03 320.138 759.249 316.116 756.164L314.312 754.425C310.052 752.106 306.116 748.043 302.45 744.859L297.072 739.786L296.956 739.394C294.279 736.89 291.774 734.205 289.24 731.558C285.766 728.395 282.608 724.864 279.452 721.39C277.83 719.437 276.325 717.4 274.808 715.366C277.687 714.506 280.674 713.903 283.586 713.151L285.728 713.011C305.759 709.471 325.663 703.977 345.297 698.688L346.056 698.576C354.933 702.054 369.035 706.04 378.32 707.943L379.939 707.725C384.036 708.935 388.186 709.867 392.349 710.81L392.913 710.868C402.565 715.842 413.543 717.063 423.835 720.105L424.387 720.008C434.21 722.406 443.953 724.612 453.649 727.522L455.109 727.552C455.579 726.981 456.011 726.624 456.651 726.245C461.948 723.106 467.947 720.82 473.499 718.149L508.396 701.206C517.946 696.559 527.564 692.006 536.997 687.124C544.858 683.056 552.654 678.496 560.747 674.924C562.646 674.085 563.811 673.638 565.874 674.119C583.802 656.568 607.911 646.647 632.01 641.233C633.447 640.877 634.888 640.551 636.335 640.235Z"/>
	<path fill="#007290" d="M359.859 776.237C356.516 775.395 344.237 767.524 341.444 765.034L341.491 763.933C352.674 766.01 364.673 765.684 376.019 765.559L375.592 766.56C375.425 766.61 375.25 766.64 375.09 766.711C373.391 767.461 367.368 773.8 366.503 775.409C366.202 775.97 365.899 776.519 365.611 777.088C364.215 777.27 362.976 776.485 361.738 775.92L359.859 776.237Z"/>
	<path fill="#6BD1D7" d="M565.874 674.119C583.802 656.568 607.911 646.647 632.01 641.233C627.176 646.795 620.969 651.16 615.07 655.523C598.25 667.964 580.91 678.434 562.581 688.505C558 691.022 551.208 695.946 545.972 696.389C552.859 689.251 559.009 681.338 565.874 674.119Z"/>
	<path fill="#364286" d="M455.109 727.552C455.579 726.981 456.011 726.624 456.651 726.245C461.948 723.106 467.947 720.82 473.499 718.149L508.396 701.206C517.946 696.559 527.564 692.006 536.997 687.124C544.858 683.056 552.654 678.496 560.747 674.924C562.646 674.085 563.811 673.638 565.874 674.119C559.009 681.338 552.859 689.251 545.972 696.389C528.962 712.787 508.704 734.722 483.15 734.38C473.359 734.249 464.178 730.901 455.109 727.552Z"/>
	<path fill="#5AE7EF" d="M345.297 698.688L346.056 698.576C354.933 702.054 369.035 706.04 378.32 707.943L379.939 707.725C384.036 708.935 388.186 709.867 392.349 710.81L392.913 710.868C402.565 715.842 413.543 717.063 423.835 720.105L424.387 720.008C434.21 722.406 443.953 724.612 453.649 727.522C440.306 737.11 382.036 752.312 363.416 757.349C356.775 759.145 347.565 760.093 341.588 763.395L339.282 763.692C335.833 764.638 332.442 764.999 328.89 765.343C324.388 763.03 320.138 759.249 316.116 756.164L314.312 754.425C310.052 752.106 306.116 748.043 302.45 744.859L297.072 739.786L296.956 739.394C294.279 736.89 291.774 734.205 289.24 731.558C285.766 728.395 282.608 724.864 279.452 721.39C277.83 719.437 276.325 717.4 274.808 715.366C277.687 714.506 280.674 713.903 283.586 713.151L285.728 713.011C305.759 709.471 325.663 703.977 345.297 698.688Z"/>
	<path fill="#AAEBF0" d="M300.347 730.047L300.849 730.125C303.187 732.094 305.692 734.003 307.887 736.123L308.331 736.244C313.922 741.46 319.641 746.566 325.139 751.877C321.547 752.818 317.976 753.802 314.312 754.425C310.052 752.106 306.116 748.043 302.45 744.859L297.072 739.786L296.956 739.394C294.279 736.89 291.774 734.205 289.24 731.558C293.195 731.72 296.547 731.01 300.347 730.047Z"/>
	<path fill="#5AE7EF" d="M300.347 730.047L300.849 730.125C303.187 732.094 305.692 734.003 307.887 736.123C304.467 736.687 299.615 736.934 296.956 739.394C294.279 736.89 291.774 734.205 289.24 731.558C293.195 731.72 296.547 731.01 300.347 730.047Z"/>
	<path fill="#6BD1D7" d="M378.32 707.943L379.939 707.725C384.036 708.935 388.186 709.867 392.349 710.81C383.199 715.875 371.674 718.215 361.66 721.245C344.02 726.583 326.357 732.331 308.331 736.244L307.887 736.123C305.692 734.003 303.187 732.094 300.849 730.125C306.474 728.186 312.419 726.84 318.161 725.251L353.175 715.769C360.465 713.83 372.004 711.825 378.32 707.943Z"/>
	<path fill="#5AE7EF" d="M345.297 698.688L346.056 698.576C354.933 702.054 369.035 706.04 378.32 707.943C372.004 711.825 360.465 713.83 353.175 715.769L318.161 725.251C312.419 726.84 306.474 728.186 300.849 730.125L300.347 730.047C296.547 731.01 293.195 731.72 289.24 731.558C285.766 728.395 282.608 724.864 279.452 721.39C277.83 719.437 276.325 717.4 274.808 715.366C277.687 714.506 280.674 713.903 283.586 713.151L285.728 713.011C305.759 709.471 325.663 703.977 345.297 698.688Z"/>
	<path fill="#AAEBF0" d="M283.586 713.151L285.728 713.011C289.644 719.884 295.887 723.843 300.347 730.047C296.547 731.01 293.195 731.72 289.24 731.558C285.766 728.395 282.608 724.864 279.452 721.39C277.83 719.437 276.325 717.4 274.808 715.366C277.687 714.506 280.674 713.903 283.586 713.151Z"/>
	<path fill="#6BD1D7" d="M423.835 720.105L424.387 720.008C434.21 722.406 443.953 724.612 453.649 727.522C440.306 737.11 382.036 752.312 363.416 757.349C356.775 759.145 347.565 760.093 341.588 763.395L339.282 763.692C335.684 759.804 329.518 755.917 325.335 752.129C342.998 747.098 360.452 741.397 377.998 735.98C389.564 732.409 414.629 726.31 423.835 720.105Z"/>
	<path fill="#1A2563" d="M404.322 764.427C404.884 764.67 405.456 764.899 406.046 765.069C417.36 768.312 442.138 766.377 454.16 765.051C548.362 754.661 643.656 703.104 719.143 647.64C735.55 635.584 751.791 623.369 767.544 610.464C774.68 604.617 792.831 587.209 799.765 583.729C799.924 583.649 800.086 583.574 800.247 583.496C797.054 594.457 793.543 609.419 787.386 618.988C780.891 634.311 773.675 649.272 764.819 663.388C760.152 664.647 722.828 692.337 714.547 697.858C695.967 710.245 677.041 722.232 658.105 734.064C630.967 751.02 603.078 767.514 574.547 782.016C561.436 788.68 548.199 795.065 534.982 801.514C527.749 805.043 520.085 808.446 513.155 812.508L509.65 813.345C500.604 811.778 490.626 812.569 481.412 811.913C468.166 810.97 454.992 808.319 442.011 805.642C422.785 806.067 377.049 785.693 359.859 776.237L361.738 775.92C362.976 776.485 364.215 777.27 365.611 777.088C365.899 776.519 366.202 775.97 366.503 775.409C367.368 773.8 373.391 767.461 375.09 766.711C375.25 766.64 375.425 766.61 375.592 766.56L376.019 765.559C385.458 765.329 394.895 764.946 404.322 764.427Z"/>
	<defs>
		<linearGradient id="gradient_5" gradientUnits="userSpaceOnUse" x1="617.84192" y1="734.60754" x2="556.86334" y2="643.82922">
			<stop offset="0" stop-color="#0D2C5C"/>
			<stop offset="1" stop-color="#016F8E"/>
		</linearGradient>
	</defs>
	<path fill="url(#gradient_5)" d="M404.322 764.427C404.884 764.67 405.456 764.899 406.046 765.069C417.36 768.312 442.138 766.377 454.16 765.051C548.362 754.661 643.656 703.104 719.143 647.64C735.55 635.584 751.791 623.369 767.544 610.464C774.68 604.617 792.831 587.209 799.765 583.729C799.924 583.649 800.086 583.574 800.247 583.496C797.054 594.457 793.543 609.419 787.386 618.988C783.351 618.892 780.618 621.61 777.545 623.889C760.474 636.547 744.095 650.112 726.799 662.469C680.149 695.794 625.474 728.908 572.499 750.579C543.43 762.47 513.683 771.52 483.264 779.219C471.92 782.089 460.363 784.114 448.891 786.385C441.852 787.779 434.855 789.509 427.782 790.703C419.821 792.048 411.648 792.601 403.781 794.388C412.594 797.633 436.057 802.205 442.011 805.642C422.785 806.067 377.049 785.693 359.859 776.237L361.738 775.92C362.976 776.485 364.215 777.27 365.611 777.088C365.899 776.519 366.202 775.97 366.503 775.409C367.368 773.8 373.391 767.461 375.09 766.711C375.25 766.64 375.425 766.61 375.592 766.56L376.019 765.559C385.458 765.329 394.895 764.946 404.322 764.427Z"/>
	<defs>
		<linearGradient id="gradient_6" gradientUnits="userSpaceOnUse" x1="513.21442" y1="386.03195" x2="513.8877" y2="697.13446">
			<stop offset="0" stop-color="#103B91"/>
			<stop offset="1" stop-color="#1357B9"/>
		</linearGradient>
	</defs>
	<path fill="url(#gradient_6)" d="M662.105 283.629L662.536 283.468C667.212 289.035 672.694 293.826 677.364 299.358C686.844 310.586 697.57 329.315 701.54 343.679L701.693 344.565C707.743 359.31 710.904 375.05 712.313 390.887C712.924 397.757 712.846 405.187 714.199 411.918C721.536 402.739 731.193 394.287 741.901 389.294C757.334 382.098 772.951 385.346 788.329 390.981C792.826 398.378 801.197 421.79 802.13 430.338C803.9 437.419 805.357 444.48 806.695 451.654C807.13 454.531 807.795 457.54 807.988 460.434C808.96 467.719 809.502 475.017 810.323 482.314C805.377 485.235 800.9 490.219 796.66 494.138C786.378 503.644 772.74 517.435 761.742 525.467C751.261 533.348 741.282 541.824 730.925 549.856C715.266 562.001 699.038 573.64 682.602 584.702C676.776 600.395 658.264 617.591 646.246 629.44C643.335 632.31 639.832 635.113 637.208 638.215C636.596 638.939 636.51 639.318 636.335 640.235C634.888 640.551 633.447 640.877 632.01 641.233C607.911 646.647 583.802 656.568 565.874 674.119C563.811 673.638 562.646 674.085 560.747 674.924C552.654 678.496 544.858 683.056 536.997 687.124C527.564 692.006 517.946 696.559 508.396 701.206L473.499 718.149C467.947 720.82 461.948 723.106 456.651 726.245C456.011 726.624 455.579 726.981 455.109 727.552L453.649 727.522C443.953 724.612 434.21 722.406 424.387 720.008L423.835 720.105C413.543 717.063 402.565 715.842 392.913 710.868L392.349 710.81C388.186 709.867 384.036 708.935 379.939 707.725L378.32 707.943C369.035 706.04 354.933 702.054 346.056 698.576L345.297 698.688C325.663 703.977 305.759 709.471 285.728 713.011L283.586 713.151C274.498 705.639 261.093 684.695 255.625 673.777C246.524 658.336 237.761 642.013 231.906 625.028C229.172 625.965 226.634 626.756 223.761 627.171L221.949 622.328L216.528 605.895L216.62 605.651C214.764 601.394 213.705 596.648 212.658 592.137C215.474 592.142 218.219 592.292 220.829 591.112C218.26 582.516 216.844 573.327 215.167 564.51C220.79 566.474 226.386 568.598 232.051 570.428C232.018 566.932 231.154 563.22 230.705 559.738C230.093 555.005 229.908 550.422 229.969 545.651L229.168 544.06C230.219 537.115 229.256 529.825 229.131 522.826C228.986 514.725 229.209 506.591 229.308 498.488C240.402 494.009 252.015 489.777 262.417 483.812C281.005 473.152 296.875 456.41 318.603 452.122C335.141 448.858 350.235 455.879 365.503 461.076C388.916 469.047 411.855 468.763 434.963 459.784C449.705 454.055 461.784 443.91 467.917 429.144C470.76 422.301 472.804 415.147 475.854 408.381C490.038 376.917 522.608 365.637 554.389 359.917C572.607 356.639 590.686 355.079 608.141 348.397C634.136 338.446 644.216 325.171 655.286 300.524C658.091 295.01 660.276 289.541 662.105 283.629Z"/>
	<path fill="#8EA4E5" d="M224.666 604.782L224.913 604.858C226.72 611.761 229.322 618.386 231.906 625.028C229.172 625.965 226.634 626.756 223.761 627.171L221.949 622.328L216.528 605.895L216.62 605.651C219.318 605.516 221.988 605.127 224.666 604.782Z"/>
	<path fill="#20B3EE" d="M559.009 575.49C560.498 575.439 562.01 575.348 563.451 575.798C565.333 576.386 567.142 578.129 568.033 579.851C568.942 581.607 569.078 583.585 568.437 585.455C567.529 588.104 565.612 589.275 563.249 590.52C562.159 590.55 561.021 590.564 559.937 590.423C557.791 590.143 555.518 588.881 554.301 587.064C553.317 585.595 553.106 583.91 553.447 582.197C554.098 578.922 556.383 577.237 559.009 575.49Z"/>
	<path fill="#20B3EE" d="M448.421 595.035C449.358 594.984 450.319 594.925 451.257 595C453.733 595.199 456.45 596.676 457.948 598.652C459.364 600.518 459.761 602.712 459.374 604.993C458.791 608.428 456.641 610.08 453.923 611.969C452.787 612.019 451.623 612.088 450.488 612.001C448.023 611.813 445.346 610.257 443.911 608.259C442.716 606.594 442.312 604.57 442.656 602.561C443.256 599.059 445.613 596.93 448.421 595.035Z"/>
	<path fill="#1B90C2" d="M255.625 673.777C271.45 676.72 286.734 680.453 302.147 685.111C316.588 689.474 330.794 694.505 345.297 698.688C325.663 703.977 305.759 709.471 285.728 713.011L283.586 713.151C274.498 705.639 261.093 684.695 255.625 673.777Z"/>
	<path fill="#1B90C2" d="M713.489 414.044C713.005 421.933 712.488 429.729 711.05 437.517C705.803 465.931 692.027 496.112 670.147 515.367C654.054 529.529 632.827 538.921 611.38 540.789C615.5 535.732 618.808 529.734 622.177 524.155C632.544 506.991 643.991 488.202 648.868 468.56L649.477 467.799C662.914 462.909 689.075 439.325 699.927 428.453C704.589 423.783 708.77 418.646 713.489 414.044Z"/>
	<path fill="#8EA4E5" d="M630.334 565.769C630.237 565.944 630.151 566.125 630.043 566.293C629.568 567.033 629.137 567.405 628.517 567.993C626.83 569.595 626.652 570.943 626.631 573.193C626.593 577.208 627.064 584.781 629.806 587.65C619.654 593.568 609.822 600.024 599.635 605.886C555.916 631.043 511.252 654.354 465.073 674.67C445.097 683.459 424.779 691.764 404.369 699.499C398.924 701.563 393.399 703.481 387.848 705.243C385.285 706.057 382.344 706.596 379.939 707.725L378.32 707.943C369.035 706.04 354.933 702.054 346.056 698.576C360.523 694.898 374.731 690.044 388.856 685.242C473.959 656.309 554.026 612.803 630.334 565.769Z"/>
	<path fill="#20B3EE" d="M215.167 564.51C220.79 566.474 226.386 568.598 232.051 570.428C241.783 571.752 251.742 575.553 261.374 577.781C279.576 581.992 298.422 585.075 316.932 587.539C335.355 589.992 354.113 591.725 372.662 592.84C382.13 593.409 393.366 592.548 402.541 594.47C400.922 599.438 396.088 602.759 394.68 608.079C389.901 613.726 385.645 619.841 380.741 625.372C370.762 636.628 357.127 645.137 342.421 648.476C308.548 656.167 282.517 634.63 255.64 617.861C248.806 613.597 232.869 603.01 224.913 604.858L224.666 604.782C221.988 605.127 219.318 605.516 216.62 605.651C214.764 601.394 213.705 596.648 212.658 592.137C215.474 592.142 218.219 592.292 220.829 591.112C218.26 582.516 216.844 573.327 215.167 564.51Z"/>
	<path fill="#59CCFA" d="M220.829 591.112C222.124 595.664 223.437 600.212 224.666 604.782C221.988 605.127 219.318 605.516 216.62 605.651C214.764 601.394 213.705 596.648 212.658 592.137C215.474 592.142 218.219 592.292 220.829 591.112Z"/>
	<path fill="#1B90C2" d="M478.958 522.62C484.347 522.233 489.861 521.021 495.25 521.088C522.901 521.436 547.808 533.855 574.529 538.878C582.167 540.314 589.924 541.068 597.694 541.17C601.486 541.22 605.833 540.64 609.543 541.214C607.775 544.274 606.448 547.613 604.308 550.433C559.175 570.778 510.31 587.017 460.954 592.672C441.949 594.85 422.659 595.25 403.541 595.151C401.605 599.476 398.611 605.278 394.68 608.079C396.088 602.759 400.922 599.438 402.541 594.47C402.956 594.354 403.494 593.928 403.753 593.63C406.528 590.449 408.855 585.85 411.298 582.286C417.748 572.876 424.231 563.568 431.614 554.853C444.787 539.304 460.018 529.649 478.958 522.62Z"/>
	<defs>
		<linearGradient id="gradient_7" gradientUnits="userSpaceOnUse" x1="585.74481" y1="562.61346" x2="610.04303" y2="611.55029">
			<stop offset="0" stop-color="#002D88"/>
			<stop offset="1" stop-color="#2942AF"/>
		</linearGradient>
	</defs>
	<path fill="url(#gradient_7)" d="M802.13 430.338C803.9 437.419 805.357 444.48 806.695 451.654C807.13 454.531 807.795 457.54 807.988 460.434C808.96 467.719 809.502 475.017 810.323 482.314C805.377 485.235 800.9 490.219 796.66 494.138C786.378 503.644 772.74 517.435 761.742 525.467C751.261 533.348 741.282 541.824 730.925 549.856C715.266 562.001 699.038 573.64 682.602 584.702C676.776 600.395 658.264 617.591 646.246 629.44C643.335 632.31 639.832 635.113 637.208 638.215C636.596 638.939 636.51 639.318 636.335 640.235C634.888 640.551 633.447 640.877 632.01 641.233C607.911 646.647 583.802 656.568 565.874 674.119C563.811 673.638 562.646 674.085 560.747 674.924C552.654 678.496 544.858 683.056 536.997 687.124C527.564 692.006 517.946 696.559 508.396 701.206L473.499 718.149C467.947 720.82 461.948 723.106 456.651 726.245C456.011 726.624 455.579 726.981 455.109 727.552L453.649 727.522C443.953 724.612 434.21 722.406 424.387 720.008L423.835 720.105C413.543 717.063 402.565 715.842 392.913 710.868L392.349 710.81C388.186 709.867 384.036 708.935 379.939 707.725C382.344 706.596 385.285 706.057 387.848 705.243C393.399 703.481 398.924 701.563 404.369 699.499C424.779 691.764 445.097 683.459 465.073 674.67C511.252 654.354 555.916 631.043 599.635 605.886C609.822 600.024 619.654 593.568 629.806 587.65C627.064 584.781 626.593 577.208 626.631 573.193C626.652 570.943 626.83 569.595 628.517 567.993C629.137 567.405 629.568 567.033 630.043 566.293C630.151 566.125 630.237 565.944 630.334 565.769C636.224 559.914 655.139 549.493 663.148 544.113C679.388 533.203 695.151 521.29 710.541 509.215C732.082 492.316 753.225 474.739 773.702 456.565C783.271 448.072 791.87 437.915 802.13 430.338Z"/>
	<defs>
		<linearGradient id="gradient_8" gradientUnits="userSpaceOnUse" x1="804.02002" y1="537.91968" x2="658.93219" y2="525.3363">
			<stop offset="0" stop-color="#3C418E"/>
			<stop offset="1" stop-color="#7581CB"/>
		</linearGradient>
	</defs>
	<path fill="url(#gradient_8)" d="M807.988 460.434C808.96 467.719 809.502 475.017 810.323 482.314C805.377 485.235 800.9 490.219 796.66 494.138C786.378 503.644 772.74 517.435 761.742 525.467C751.261 533.348 741.282 541.824 730.925 549.856C715.266 562.001 699.038 573.64 682.602 584.702C674.451 589.21 662.641 598.899 654.961 602.145L655 601.266C654.427 601.287 653.852 601.281 653.278 601.266C651.963 598.891 653.368 592.141 653.627 589.298C653.828 587.094 654.387 584.391 652.922 582.631C656.974 578.735 666.597 573.509 671.726 570.054C685.698 560.644 699.739 551.028 713.199 540.906C729.606 528.567 745.731 515.957 761.247 502.506C777.092 488.77 792.253 474.286 807.988 460.434Z"/>
	<path fill="#5561A7" d="M802.13 430.338C803.9 437.419 805.357 444.48 806.695 451.654C788.838 468.011 770.936 484.443 752.312 499.923C728.201 519.964 703.035 538.615 677.351 556.575C667.427 563.514 657.558 570.76 647.342 577.262C641.612 580.907 635.607 584.118 629.806 587.65C627.064 584.781 626.593 577.208 626.631 573.193C626.652 570.943 626.83 569.595 628.517 567.993C629.137 567.405 629.568 567.033 630.043 566.293C630.151 566.125 630.237 565.944 630.334 565.769C636.224 559.914 655.139 549.493 663.148 544.113C679.388 533.203 695.151 521.29 710.541 509.215C732.082 492.316 753.225 474.739 773.702 456.565C783.271 448.072 791.87 437.915 802.13 430.338Z"/>
	<path fill="#8EA4E5" d="M604.939 612.232C610.642 606.568 620.224 602.664 627.194 598.529C635.861 593.389 644.331 587.897 652.922 582.631C654.387 584.391 653.828 587.094 653.627 589.298C653.368 592.141 651.963 598.891 653.278 601.266C653.852 601.281 654.427 601.287 655 601.266L654.961 602.145C662.641 598.899 674.451 589.21 682.602 584.702C676.776 600.395 658.264 617.591 646.246 629.44C643.335 632.31 639.832 635.113 637.208 638.215C636.596 638.939 636.51 639.318 636.335 640.235C634.888 640.551 633.447 640.877 632.01 641.233C607.911 646.647 583.802 656.568 565.874 674.119C563.811 673.638 562.646 674.085 560.747 674.924C552.654 678.496 544.858 683.056 536.997 687.124C527.564 692.006 517.946 696.559 508.396 701.206L473.499 718.149C467.947 720.82 461.948 723.106 456.651 726.245C456.011 726.624 455.579 726.981 455.109 727.552L453.649 727.522C443.953 724.612 434.21 722.406 424.387 720.008L423.835 720.105C413.543 717.063 402.565 715.842 392.913 710.868C413.801 704.814 433.897 696.161 453.878 687.655C490.971 671.864 527.313 654.595 562.954 635.752C577.155 628.244 590.47 619.267 604.939 612.232Z"/>
	<path fill="#7681CB" d="M604.939 612.232C610.642 606.568 620.224 602.664 627.194 598.529C635.861 593.389 644.331 587.897 652.922 582.631C654.387 584.391 653.828 587.094 653.627 589.298C653.368 592.141 651.963 598.891 653.278 601.266C653.852 601.281 654.427 601.287 655 601.266L654.961 602.145C652.717 603.644 650.478 605.354 648.016 606.468C647.99 600.249 647.897 594.257 646.778 588.115C638.796 593.115 612.236 611.254 604.939 612.232Z"/>
	<path fill="#21539A" d="M682.602 584.702C676.776 600.395 658.264 617.591 646.246 629.44C643.335 632.31 639.832 635.113 637.208 638.215C636.596 638.939 636.51 639.318 636.335 640.235C634.888 640.551 633.447 640.877 632.01 641.233C607.911 646.647 583.802 656.568 565.874 674.119C563.811 673.638 562.646 674.085 560.747 674.924C552.654 678.496 544.858 683.056 536.997 687.124C527.564 692.006 517.946 696.559 508.396 701.206L473.499 718.149C467.947 720.82 461.948 723.106 456.651 726.245C456.011 726.624 455.579 726.981 455.109 727.552L453.649 727.522C443.953 724.612 434.21 722.406 424.387 720.008C434.406 715.195 445.244 711.636 455.505 707.297C474.63 699.212 493.565 690.506 512.375 681.711C536.504 670.431 560.687 658.145 583.88 645.043C605.598 632.774 626.797 619.574 648.016 606.468C650.478 605.354 652.717 603.644 654.961 602.145C662.641 598.899 674.451 589.21 682.602 584.702Z"/>
	<path fill="#59CCFA" d="M670.239 379.825C681.989 368.926 691.96 357.261 701.693 344.565C707.743 359.31 710.904 375.05 712.313 390.887C712.924 397.757 712.846 405.187 714.199 411.918L713.489 414.044C708.77 418.646 704.589 423.783 699.927 428.453C689.075 439.325 662.914 462.909 649.477 467.799L648.868 468.56C643.991 488.202 632.544 506.991 622.177 524.155C618.808 529.734 615.5 535.732 611.38 540.789L609.543 541.214C605.833 540.64 601.486 541.22 597.694 541.17C589.924 541.068 582.167 540.314 574.529 538.878C547.808 533.855 522.901 521.436 495.25 521.088C489.861 521.021 484.347 522.233 478.958 522.62C460.018 529.649 444.787 539.304 431.614 554.853C424.231 563.568 417.748 572.876 411.298 582.286C408.855 585.85 406.528 590.449 403.753 593.63C403.494 593.928 402.956 594.354 402.541 594.47C393.366 592.548 382.13 593.409 372.662 592.84C354.113 591.725 335.355 589.992 316.932 587.539C298.422 585.075 279.576 581.992 261.374 577.781C251.742 575.553 241.783 571.752 232.051 570.428C232.018 566.932 231.154 563.22 230.705 559.738C230.093 555.005 229.908 550.422 229.969 545.651C247.279 563.169 271.331 573.945 295.87 575.343C304.983 575.862 315.557 574.954 323.96 571.142C348.145 560.172 365.257 521.228 385.856 502.927C392.249 497.248 399.578 493.059 407.516 489.922C436.231 478.571 463.175 488.557 492.254 490.315C552.654 493.967 540.557 435.501 576.536 408.344C600.078 390.575 626.337 406.596 650.549 394.858C657.64 391.42 663.534 386.068 669.389 380.896L670.239 379.825Z"/>
	<path fill="#20B3EE" d="M670.239 379.825C681.989 368.926 691.96 357.261 701.693 344.565C707.743 359.31 710.904 375.05 712.313 390.887C712.924 397.757 712.846 405.187 714.199 411.918L713.489 414.044C708.77 418.646 704.589 423.783 699.927 428.453C689.075 439.325 662.914 462.909 649.477 467.799C657.733 445.083 670.399 404.976 669.389 380.896L670.239 379.825Z"/>
	<path fill="#20B3EE" d="M478.958 522.62C488.185 516.533 531.731 508.915 545.133 505.943C558.35 503.012 571.562 499.897 584.513 495.929C597.996 491.798 611.418 486.625 624.199 480.655C632.498 476.779 640.554 472.414 648.868 468.56C643.991 488.202 632.544 506.991 622.177 524.155C618.808 529.734 615.5 535.732 611.38 540.789L609.543 541.214C605.833 540.64 601.486 541.22 597.694 541.17C589.924 541.068 582.167 540.314 574.529 538.878C547.808 533.855 522.901 521.436 495.25 521.088C489.861 521.021 484.347 522.233 478.958 522.62Z"/>
	<defs>
		<linearGradient id="gradient_9" gradientUnits="userSpaceOnUse" x1="476.60974" y1="517.74774" x2="429.11588" y2="379.37216">
			<stop offset="0" stop-color="#008DAB"/>
			<stop offset="1" stop-color="#33C1C2"/>
		</linearGradient>
	</defs>
	<path fill="url(#gradient_9)" d="M662.105 283.629L662.536 283.468C667.212 289.035 672.694 293.826 677.364 299.358C686.844 310.586 697.57 329.315 701.54 343.679L701.693 344.565C691.96 357.261 681.989 368.926 670.239 379.825L669.389 380.896C663.534 386.068 657.64 391.42 650.549 394.858C626.337 406.596 600.078 390.575 576.536 408.344C540.557 435.501 552.654 493.967 492.254 490.315C463.175 488.557 436.231 478.571 407.516 489.922C399.578 493.059 392.249 497.248 385.856 502.927C365.257 521.228 348.145 560.172 323.96 571.142C315.557 574.954 304.983 575.862 295.87 575.343C271.331 573.945 247.279 563.169 229.969 545.651L229.168 544.06C230.219 537.115 229.256 529.825 229.131 522.826C228.986 514.725 229.209 506.591 229.308 498.488C240.402 494.009 252.015 489.777 262.417 483.812C281.005 473.152 296.875 456.41 318.603 452.122C335.141 448.858 350.235 455.879 365.503 461.076C388.916 469.047 411.855 468.763 434.963 459.784C449.705 454.055 461.784 443.91 467.917 429.144C470.76 422.301 472.804 415.147 475.854 408.381C490.038 376.917 522.608 365.637 554.389 359.917C572.607 356.639 590.686 355.079 608.141 348.397C634.136 338.446 644.216 325.171 655.286 300.524C658.091 295.01 660.276 289.541 662.105 283.629Z"/>
	<path fill="#FEFEFE" d="M297.457 506.614C298.852 506.886 299.631 507.163 300.561 508.265C301.01 509.981 300.406 511.282 299.86 512.891C298.554 512.26 297.685 511.856 296.827 510.62C296.406 508.992 296.853 508.093 297.457 506.614Z"/>
	<path fill="#FEFEFE" d="M629.54 365.285C630.506 365.396 631.571 365.791 632.32 366.426C633.199 367.17 633.515 368.107 633.428 369.23C633.306 370.805 632.018 371.78 630.935 372.756C630.201 372.483 629.342 372.214 628.688 371.783C627.741 371.159 627.169 370.178 627.196 369.034C627.232 367.536 628.59 366.309 629.54 365.285Z"/>
	<path fill="#FEFEFE" d="M341.121 482.978C342.239 483.173 343.573 483.399 344.603 483.895C345.691 484.419 346.682 485.5 346.915 486.702C347.397 489.202 345.663 491.227 344.181 492.989C342.308 492.535 340.536 492.087 339.214 490.582C338.359 489.609 337.828 488.533 338.038 487.2C338.339 485.287 339.7 484.121 341.121 482.978Z"/>
	<path fill="#FEFEFE" d="M506.086 425.907C507.808 425.929 509.653 426.114 511.069 427.211C512.084 427.997 512.616 429.141 512.577 430.421C512.51 432.677 511.08 434.135 509.599 435.656C507.883 435.568 505.92 435.374 504.578 434.152C503.569 433.232 503.02 432.235 503.099 430.834C503.223 428.645 504.633 427.348 506.086 425.907Z"/>
	<path fill="#1B90C2" d="M662.105 283.629L662.536 283.468C667.212 289.035 672.694 293.826 677.364 299.358C686.844 310.586 697.57 329.315 701.54 343.679L701.693 344.565C691.96 357.261 681.989 368.926 670.239 379.825C669.733 372.545 670.504 365.238 670.355 357.946C670.022 341.598 667.29 325.311 661.08 310.145C659.925 307.322 658.784 304.128 657.064 301.593C656.332 300.514 656.431 300.763 655.286 300.524C658.091 295.01 660.276 289.541 662.105 283.629Z"/>
	<path fill="#1A2563" d="M109.472 661.23C97.4996 627.607 91.9859 590.773 89.712 555.252C84.0893 467.42 105.129 376.67 149.343 300.453C163.834 275.473 181.664 251.589 200.746 229.967C272.094 149.122 376.19 95.8931 484.149 89.1713C564.165 84.1893 640.91 99.4914 711.625 137.826C735.059 150.53 757.593 165.452 777.767 182.915C792.428 195.605 806.466 209.056 819.45 223.472C823.331 227.78 827.126 232.243 830.76 236.762C832.777 239.271 834.962 243.063 837.422 245.037C837.579 245.162 837.753 245.263 837.918 245.376C825.931 248.238 813.78 250.416 801.775 253.215C789.008 256.191 776.308 259.864 763.796 263.78C755.34 266.426 746.953 269.258 738.69 272.46C731.845 275.113 724.238 279.081 717.043 280.403C705.417 270.011 693.382 259.95 680.487 251.154C671.134 244.773 661.306 239.142 651.585 233.352C649.82 234.873 648.132 236.194 646.145 237.416C646.762 237.903 647.367 238.378 647.95 238.905C654.804 245.107 665.06 248.311 672.711 253.688C669.135 263.559 666.523 273.757 662.536 283.468L662.105 283.629C660.276 289.541 658.091 295.01 655.286 300.524C644.216 325.171 634.136 338.446 608.141 348.397C590.686 355.079 572.607 356.639 554.389 359.917C522.608 365.637 490.038 376.917 475.854 408.381C472.804 415.147 470.76 422.301 467.917 429.144C461.784 443.91 449.705 454.055 434.963 459.784C411.855 468.763 388.916 469.047 365.503 461.076C350.235 455.879 335.141 448.858 318.603 452.122C296.875 456.41 281.005 473.152 262.417 483.812C252.015 489.777 240.402 494.009 229.308 498.488C229.209 506.591 228.986 514.725 229.131 522.826C229.256 529.825 230.219 537.115 229.168 544.06L229.969 545.651C229.908 550.422 230.093 555.005 230.705 559.738C231.154 563.22 232.018 566.932 232.051 570.428C226.386 568.598 220.79 566.474 215.167 564.51C216.844 573.327 218.26 582.516 220.829 591.112C218.219 592.292 215.474 592.142 212.658 592.137L210.853 585.627L209.775 581.389C208.875 576.988 208.152 572.54 207.359 568.117C204.438 572.215 192.398 580.527 187.817 584.267C181.075 589.771 174.454 595.437 167.949 601.219C154.361 613.299 141.148 626.06 128.813 639.411C122.269 646.494 116.293 654.499 109.472 661.23Z"/>
	<path fill="#FEFEFE" d="M336.529 147.731C337.933 147.91 339.04 148.083 340.228 148.902C341.041 149.462 341.609 150.271 341.735 151.25C342.037 153.6 340.779 154.947 339.42 156.689C338.081 156.308 336.555 155.854 335.479 154.922C334.566 154.131 334.028 153.059 334.096 151.83C334.186 150.186 335.5 148.881 336.529 147.731Z"/>
	<path fill="#8EA4E5" d="M158.845 296.023C159.977 295.953 161.127 295.975 162.254 296.113C165.226 296.475 168.082 298.323 169.791 300.758C171.547 303.258 172.222 306.449 171.652 309.448C170.862 313.607 168.469 315.735 165.059 317.949C163.659 318.072 162.184 318.062 160.801 317.778C158.181 317.239 155.695 315.421 154.21 313.224C152.326 310.435 151.72 306.92 152.53 303.659C153.48 299.83 155.577 297.998 158.845 296.023Z"/>
	<path fill="#FEFEFE" d="M207.359 568.117C204.388 555.945 203.327 543.11 202.585 530.633C198.995 470.231 214.075 409.746 243.865 357.196C285.664 283.459 355.876 229.82 437.385 207.235C507.924 187.689 587.908 197.359 651.585 233.352C649.82 234.873 648.132 236.194 646.145 237.416L645.639 237.484C639.188 243.421 632.23 248.921 626.149 255.229L625.652 255.337C614.638 245.141 598.094 235.949 583.639 231.892L583.662 231.613C586.393 226.656 588.51 221.61 590.339 216.256C582.223 213.139 573.144 211.653 564.607 210.133C553.023 207.755 540.368 205.748 528.563 205.131C469.094 202.02 402.884 220.505 353.229 253.295C328.249 269.791 298.205 294.793 280.513 319.121C268.783 334.679 256.353 350.255 247.402 367.651C252.67 370.715 258.014 373.622 263.965 375.136C256.653 390.789 249.493 406.75 244.215 423.225C242.643 428.133 241.563 433.121 240.167 438.07L239.096 438.036C240.041 440.782 236.248 452.38 235.493 455.804C232.482 469.46 229.201 484.443 229.308 498.488C229.209 506.591 228.986 514.725 229.131 522.826C229.256 529.825 230.219 537.115 229.168 544.06L229.969 545.651C229.908 550.422 230.093 555.005 230.705 559.738C231.154 563.22 232.018 566.932 232.051 570.428C226.386 568.598 220.79 566.474 215.167 564.51C216.844 573.327 218.26 582.516 220.829 591.112C218.219 592.292 215.474 592.142 212.658 592.137L210.853 585.627L209.775 581.389C208.875 576.988 208.152 572.54 207.359 568.117Z"/>
	<path fill="#5AE7EF" d="M210.868 516.38C214.12 520.48 216.469 525.447 219.184 529.921C222.18 534.857 225.683 539.465 229.168 544.06L229.969 545.651C229.908 550.422 230.093 555.005 230.705 559.738C231.154 563.22 232.018 566.932 232.051 570.428C226.386 568.598 220.79 566.474 215.167 564.51C211.609 548.964 210.862 532.281 210.868 516.38Z"/>
	<path fill="#5AE7EF" d="M590.339 216.256C603.744 220.714 616.936 225.474 630.062 230.703C635.191 232.747 640.917 234.629 645.639 237.484C639.188 243.421 632.23 248.921 626.149 255.229L625.652 255.337C614.638 245.141 598.094 235.949 583.639 231.892L583.662 231.613C586.393 226.656 588.51 221.61 590.339 216.256Z"/>
	<path fill="#6BD1D7" d="M247.402 367.651C252.67 370.715 258.014 373.622 263.965 375.136C256.653 390.789 249.493 406.75 244.215 423.225C242.643 428.133 241.563 433.121 240.167 438.07L239.096 438.036C233.047 438.063 226.609 436.576 220.629 435.582C227.461 411.873 235.928 389.509 247.402 367.651Z"/>
	<defs>
		<linearGradient id="gradient_10" gradientUnits="userSpaceOnUse" x1="232.19414" y1="540.06219" x2="219.94243" y2="436.6846">
			<stop offset="0" stop-color="#047794"/>
			<stop offset="1" stop-color="#19A9B7"/>
		</linearGradient>
	</defs>
	<path fill="url(#gradient_10)" d="M220.629 435.582C226.609 436.576 233.047 438.063 239.096 438.036C240.041 440.782 236.248 452.38 235.493 455.804C232.482 469.46 229.201 484.443 229.308 498.488C229.209 506.591 228.986 514.725 229.131 522.826C229.256 529.825 230.219 537.115 229.168 544.06C225.683 539.465 222.18 534.857 219.184 529.921C216.469 525.447 214.12 520.48 210.868 516.38C208.047 490.959 215.565 460.508 220.629 435.582Z"/>
	<path fill="#AAEBF0" d="M280.513 319.121C298.205 294.793 328.249 269.791 353.229 253.295C402.884 220.505 469.094 202.02 528.563 205.131C540.368 205.748 553.023 207.755 564.607 210.133C559.702 210.658 554.058 216.556 549.906 219.225L548.574 219.601C548.498 219.793 548.44 219.994 548.346 220.177C545.433 225.834 528.67 236.207 523.143 239.982C474.988 272.87 423.768 303.692 366.759 318.151C347.719 322.98 326.839 325.686 307.211 324.246C304.873 324.074 302.333 324.137 300.056 323.609L299.143 323.444C292.987 321.808 286.688 320.757 280.513 319.121Z"/>
	<path fill="#FEFEFE" d="M300.056 323.609C301.251 318.807 307.354 313.479 310.689 309.843C330.863 287.846 352.817 268.465 378.473 253.054C401.623 239.149 426.347 228.162 453.023 223.24C461.005 221.767 469.994 220.465 477.996 222.568C479.572 222.983 481.074 223.606 482.48 224.424C483.963 225.744 485.315 226.878 485.456 229.013C485.629 231.619 483.642 234.017 481.83 235.653C470.648 245.748 439.73 254.876 424.825 260.897C409.179 267.218 393.628 273.774 378.408 281.071C363.803 288.074 349.399 295.784 335.372 303.888C330.036 306.97 304.608 323.457 301.312 323.562C301.063 323.57 300.814 323.592 300.565 323.602C300.396 323.608 300.226 323.606 300.056 323.609Z"/>
	<path fill="#6BD1D7" d="M549.906 219.225C554.058 216.556 559.702 210.658 564.607 210.133C573.144 211.653 582.223 213.139 590.339 216.256C588.51 221.61 586.393 226.656 583.662 231.613L583.639 231.892C578.991 240.964 574.243 249.833 568.443 258.23C533.516 308.796 475.59 346.586 417.593 365.304C377.514 378.239 304.821 389.351 264.416 375.072L263.965 375.136C258.014 373.622 252.67 370.715 247.402 367.651C256.353 350.255 268.783 334.679 280.513 319.121C286.688 320.757 292.987 321.808 299.143 323.444L300.056 323.609C302.333 324.137 304.873 324.074 307.211 324.246C326.839 325.686 347.719 322.98 366.759 318.151C423.768 303.692 474.988 272.87 523.143 239.982C528.67 236.207 545.433 225.834 548.346 220.177C548.44 219.994 548.498 219.793 548.574 219.601L549.906 219.225Z"/>
	<path fill="#AAEBF0" d="M474.619 298.431C474.92 298.439 475.221 298.442 475.522 298.455C478 298.563 480.59 299.483 482.183 301.466C483.367 302.941 483.787 304.826 483.435 306.673C482.89 309.537 480.79 311.139 478.539 312.729C477.501 312.816 476.419 312.922 475.394 312.692C473.584 312.286 471.832 311.173 470.858 309.574C469.831 307.887 469.675 305.788 470.119 303.894C470.775 301.099 472.312 299.961 474.619 298.431Z"/>
	<path fill="#FEFEFE" d="M329.312 344.033C332.1 344.433 334.752 345.095 336.581 347.418C337.745 348.895 338.165 350.586 337.792 352.44C337.234 355.211 335.037 356.819 332.809 358.238C332.699 358.228 332.589 358.215 332.479 358.206C331.412 358.116 330.313 358.06 329.265 357.83C327.116 357.359 325.125 355.727 324.108 353.801C323.324 352.316 323.211 350.668 323.8 349.096C324.72 346.642 327.051 345.11 329.312 344.033Z"/>
	<path fill="#5AE7EF" d="M549.906 219.225C554.058 216.556 559.702 210.658 564.607 210.133C573.144 211.653 582.223 213.139 590.339 216.256C588.51 221.61 586.393 226.656 583.662 231.613C576.761 228.864 569.742 226.252 562.654 224.027C558.641 222.767 553.842 222.093 550.096 220.31L549.906 219.225Z"/>
	<path fill="#5AE7EF" d="M280.513 319.121C286.688 320.757 292.987 321.808 299.143 323.444C285.018 338.9 274.052 356.566 264.416 375.072L263.965 375.136C258.014 373.622 252.67 370.715 247.402 367.651C256.353 350.255 268.783 334.679 280.513 319.121Z"/>
	<defs>
		<linearGradient id="gradient_11" gradientUnits="userSpaceOnUse" x1="461.63876" y1="452.48303" x2="424.03406" y2="309.68668">
			<stop offset="0" stop-color="#39B2BE"/>
			<stop offset="1" stop-color="#7ED7D9"/>
		</linearGradient>
	</defs>
	<path fill="url(#gradient_11)" d="M583.639 231.892C598.094 235.949 614.638 245.141 625.652 255.337L626.149 255.229C632.23 248.921 639.188 243.421 645.639 237.484L646.145 237.416C646.762 237.903 647.367 238.378 647.95 238.905C654.804 245.107 665.06 248.311 672.711 253.688C669.135 263.559 666.523 273.757 662.536 283.468L662.105 283.629C660.276 289.541 658.091 295.01 655.286 300.524C644.216 325.171 634.136 338.446 608.141 348.397C590.686 355.079 572.607 356.639 554.389 359.917C522.608 365.637 490.038 376.917 475.854 408.381C472.804 415.147 470.76 422.301 467.917 429.144C461.784 443.91 449.705 454.055 434.963 459.784C411.855 468.763 388.916 469.047 365.503 461.076C350.235 455.879 335.141 448.858 318.603 452.122C296.875 456.41 281.005 473.152 262.417 483.812C252.015 489.777 240.402 494.009 229.308 498.488C229.201 484.443 232.482 469.46 235.493 455.804C236.248 452.38 240.041 440.782 239.096 438.036L240.167 438.07C241.563 433.121 242.643 428.133 244.215 423.225C249.493 406.75 256.653 390.789 263.965 375.136L264.416 375.072C304.821 389.351 377.514 378.239 417.593 365.304C475.59 346.586 533.516 308.796 568.443 258.23C574.243 249.833 578.991 240.964 583.639 231.892Z"/>
	<path fill="#0E99A8" d="M645.639 237.484L646.145 237.416C646.762 237.903 647.367 238.378 647.95 238.905C654.804 245.107 665.06 248.311 672.711 253.688C669.135 263.559 666.523 273.757 662.536 283.468L662.105 283.629C657.748 281.056 653.725 276.996 649.905 273.686C642.26 267.063 634.775 260.581 626.149 255.229C632.23 248.921 639.188 243.421 645.639 237.484Z"/>
	<path fill="#AAEBF0" d="M583.639 231.892C598.094 235.949 614.638 245.141 625.652 255.337C618.748 265.29 608.318 273.442 599.272 281.395C574.069 303.552 546.736 323.642 517.845 340.724C487.411 358.718 455.136 372.107 422.802 386.131C378.658 405.278 334.481 426.389 286.767 434.971C276.006 436.906 249.497 440.368 240.167 438.07C241.563 433.121 242.643 428.133 244.215 423.225C249.493 406.75 256.653 390.789 263.965 375.136L264.416 375.072C304.821 389.351 377.514 378.239 417.593 365.304C475.59 346.586 533.516 308.796 568.443 258.23C574.243 249.833 578.991 240.964 583.639 231.892Z"/>
</svg>
