<?xml version="1.0" encoding="utf-8" ?>
<svg xmlns="http://www.w3.org/2000/svg" xmlns:xlink="http://www.w3.org/1999/xlink" width="1024" height="1024">
	<path fill="#165783" d="M124.013 105.974C124.721 106.036 125.435 106.085 126.131 106.241C127.783 106.612 129.311 107.572 130.193 109.041C131.014 110.411 131.103 111.85 130.665 113.38C130.082 115.419 128.307 116.657 126.571 117.638C124.299 117.441 122.33 117.113 120.718 115.351C119.7 114.238 119.321 112.796 119.571 111.316C120.018 108.674 121.907 107.336 124.013 105.974Z"/>
	<path fill="#165783" d="M862.352 896.04C865.093 895.886 867.881 896.012 870.444 897.091C873.756 898.484 876.401 901.115 877.713 904.468C879.093 907.991 879.019 912.055 877.45 915.505C875.565 919.649 872.385 921.658 868.238 923.122C865.184 923.192 862.426 923.064 859.634 921.692C856.099 919.953 853.383 916.83 852.223 913.058C851.194 909.71 851.468 906.01 853.12 902.906C855.115 899.159 858.379 897.151 862.352 896.04Z"/>
	<path fill="#165783" d="M107.744 886.893C109.359 888.344 110.249 891.136 111.38 893.013C115.414 899.712 121.492 903.469 127.99 907.399C117.479 911.273 113.046 918.744 108.53 928.318C103.176 918.249 98.2156 912.264 87.7136 907.526C97.7369 900.842 102.469 898.363 107.744 886.893Z"/>
	<path fill="#165783" d="M905.538 141.246C907.53 143.265 908.437 146.57 909.523 149.173C915.19 162.748 926.328 168.549 939.271 173.88C920.567 183.445 913.854 189.757 905.934 209.195C903.989 207.14 902.766 202.164 901.527 199.484C895.548 186.547 885.026 180.289 872.703 174.382C892.027 163.154 895.975 161.963 905.538 141.246Z"/>
	<path fill="#323B50" d="M406.462 940.205C391.35 936.832 376.558 931.488 362.117 925.964C326.121 912.195 292.354 895.665 260.92 873.105C244.702 861.466 228.745 849.56 214.063 835.998C141.368 768.849 95.6821 676.597 79.8651 579.428C61.5104 466.67 89.2834 348.676 156.108 256.011C210.346 180.799 285.703 125.099 373.265 94.86C395.582 87.1531 418.739 80.7477 442.063 76.9789C555.733 58.6115 673.856 85.3913 767.28 152.857C846.246 209.883 905.748 295.703 932.49 389.288C937.159 405.627 940.541 422.367 943.259 439.132C938.438 435.9 931.202 419.834 927.579 414.022C918.699 399.777 868.339 321.604 859.12 318.139C853.672 311.283 849.824 303.586 845.097 296.264C838.392 285.877 830.777 275.955 822.787 266.525C754.077 185.429 664.16 135.711 558.352 123.521C451.35 111.193 348.732 142.953 264.702 209.623C185.896 272.149 132.352 366.547 120.955 466.674C114.46 523.74 120.896 578.385 138.685 632.83C141.805 642.379 144.861 652.081 148.586 661.415C161.97 694.951 181.168 726.738 203.663 754.923C215.786 770.113 229.319 784.846 243.68 797.959C248.221 802.105 252.833 806.198 257.562 810.131C262.141 813.939 271.448 819.97 274.595 824.56C278.289 831.424 287.515 838.429 293.213 844.03C301.163 851.846 308.901 859.909 317.014 867.554C337.602 886.956 359.696 905.523 382.588 922.151C386.172 924.754 405.53 937.102 406.462 940.205Z"/>
	<path fill="#D15B24" d="M274.595 824.56C271.448 819.97 262.141 813.939 257.562 810.131C252.833 806.198 248.221 802.105 243.68 797.959C229.319 784.846 215.786 770.113 203.663 754.923C181.168 726.738 161.97 694.951 148.586 661.415C144.861 652.081 141.805 642.379 138.685 632.83C120.896 578.385 114.46 523.74 120.955 466.674C132.352 366.547 185.896 272.149 264.702 209.623C348.732 142.953 451.35 111.193 558.352 123.521C664.16 135.711 754.077 185.429 822.787 266.525C830.777 275.955 838.392 285.877 845.097 296.264C849.824 303.586 853.672 311.283 859.12 318.139C868.339 321.604 918.699 399.777 927.579 414.022C931.202 419.834 938.438 435.9 943.259 439.132C947.481 451.364 947.658 468.394 948.466 481.41C949.829 503.378 949.986 525.152 948.236 547.106C944.087 599.169 928.815 656.284 905.94 703.261C854.834 808.211 760.785 893.048 650.258 931.049C587.139 952.75 520.905 958.378 454.779 950.301C439.772 948.468 420.45 945.932 406.462 940.205C405.53 937.102 386.172 924.754 382.588 922.151C359.696 905.523 337.602 886.956 317.014 867.554C308.901 859.909 301.163 851.846 293.213 844.03C287.515 838.429 278.289 831.424 274.595 824.56Z"/>
	<path fill="#F8C36E" d="M419.02 511.145C421.125 511.263 423.107 511.431 425.025 512.385C428.563 514.144 431.17 517.222 432.275 521.022C433.336 524.674 432.923 528.694 430.906 531.948C428.579 535.701 425.26 537.143 421.135 538.166C418.426 537.99 415.497 537.682 413.087 536.346C410.06 534.669 407.812 531.906 406.905 528.559C405.917 524.916 406.466 520.988 408.499 517.798C410.973 513.915 414.698 512.208 419.02 511.145Z"/>
	<path fill="#EFA048" d="M552.17 465.56C554.737 465.431 557.299 465.349 559.776 466.149C563.145 467.237 565.965 469.538 567.575 472.705C569.258 476.012 569.575 480.06 568.351 483.572C566.552 488.732 562.721 491.195 558.109 493.518C555.84 493.796 553.75 493.862 551.538 493.176C547.804 492.019 544.759 489.444 543.067 485.91C541.285 482.188 541.052 477.876 542.648 474.047C544.556 469.467 547.868 467.471 552.17 465.56Z"/>
	<path fill="#AB5A39" d="M124.997 530.951C127.744 530.286 130.457 531.983 132.797 533.41C146.818 541.961 157.962 553.731 169.865 564.828C193.766 587.107 218.695 600.857 251.931 593.031C270.242 588.721 302.033 572.203 320.005 582.447C320.2 582.558 320.382 582.69 320.571 582.811C298.79 588.692 277.758 597.7 255.657 602.281C190.392 615.809 172.46 571.918 126.094 541.556C124.473 538.94 125.017 533.95 124.997 530.951Z"/>
	<path fill="#A63919" d="M584.699 524.155C589.581 518.903 595.028 514.216 600.174 509.227C606.869 502.734 613.48 495.752 619.786 488.875C624.343 483.905 628.513 478.469 632.792 473.254C646.067 457.075 658.399 440.437 670.619 423.457C672.889 436.519 669.752 467.312 668.246 480.962C667.674 486.144 666.552 491.533 666.388 496.724L666.171 497.161C648.989 502.085 631.714 509.285 614.825 515.328C605.692 518.596 594.419 523.961 584.699 524.155Z"/>
	<path fill="#EFA048" d="M126.094 541.556C172.46 571.918 190.392 615.809 255.657 602.281C277.758 597.7 298.79 588.692 320.571 582.811C351.29 577.107 376.943 579.8 403.291 597.724C413.229 604.485 421.774 613.142 429.687 622.127C416.675 628.587 401.793 632.646 388.004 637.259L387.392 637.433C381.84 630.383 374.471 624.804 366.787 620.242C346.426 608.155 321.693 608.906 299.687 615.875C288.749 619.339 278.157 624.109 267.005 626.869C223.739 637.577 189.946 607.115 160.472 580.03C149.651 570.086 139.601 560.14 126.907 552.536C126.323 548.802 126.048 545.338 126.094 541.556Z"/>
	<path fill="#F8C36E" d="M126.907 552.536C139.601 560.14 149.651 570.086 160.472 580.03C189.946 607.115 223.739 637.577 267.005 626.869C278.157 624.109 288.749 619.339 299.687 615.875C321.693 608.906 346.426 608.155 366.787 620.242C374.471 624.804 381.84 630.383 387.392 637.433C351.176 647.973 312.502 653.018 274.799 651.829C255.775 651.229 200.462 644.15 185.037 635.286C179.65 632.19 175.093 626.063 170.817 621.522C164.509 617.483 158.492 610.894 153.091 605.708C146.519 599.399 139.769 593.171 133.51 586.555C130.457 581.388 130.044 576.473 129.911 570.637C128.324 564.754 127.648 558.577 126.907 552.536Z"/>
	<path fill="#EFA048" d="M129.911 570.637C137.633 579.242 144.218 588.657 151.588 597.537C157.04 604.107 163.232 610.12 168.425 616.889C169.598 618.418 170.386 619.631 170.817 621.522C164.509 617.483 158.492 610.894 153.091 605.708C146.519 599.399 139.769 593.171 133.51 586.555C130.457 581.388 130.044 576.473 129.911 570.637Z"/>
	<path fill="#8A3927" d="M666.171 497.161C662.626 519.129 658.209 541.452 650.88 562.515C641.512 589.438 625.509 617.966 610.162 641.958C638.84 638.628 664.668 623.151 682.537 600.703C690.721 590.422 696.923 578.778 704.141 567.833C722.235 540.398 746.432 523.326 779.515 519.403C791.819 517.944 803.703 518.991 815.853 521.195C810.462 528.215 805.044 535.844 798.412 541.752C783.682 557.314 768.582 572.534 752.153 586.322C747.486 590.239 742.433 594.733 737.204 597.834C736.219 598.738 735.219 599.624 734.31 600.606C702.328 624.194 669.107 645.005 633.459 662.638C623.819 667.406 614.12 672.281 604.138 676.292C604.494 675.721 604.652 675.289 604.858 674.657C598.236 674.685 592.26 674.803 585.698 673.584C585.584 672.619 585.676 672.391 586.192 671.529C588.526 667.633 592.081 664.01 595.016 660.553C600.007 654.676 604.859 648.903 609.196 642.517C601.741 642.577 594.701 641.929 587.421 640.259C575.019 637.413 562.812 632.511 549.936 632.393C528.456 632.195 508.97 643.883 487.982 646.412C472.234 648.31 455.587 643.556 443.023 633.849C438.524 630.374 434.756 626.084 430.247 622.618L429.683 622.189C435.233 618.862 441.538 616.553 447.458 613.949C455.342 610.481 463.042 606.806 470.699 602.858C514.13 580.467 548.803 557.489 584.699 524.155C594.419 523.961 605.692 518.596 614.825 515.328C631.714 509.285 648.989 502.085 666.171 497.161Z"/>
	<path fill="#621B18" d="M737.204 597.834C737.314 594.703 757.261 568.094 760.837 563.844C769.163 553.948 785.275 542.828 798.412 541.752C783.682 557.314 768.582 572.534 752.153 586.322C747.486 590.239 742.433 594.733 737.204 597.834Z"/>
	<path fill="#BF732E" d="M133.51 586.555C139.769 593.171 146.519 599.399 153.091 605.708C158.492 610.894 164.509 617.483 170.817 621.522C175.093 626.063 179.65 632.19 185.037 635.286C200.462 644.15 255.775 651.229 274.799 651.829C312.502 653.018 351.176 647.973 387.392 637.433L388.004 637.259C406.619 658.473 423.536 677.386 453.665 679.343C477.802 680.912 498.033 663.477 521.988 662.87C539.281 662.432 557.228 669.196 574.155 672.39C576.538 672.84 583.864 674.82 585.698 673.584C592.26 674.803 598.236 674.685 604.858 674.657C604.652 675.289 604.494 675.721 604.138 676.292C614.12 672.281 623.819 667.406 633.459 662.638C669.107 645.005 702.328 624.194 734.31 600.606C733.88 605.644 696.375 639.912 690.805 644.618C652.32 677.13 604.263 704.759 556.71 721.466C546.311 725.119 535.838 728.619 525.222 731.596C519.471 733.209 513.017 734.139 507.489 736.259C498.049 738.799 484.18 742.484 474.591 743.164C473.963 743.626 473.41 744.026 472.671 744.292C466.362 746.568 441.93 748.487 433.958 749.138C361.372 755.061 280.74 750.947 211.667 726.355C205.281 724.082 198.402 722.776 192.298 719.815C187.19 717.338 182.394 713.396 180.463 707.899C169.315 697.337 155.162 660.439 149.668 645.387C147.697 640.017 146.922 634.277 144.78 628.898C141.025 620.956 133.407 595.008 133.51 586.555Z"/>
	<path fill="#C5A28B" d="M734.31 600.606C733.88 605.644 696.375 639.912 690.805 644.618C652.32 677.13 604.263 704.759 556.71 721.466C546.311 725.119 535.838 728.619 525.222 731.596C519.471 733.209 513.017 734.139 507.489 736.259C498.049 738.799 484.18 742.484 474.591 743.164C459.088 745.028 419.733 739.241 404.585 733.959C448.806 726.26 492.531 717.815 535.246 703.702C544.643 700.597 553.878 696.881 563.129 693.368C577.099 688.063 590.728 682.94 604.138 676.292C614.12 672.281 623.819 667.406 633.459 662.638C669.107 645.005 702.328 624.194 734.31 600.606Z"/>
	<path fill="#A63919" d="M144.78 628.898C147.351 629.853 149.318 631.112 151.55 632.668C156.336 633.684 160.388 637.522 164.97 639.283C173.729 642.649 182.781 644.928 191.213 649.163C198.472 652.808 205.396 657.287 212.352 661.478C227.161 670.402 241.956 679.343 258.01 685.895C277.834 693.986 296.299 693.939 316.881 697.432C336.818 700.815 355.381 710.135 373.074 719.578C377.348 721.859 382.233 723.995 386.016 726.995C392.455 728.824 398.603 730.681 404.613 733.702C366.593 738.055 327.172 739.046 289.126 734.583C283.273 733.896 276.804 733.596 271.07 732.269C265.49 731.685 259.851 730.468 254.316 729.497C228.659 724.998 204.454 718.062 180.463 707.899C169.315 697.337 155.162 660.439 149.668 645.387C147.697 640.017 146.922 634.277 144.78 628.898Z"/>
	<path fill="#8A3927" d="M149.668 645.387C152.667 646.077 155.718 648.016 158.441 649.456C163.271 652.009 168.173 654.802 172.257 658.47C176.445 662.233 179.731 666.931 183.179 671.349C191.34 681.804 199.705 691.084 211.16 698.019C233.391 711.478 252.098 701.566 268.268 727.231C269.307 728.879 270.278 730.484 271.07 732.269C265.49 731.685 259.851 730.468 254.316 729.497C228.659 724.998 204.454 718.062 180.463 707.899C169.315 697.337 155.162 660.439 149.668 645.387Z"/>
	<path fill="#D15B24" d="M151.55 632.668C156.336 633.684 160.388 637.522 164.97 639.283C173.729 642.649 182.781 644.928 191.213 649.163C198.472 652.808 205.396 657.287 212.352 661.478C227.161 670.402 241.956 679.343 258.01 685.895C277.834 693.986 296.299 693.939 316.881 697.432C336.818 700.815 355.381 710.135 373.074 719.578C377.348 721.859 382.233 723.995 386.016 726.995C378.815 727.741 371.536 728.129 364.312 728.626C348.642 729.705 334.744 727.812 319.764 723.226C303.298 718.185 287.134 706.672 271.188 699.544C256.888 693.152 241.755 688.652 227.119 683.119C209.807 676.575 193.273 668.038 177.834 657.821C167.68 651.102 161.333 641.08 152.29 633.3L151.55 632.668Z"/>
	<path fill="#621B18" d="M739.602 199.12C758.236 211.486 775.422 227.329 791.023 243.232C831.995 284.999 859.061 326.58 879.707 381.441C881.092 385.162 885.072 392.997 884.445 396.77C881.388 406.241 878.58 415.844 874.905 425.098C860.949 460.232 839.462 491.882 815.853 521.195C803.703 518.991 791.819 517.944 779.515 519.403C746.432 523.326 722.235 540.398 704.141 567.833C696.923 578.778 690.721 590.422 682.537 600.703C664.668 623.151 638.84 638.628 610.162 641.958C625.509 617.966 641.512 589.438 650.88 562.515C658.209 541.452 662.626 519.129 666.171 497.161L666.388 496.724C666.552 491.533 667.674 486.144 668.246 480.962C669.752 467.312 672.889 436.519 670.619 423.457C679.544 409.321 687.735 394.82 695.946 380.264L695.808 380.105C703.78 362.789 716.313 340.059 720.408 321.641L720.986 321.518C722.314 317.885 723.448 314.172 724.638 310.492C730.409 291.688 733.461 272.449 737.082 253.161L736.763 252.789C738.877 245.979 738.748 237.562 739.342 230.448L739.018 229.131C739.016 219.109 739.026 209.13 739.602 199.12Z"/>
	<path fill="#8A3927" d="M739.342 230.448L739.801 230.98C747.239 239.492 754.967 244.368 762.294 254.181C770.776 265.539 778.117 278.7 781.985 292.378C788.455 315.255 787.245 363.351 785.801 388.259C784.59 409.147 780.145 437.14 763.651 451.697C757.588 457.048 750.276 462.385 743.156 466.173C730.891 472.698 717.371 476.71 704.5 481.875C695.881 485.333 674.017 495.468 666.388 496.724C666.552 491.533 667.674 486.144 668.246 480.962C669.752 467.312 672.889 436.519 670.619 423.457C679.544 409.321 687.735 394.82 695.946 380.264L695.808 380.105C703.78 362.789 716.313 340.059 720.408 321.641L720.986 321.518C722.314 317.885 723.448 314.172 724.638 310.492C730.409 291.688 733.461 272.449 737.082 253.161L736.763 252.789C738.877 245.979 738.748 237.562 739.342 230.448Z"/>
	<path fill="#AB5A39" d="M711.588 410.416C712.808 410.721 714.467 410.994 715.451 411.821C716.46 412.668 717.064 413.586 717.076 414.943C717.097 417.223 715.69 418.672 714.272 420.256C713.484 419.98 712.725 419.712 712.003 419.287C710.658 418.496 709.535 417.416 709.325 415.781C709.043 413.588 710.363 412.052 711.588 410.416Z"/>
	<path fill="#D15B24" d="M684.904 430.477C686.124 430.639 687.322 430.831 688.478 431.27C690.695 432.111 692.556 433.819 693.495 436.012C694.343 437.994 694.331 440.207 693.424 442.168C692.204 444.804 690.036 446.071 687.453 447.13C686.669 447.093 685.913 447.027 685.148 446.847C682.802 446.294 680.814 445.068 679.61 442.928C678.522 440.995 678.345 438.674 679.035 436.575C680.029 433.554 682.183 431.885 684.904 430.477Z"/>
	<path fill="#621B18" d="M737.082 253.161C742.608 253.95 754.193 266.818 757.515 271.299C760.756 275.672 764.018 281.374 763.292 286.997C762.65 291.969 759.101 295.813 755.208 298.665C750.254 302.294 731.4 311.16 725.435 310.708C725.16 310.687 724.903 310.564 724.638 310.492C730.409 291.688 733.461 272.449 737.082 253.161Z"/>
	<path fill="#AB5A39" d="M720.408 321.641L720.986 321.518C732.66 328.616 744.856 336.118 748.339 350.319C750.13 357.625 749.101 365.1 745.04 371.487C740.659 378.377 733.584 382.884 725.621 384.438C715.655 386.384 705.405 383.192 695.946 380.264L695.808 380.105C703.78 362.789 716.313 340.059 720.408 321.641Z"/>
	<path fill="#EFA048" d="M176.041 537.924C199.343 541.245 212.661 531.433 229.775 517.121C239.124 509.303 248.518 501.344 259.022 495.087C266.834 490.434 274.777 486.593 283.392 483.618C308.354 475 337.113 472.207 359.12 456.643C375.434 445.104 380.3 425.27 394.744 412.492C407.321 401.366 425.599 402.27 438.612 391.771C458.856 375.437 475.084 345.769 494.432 326.422C514.443 306.412 541.979 302.745 564.868 287.825C580.777 277.455 595.188 259.022 611.641 251.02C611.88 252.362 611.942 253.711 612.907 254.749C613.757 253.711 613.652 252.535 613.714 251.259L614.139 255.139L614.729 255.466C615.967 254.471 617.172 253.554 618.529 252.726C619.047 252.824 619.475 252.878 619.948 253.119L612.04 260.637C611.999 266.208 611.07 273.684 612.609 279.019C621.041 272.246 631.461 267.416 642.51 268.65C663.731 271.021 673.515 290.463 688.044 303.218C697.154 311.216 708.919 317.73 720.408 321.641C716.313 340.059 703.78 362.789 695.808 380.105C692.388 378.486 688.992 376.354 685.094 376.834C678.13 380.694 675.709 396.923 671.69 404.185C665.17 415.967 654.422 424.724 642.485 430.626C624.045 439.743 604.243 442.729 583.831 442.498C569.653 442.338 554.419 439.801 541.067 445.839C511.653 459.142 517.975 495.808 477.78 504.251C457.687 508.471 442.177 503.039 423.007 498.443C394.695 491.655 367.178 494.778 340.559 506.215C330.808 510.404 321.567 515.284 312.569 520.912C279.878 541.358 244.542 571.637 203.099 559.751C189.741 555.92 180.016 548.857 172.495 537.185L176.041 537.924Z"/>
	<defs>
		<linearGradient id="gradient_0" gradientUnits="userSpaceOnUse" x1="552.58221" y1="426.38098" x2="412.1525" y2="371.49246">
			<stop offset="0" stop-color="#C4371C"/>
			<stop offset="1" stop-color="#DB5B23"/>
		</linearGradient>
	</defs>
	<path fill="url(#gradient_0)" d="M370.318 477.123C370.903 475.801 371.333 475.311 372.666 474.709C378.64 472.007 385.289 470.343 391.505 468.232C405.569 463.456 421.224 457.716 433.841 449.811C455.974 435.943 463.877 408.558 483.9 392.243C508.728 372.011 540.086 383.312 563.934 359.19C571.645 351.39 577.331 342.493 582.872 333.115C585.063 329.408 587.229 325.035 589.888 321.664C590.822 320.48 591.379 320.673 592.782 320.496C587.273 340.566 581.242 368.882 561.697 379.873C539.93 392.113 512.01 385.926 490.188 397.627C476.987 404.705 471.933 418.343 464.684 430.471C457.015 443.303 446.753 453.558 433.177 460.021C413.48 469.398 391.194 471.525 370.318 477.123Z"/>
	<defs>
		<linearGradient id="gradient_1" gradientUnits="userSpaceOnUse" x1="378.80621" y1="356.40573" x2="425.50763" y2="460.31796">
			<stop offset="0" stop-color="#DE6E29"/>
			<stop offset="1" stop-color="#F68836"/>
		</linearGradient>
	</defs>
	<path fill="url(#gradient_1)" d="M176.041 537.924C199.343 541.245 212.661 531.433 229.775 517.121C239.124 509.303 248.518 501.344 259.022 495.087C266.834 490.434 274.777 486.593 283.392 483.618C308.354 475 337.113 472.207 359.12 456.643C375.434 445.104 380.3 425.27 394.744 412.492C407.321 401.366 425.599 402.27 438.612 391.771C458.856 375.437 475.084 345.769 494.432 326.422C514.443 306.412 541.979 302.745 564.868 287.825C580.777 277.455 595.188 259.022 611.641 251.02C611.88 252.362 611.942 253.711 612.907 254.749C613.757 253.711 613.652 252.535 613.714 251.259L614.139 255.139L614.729 255.466C615.967 254.471 617.172 253.554 618.529 252.726C619.047 252.824 619.475 252.878 619.948 253.119L612.04 260.637C611.999 266.208 611.07 273.684 612.609 279.019C610.385 282.021 607.791 284.846 605.757 287.966C600.642 295.812 595.21 311.151 592.782 320.496C591.379 320.673 590.822 320.48 589.888 321.664C587.229 325.035 585.063 329.408 582.872 333.115C577.331 342.493 571.645 351.39 563.934 359.19C540.086 383.312 508.728 372.011 483.9 392.243C463.877 408.558 455.974 435.943 433.841 449.811C421.224 457.716 405.569 463.456 391.505 468.232C385.289 470.343 378.64 472.007 372.666 474.709C371.333 475.311 370.903 475.801 370.318 477.123C363.223 479.764 355.795 481.304 348.671 483.872C338.639 487.489 329.335 492.113 319.572 496.308C315.19 501.902 306.821 505.686 300.937 509.712C277.653 525.643 256.98 541.988 227.771 545.563C211.732 547.526 189.883 547.498 176.041 537.924Z"/>
	<path fill="#FEFDB0" d="M262.75 501.395C262.886 501.395 263.022 501.387 263.157 501.395C265.066 501.514 267.429 502.283 268.567 503.931C269.644 505.49 269.886 507.153 269.414 508.98C268.642 511.97 266.921 513.126 264.332 514.559C262.291 514.093 260.339 513.624 258.842 512.05C257.763 510.915 257.387 509.617 257.554 508.078C257.885 505.027 260.503 503.097 262.75 501.395Z"/>
	<path fill="#D15B24" d="M319.572 496.308C323.26 489.249 354.844 474.236 363.207 469.285C366.768 467.177 370.181 464.827 373.323 462.13C387.489 449.969 393.784 428.895 409.594 419.392C421.197 412.418 435.497 418.226 447.028 412.685C457.163 407.815 465.231 388.045 477.385 379.827C484.179 375.234 491.912 371.623 499.719 369.138C507.701 366.599 517.471 366.332 524.206 360.842C532.159 354.36 534.47 328.593 544.026 316.514C554.952 302.703 571.432 296.963 584.74 286.283C594.351 278.57 602.06 268.96 611.438 261.133L612.04 260.637C611.999 266.208 611.07 273.684 612.609 279.019C610.385 282.021 607.791 284.846 605.757 287.966C600.642 295.812 595.21 311.151 592.782 320.496C591.379 320.673 590.822 320.48 589.888 321.664C587.229 325.035 585.063 329.408 582.872 333.115C577.331 342.493 571.645 351.39 563.934 359.19C540.086 383.312 508.728 372.011 483.9 392.243C463.877 408.558 455.974 435.943 433.841 449.811C421.224 457.716 405.569 463.456 391.505 468.232C385.289 470.343 378.64 472.007 372.666 474.709C371.333 475.311 370.903 475.801 370.318 477.123C363.223 479.764 355.795 481.304 348.671 483.872C338.639 487.489 329.335 492.113 319.572 496.308Z"/>
	<defs>
		<linearGradient id="gradient_2" gradientUnits="userSpaceOnUse" x1="631.3761" y1="647.10669" x2="257.56912" y2="216.16919">
			<stop offset="0" stop-color="#A25F45"/>
			<stop offset="1" stop-color="#FBA849"/>
		</linearGradient>
	</defs>
	<path fill="url(#gradient_2)" d="M274.595 824.56C271.448 819.97 262.141 813.939 257.562 810.131C252.833 806.198 248.221 802.105 243.68 797.959C229.319 784.846 215.786 770.113 203.663 754.923C181.168 726.738 161.97 694.951 148.586 661.415C144.861 652.081 141.805 642.379 138.685 632.83C120.896 578.385 114.46 523.74 120.955 466.674C132.352 366.547 185.896 272.149 264.702 209.623C348.732 142.953 451.35 111.193 558.352 123.521C664.16 135.711 754.077 185.429 822.787 266.525C830.777 275.955 838.392 285.877 845.097 296.264C849.824 303.586 853.672 311.283 859.12 318.139C864.925 329.013 876.56 348.671 879.773 359.953C879.784 360.111 879.792 360.268 879.807 360.425C880.529 368.183 886.069 373.727 880.006 381.102C879.911 381.218 879.807 381.328 879.707 381.441C859.061 326.58 831.995 284.999 791.023 243.232C775.422 227.329 758.236 211.486 739.602 199.12C739.026 209.13 739.016 219.109 739.018 229.131L739.342 230.448C738.748 237.562 738.877 245.979 736.763 252.789L737.082 253.161C733.461 272.449 730.409 291.688 724.638 310.492C723.448 314.172 722.314 317.885 720.986 321.518L720.408 321.641C708.919 317.73 697.154 311.216 688.044 303.218C673.515 290.463 663.731 271.021 642.51 268.65C631.461 267.416 621.041 272.246 612.609 279.019C611.07 273.684 611.999 266.208 612.04 260.637L619.948 253.119C619.475 252.878 619.047 252.824 618.529 252.726C617.172 253.554 615.967 254.471 614.729 255.466L614.139 255.139L613.714 251.259C613.652 252.535 613.757 253.711 612.907 254.749C611.942 253.711 611.88 252.362 611.641 251.02C595.188 259.022 580.777 277.455 564.868 287.825C541.979 302.745 514.443 306.412 494.432 326.422C475.084 345.769 458.856 375.437 438.612 391.771C425.599 402.27 407.321 401.366 394.744 412.492C380.3 425.27 375.434 445.104 359.12 456.643C337.113 472.207 308.354 475 283.392 483.618C274.777 486.593 266.834 490.434 259.022 495.087C248.518 501.344 239.124 509.303 229.775 517.121C212.661 531.433 199.343 541.245 176.041 537.924L172.495 537.185C166.336 530.682 157.284 526.491 150.17 521.009C140.831 513.813 132.983 505.13 124.973 496.545C124.506 507.979 124.437 519.516 124.997 530.951C125.017 533.95 124.473 538.94 126.094 541.556C126.048 545.338 126.323 548.802 126.907 552.536C127.648 558.577 128.324 564.754 129.911 570.637C130.044 576.473 130.457 581.388 133.51 586.555C133.407 595.008 141.025 620.956 144.78 628.898C146.922 634.277 147.697 640.017 149.668 645.387C155.162 660.439 169.315 697.337 180.463 707.899C182.394 713.396 187.19 717.338 192.298 719.815C198.402 722.776 205.281 724.082 211.667 726.355C280.74 750.947 361.372 755.061 433.958 749.138C441.93 748.487 466.362 746.568 472.671 744.292C473.41 744.026 473.963 743.626 474.591 743.164C484.18 742.484 498.049 738.799 507.489 736.259L506.981 737.082C505.868 737.535 504.795 737.915 503.647 738.262C502.526 738.602 502.044 739.263 501.06 739.664C499.147 740.444 496.794 740.776 494.782 741.398C494.817 742.651 495.943 742.227 495.068 743.705C495.034 743.763 494.971 743.797 494.922 743.843L494.129 743.328L494.736 743.959C493.805 744.198 492.083 744.357 491.488 745.074C488.049 749.215 474.343 760.483 474.681 765.264C475.986 764.75 476.464 764.441 477.876 764.642C478.773 765.542 478.783 765.537 478.913 766.799C484.162 766.36 492.266 762.585 497.121 763.781C415.786 782.413 328.245 781.599 247.996 758.494C232.415 754.008 216.492 749.242 201.851 742.184C207.341 749.981 213.344 758.259 220.902 764.159C231.846 779.199 268.601 815.009 285.133 823.158C294.267 829.751 303.548 836.928 313.091 842.893C331.547 854.43 352.314 863.9 372.431 872.069L371.813 872.427C371.34 872.699 370.82 872.888 370.358 873.179C368.77 874.178 367.53 876.518 365.888 877.758C332.734 864.339 303.092 846.006 274.595 824.56Z"/>
	<path fill="#D15B24" d="M546.344 155.195C547.743 154.467 549.229 153.908 550.241 152.675C550.044 151.934 549.83 151.281 549.374 150.651C544.661 144.141 521.788 133.466 513.578 132.184C510.825 131.754 507.914 133.232 505.103 132.791L505.314 132.455C508.033 131.81 510.537 130.059 513.312 129.918C516.174 132.3 520.622 133.206 524.118 134.431C535.233 138.326 546.974 143.468 554.951 152.445C552.154 153.603 549.404 154.976 546.344 155.195Z"/>
	<path fill="#D15B24" d="M430.606 205.291C449.173 181.479 476.469 171.995 504.755 164.996C501.752 168.014 494.855 168.714 490.75 170.028C470.257 176.59 445.318 187.169 433.08 205.785C433.085 208.259 433.244 210.718 432.519 213.107L430.705 205.872L430.606 205.291Z"/>
	<path fill="#D15B24" d="M452.079 133.712C452.5 133.614 453.069 133.656 453.505 133.645C450.489 136.045 436.886 140.822 432.437 142.855C424.825 146.332 418.875 153.13 411.074 156.11C405.058 158.408 398.094 158.688 391.837 160.493C371.385 166.392 350.715 172.714 330.944 180.63C315.666 186.747 301.817 194.176 287.962 203.021C282.567 206.466 277.466 210.309 272.021 213.687L270.93 213.86L270.934 213.505C278.39 207.89 285.691 202.098 293.414 196.845C328.852 172.741 368.202 154.924 409.348 143.069C422.506 139.277 438.523 134.944 452.079 133.712Z"/>
	<defs>
		<linearGradient id="gradient_3" gradientUnits="userSpaceOnUse" x1="317.77612" y1="171.03004" x2="296.29834" y2="395.1272">
			<stop offset="0" stop-color="#FFA73F"/>
			<stop offset="1" stop-color="#FFDB6E"/>
		</linearGradient>
	</defs>
	<path fill="url(#gradient_3)" d="M322.996 316.718C318.215 320.34 311.445 321.215 305.814 323.051C299.997 324.948 294.279 327.773 289.377 331.452C267.464 347.902 259.151 374.471 229.838 385.736C220.929 389.16 209.528 389.522 200.751 385.44C194.462 382.515 189.413 377.865 187.025 371.225C181.11 354.774 187.22 334.205 194.445 319.209C222.428 261.124 287.247 206.357 347.932 185.288C367.714 178.42 391.897 173.414 411.592 183.229C420.553 187.695 427.425 195.86 430.606 205.291L430.705 205.872C421.511 219.779 407.247 232.161 392.637 240.026C394.879 232.194 396.51 224.169 392.269 216.596C388.53 209.92 380.979 206.441 373.839 204.65C346.838 197.876 315.018 213.523 292.356 227.377C260.119 247.085 218.855 287.529 209.878 325.078C208.093 332.546 206.95 341.503 211.188 348.36C213.528 352.146 217.484 354.848 221.812 355.808C239.091 359.639 261.445 340.298 276.365 332.901C289.388 326.443 302.72 320.81 316.109 315.173C319.231 313.913 322.207 312.164 325.469 311.3L325.177 312.184L324.313 312.477C324.416 312.618 324.533 312.751 324.623 312.901C325.294 314.02 325.572 314.683 325.279 315.926C324.345 316.5 324.131 316.655 322.996 316.718Z"/>
	<path fill="#EFA048" d="M316.109 315.173C319.231 313.913 322.207 312.164 325.469 311.3L325.177 312.184L324.313 312.477C324.416 312.618 324.533 312.751 324.623 312.901C325.294 314.02 325.572 314.683 325.279 315.926C324.345 316.5 324.131 316.655 322.996 316.718C323.688 315.8 324.187 315.391 324.338 314.245C323.123 315.132 321.306 316.587 319.751 316.728C318.178 316.871 317.34 315.99 316.109 315.173Z"/>
	<defs>
		<linearGradient id="gradient_4" gradientUnits="userSpaceOnUse" x1="297.62799" y1="206.85031" x2="304.98807" y2="351.12347">
			<stop offset="0" stop-color="#FFC65D"/>
			<stop offset="1" stop-color="#FFEF8E"/>
		</linearGradient>
	</defs>
	<path fill="url(#gradient_4)" d="M316.109 315.173C302.72 320.81 289.388 326.443 276.365 332.901C261.445 340.298 239.091 359.639 221.812 355.808C217.484 354.848 213.528 352.146 211.188 348.36C206.95 341.503 208.093 332.546 209.878 325.078C218.855 287.529 260.119 247.085 292.356 227.377C315.018 213.523 346.838 197.876 373.839 204.65C380.979 206.441 388.53 209.92 392.269 216.596C396.51 224.169 394.879 232.194 392.637 240.026C383.996 263.138 365.083 286.7 344.731 300.422C338.671 304.507 331.225 307.011 325.469 311.3C322.207 312.164 319.231 313.913 316.109 315.173Z"/>
	<path fill="#FEFDB0" d="M324.691 239.195C328.122 238.673 332.439 239.49 335.364 241.401C337.689 242.92 339.086 245.291 339.631 247.987C340.816 253.852 337.346 260.055 334.253 264.814C316.511 292.121 285.138 313.846 253.379 320.482C249.204 320.868 244.616 321.08 241.021 318.533C239.087 317.164 237.931 315.145 237.596 312.811C236.183 302.97 245.63 290.101 251.345 282.932C269.305 260.405 295.706 242.569 324.691 239.195Z"/>
	<path fill="#AB5A39" d="M513.312 129.918C528.717 127.935 544.694 129.716 560.009 131.407C568.143 132.305 576.098 132.994 584.154 134.559C591.435 135.974 599.655 139.028 606.823 139.692C615.5 141.781 624.215 143.739 632.747 146.376C663.963 156.021 695.055 170.776 722.689 188.111C728.231 191.587 734.751 194.773 739.602 199.12C739.026 209.13 739.016 219.109 739.018 229.131L739.342 230.448C738.748 237.562 738.877 245.979 736.763 252.789L737.082 253.161C733.461 272.449 730.409 291.688 724.638 310.492C723.448 314.172 722.314 317.885 720.986 321.518L720.408 321.641C708.919 317.73 697.154 311.216 688.044 303.218C673.515 290.463 663.731 271.021 642.51 268.65C631.461 267.416 621.041 272.246 612.609 279.019C611.07 273.684 611.999 266.208 612.04 260.637L619.948 253.119C619.475 252.878 619.047 252.824 618.529 252.726C617.172 253.554 615.967 254.471 614.729 255.466L614.139 255.139L613.714 251.259C613.652 252.535 613.757 253.711 612.907 254.749C611.942 253.711 611.88 252.362 611.641 251.02C611.571 243.897 610.629 236.992 608.581 230.17C600.653 235.044 594.959 242.339 586.054 246.918C587.967 244.148 604.77 230.978 608.306 228.418C606.068 214.39 592.777 189.197 581.912 180.398L581.159 180.887C575.89 184.378 571.301 188.947 565.994 192.377C562.133 194.872 556.851 197.111 552.565 198.794C548.645 200.333 544.006 200.958 539.894 201.822C530.431 203.811 520.936 205.555 511.451 207.422C490.242 211.596 469.07 216.631 447.727 220.071C445.738 220.392 443.606 220.785 441.601 220.465C439.403 220.113 434.811 217.806 433.716 215.769C433.46 215.291 433.394 214.721 433.115 214.256C432.964 214.004 432.738 213.807 432.549 213.582L432.519 213.107C433.244 210.718 433.085 208.259 433.08 205.785C445.318 187.169 470.257 176.59 490.75 170.028C494.855 168.714 501.752 168.014 504.755 164.996C518.684 162.044 532.422 158.194 546.344 155.195C549.404 154.976 552.154 153.603 554.951 152.445C546.974 143.468 535.233 138.326 524.118 134.431C520.622 133.206 516.174 132.3 513.312 129.918Z"/>
	<path fill="#A63919" d="M565.238 159.335C575.406 149.672 582.243 144.683 595.963 141.57C599.519 140.763 603.162 139.768 606.823 139.692C615.5 141.781 624.215 143.739 632.747 146.376C663.963 156.021 695.055 170.776 722.689 188.111C728.231 191.587 734.751 194.773 739.602 199.12C739.026 209.13 739.016 219.109 739.018 229.131C731.474 222.997 724.317 216.596 716.153 211.266C712.396 207.838 707.32 204.987 703.008 202.256C680.696 188.127 655.857 176.423 629.617 172.142C615.501 169.839 601.975 170.207 588.883 176.225C586.467 177.336 583.879 178.385 581.713 179.932C577.533 177.463 568.677 163.874 565.238 159.335Z"/>
	<path fill="#A63919" d="M675.118 206.066C684.934 204.867 694.841 206.621 704.342 209.115C707.325 209.898 710.56 211.223 713.579 211.684C714.575 211.837 715.269 211.697 716.153 211.266C724.317 216.596 731.474 222.997 739.018 229.131L739.342 230.448C738.748 237.562 738.877 245.979 736.763 252.789L737.082 253.161C733.461 272.449 730.409 291.688 724.638 310.492C723.448 314.172 722.314 317.885 720.986 321.518L720.408 321.641C708.919 317.73 697.154 311.216 688.044 303.218C673.515 290.463 663.731 271.021 642.51 268.65C631.461 267.416 621.041 272.246 612.609 279.019C611.07 273.684 611.999 266.208 612.04 260.637L619.948 253.119C619.475 252.878 619.047 252.824 618.529 252.726C617.172 253.554 615.967 254.471 614.729 255.466L614.139 255.139L613.714 251.259C613.652 252.535 613.757 253.711 612.907 254.749C611.942 253.711 611.88 252.362 611.641 251.02C611.571 243.897 610.629 236.992 608.581 230.17C600.653 235.044 594.959 242.339 586.054 246.918C587.967 244.148 604.77 230.978 608.306 228.418C625.741 212.412 651.903 205.885 675.118 206.066Z"/>
	<path fill="#D15B24" d="M698.088 280.387C699.606 280.436 701.183 280.65 702.53 281.406C703.887 282.168 704.848 283.34 705.059 284.93C705.378 287.336 704.155 289.14 702.891 291.053C701.235 291.055 699.82 291.004 698.354 290.086C697.176 289.349 696.342 288.329 696.057 286.936C695.511 284.262 696.697 282.537 698.088 280.387Z"/>
	<path fill="#D15B24" d="M675.118 206.066C684.934 204.867 694.841 206.621 704.342 209.115C707.325 209.898 710.56 211.223 713.579 211.684C714.575 211.837 715.269 211.697 716.153 211.266C724.317 216.596 731.474 222.997 739.018 229.131L739.342 230.448C738.748 237.562 738.877 245.979 736.763 252.789C729.097 249.042 721.616 245.05 713.585 242.109C692.862 234.521 666.392 231.709 645.264 238.867C639.295 240.89 623.447 247.889 619.948 253.119C619.475 252.878 619.047 252.824 618.529 252.726C617.172 253.554 615.967 254.471 614.729 255.466L614.139 255.139L613.714 251.259C613.652 252.535 613.757 253.711 612.907 254.749C611.942 253.711 611.88 252.362 611.641 251.02C611.571 243.897 610.629 236.992 608.581 230.17C600.653 235.044 594.959 242.339 586.054 246.918C587.967 244.148 604.77 230.978 608.306 228.418C625.741 212.412 651.903 205.885 675.118 206.066Z"/>
	<path fill="#BF732E" d="M608.306 228.418C625.741 212.412 651.903 205.885 675.118 206.066C669.204 215.133 625.157 244.957 613.714 251.259C613.652 252.535 613.757 253.711 612.907 254.749C611.942 253.711 611.88 252.362 611.641 251.02C611.571 243.897 610.629 236.992 608.581 230.17C600.653 235.044 594.959 242.339 586.054 246.918C587.967 244.148 604.77 230.978 608.306 228.418Z"/>
	<defs>
		<linearGradient id="gradient_5" gradientUnits="userSpaceOnUse" x1="335.19656" y1="254.67989" x2="402.77298" y2="430.98074">
			<stop offset="0" stop-color="#D45A20"/>
			<stop offset="1" stop-color="#FA973F"/>
		</linearGradient>
	</defs>
	<path fill="url(#gradient_5)" d="M581.912 180.398C592.777 189.197 606.068 214.39 608.306 228.418C604.77 230.978 587.967 244.148 586.054 246.918C594.959 242.339 600.653 235.044 608.581 230.17C610.629 236.992 611.571 243.897 611.641 251.02C595.188 259.022 580.777 277.455 564.868 287.825C541.979 302.745 514.443 306.412 494.432 326.422C475.084 345.769 458.856 375.437 438.612 391.771C425.599 402.27 407.321 401.366 394.744 412.492C380.3 425.27 375.434 445.104 359.12 456.643C337.113 472.207 308.354 475 283.392 483.618C274.777 486.593 266.834 490.434 259.022 495.087C248.518 501.344 239.124 509.303 229.775 517.121C212.661 531.433 199.343 541.245 176.041 537.924L172.495 537.185C166.336 530.682 157.284 526.491 150.17 521.009C140.831 513.813 132.983 505.13 124.973 496.545C124.975 483.477 126.347 470.622 128.548 457.758C128.188 452.137 131 442.562 132.329 436.85C139.154 407.537 147.878 379.098 161.158 352.046C164.216 345.817 167.242 339.252 171.209 333.54C170.352 345.731 167.625 357.659 168.3 369.972C169.046 383.578 174.343 395.299 184.641 404.326C192.929 411.591 205.588 416.233 216.635 415.397C225.847 414.7 234.89 411.424 242.812 406.756C270.658 390.351 270.577 370.091 289.449 348.518C311.647 323.143 333.89 332.913 362.787 330.872C378.34 329.773 389.581 323.193 399.571 311.447C417.241 290.669 430.681 258.059 432.892 230.995C433.366 225.189 433.042 219.374 432.549 213.582C432.738 213.807 432.964 214.004 433.115 214.256C433.394 214.721 433.46 215.291 433.716 215.769C434.811 217.806 439.403 220.113 441.601 220.465C443.606 220.785 445.738 220.392 447.727 220.071C469.07 216.631 490.242 211.596 511.451 207.422C520.936 205.555 530.431 203.811 539.894 201.822C544.006 200.958 548.645 200.333 552.565 198.794C556.851 197.111 562.133 194.872 565.994 192.377C571.301 188.947 575.89 184.378 581.159 180.887L581.912 180.398Z"/>
	<path fill="#EFA048" d="M486.633 265.521C488.438 265.439 490.491 265.31 492.257 265.7C495.068 266.32 497.822 268.34 499.268 270.822C500.553 273.028 500.905 275.652 500.131 278.097C499.028 281.583 496.33 283.622 493.257 285.312C490.393 286.031 487.715 286.22 485.003 284.806C481.576 283.018 480.273 279.691 479.233 276.205C480.503 270.799 482 268.592 486.633 265.521Z"/>
	<path fill="#EFA048" d="M324.8 362.481L325.518 362.608C324.149 364.126 322.41 365.209 321.073 366.758C318.586 369.639 316.58 373.006 314.219 376.009C310.687 380.501 306.415 384.357 302.11 388.093C298.447 391.273 294.678 394.407 290.662 397.132C284.457 401.343 278.137 404.459 273.38 410.434L272.569 410.873C272.6 410.67 272.593 410.458 272.661 410.264C273.241 408.616 278.69 402.04 279.992 400.187C293.703 380.674 301.914 370.852 324.8 362.481Z"/>
	<defs>
		<linearGradient id="gradient_6" gradientUnits="userSpaceOnUse" x1="349.00455" y1="332.70862" x2="404.75452" y2="429.44427">
			<stop offset="0" stop-color="#F36C12"/>
			<stop offset="1" stop-color="#FFB637"/>
		</linearGradient>
	</defs>
	<path fill="url(#gradient_6)" d="M608.581 230.17C610.629 236.992 611.571 243.897 611.641 251.02C595.188 259.022 580.777 277.455 564.868 287.825C541.979 302.745 514.443 306.412 494.432 326.422C475.084 345.769 458.856 375.437 438.612 391.771C425.599 402.27 407.321 401.366 394.744 412.492C380.3 425.27 375.434 445.104 359.12 456.643C337.113 472.207 308.354 475 283.392 483.618C274.777 486.593 266.834 490.434 259.022 495.087C248.518 501.344 239.124 509.303 229.775 517.121C212.661 531.433 199.343 541.245 176.041 537.924L172.495 537.185C166.336 530.682 157.284 526.491 150.17 521.009C140.831 513.813 132.983 505.13 124.973 496.545C124.975 483.477 126.347 470.622 128.548 457.758C131.759 460.452 134.294 471.63 136.268 475.944C140.332 484.828 146.75 492.503 154.654 498.223C162.089 503.603 171.331 507.168 180.352 508.712C217.103 515.003 231.051 481.823 260.281 470.041C279.849 462.153 301.504 464.29 321.999 460.978C339.18 458.201 355.591 451.463 363.634 435.062C367.431 427.32 369.684 418.743 372.487 410.601C375.564 401.661 379.576 392.951 386.13 386.007C398.028 373.4 416.246 371.798 429.299 360.725C448.373 344.545 459.439 321.582 476.205 303.41C488.211 290.396 503.717 278.976 519.76 271.473C525.2 268.929 531.054 266.783 536.793 265.014C551.749 260.404 567.142 257.963 581.02 250.27C582.595 249.397 584.989 248.397 586.054 246.918C594.959 242.339 600.653 235.044 608.581 230.17Z"/>
	<path fill="#FEFDB0" d="M458.351 333.77C460.021 333.849 461.6 334.346 462.683 335.714C463.424 336.648 463.59 337.779 463.481 338.928C463.295 340.881 462.152 341.807 460.735 342.936C459.372 342.655 457.793 342.38 456.719 341.401C456.084 340.823 455.777 340.173 455.716 339.338C455.539 336.944 456.944 335.524 458.351 333.77Z"/>
	<path fill="#8A3927" d="M859.12 318.139C868.339 321.604 918.699 399.777 927.579 414.022C931.202 419.834 938.438 435.9 943.259 439.132C947.481 451.364 947.658 468.394 948.466 481.41C949.829 503.378 949.986 525.152 948.236 547.106C944.087 599.169 928.815 656.284 905.94 703.261C854.834 808.211 760.785 893.048 650.258 931.049C587.139 952.75 520.905 958.378 454.779 950.301C439.772 948.468 420.45 945.932 406.462 940.205C405.53 937.102 386.172 924.754 382.588 922.151C359.696 905.523 337.602 886.956 317.014 867.554C308.901 859.909 301.163 851.846 293.213 844.03C287.515 838.429 278.289 831.424 274.595 824.56C303.092 846.006 332.734 864.339 365.888 877.758C367.53 876.518 368.77 874.178 370.358 873.179C370.82 872.888 371.34 872.699 371.813 872.427L372.431 872.069C352.314 863.9 331.547 854.43 313.091 842.893C303.548 836.928 294.267 829.751 285.133 823.158C268.601 815.009 231.846 779.199 220.902 764.159C213.344 758.259 207.341 749.981 201.851 742.184C216.492 749.242 232.415 754.008 247.996 758.494C328.245 781.599 415.786 782.413 497.121 763.781C492.266 762.585 484.162 766.36 478.913 766.799C478.783 765.537 478.773 765.542 477.876 764.642C476.464 764.441 475.986 764.75 474.681 765.264C474.343 760.483 488.049 749.215 491.488 745.074C492.083 744.357 493.805 744.198 494.736 743.959L494.129 743.328L494.922 743.843C494.971 743.797 495.034 743.763 495.068 743.705C495.943 742.227 494.817 742.651 494.782 741.398C496.794 740.776 499.147 740.444 501.06 739.664C502.044 739.263 502.526 738.602 503.647 738.262C504.795 737.915 505.868 737.535 506.981 737.082L507.489 736.259C513.017 734.139 519.471 733.209 525.222 731.596C535.838 728.619 546.311 725.119 556.71 721.466C604.263 704.759 652.32 677.13 690.805 644.618C696.375 639.912 733.88 605.644 734.31 600.606C735.219 599.624 736.219 598.738 737.204 597.834C742.433 594.733 747.486 590.239 752.153 586.322C768.582 572.534 783.682 557.314 798.412 541.752C805.044 535.844 810.462 528.215 815.853 521.195C839.462 491.882 860.949 460.232 874.905 425.098C878.58 415.844 881.388 406.241 884.445 396.77C885.072 392.997 881.092 385.162 879.707 381.441C879.807 381.328 879.911 381.218 880.006 381.102C886.069 373.727 880.529 368.183 879.807 360.425C879.792 360.268 879.784 360.111 879.773 359.953C876.56 348.671 864.925 329.013 859.12 318.139Z"/>
	<path fill="#AB5A39" d="M639.456 746.274C638.606 749.689 634.309 753.765 631.943 756.41C614.184 776.264 589.549 797.642 566.708 811.381C533.087 831.603 501.318 832.182 464.309 822.856C444.733 817.922 425.741 811.01 406.667 804.469C398.377 801.626 386.578 798.831 379.487 794.025C390.145 795.099 401.414 794.728 412.155 794.906C492.581 796.238 566.139 778.776 639.456 746.274Z"/>
	<path fill="#8A3927" d="M495.174 797.547C498.892 797.374 501.628 797.657 505.127 798.921C508.442 802.327 509.618 805.714 510.976 810.147C508.805 815.57 507.022 817.952 501.556 820.325C499.436 820.23 497.319 820.136 495.254 819.599C491.974 818.746 488.799 816.635 487.171 813.608C485.911 811.264 485.607 808.521 486.408 805.973C487.821 801.48 491.285 799.574 495.174 797.547Z"/>
	<defs>
		<linearGradient id="gradient_7" gradientUnits="userSpaceOnUse" x1="541.62207" y1="573.07733" x2="593.33832" y2="765.44568">
			<stop offset="0" stop-color="#530807"/>
			<stop offset="1" stop-color="#84251D"/>
		</linearGradient>
	</defs>
	<path fill="url(#gradient_7)" d="M899.67 474.008L900.445 479.56L901.07 491.931L900.997 498.741C891.061 514.641 882.323 531.317 871.966 546.933C831.096 608.557 778.566 663.365 716.165 703.392C699.472 714.099 682.272 723.749 664.766 733.051C656.609 737.385 646.882 740.854 639.456 746.274C566.139 778.776 492.581 796.238 412.155 794.906C401.414 794.728 390.145 795.099 379.487 794.025C370.056 792.603 360.298 793.06 350.791 792.235C333.237 790.71 315.77 787.984 298.471 784.677C281.661 781.464 264.761 777.289 248.326 772.496C239.383 769.888 230.493 766.252 221.403 764.264L220.902 764.159C213.344 758.259 207.341 749.981 201.851 742.184C216.492 749.242 232.415 754.008 247.996 758.494C328.245 781.599 415.786 782.413 497.121 763.781C513.545 760.833 530.314 756.041 546.114 750.722C546.144 750.709 546.175 750.697 546.205 750.683C548.651 749.581 550.882 748.877 553.483 748.284C639.433 722.152 741.967 662.502 806.56 599.373C815.709 592.708 823.552 582.972 831.197 574.669C861.592 541.659 882.644 515.882 899.67 474.008Z"/>
	<path fill="#8A3927" d="M546.114 750.722C546.144 750.709 546.175 750.697 546.205 750.683C548.651 749.581 550.882 748.877 553.483 748.284C555.327 749.103 557.183 749.768 559.094 750.415C561.689 753.49 563.474 756.508 563.168 760.681C562.973 763.333 561.715 765.822 559.7 767.557C557.65 769.322 554.935 770.155 552.246 769.935C549.229 769.688 546.522 768.049 544.711 765.65C543.429 763.954 542.871 762.034 542.314 760.013C543.154 756.56 544.337 753.817 546.114 750.722Z"/>
	<path fill="#AB5A39" d="M884.445 396.77C885.023 398.552 885.596 400.331 886.238 402.091L885.383 401.681L886.528 401.738L886.498 399.956L886.954 400.144C887.322 401.753 887.745 403.372 887.963 405.01C893.91 426.593 901.722 457.248 900.445 479.56L899.67 474.008C882.644 515.882 861.592 541.659 831.197 574.669C823.552 582.972 815.709 592.708 806.56 599.373C741.967 662.502 639.433 722.152 553.483 748.284C550.882 748.877 548.651 749.581 546.205 750.683C546.175 750.697 546.144 750.709 546.114 750.722C530.314 756.041 513.545 760.833 497.121 763.781C492.266 762.585 484.162 766.36 478.913 766.799C478.783 765.537 478.773 765.542 477.876 764.642C476.464 764.441 475.986 764.75 474.681 765.264C474.343 760.483 488.049 749.215 491.488 745.074C492.083 744.357 493.805 744.198 494.736 743.959L494.129 743.328L494.922 743.843C494.971 743.797 495.034 743.763 495.068 743.705C495.943 742.227 494.817 742.651 494.782 741.398C496.794 740.776 499.147 740.444 501.06 739.664C502.044 739.263 502.526 738.602 503.647 738.262C504.795 737.915 505.868 737.535 506.981 737.082L507.489 736.259C513.017 734.139 519.471 733.209 525.222 731.596C535.838 728.619 546.311 725.119 556.71 721.466C604.263 704.759 652.32 677.13 690.805 644.618C696.375 639.912 733.88 605.644 734.31 600.606C735.219 599.624 736.219 598.738 737.204 597.834C742.433 594.733 747.486 590.239 752.153 586.322C768.582 572.534 783.682 557.314 798.412 541.752C805.044 535.844 810.462 528.215 815.853 521.195C839.462 491.882 860.949 460.232 874.905 425.098C878.58 415.844 881.388 406.241 884.445 396.77Z"/>
	<path fill="#8A3927" d="M851.144 490.862C851.654 491.078 852.056 491.432 852.498 491.761C853.751 494.625 852.34 498.431 851.317 501.244C843.87 521.726 814.474 571.043 799.643 586.534C795.91 590.434 792.122 593.341 787.22 595.599C787.112 595.495 786.999 595.397 786.898 595.287C785.776 594.056 785.287 592.688 785.453 591.027C786.039 585.145 790.49 578.222 793.442 573.218C803.485 556.199 815.734 540.46 827.051 524.277C834.732 513.292 840.949 499.736 851.144 490.862Z"/>
	<path fill="#8A3927" d="M890.366 416.287C889.423 412.663 888.121 408.747 887.963 405.01C893.91 426.593 901.722 457.248 900.445 479.56L899.67 474.008C882.644 515.882 861.592 541.659 831.197 574.669C823.552 582.972 815.709 592.708 806.56 599.373C809.014 590.735 816.738 580.46 821.383 572.617C828.814 560.068 836.233 547.364 843.018 534.455C863.833 494.855 877.383 459.062 890.366 416.287Z"/>
	<path fill="#621B18" d="M285.133 823.158C286.243 822.734 287.004 822.974 288.11 823.322C291.619 824.426 295.07 826.067 298.525 827.365C306.311 830.289 314.415 832.868 322.588 834.431C339.826 837.728 358.25 830.73 375.246 828.216C384.594 826.834 393.695 826.799 403.06 828.087C418.342 830.19 432.662 835.282 447.193 840.21C471.893 848.587 496.294 854.109 522.586 851.066C545.772 848.382 566.044 837.239 583.737 822.424C591.689 815.765 599.109 808.382 607.078 801.68C619.141 791.534 632.124 782.207 646.173 774.996C655.516 770.201 665.283 765.909 675.266 762.637C693.784 756.568 712.917 752.799 731.325 746.227C753.772 738.213 769.592 728.529 780.599 706.726C784.234 699.528 787.105 691.987 790.559 684.708C804.717 654.876 825.686 638.86 854.71 624.743C864.843 619.814 875.408 615.169 886.024 611.382C881.655 625.791 877.213 640.05 871.375 653.942C870.65 656.272 869.695 658.703 869.314 661.111C868.648 663.268 867.678 665.547 866.33 667.375C856.241 690.331 843.243 711.885 828.868 732.399C783.62 796.974 725.922 843.511 652.238 872.15C563.38 906.686 461.178 907.334 372.431 872.069C352.314 863.9 331.547 854.43 313.091 842.893C303.548 836.928 294.267 829.751 285.133 823.158Z"/>
	<path fill="#753438" d="M701.236 797.022C708.865 791.558 717.411 788.646 726.112 785.391C740.263 780.098 754.044 774.088 765.509 763.969C774.817 755.753 781.502 744.8 788.361 734.571C813.859 696.545 827.836 673.789 871.375 653.942C870.65 656.272 869.695 658.703 869.314 661.111C868.648 663.268 867.678 665.547 866.33 667.375C865.812 667.174 865.366 667.045 864.789 667.135C859.864 667.901 852.772 672.474 848.5 674.953C821.355 690.707 802.137 719.537 785.901 745.565C779.702 755.503 773.804 766.6 765.565 774.977C748.681 792.142 724.364 796.696 701.236 797.022Z"/>
	<path fill="#171829" d="M859.12 318.139C868.339 321.604 918.699 399.777 927.579 414.022C931.202 419.834 938.438 435.9 943.259 439.132C947.481 451.364 947.658 468.394 948.466 481.41C949.829 503.378 949.986 525.152 948.236 547.106C944.087 599.169 928.815 656.284 905.94 703.261C854.834 808.211 760.785 893.048 650.258 931.049C587.139 952.75 520.905 958.378 454.779 950.301C439.772 948.468 420.45 945.932 406.462 940.205C405.53 937.102 386.172 924.754 382.588 922.151C359.696 905.523 337.602 886.956 317.014 867.554C308.901 859.909 301.163 851.846 293.213 844.03C287.515 838.429 278.289 831.424 274.595 824.56C303.092 846.006 332.734 864.339 365.888 877.758C367.53 876.518 368.77 874.178 370.358 873.179C370.82 872.888 371.34 872.699 371.813 872.427L372.431 872.069C461.178 907.334 563.38 906.686 652.238 872.15C725.922 843.511 783.62 796.974 828.868 732.399C843.243 711.885 856.241 690.331 866.33 667.375C867.678 665.547 868.648 663.268 869.314 661.111C873.171 655.24 875.605 646.996 878.005 640.388C891.915 602.08 899.584 561.992 901.385 521.281C901.81 511.659 902.422 501.496 901.07 491.931L900.445 479.56C901.722 457.248 893.91 426.593 887.963 405.01C887.745 403.372 887.322 401.753 886.954 400.144L886.498 399.956L886.528 401.738L885.383 401.681L886.238 402.091C885.596 400.331 885.023 398.552 884.445 396.77C885.072 392.997 881.092 385.162 879.707 381.441C879.807 381.328 879.911 381.218 880.006 381.102C886.069 373.727 880.529 368.183 879.807 360.425C879.792 360.268 879.784 360.111 879.773 359.953C876.56 348.671 864.925 329.013 859.12 318.139Z"/>
	<defs>
		<linearGradient id="gradient_8" gradientUnits="userSpaceOnUse" x1="788.11169" y1="791.67834" x2="623.67548" y2="622.38635">
			<stop offset="0" stop-color="#844845"/>
			<stop offset="1" stop-color="#A56146"/>
		</linearGradient>
	</defs>
	<path fill="url(#gradient_8)" d="M879.773 359.953C885.315 372.157 889.638 385.167 893.475 397.999C917.461 478.216 912.632 566.756 883.264 644.936C847.301 740.671 775.462 825.689 681.434 868.369C665.542 875.582 649.279 882.258 632.626 887.515C550.006 913.594 458.002 912.872 376.675 882.117C373.048 880.745 369.434 879.329 365.888 877.758C367.53 876.518 368.77 874.178 370.358 873.179C370.82 872.888 371.34 872.699 371.813 872.427L372.431 872.069C461.178 907.334 563.38 906.686 652.238 872.15C725.922 843.511 783.62 796.974 828.868 732.399C843.243 711.885 856.241 690.331 866.33 667.375C867.678 665.547 868.648 663.268 869.314 661.111C873.171 655.24 875.605 646.996 878.005 640.388C891.915 602.08 899.584 561.992 901.385 521.281C901.81 511.659 902.422 501.496 901.07 491.931L900.445 479.56C901.722 457.248 893.91 426.593 887.963 405.01C887.745 403.372 887.322 401.753 886.954 400.144L886.498 399.956L886.528 401.738L885.383 401.681L886.238 402.091C885.596 400.331 885.023 398.552 884.445 396.77C885.072 392.997 881.092 385.162 879.707 381.441C879.807 381.328 879.911 381.218 880.006 381.102C886.069 373.727 880.529 368.183 879.807 360.425C879.792 360.268 879.784 360.111 879.773 359.953Z"/>
</svg>
