<?xml version="1.0" encoding="utf-8" ?>
<svg xmlns="http://www.w3.org/2000/svg" xmlns:xlink="http://www.w3.org/1999/xlink" width="1024" height="1024">
	<path fill="#213B8D" d="M506.936 19.2213C632.151 15.6706 757.721 68.1842 848.229 153.648C942.647 242.804 999.869 366.301 1003.29 496.501C1006.86 632.045 959.095 754.537 866.013 852.745C793.821 928.914 692.259 980.903 588.848 997.439C564.761 1001.29 540.634 1002.62 516.289 1003.27C396.703 1003.29 273.183 959.276 184.528 878.013C84.9353 786.724 25.3301 664.849 19.7393 529.355C14.3201 398.02 61.7394 274.007 150.622 177.691C171.11 155.489 193.902 136 218.087 117.95C285.819 67.3993 364.775 34.7645 448.621 23.6714C468.005 21.1068 487.414 20.0062 506.936 19.2213Z"/>
	<path fill="#FEFEFE" d="M657.296 139.086C657.461 139.115 657.628 139.132 657.79 139.174C659.39 139.581 660.285 140.349 661.073 141.757C661.25 143.525 660.651 144.714 659.963 146.318C659.701 146.241 659.439 146.168 659.178 146.088C657.544 145.587 656.625 144.952 655.817 143.443C655.749 141.684 656.481 140.572 657.296 139.086Z"/>
	<path fill="#7082C3" d="M222.767 821.725C223.694 821.822 224.969 822.065 225.749 822.633C226.808 823.405 227.266 824.173 227.37 825.488C227.493 827.031 226.442 828.342 225.617 829.539C224.63 829.338 223.09 829.034 222.25 828.431C221.064 827.579 220.927 827.141 220.549 825.817C220.81 823.979 221.588 823.118 222.767 821.725Z"/>
	<path fill="#A57EC4" d="M90.1306 565.404C92.2661 565.215 94.3738 565.127 96.1225 566.593C97.1393 567.445 97.6396 568.619 97.6165 569.939C97.5762 572.239 96.2703 573.528 94.767 575.061C93.0772 575.106 91.0502 574.989 89.5786 574.072C88.5002 573.4 87.8332 572.338 87.7054 571.076C87.4697 568.749 88.838 567.159 90.1306 565.404Z"/>
	<path fill="#EE70AD" d="M686.066 217.011C693.341 221.241 701.295 225.28 707.737 230.708C705.906 231.502 704.857 231.966 703.725 233.644C697.251 230.711 690.706 225.743 684.609 222.012L686.066 217.011Z"/>
	<path fill="#A57EC4" d="M774.609 160.058C776.754 159.917 778.842 159.833 780.924 160.466C784.215 161.465 786.957 163.658 788.432 166.786C789.773 169.631 789.908 173.003 788.825 175.953C787.175 180.449 783.879 182.505 779.786 184.438C777.971 184.583 776.298 184.539 774.523 184.063C771.256 183.187 768.539 181.045 766.955 178.059C765.382 175.092 764.967 171.503 766.057 168.302C767.548 163.921 770.613 161.918 774.609 160.058Z"/>
	<path fill="#00C6A6" d="M281.573 770.936C286.887 770.988 292.12 771.882 297.366 772.665L297.865 772.898C309.719 783.36 322.918 793.339 336.549 801.363C343.69 805.566 352.529 808.804 359.025 813.829C356.628 816.25 354.284 818.683 352.043 821.25C349.465 819.575 346.831 818.104 344.121 816.655C340.958 813.304 323.83 804.084 318.718 800.587C305.634 791.635 293.352 781.523 281.573 770.936Z"/>
	<path fill="#FA84BF" d="M202.741 373.614C205.175 375.716 207.584 377.727 210.233 379.555C202.07 393.067 183.085 445.501 184.034 461.347C180.585 474.002 181.384 487.496 178.676 499.843C177.808 505.281 177.249 511.648 178.205 517.095C178.342 528.278 177.271 539.369 179.321 550.478L179.221 551.396C177.509 555.346 175.383 560.96 171.907 563.653C169.411 549.349 168.909 535.025 168.964 520.532C169.106 483.566 174.184 448.074 186.316 413.086C189.001 407.706 190.966 401.812 193.203 396.223C196.243 388.63 199.505 381.124 202.741 373.614Z"/>
	<path fill="#574EAD" d="M538.446 44.0445C578.804 45.8323 618.998 53.8999 657.296 66.614C663.361 68.6276 669.178 70.7641 675.087 73.1447C676.624 73.7638 678.391 73.9526 679.877 74.6458L680.03 75.2563L680.623 75.4045C679.545 75.6718 657.317 67.0362 653.45 65.8134C630.661 58.6068 607.579 53.0856 583.945 49.4363C581.82 49.1082 573.481 47.3388 572.093 48.9169C567.862 53.7277 562.094 57.2324 557.681 62.0021C558.221 63.299 559.217 63.5604 559.673 64.8058L558.193 66.3004L558.534 66.5099L558.345 66.7896C558.479 66.873 558.615 66.9549 558.748 67.0399C561.008 68.4818 562.552 70.2195 563.035 72.9324C563.513 75.6202 562.746 78.3367 561.16 80.529C559.815 82.389 558.041 84.0932 555.68 84.4346C552.276 84.927 548.732 82.7058 546.14 80.7534L544.923 81.5148L544.667 81.2718L544.819 80.1599L543.264 81.0896L542.717 80.5434C542.815 79.1688 543.962 78.1408 544.803 77.1186C544.49 75.2934 543.776 75.9517 544.117 73.5571L543.56 73.4112L542.698 74.3048C542.971 75.3364 543.265 76.2835 543.688 77.2638C543.51 78.259 543.707 77.8717 543.248 78.4908C542.448 78.3853 542.715 78.5556 542.147 77.8157C541.258 76.6565 541.141 75.7027 541.257 74.2883C540.808 75.0833 541.556 76.3414 541.08 77.3422C538.387 82.9992 538.416 85.9144 532.762 89.4931C524.439 94.761 512.525 115.579 504.467 119.368L504.287 117.018C504.297 117.808 504.556 119.595 504.326 120.271C503.826 121.741 499.988 125.317 498.882 126.668C494.633 131.863 490.009 136.612 485.561 141.626C477.811 150.362 470.359 159.115 463.068 168.231C461.138 170.643 458.015 173.293 457.042 176.172C458.479 176.225 460.31 175.816 461.175 177.201C461.355 177.489 461.453 177.82 461.592 178.13C463.135 177.52 463.434 176.077 464.858 175.815C465.177 176.767 464.985 176.953 464.745 177.894C464.967 177.816 465.188 177.734 465.412 177.66C472.094 175.462 480.936 175.687 487.972 174.975C538.777 169.831 598.136 177.123 645.476 196.588C651.382 199.016 657.527 201.302 663.142 204.348C664.046 204.839 663.95 204.92 664.401 205.775C661.797 205.423 640.937 195.821 635.648 193.854C611.166 184.75 585.046 178.84 558.997 176.806C506.041 169.06 445.323 177.977 395.512 196.915L395.29 196.243C395.655 194.253 397.741 192.168 399.126 190.701C404.513 184.988 410.84 179.94 416.595 174.58C424.134 167.559 431.324 160.076 438.582 152.763C457.472 133.728 476.159 114.303 493.842 94.1366L520.804 63.2562C526.493 56.7809 532.199 49.9788 538.446 44.0445Z"/>
	<path fill="#F7CC4D" d="M551.69 66.5095C552.835 66.4632 554.024 66.3978 555.156 66.6133C557.356 67.0325 559.657 68.3467 560.93 70.218C562.111 71.9542 562.434 74.0183 562.046 76.063C561.354 79.7051 558.98 81.5876 556.022 83.5153C555.265 83.5254 554.506 83.5499 553.753 83.4522C551.272 83.1304 548.553 81.8341 547.068 79.769C545.673 77.8302 545.351 75.5114 545.871 73.2088C546.638 69.8077 548.87 68.2518 551.69 66.5095Z"/>
	<path fill="#042266" d="M359.025 813.829L359.339 813.898C366.361 819.311 375.492 823.3 383.817 826.265C384.516 826.514 384.261 826.409 384.919 826.972C382.769 829.267 380.793 831.69 379.226 834.431C406.231 845.256 432.905 854.035 461.614 859.243C456.083 867.073 399.206 895.001 387.347 900.509C376.674 905.466 365.689 910.235 354.675 914.379C338.703 920.388 321.409 923.856 306.032 931.266C305.495 931.537 304.94 931.604 304.354 931.726C300.358 930.525 296.451 927.705 292.8 925.677C277.667 917.269 263.427 908.227 248.873 898.866C240.922 893.752 229.146 887.024 223.165 879.883L223.499 879.626C224.301 880.167 225.032 880.579 225.928 880.948C230.835 878.947 235.697 879.974 240.692 878.394C246.058 876.696 250.913 873.484 256.295 871.779C260.693 870.385 265.282 869.628 269.669 868.185C274.426 866.619 278.956 864.386 283.799 863.065C288.096 861.893 292.662 861.408 296.887 860.041C299.991 859.036 302.445 856.074 305.451 854.729C311.594 851.979 332.672 845.112 338.933 845.76C339.866 845.856 340.754 845.819 341.691 845.793C342.863 844.665 343.87 843.436 344.903 842.182C349.339 841.588 354.624 841.565 358.117 838.482C359.752 834.493 355.887 834.718 355.23 831.515L356.875 830.654C356.624 829.702 351.04 822.094 350.174 821.4C348.177 819.8 346.009 819.123 344.366 816.994C344.281 816.884 344.203 816.768 344.121 816.655C346.831 818.104 349.465 819.575 352.043 821.25C354.284 818.683 356.628 816.25 359.025 813.829Z"/>
	<path fill="#BFFB1C" d="M326.661 874.179C327.412 874.301 328.529 874.44 329.183 874.809C330.188 875.376 330.782 876.039 330.902 877.213C331.06 878.747 329.882 880.27 329.095 881.493C327.183 880.752 325.771 880.104 324.822 878.201C324.858 876.415 325.642 875.54 326.661 874.179Z"/>
	<path fill="#EE70AD" d="M359.025 813.829L359.339 813.898C366.361 819.311 375.492 823.3 383.817 826.265C384.516 826.514 384.261 826.409 384.919 826.972C382.769 829.267 380.793 831.69 379.226 834.431C369.917 830.527 360.986 825.919 352.043 821.25C354.284 818.683 356.628 816.25 359.025 813.829Z"/>
	<path fill="#042266" d="M845.052 420.585L845.27 420.18C847.003 416.898 847.984 411.33 850.368 408.742C851.28 409.359 851.634 409.867 852.272 410.745C853.826 409.75 853.818 407.298 855.282 406.136C856.221 405.391 858.452 406.3 859.47 405.545C860.899 404.487 862.46 402.134 863.672 400.76C867.594 396.308 871.49 391.706 875.734 387.555C881.196 382.213 888.024 378.718 893.626 373.651C898.964 368.823 902.54 362.624 907.329 357.335C909.771 354.637 913.048 352.978 915.606 350.419C920.345 345.678 927.081 338.551 930.866 333.146C932.285 331.119 933.095 328.756 934.353 326.638C935.738 324.308 937.497 322.25 938.828 319.877C938.746 319.039 938.298 317.135 938.717 316.472C943.296 323.584 946.202 332.939 949.211 340.815C957.941 363.664 965.968 386.879 971.17 410.817C973.255 420.412 974.547 430.098 976.124 439.779C977.019 445.273 979.296 452.521 978.438 458.003C978.324 458.733 978.069 459.397 977.813 460.086C945.438 514.449 904.352 562.901 861.277 608.997C855.241 615.456 843.805 629.664 836.189 633.351C835.828 634.105 835.475 634.727 835.335 635.558C832.393 635.131 816.58 646.355 812.712 648.439C814.856 639.586 821.98 632.894 823.857 623.573L826.103 621.411L844.45 607.053C844.56 606.866 844.674 606.681 844.781 606.493C848.39 600.129 849.923 588.088 851.361 580.793C861.837 527.657 858.989 472.782 845.052 420.585Z"/>
	<path fill="#DA3F90" d="M844.45 607.053C843.684 615.721 838.812 625.013 836.189 633.351C835.828 634.105 835.475 634.727 835.335 635.558C832.393 635.131 816.58 646.355 812.712 648.439C814.856 639.586 821.98 632.894 823.857 623.573L826.103 621.411L844.45 607.053Z"/>
	<path fill="#0F9ED7" d="M917.455 428.16C919.403 428.314 921.361 428.479 923.184 429.238C926.297 430.535 928.819 433.177 929.95 436.35C931.108 439.598 930.883 443.344 929.313 446.417C927.16 450.629 923.788 452.322 919.483 453.68C917.199 453.298 914.812 452.981 912.746 451.875C909.758 450.275 907.369 447.475 906.389 444.22C905.419 441.001 905.773 437.425 907.509 434.531C909.688 430.897 913.484 429.116 917.455 428.16Z"/>
	<path fill="#0F9ED7" d="M740.179 254.927C779.144 238.144 837.729 218.143 879.323 234.483C892.307 239.584 903.791 249.217 909.443 262.233C917.118 279.907 914.605 299.088 907.498 316.497C896.277 343.986 875.256 366.089 854.616 386.73C849.439 391.908 844.44 397.406 839.006 402.307C836.444 404.776 833.93 407.466 831.207 409.746C818.692 418.863 806.452 432.569 794.445 442.953C763.721 469.523 731.682 494.223 698.458 517.581C687.271 525.447 675.631 534.53 663.576 540.923C670.395 522.646 676.817 504.554 681.196 485.525L681.772 484.833C684.664 475.209 685.53 461.704 686.926 451.458C687.485 436.256 691.495 391.195 685.412 379.032L686.229 377.701C685.834 373.129 679.786 353.224 680.449 351.48C680.872 350.366 683.726 347.926 684.623 346.977C688.257 343.132 692.857 339.192 695.309 334.486C695.373 334.364 695.431 334.238 695.492 334.115C688.98 336.377 682.507 338.768 676.235 341.641C674.214 330.038 666.629 315.109 660.862 304.685L660.714 304.292C676.746 287.32 692.172 267.723 700.367 245.645C701.724 241.988 703.348 237.513 703.725 233.644C704.857 231.966 705.906 231.502 707.737 230.708C719.076 238.061 729.751 246.339 740.179 254.927Z"/>
	<path fill="#213B8D" d="M768.713 282.286C790.96 274.504 827.878 266.794 849.528 277.34C854.682 279.851 858.907 283.57 860.778 289.129C863.803 298.119 860.172 308.716 855.985 316.752C847.288 333.443 834.608 347.779 821.921 361.504C813.412 342.608 803.049 323.536 789.615 307.628C783.783 298.525 775.865 290.381 768.713 282.286Z"/>
	<path fill="#02A37E" d="M707.737 230.708C719.076 238.061 729.751 246.339 740.179 254.927C744.396 258.701 748.627 262.453 752.91 266.152C758.6 271.108 763.378 276.969 768.713 282.286C775.865 290.381 783.783 298.525 789.615 307.628C803.049 323.536 813.412 342.608 821.921 361.504L814.598 369.038C780.144 405.654 741.995 438.064 702.201 468.705C695.341 473.986 688.747 479.738 681.772 484.833C684.664 475.209 685.53 461.704 686.926 451.458C687.485 436.256 691.495 391.195 685.412 379.032L686.229 377.701C685.834 373.129 679.786 353.224 680.449 351.48C680.872 350.366 683.726 347.926 684.623 346.977C688.257 343.132 692.857 339.192 695.309 334.486C695.373 334.364 695.431 334.238 695.492 334.115C688.98 336.377 682.507 338.768 676.235 341.641C674.214 330.038 666.629 315.109 660.862 304.685L660.714 304.292C676.746 287.32 692.172 267.723 700.367 245.645C701.724 241.988 703.348 237.513 703.725 233.644C704.857 231.966 705.906 231.502 707.737 230.708Z"/>
	<path fill="#00DEB1" d="M778.515 307.321L781.33 307.288C784.098 307.47 786.84 307.63 789.615 307.628C803.049 323.536 813.412 342.608 821.921 361.504L814.598 369.038C805.219 347.387 790.687 327.516 778.515 307.321Z"/>
	<path fill="#CA2586" d="M752.91 266.152C758.6 271.108 763.378 276.969 768.713 282.286C775.865 290.381 783.783 298.525 789.615 307.628C786.84 307.63 784.098 307.47 781.33 307.288L778.515 307.321C752.191 307.992 731.7 327.275 714.578 345.288C709.412 350.723 704.233 356.165 699.425 361.923C695.059 367.151 690.957 372.811 686.229 377.701C685.834 373.129 679.786 353.224 680.449 351.48C680.872 350.366 683.726 347.926 684.623 346.977C688.257 343.132 692.857 339.192 695.309 334.486C695.373 334.364 695.431 334.238 695.492 334.115C698.985 331.441 702.279 327.781 705.385 324.651C721.983 307.927 734.991 288.667 749.438 270.185C750.421 268.746 751.748 267.453 752.91 266.152Z"/>
	<path fill="#EE70AD" d="M752.91 266.152C758.6 271.108 763.378 276.969 768.713 282.286C775.865 290.381 783.783 298.525 789.615 307.628C786.84 307.63 784.098 307.47 781.33 307.288C776.825 302.344 773.494 296.543 769.302 291.35C763.244 283.843 756.268 276.978 749.438 270.185C750.421 268.746 751.748 267.453 752.91 266.152Z"/>
	<path fill="#F4833A" d="M707.737 230.708C719.076 238.061 729.751 246.339 740.179 254.927C744.396 258.701 748.627 262.453 752.91 266.152C751.748 267.453 750.421 268.746 749.438 270.185C734.991 288.667 721.983 307.927 705.385 324.651C702.279 327.781 698.985 331.441 695.492 334.115C688.98 336.377 682.507 338.768 676.235 341.641C674.214 330.038 666.629 315.109 660.862 304.685L660.714 304.292C676.746 287.32 692.172 267.723 700.367 245.645C701.724 241.988 703.348 237.513 703.725 233.644C704.857 231.966 705.906 231.502 707.737 230.708Z"/>
	<path fill="#7C5BB6" d="M421.415 52.761C428.519 50.3356 436.626 49.6701 444.042 48.5614C475.671 43.833 506.517 42.2382 538.446 44.0445C532.199 49.9788 526.493 56.7809 520.804 63.2562L493.842 94.1366C476.159 114.303 457.472 133.728 438.582 152.763C431.324 160.076 424.134 167.559 416.595 174.58C410.84 179.94 404.513 184.988 399.126 190.701C397.741 192.168 395.655 194.253 395.29 196.243L395.512 196.915C335.369 222.397 285.396 258.036 243.911 308.706C235.136 319.423 224.955 331.397 219.243 344.085C219.194 344.193 219.159 344.307 219.117 344.419C212.899 353.61 207.127 363.403 202.741 373.614C199.505 381.124 196.243 388.63 193.203 396.223C190.966 401.812 189.001 407.706 186.316 413.086C186.46 410.861 186.979 408.661 187.401 406.474C180.971 411.039 174.009 415.064 167.38 419.361C127.17 445.425 89.6863 464.193 44.3395 479.794C44.5985 469.065 45.9806 458.159 47.3666 447.527C54.1427 395.551 69.3696 345.808 93.2096 299.133C99.7997 286.23 106.469 273.788 114.753 261.893C118.046 255.903 122.224 250.202 126.108 244.588C194.074 146.353 303.661 74.1655 421.415 52.761Z"/>
	<path fill="#FF8574" d="M369.26 186.506C369.516 186.501 369.773 186.495 370.03 186.495C372.72 186.494 375.447 187.017 377.36 189.081C378.718 190.546 379.161 192.372 378.952 194.329C378.574 197.863 376.382 199.709 373.782 201.819C373.12 201.935 373.335 201.942 372.666 201.883C370.156 201.662 367.674 201.06 366.056 198.981C364.693 197.23 364.309 194.712 364.681 192.564C365.187 189.639 366.959 188.154 369.26 186.506Z"/>
	<path fill="#C8BDE7" d="M124.456 360.624C127.309 360.275 130.021 360.149 132.777 361.137C136.071 362.317 138.865 364.738 140.353 367.921C141.763 370.937 141.884 374.372 140.703 377.483C139.154 381.561 135.895 383.847 132.079 385.595C129.502 386.251 126.531 386.139 124.017 385.276C120.65 384.12 117.993 381.624 116.56 378.371C115.177 375.234 115.007 371.56 116.259 368.354C117.839 364.307 120.65 362.378 124.456 360.624Z"/>
	<path fill="#F7CC4D" d="M339.267 101.166C342.133 107.057 344.956 113.006 348.756 118.364C354.021 123.145 360.434 125.956 365.993 130.249C350.616 138.957 344.816 142.921 339.367 160.545C335.462 152.064 332.989 143.127 324.952 137.558C320.707 135.009 316.003 133.555 311.935 130.602C314.854 128.672 318.089 127.215 321.138 125.496C332.416 119.136 334.832 112.509 339.267 101.166Z"/>
	<path fill="#A57EC4" d="M114.753 261.893C118.046 255.903 122.224 250.202 126.108 244.588C194.074 146.353 303.661 74.1655 421.415 52.761C419.92 62.0361 358.806 109.115 348.756 118.364C344.956 113.006 342.133 107.057 339.267 101.166C334.832 112.509 332.416 119.136 321.138 125.496C318.089 127.215 314.854 128.672 311.935 130.602C316.003 133.555 320.707 135.009 324.952 137.558C319.571 143.436 312.992 148.611 306.884 153.71C281.533 174.872 247.521 199.238 218.063 213.995C218.656 216.965 218.672 219.358 216.865 221.931C215.48 223.903 213.365 225.176 210.998 225.578C208.024 226.083 206.248 225.145 203.88 223.437C184.096 234.299 163.026 243.317 142.221 252.025C133.721 255.583 123.869 260.634 114.753 261.893Z"/>
	<path fill="#F4833A" d="M203.88 223.437C203.754 223.156 203.631 222.875 203.502 222.595C202.595 220.629 201.917 219.056 202.12 216.838C202.347 214.345 203.578 211.796 205.579 210.257C207.16 209.04 209.16 208.479 211.14 208.785C214.388 209.287 216.263 211.446 218.063 213.995C218.656 216.965 218.672 219.358 216.865 221.931C215.48 223.903 213.365 225.176 210.998 225.578C208.024 226.083 206.248 225.145 203.88 223.437Z"/>
	<defs>
		<linearGradient id="gradient_0" gradientUnits="userSpaceOnUse" x1="677.60132" y1="732.8338" x2="816.69946" y2="867.84015">
			<stop offset="0" stop-color="#6B2C84"/>
			<stop offset="1" stop-color="#9E2D8E"/>
		</linearGradient>
	</defs>
	<path fill="url(#gradient_0)" d="M977.813 460.086C982.778 473.55 980.433 525.736 979.58 541.959C979.338 546.565 979.586 552.032 978.639 556.485C977.001 576.909 973.127 597.554 968.519 617.502C945.365 717.753 890.446 803.869 812.358 870.334C723.13 946.281 598.586 987.94 481.503 978.512C468.454 977.461 454.897 976.126 442.068 973.534C410.726 969.052 381.118 961.395 351.255 950.838C335.881 945.403 320.257 939.293 306.032 931.266C321.409 923.856 338.703 920.388 354.675 914.379C365.689 910.235 376.674 905.466 387.347 900.509C399.206 895.001 456.083 867.073 461.614 859.243C529.504 870.248 598.8 862.348 660.79 831.61C723.601 800.465 774.499 751.439 809.541 690.866C819.745 673.227 828.789 654.882 835.335 635.558C835.475 634.727 835.828 634.105 836.189 633.351C843.805 629.664 855.241 615.456 861.277 608.997C904.352 562.901 945.438 514.449 977.813 460.086Z"/>
	<path fill="#F7A654" d="M765.403 860.49C766.485 860.441 767.397 860.468 768.451 860.751C770.643 861.339 772.573 862.674 773.669 864.693C774.766 866.713 774.856 869.107 774.115 871.264C773.107 874.198 771.119 875.329 768.449 876.609C767.785 876.601 767.137 876.569 766.482 876.451C764.105 876.021 761.532 874.76 760.207 872.666C759.149 870.994 758.98 869.069 759.436 867.171C760.256 863.753 762.602 862.25 765.403 860.49Z"/>
	<path fill="#EE70AD" d="M855.282 759.078C856.962 759.087 858.566 759.193 860.172 759.74C862.875 760.659 865.142 762.568 866.413 765.133C867.753 767.838 867.886 771.116 866.795 773.927C865.256 777.888 862.44 779.635 858.665 781.187C856.664 781.08 854.727 780.958 852.88 780.108C850.096 778.827 847.829 776.256 846.839 773.366C845.872 770.547 846.007 767.44 847.417 764.794C849.166 761.512 851.863 760.128 855.282 759.078Z"/>
	<path fill="#F7CC4D" d="M907.315 634.043L910.645 640.712C917.822 654.212 922.368 655.525 935.287 662.441C919.295 671.385 915.389 674.508 907.405 691.152C901.743 680.194 897.195 673.175 886.161 667.108C883.64 665.794 881.173 664.375 878.692 662.988C896.05 654.595 898.677 651.181 907.315 634.043Z"/>
	<path fill="#512380" d="M977.813 460.086C982.778 473.55 980.433 525.736 979.58 541.959C979.338 546.565 979.586 552.032 978.639 556.485L977.765 556.388C970.281 564.607 964.4 574.336 957.754 583.23C946.614 598.136 934.979 612.62 923.124 626.961C919.515 631.326 915.469 637.787 910.645 640.712L907.315 634.043C898.677 651.181 896.05 654.595 878.692 662.988C881.173 664.375 883.64 665.794 886.161 667.108C882.462 674.179 856.701 700.093 849.41 707.704C800.822 758.427 747.051 806.201 689.4 846.386C648.23 875.082 604.429 900.338 559.616 922.882C536.699 934.411 513.271 945.51 489.449 955.05C479.123 959.186 468.739 963.168 458.33 967.09C453.185 969.029 446.736 970.646 442.068 973.534C410.726 969.052 381.118 961.395 351.255 950.838C335.881 945.403 320.257 939.293 306.032 931.266C321.409 923.856 338.703 920.388 354.675 914.379C365.689 910.235 376.674 905.466 387.347 900.509C399.206 895.001 456.083 867.073 461.614 859.243C529.504 870.248 598.8 862.348 660.79 831.61C723.601 800.465 774.499 751.439 809.541 690.866C819.745 673.227 828.789 654.882 835.335 635.558C835.475 634.727 835.828 634.105 836.189 633.351C843.805 629.664 855.241 615.456 861.277 608.997C904.352 562.901 945.438 514.449 977.813 460.086Z"/>
	<path fill="#7082C3" d="M435.265 904.47C435.852 904.478 436.416 904.483 436.995 904.59C439.226 905.001 441.403 906.134 442.584 908.136C443.579 909.824 443.635 911.881 443.029 913.715C442.157 916.355 440.229 917.513 437.904 918.783C437.261 918.729 436.626 918.681 435.992 918.558C433.892 918.152 431.799 916.966 430.626 915.138C429.735 913.749 429.573 912.131 429.92 910.548C430.596 907.458 432.733 906.058 435.265 904.47Z"/>
	<path fill="#02A37E" d="M831.207 409.746C833.93 407.466 836.444 404.776 839.006 402.307C841.103 408.359 843.277 414.431 845.052 420.585C858.989 472.782 861.837 527.657 851.361 580.793C849.923 588.088 848.39 600.129 844.781 606.493C844.674 606.681 844.56 606.866 844.45 607.053L826.103 621.411L823.857 623.573C821.98 632.894 814.856 639.586 812.712 648.439C816.58 646.355 832.393 635.131 835.335 635.558C828.789 654.882 819.745 673.227 809.541 690.866C774.499 751.439 723.601 800.465 660.79 831.61C598.8 862.348 529.504 870.248 461.614 859.243C432.905 854.035 406.231 845.256 379.226 834.431C380.793 831.69 382.769 829.267 384.919 826.972C384.261 826.409 384.516 826.514 383.817 826.265C375.492 823.3 366.361 819.311 359.339 813.898L359.025 813.829C352.529 808.804 343.69 805.566 336.549 801.363C322.918 793.339 309.719 783.36 297.865 772.898C319.106 774.508 339.798 773.538 360.923 770.911C456.351 759.041 552.049 708.596 611.398 632.302C616.64 627.459 625.842 611.951 629.83 605.384C642.52 585.425 654.722 564.24 662.903 541.98L663.576 540.923C675.631 534.53 687.271 525.447 698.458 517.581C731.682 494.223 763.721 469.523 794.445 442.953C806.452 432.569 818.692 418.863 831.207 409.746Z"/>
	<path fill="#00DEB1" d="M831.207 409.746C833.93 407.466 836.444 404.776 839.006 402.307C841.103 408.359 843.277 414.431 845.052 420.585C858.989 472.782 861.837 527.657 851.361 580.793C849.923 588.088 848.39 600.129 844.781 606.493C844.674 606.681 844.56 606.866 844.45 607.053L826.103 621.411C825.692 614.746 836.536 587.341 838.665 578.168C850.337 527.875 847.646 458.854 831.207 409.746Z"/>
	<path fill="#CA2586" d="M823.857 623.573C821.98 632.894 814.856 639.586 812.712 648.439L808.866 652.598C801.962 656.039 795.295 660.151 788.261 663.289C779.367 667.255 770.199 670.289 761.448 674.636C744.828 679.701 728.129 684.476 711.024 687.642C684.534 692.545 655.987 694.273 631.23 705.785C605.585 717.711 588.051 740.448 567.624 759.057C536.584 787.336 503.447 803.105 461.978 810.315C443.338 813.556 424.515 815.409 405.977 819.366C400.647 820.504 395.332 822.281 390.301 824.373C388.582 825.088 386.658 826.545 384.919 826.972C384.261 826.409 384.516 826.514 383.817 826.265C375.492 823.3 366.361 819.311 359.339 813.898C405.356 770.97 467.882 802.708 520.476 782.715C559.053 768.05 572.969 738.315 601.821 713.922C608.659 708.142 616.251 703.295 624.165 699.131C657.877 681.392 681.116 684.633 716.134 677.395C741.95 672.059 767.118 662.274 789.246 647.862C801.065 640.164 812.162 631.448 823.857 623.573Z"/>
	<path fill="#F4833A" d="M812.712 648.439C816.58 646.355 832.393 635.131 835.335 635.558C828.789 654.882 819.745 673.227 809.541 690.866C774.499 751.439 723.601 800.465 660.79 831.61C598.8 862.348 529.504 870.248 461.614 859.243C432.905 854.035 406.231 845.256 379.226 834.431C380.793 831.69 382.769 829.267 384.919 826.972C386.658 826.545 388.582 825.088 390.301 824.373C395.332 822.281 400.647 820.504 405.977 819.366C424.515 815.409 443.338 813.556 461.978 810.315C503.447 803.105 536.584 787.336 567.624 759.057C588.051 740.448 605.585 717.711 631.23 705.785C655.987 694.273 684.534 692.545 711.024 687.642C728.129 684.476 744.828 679.701 761.448 674.636C770.199 670.289 779.367 667.255 788.261 663.289C795.295 660.151 801.962 656.039 808.866 652.598L812.712 648.439Z"/>
	<path fill="#E56622" d="M761.448 674.636C770.199 670.289 779.367 667.255 788.261 663.289C795.295 660.151 801.962 656.039 808.866 652.598C803.586 667.214 794.741 679.941 786.056 692.708C751.644 743.296 705.312 788.191 649.492 814.463C604.84 835.479 557.23 847.211 507.799 848.14C494.009 848.399 479.736 848.131 466.116 845.803C473.696 842.07 481.573 839.084 489.237 835.542C497.524 831.712 505.388 827.329 513.304 822.795C527.032 814.933 539.807 805.535 552.937 796.726C574.127 782.511 595.546 768.523 617.612 755.697C631.886 747.399 646.511 739.676 661.218 732.177C690.498 717.247 720.026 703.847 747.492 685.514C752.145 682.408 758.057 679.091 761.448 674.636Z"/>
	<path fill="#EE70AD" d="M395.512 196.915C445.323 177.977 506.041 169.06 558.997 176.806C585.046 178.84 611.166 184.75 635.648 193.854C640.937 195.821 661.797 205.423 664.401 205.775L686.066 217.011L684.609 222.012C690.706 225.743 697.251 230.711 703.725 233.644C703.348 237.513 701.724 241.988 700.367 245.645C692.172 267.723 676.746 287.32 660.714 304.292L660.862 304.685C666.629 315.109 674.214 330.038 676.235 341.641C665.534 346.03 655.186 351.383 644.616 356.087C615.165 369.194 585.456 380.828 553.756 387.235C520.979 393.859 477.987 391.107 447.698 403.098C413.027 416.823 388.27 448.691 361.214 472.946C345.232 487.274 327.194 499.916 307.286 508.132C264.064 525.968 209.699 509.281 179.321 550.478C177.271 539.369 178.342 528.278 178.205 517.095C177.249 511.648 177.808 505.281 178.676 499.843C181.384 487.496 180.585 474.002 184.034 461.347C183.085 445.501 202.07 393.067 210.233 379.555C207.584 377.727 205.175 375.716 202.741 373.614C207.127 363.403 212.899 353.61 219.117 344.419C219.159 344.307 219.194 344.193 219.243 344.085C224.955 331.397 235.136 319.423 243.911 308.706C285.396 258.036 335.369 222.397 395.512 196.915Z"/>
	<path fill="#DA3F90" d="M479.63 274.155C482.292 273.808 485.473 274.142 488.019 274.997C490.373 275.788 492.104 277.139 493.164 279.41C494.412 282.086 494.39 284.929 493.283 287.65C488.036 300.548 451.4 316.127 438.622 321.67C435.817 322.67 430.48 324.46 427.709 323C426.657 322.446 426.052 321.551 425.828 320.399C424.957 315.926 429.072 309.741 431.638 306.238C441.968 292.137 461.985 276.784 479.63 274.155Z"/>
	<path fill="#DA3F90" d="M184.034 461.347C198.064 446.261 213.635 427.138 235.924 426.297C241.812 426.074 247.568 427.433 253.375 428.161C268.193 430.02 279.845 421.562 289.515 411.314C304.932 394.975 318.358 378.649 338.441 367.655C343.167 365.067 348.645 362.331 354.145 362.252C357.592 362.202 361.014 363.35 363.504 365.786C367.068 369.272 368.042 374.46 367.99 379.26C367.923 385.477 365.641 390.616 361.129 394.893C353.673 401.961 344.203 405.825 337.877 414.271C332.116 421.963 329.651 431.284 325.655 439.884C316.78 458.983 298.301 467.629 277.815 466.947C250.261 466.029 223.049 445.288 198.641 467.773C191.302 474.532 186.993 482.81 182.762 491.687C181.455 494.431 180.435 497.353 178.676 499.843C181.384 487.496 180.585 474.002 184.034 461.347Z"/>
	<path fill="#FCC5AC" d="M431.513 209.869C436.677 207.523 442.27 204.582 447.85 203.546C456.172 205.438 464.547 206.806 471.836 211.498C462.733 215.921 453.437 219.833 444.449 224.527C428.852 232.672 413.929 242.775 400.538 254.193C391.354 262.024 382.734 270.609 374.407 279.337C344.82 310.349 268.055 401.153 219.829 384.349C216.545 383.205 213.565 381.544 210.676 379.627L210.233 379.555C207.584 377.727 205.175 375.716 202.741 373.614C207.127 363.403 212.899 353.61 219.117 344.419C223.172 343.532 227.232 342.029 231.209 340.814L231.608 340.556C239.973 338.232 248.371 334.457 256.514 331.382C273.343 325.026 290.082 317.583 305.422 308.13C338.982 287.45 366.201 258.692 396.811 234.213C401.946 230.106 407.163 225.895 412.59 222.18C418.801 217.93 425.323 214.156 431.513 209.869Z"/>
	<path fill="#FDD8B7" d="M219.117 344.419C223.172 343.532 227.232 342.029 231.209 340.814C231.093 341.945 230.909 342.702 230.399 343.733C227.784 349.011 224.463 354.014 221.68 359.219C218.087 365.942 215.255 373.543 210.676 379.627L210.233 379.555C207.584 377.727 205.175 375.716 202.741 373.614C207.127 363.403 212.899 353.61 219.117 344.419Z"/>
	<path fill="#DA3F90" d="M447.85 203.546C457.643 198.959 469.487 196.878 480.073 194.881C486.378 196.994 494.237 196.849 500.846 197.338C507.142 197.804 513.497 198.543 519.685 199.804C522.781 200.001 526.333 200.254 529.385 199.695C529.778 200.337 530.14 200.774 530.835 201.107C534.065 202.658 538.087 203.419 541.526 204.423C547.231 206.09 552.854 207.901 558.442 209.923C583.719 219.07 606.32 236.841 625.192 255.586C629.405 259.771 634.661 264.481 637.508 269.719C621.529 273.049 608.407 282.949 592.762 286.614C561.893 293.846 551.549 268.658 528.224 255.901C524.476 253.851 520.322 251.902 516.097 251.165C502.185 248.74 492.965 253.425 479.953 254.224C477.369 254.383 474.032 254.244 471.812 252.724C470.651 251.929 469.715 250.285 469.62 248.851C469.258 243.382 477.289 238.106 480.474 234.172C482.515 231.651 483.842 228.641 483.389 225.348C482.577 219.436 477.263 215.172 472.831 211.749L471.836 211.498C464.547 206.806 456.172 205.438 447.85 203.546Z"/>
	<path fill="#F7A654" d="M447.85 203.546C457.643 198.959 469.487 196.878 480.073 194.881C486.378 196.994 494.237 196.849 500.846 197.338C507.142 197.804 513.497 198.543 519.685 199.804C503.958 202.608 487.581 205.339 472.831 211.749L471.836 211.498C464.547 206.806 456.172 205.438 447.85 203.546Z"/>
	<path fill="#FCC5AC" d="M178.205 517.095C178.743 516.525 179.296 515.971 179.883 515.452C207.625 490.899 237.194 501.88 269.864 499.944C288.097 498.863 305.499 493.41 321.241 484.157C370.472 455.218 393.094 400.326 434.898 363.703C461.105 340.744 490.966 331.98 525.346 338.467C539.662 341.168 553.749 345.43 568.353 346.366C593.093 347.951 618.924 338.166 638.718 323.594C646.621 317.775 653.49 311.108 660.862 304.685C666.629 315.109 674.214 330.038 676.235 341.641C665.534 346.03 655.186 351.383 644.616 356.087C615.165 369.194 585.456 380.828 553.756 387.235C520.979 393.859 477.987 391.107 447.698 403.098C413.027 416.823 388.27 448.691 361.214 472.946C345.232 487.274 327.194 499.916 307.286 508.132C264.064 525.968 209.699 509.281 179.321 550.478C177.271 539.369 178.342 528.278 178.205 517.095Z"/>
	<path fill="#DA3F90" d="M395.512 196.915C445.323 177.977 506.041 169.06 558.997 176.806C585.046 178.84 611.166 184.75 635.648 193.854C640.937 195.821 661.797 205.423 664.401 205.775L686.066 217.011L684.609 222.012C690.706 225.743 697.251 230.711 703.725 233.644C703.348 237.513 701.724 241.988 700.367 245.645C692.172 267.723 676.746 287.32 660.714 304.292C657.693 300.158 655.244 295.52 652.548 291.164C647.915 283.678 643.064 276.555 637.508 269.719C634.661 264.481 629.405 259.771 625.192 255.586C606.32 236.841 583.719 219.07 558.442 209.923C552.854 207.901 547.231 206.09 541.526 204.423C538.087 203.419 534.065 202.658 530.835 201.107C530.14 200.774 529.778 200.337 529.385 199.695C526.333 200.254 522.781 200.001 519.685 199.804C513.497 198.543 507.142 197.804 500.846 197.338C494.237 196.849 486.378 196.994 480.073 194.881C469.487 196.878 457.643 198.959 447.85 203.546C442.27 204.582 436.677 207.523 431.513 209.869C425.323 214.156 418.801 217.93 412.59 222.18C407.163 225.895 401.946 230.106 396.811 234.213C366.201 258.692 338.982 287.45 305.422 308.13C290.082 317.583 273.343 325.026 256.514 331.382C248.371 334.457 239.973 338.232 231.608 340.556L231.209 340.814C227.232 342.029 223.172 343.532 219.117 344.419C219.159 344.307 219.194 344.193 219.243 344.085C224.955 331.397 235.136 319.423 243.911 308.706C285.396 258.036 335.369 222.397 395.512 196.915Z"/>
	<path fill="#FA84BF" d="M395.512 196.915C445.323 177.977 506.041 169.06 558.997 176.806C557.907 177.586 556.883 178.264 555.973 179.257C460.428 171.54 364.971 208.182 292.659 269.64C283.066 277.793 273.838 286.639 265.622 296.186C256.873 305.91 236.742 329.555 231.608 340.556L231.209 340.814C227.232 342.029 223.172 343.532 219.117 344.419C219.159 344.307 219.194 344.193 219.243 344.085C224.955 331.397 235.136 319.423 243.911 308.706C285.396 258.036 335.369 222.397 395.512 196.915Z"/>
	<path fill="#F4833A" d="M558.997 176.806C585.046 178.84 611.166 184.75 635.648 193.854C640.937 195.821 661.797 205.423 664.401 205.775L686.066 217.011L684.609 222.012C683.677 224.445 682.657 226.899 680.91 228.87C676.16 234.231 668.755 234.093 662.281 232.62C651.595 230.188 642.677 223.531 632.769 219.218C606.631 207.841 579.692 201.411 551.21 199.876C543.925 199.484 536.672 199.14 529.385 199.695C526.333 200.254 522.781 200.001 519.685 199.804C513.497 198.543 507.142 197.804 500.846 197.338C494.237 196.849 486.378 196.994 480.073 194.881C487.313 192.41 496.09 191.767 503.656 190.748C532.019 186.926 559.655 186.726 588.12 189.83C597.723 190.878 607.236 192.554 616.819 193.759C597.559 185.748 576.492 182.234 555.973 179.257C556.883 178.264 557.907 177.586 558.997 176.806Z"/>
	<path fill="#EE70AD" d="M265.622 296.186C286.323 293.674 342.574 253.567 363.447 241.079C376.902 233.03 390.98 226.1 405.181 219.488C413.623 215.558 422.003 210.323 431.513 209.869C425.323 214.156 418.801 217.93 412.59 222.18C407.163 225.895 401.946 230.106 396.811 234.213C366.201 258.692 338.982 287.45 305.422 308.13C290.082 317.583 273.343 325.026 256.514 331.382C248.371 334.457 239.973 338.232 231.608 340.556C236.742 329.555 256.873 305.91 265.622 296.186Z"/>
	<path fill="#CA2586" d="M529.385 199.695C536.672 199.14 543.925 199.484 551.21 199.876C579.692 201.411 606.631 207.841 632.769 219.218C642.677 223.531 651.595 230.188 662.281 232.62C668.755 234.093 676.16 234.231 680.91 228.87C682.657 226.899 683.677 224.445 684.609 222.012C690.706 225.743 697.251 230.711 703.725 233.644C703.348 237.513 701.724 241.988 700.367 245.645C692.172 267.723 676.746 287.32 660.714 304.292C657.693 300.158 655.244 295.52 652.548 291.164C647.915 283.678 643.064 276.555 637.508 269.719C634.661 264.481 629.405 259.771 625.192 255.586C606.32 236.841 583.719 219.07 558.442 209.923C552.854 207.901 547.231 206.09 541.526 204.423C538.087 203.419 534.065 202.658 530.835 201.107C530.14 200.774 529.778 200.337 529.385 199.695Z"/>
	<path fill="#00DEB1" d="M676.235 341.641C682.507 338.768 688.98 336.377 695.492 334.115C695.431 334.238 695.373 334.364 695.309 334.486C692.857 339.192 688.257 343.132 684.623 346.977C683.726 347.926 680.872 350.366 680.449 351.48C679.786 353.224 685.834 373.129 686.229 377.701L685.412 379.032C691.495 391.195 687.485 436.256 686.926 451.458C685.53 461.704 684.664 475.209 681.772 484.833L681.196 485.525C676.817 504.554 670.395 522.646 663.576 540.923L662.903 541.98C654.722 564.24 642.52 585.425 629.83 605.384C625.842 611.951 616.64 627.459 611.398 632.302C552.049 708.596 456.351 759.041 360.923 770.911C339.798 773.538 319.106 774.508 297.865 772.898L297.366 772.665C292.12 771.882 286.887 770.988 281.573 770.936C275.751 767.494 270.64 761.295 265.879 756.526L262.416 752.732C254.297 745.662 247.523 736.46 240.718 728.155C204.821 737.053 159.412 745.761 122.965 736.981C112.112 734.367 101.17 729.098 95.2339 719.211C89.6905 709.978 90.4359 698.43 92.9171 688.366C101.13 655.054 131.082 621.328 154.053 597.015C159.861 590.868 166.366 582.66 173.598 578.325L173.852 578.169C173.138 573.337 172.399 568.514 171.907 563.653C175.383 560.96 177.509 555.346 179.221 551.396L179.321 550.478C209.699 509.281 264.064 525.968 307.286 508.132C327.194 499.916 345.232 487.274 361.214 472.946C388.27 448.691 413.027 416.823 447.698 403.098C477.987 391.107 520.979 393.859 553.756 387.235C585.456 380.828 615.165 369.194 644.616 356.087C655.186 351.383 665.534 346.03 676.235 341.641Z"/>
	<path fill="#00C6A6" d="M653.086 504.374C642.88 504.181 619.079 519.109 608.734 524.285C601.298 528.006 590.413 532.918 582.038 529.868C579.236 528.847 576.766 526.676 575.634 523.881C574.405 520.844 574.999 517.699 576.226 514.768C579.067 507.982 584.662 501.951 589.828 496.854C609.783 477.162 635.118 463.772 662.009 456.259C668.15 454.543 681.538 453.878 686.116 451.84C686.388 451.718 686.656 451.585 686.926 451.458C685.53 461.704 684.664 475.209 681.772 484.833L681.196 485.525C671.581 491.043 663.202 499.904 653.086 504.374Z"/>
	<path fill="#00C6A6" d="M205.826 645.306C212.644 644.794 219.606 643.951 226.15 641.914C237.417 638.407 247.847 632.574 259.299 629.557C282.855 623.351 307.473 623.55 329.922 613.007C342.955 606.887 352.532 595.432 362.996 585.922C369.445 580.061 376.428 574.811 384.013 570.504C390.077 567.06 396.766 564.171 403.667 562.954C409.668 561.895 416.204 562.414 420.985 566.588C421.954 567.434 422.728 568.418 423.483 569.453C423.294 577.456 421.762 584.092 415.78 589.876C408.077 597.324 396.9 599.298 388.329 605.485C375.914 614.445 369.705 628.965 360.026 640.34C355.116 646.11 347.304 651.166 343.577 657.651C306.153 671.82 266.866 681.997 227.247 687.628C219.102 674.515 212.401 659.33 205.826 645.306Z"/>
	<path fill="#DA3F90" d="M676.235 341.641C682.507 338.768 688.98 336.377 695.492 334.115C695.431 334.238 695.373 334.364 695.309 334.486C692.857 339.192 688.257 343.132 684.623 346.977C683.726 347.926 680.872 350.366 680.449 351.48C679.786 353.224 685.834 373.129 686.229 377.701L685.412 379.032C658.566 409.305 627.688 442.356 588.556 456.188C574.876 461.023 560.593 463.324 546.153 464.193C505.672 466.627 459.437 454.045 428.799 488.374C419.779 498.482 412.852 510.327 405.56 521.681C387.989 549.04 367.507 572.699 332.74 574.899C322.311 575.559 312.149 574.543 302.016 571.99C271.467 564.294 227.694 539.064 201.502 569.07C195.227 576.258 192.09 585.35 188.718 594.1C185.509 588.78 184.94 581.235 183.927 575.179L183.648 574.936C180.035 575.287 177.103 576.652 173.852 578.169C173.138 573.337 172.399 568.514 171.907 563.653C175.383 560.96 177.509 555.346 179.221 551.396L179.321 550.478C209.699 509.281 264.064 525.968 307.286 508.132C327.194 499.916 345.232 487.274 361.214 472.946C388.27 448.691 413.027 416.823 447.698 403.098C477.987 391.107 520.979 393.859 553.756 387.235C585.456 380.828 615.165 369.194 644.616 356.087C655.186 351.383 665.534 346.03 676.235 341.641Z"/>
	<path fill="#EE70AD" d="M179.321 550.478C209.699 509.281 264.064 525.968 307.286 508.132C327.194 499.916 345.232 487.274 361.214 472.946C388.27 448.691 413.027 416.823 447.698 403.098C477.987 391.107 520.979 393.859 553.756 387.235C585.456 380.828 615.165 369.194 644.616 356.087C655.186 351.383 665.534 346.03 676.235 341.641C677.453 344.889 678.741 348.125 679.735 351.449C670.425 361.591 658.373 369.445 646.941 377.003C615.073 398.071 580.095 409.699 542.999 417.668C505.754 425.67 465.923 428.961 433.489 450.777C381.805 485.541 367.242 543.045 294.545 546.408C263.65 547.837 219.175 531.906 194.893 558.194C190.139 563.341 188.142 569.958 183.927 575.179L183.648 574.936C180.035 575.287 177.103 576.652 173.852 578.169C173.138 573.337 172.399 568.514 171.907 563.653C175.383 560.96 177.509 555.346 179.221 551.396L179.321 550.478Z"/>
	<path fill="#A57EC4" d="M179.221 551.396C181.454 557.538 182.452 568.086 183.648 574.936C180.035 575.287 177.103 576.652 173.852 578.169C173.138 573.337 172.399 568.514 171.907 563.653C175.383 560.96 177.509 555.346 179.221 551.396Z"/>
	<path fill="#47E9ED" d="M653.086 504.374C663.202 499.904 671.581 491.043 681.196 485.525C676.817 504.554 670.395 522.646 663.576 540.923L662.903 541.98C654.722 564.24 642.52 585.425 629.83 605.384C625.842 611.951 616.64 627.459 611.398 632.302C552.049 708.596 456.351 759.041 360.923 770.911C339.798 773.538 319.106 774.508 297.865 772.898L297.366 772.665C292.12 771.882 286.887 770.988 281.573 770.936C275.751 767.494 270.64 761.295 265.879 756.526L262.416 752.732C254.297 745.662 247.523 736.46 240.718 728.155C204.821 737.053 159.412 745.761 122.965 736.981C112.112 734.367 101.17 729.098 95.2339 719.211C89.6905 709.978 90.4359 698.43 92.9171 688.366C101.13 655.054 131.082 621.328 154.053 597.015C159.861 590.868 166.366 582.66 173.598 578.325L173.852 578.169C177.103 576.652 180.035 575.287 183.648 574.936L183.927 575.179C184.94 581.235 185.509 588.78 188.718 594.1C186.805 602 201.382 637.218 205.826 645.306C212.401 659.33 219.102 674.515 227.247 687.628C266.866 681.997 306.153 671.82 343.577 657.651C359.877 653.225 376.007 646.209 391.731 640.059C460.581 613.129 527.643 580.422 591.51 543.204C612.35 531.06 633.854 518.972 653.086 504.374Z"/>
	<path fill="#213B8D" d="M183.648 574.936L183.927 575.179C184.94 581.235 185.509 588.78 188.718 594.1C186.805 602 201.382 637.218 205.826 645.306C212.401 659.33 219.102 674.515 227.247 687.628C223.327 688.145 219.1 688.991 215.16 689.067C197.801 689.808 172.974 691.384 159.175 678.943C155.062 675.236 152.822 670.246 152.535 664.735C151.556 645.977 170.215 625.158 181.9 611.834C178.351 604.788 175.21 586.711 173.598 578.325L173.852 578.169C177.103 576.652 180.035 575.287 183.648 574.936Z"/>
	<path fill="#3FD6C8" d="M183.648 574.936L183.927 575.179C184.94 581.235 185.509 588.78 188.718 594.1C186.805 602 201.382 637.218 205.826 645.306C212.401 659.33 219.102 674.515 227.247 687.628C223.327 688.145 219.1 688.991 215.16 689.067C211.258 678.158 204.004 668.163 199.017 657.619C194.643 648.374 190.676 638.966 187.38 629.282C185.415 623.507 183.879 617.595 181.9 611.834C178.351 604.788 175.21 586.711 173.598 578.325L173.852 578.169C177.103 576.652 180.035 575.287 183.648 574.936Z"/>
	<path fill="#00DEB1" d="M252.286 725.917C259.635 724.6 266.851 722.216 274.018 720.162C286.778 716.505 299.468 712.721 312.104 708.653C404.015 679.065 493.081 638.751 577.712 592.394C597.261 581.685 616.733 570.601 635.762 558.995C644.613 553.597 653.1 546.683 662.433 542.2C662.589 542.125 662.747 542.053 662.903 541.98C654.722 564.24 642.52 585.425 629.83 605.384C625.842 611.951 616.64 627.459 611.398 632.302C552.049 708.596 456.351 759.041 360.923 770.911C339.798 773.538 319.106 774.508 297.865 772.898L297.366 772.665C292.12 771.882 286.887 770.988 281.573 770.936C275.751 767.494 270.64 761.295 265.879 756.526L262.416 752.732C254.297 745.662 247.523 736.46 240.718 728.155C244.561 727.322 248.414 726.602 252.286 725.917Z"/>
	<path fill="#3FD6C8" d="M265.879 756.526C270.911 754.258 276.544 757.31 281.653 758.142L285.484 760.597C288.883 765.297 293.397 768.543 297.366 772.665C292.12 771.882 286.887 770.988 281.573 770.936C275.751 767.494 270.64 761.295 265.879 756.526Z"/>
	<path fill="#3FD6C8" d="M240.718 728.155C244.561 727.322 248.414 726.602 252.286 725.917C261.22 734.848 268.683 745.149 277.626 754.073C272.499 753.928 267.512 753.149 262.416 752.732C254.297 745.662 247.523 736.46 240.718 728.155Z"/>
	<path fill="#00C6A6" d="M611.398 632.302C606.467 631.091 600.778 629.715 596.54 626.817C595.004 625.766 593.505 624.326 593.313 622.362C593.09 620.09 594.768 618.045 596.248 616.534C604.773 607.827 618.206 605.536 629.83 605.384C625.842 611.951 616.64 627.459 611.398 632.302Z"/>
	<path fill="#00C6A6" d="M276.943 753.888C292.528 751.002 308.036 745.801 323.393 741.792C330.942 739.821 338.514 737.613 346.356 737.255C352.16 736.99 359.234 737.994 364.095 741.297C366.208 742.732 368.215 744.857 368.691 747.455C369.116 749.772 368.062 751.918 366.649 753.691C359.729 762.38 343.107 763.671 332.924 764.549C317.073 765.916 300.907 764.386 285.484 760.597L281.653 758.142C280.188 756.552 278.639 755.227 276.943 753.888Z"/>
	<path fill="#00C6A6" d="M547.224 640.584C549.47 640.45 551.727 640.672 553.856 641.445C555.739 642.128 557.439 643.343 558.239 645.237C559.625 648.515 558.846 652.479 557.493 655.622C554.828 661.815 549.769 667.344 544.549 671.504C523.251 688.483 502.562 684.546 478.22 689.936C464.621 692.948 451.637 698.401 438.727 703.518C436.045 704.59 431.797 706.268 428.963 704.967C427.951 704.503 427.553 703.756 427.349 702.711C426.955 700.697 428.285 698.148 429.351 696.546C438.992 682.063 473.376 670.467 489.185 663.477C508.222 655.059 526.606 644.67 547.224 640.584Z"/>
</svg>
