<?xml version="1.0" encoding="utf-8" ?>
<svg xmlns="http://www.w3.org/2000/svg" xmlns:xlink="http://www.w3.org/1999/xlink" width="1023" height="1024">
	<path fill="#F6F5F5" d="M242.287 153.897C243.886 155.59 245.134 159.545 246.13 161.759C248.773 163.279 251.657 164.292 254.491 165.393C247.447 168.949 245.441 170.782 242.516 178.072L242.217 177.387C239.146 170.422 236.867 168.384 229.825 165.641C232.977 164.352 236.009 163.031 238.987 161.375L242.287 153.897Z"/>
	<path fill="#F6F5F5" d="M824.426 848.42C826.426 850.706 827.206 855.079 828.057 857.947L837.675 861.421C834.35 862.495 831.003 863.501 827.988 865.302C826.977 868.326 825.874 871.273 824.664 874.222C823.209 870.863 821.72 867.559 820.037 864.307L810.618 861.558C814.183 860.456 817.41 859.188 820.643 857.314C822.177 854.503 823.249 851.398 824.426 848.42Z"/>
	<path fill="#F2E948" d="M135.857 799.852C136.22 797.453 136.867 795.137 137.933 792.948C140.552 787.567 145.462 783.599 151.094 781.701C157.744 779.459 163.616 780.622 169.756 783.548C164.412 788.256 143.302 803.48 136.432 803.905C136.097 802.507 135.929 801.288 135.857 799.852Z"/>
	<path fill="#EA6E21" d="M178.587 793.612C180.874 800.164 181.572 806.585 178.456 813.052C175.83 818.504 171.021 822.667 165.318 824.648C159.749 826.582 153.844 826.09 148.571 823.508C146.587 822.536 144.76 821.222 143.076 819.799C145.609 817.236 149.585 815.226 152.686 813.352C162.14 807.639 171.383 802.172 178.587 793.612Z"/>
	<path fill="#FEAF55" d="M169.756 783.548C173.663 786.326 176.382 789.289 178.587 793.612C171.383 802.172 162.14 807.639 152.686 813.352C149.585 815.226 145.609 817.236 143.076 819.799C142.506 819.145 141.952 818.479 141.436 817.78C137.711 812.744 134.92 806.193 135.857 799.852C135.929 801.288 136.097 802.507 136.432 803.905C143.302 803.48 164.412 788.256 169.756 783.548Z"/>
	<path fill="#B13E3F" d="M832.341 313.284C861.243 308.226 918.839 305.422 943.135 322.324C949.558 326.792 954.48 333.108 955.726 341.019C958.258 357.083 946.362 374.289 937.184 386.447C923.97 403.953 903.361 424.719 886.203 438.185C880.205 442.41 874.685 447.616 868.972 452.246C859.957 459.552 850.689 466.574 841.356 473.468C832.447 479.652 822.261 485.927 814.595 493.594L814.398 493.948C810.538 496.261 806.803 498.827 803.052 501.313L802.577 498.411L801.912 491.481C802.12 488.584 801.374 485.207 801.003 482.301C800.232 477.1 799.904 471.795 799.455 466.555L799.519 465.928C799.106 464.578 799.097 463.183 799.014 461.783L795.818 447.525L805.619 440.889L805.795 439.633C807.64 438.291 809.461 436.923 811.273 435.537C809.186 429.615 808.286 423.14 806.35 417.105C801.389 401.638 794.222 386.842 786.331 372.679C783.449 367.508 780.525 362.37 777.19 357.475C773.568 352.158 769.432 347.009 766.464 341.293L766.089 340.56L763.098 340.126C761.753 338.972 760.205 338.884 758.521 338.602C757.403 337.694 756.381 335.548 755.564 334.303L754.573 333.124L757.641 331.873C774.41 325.051 791.394 320.475 809.188 317.201C816.889 315.784 824.682 314.928 832.341 313.284Z"/>
	<path fill="#95A3D7" d="M799.014 461.783C802.231 459.217 805.708 457.094 809.455 455.391L810.348 458.105L810.311 458.436C812.08 469.936 814.389 481.938 814.595 493.594L814.398 493.948C810.538 496.261 806.803 498.827 803.052 501.313L802.577 498.411L801.912 491.481C802.12 488.584 801.374 485.207 801.003 482.301C800.232 477.1 799.904 471.795 799.455 466.555L799.519 465.928C799.106 464.578 799.097 463.183 799.014 461.783Z"/>
	<path fill="#6076C8" d="M799.014 461.783C802.231 459.217 805.708 457.094 809.455 455.391L810.348 458.105L810.311 458.436C806.385 460.253 802.183 462.391 799.519 465.928C799.106 464.578 799.097 463.183 799.014 461.783Z"/>
	<path fill="#14184D" d="M755.564 334.303L756.299 334.208C766.258 332.862 776.119 329.649 786.022 327.743C815.193 322.131 872.034 314.599 897.042 333.401C902.074 337.184 905.452 342.347 906.287 348.645C908.249 363.441 896.578 379.707 887.869 390.647C867.394 416.368 837.438 439.73 810.348 458.105L809.455 455.391L809.494 455.106C815.701 451.316 821.747 446.506 827.542 442.113C851.515 423.94 882.768 397.588 896.939 370.7C900.554 363.843 902.866 356.196 900.343 348.523C898.379 342.552 894.032 338.281 888.539 335.432C860 320.63 793.49 330.63 763.098 340.126C761.753 338.972 760.205 338.884 758.521 338.602C757.403 337.694 756.381 335.548 755.564 334.303Z"/>
	<path fill="#B13E3F" d="M763.098 340.126C793.49 330.63 860 320.63 888.539 335.432C894.032 338.281 898.379 342.552 900.343 348.523C902.866 356.196 900.554 363.843 896.939 370.7C882.768 397.588 851.515 423.94 827.542 442.113C821.747 446.506 815.701 451.316 809.494 455.106L809.455 455.391C805.708 457.094 802.231 459.217 799.014 461.783L795.818 447.525L805.619 440.889L805.795 439.633C807.64 438.291 809.461 436.923 811.273 435.537C832.707 420.422 852.214 402.081 868.594 381.653C874.004 375.654 879.494 366.784 880.364 358.587C880.847 354.045 879.688 349.922 876.728 346.423C869.46 337.832 855.436 336.03 844.944 335.225C827.223 333.116 809.43 334.094 791.817 336.784C783.406 338.068 774.582 340.353 766.089 340.56L763.098 340.126Z"/>
	<path fill="#D6969B" d="M805.619 440.889C807.115 445.586 808.314 450.324 809.494 455.106L809.455 455.391C805.708 457.094 802.231 459.217 799.014 461.783L795.818 447.525L805.619 440.889Z"/>
	<path fill="#14184D" d="M766.089 340.56C774.582 340.353 783.406 338.068 791.817 336.784C809.43 334.094 827.223 333.116 844.944 335.225C855.436 336.03 869.46 337.832 876.728 346.423C879.688 349.922 880.847 354.045 880.364 358.587C879.494 366.784 874.004 375.654 868.594 381.653C852.214 402.081 832.707 420.422 811.273 435.537C809.186 429.615 808.286 423.14 806.35 417.105C801.389 401.638 794.222 386.842 786.331 372.679C783.449 367.508 780.525 362.37 777.19 357.475C773.568 352.158 769.432 347.009 766.464 341.293L766.089 340.56Z"/>
	<path fill="#B13E3F" d="M131.494 622.961C138.478 619.354 144.871 612.947 151.45 608.446C170.955 595.1 194.321 579.876 215.738 570.512L215.635 571.746L216.397 575.683L216.639 577.926C226.442 615.35 237.667 649.602 258.814 682.37L259.209 682.417C261.371 685.862 263.613 689.294 265.645 692.816C266.749 694.179 267.829 695.572 268.995 696.883L269.595 697.238C272.661 701.193 275.679 705.199 278.851 709.07C282.649 707.589 287.078 707.555 291.077 706.4L291.366 706.554C292.547 707.928 293.693 709.459 294.979 710.728L302.97 719.832C298.818 720.491 294.541 720.982 290.483 722.091L289.733 722.221C265.67 725.034 241.829 729.959 217.792 733.23C206.316 734.791 191.493 734.705 180.808 736.991C164.465 739.832 122.181 737.323 104.7 734.207C92.6843 732.065 77.5047 727.444 70.3486 716.691C66.7019 711.212 66.0439 704.78 67.3392 698.436C71.9384 675.914 99.0543 651.132 115.946 636.091C120.888 631.69 126.011 626.648 131.494 622.961Z"/>
	<path fill="#D6969B" d="M278.851 709.07C282.649 707.589 287.078 707.555 291.077 706.4L291.366 706.554C292.547 707.928 293.693 709.459 294.979 710.728L302.97 719.832C298.818 720.491 294.541 720.982 290.483 722.091L289.733 722.221C286.531 717.624 282.654 713.181 278.851 709.07Z"/>
	<path fill="#14184D" d="M268.995 696.883C263.069 699.14 255.102 699.695 248.81 700.77C216.331 706.317 181.765 711.039 149.005 705.151C136.974 702.988 121.181 698.942 113.916 688.061C110.418 682.822 110.024 676.851 111.364 670.839C117.69 642.447 158.783 609.113 181.945 593.015C192.868 585.424 204.392 578.832 215.635 571.746L216.397 575.683C206.547 578.338 196.286 586.919 188.115 592.934C165.023 609.934 137.255 630.018 122.817 655.343C118.749 662.48 114.771 671.528 117.018 679.849C118.752 686.27 123.576 690.829 129.266 693.892C158.085 709.404 210.797 701.99 242.442 696.839C250.147 695.585 258.022 694.481 265.645 692.816C266.749 694.179 267.829 695.572 268.995 696.883Z"/>
	<path fill="#B13E3F" d="M216.397 575.683L216.639 577.926C186.625 598.147 159.221 615.965 139.07 647.042C135.97 653.19 133.683 659.695 135.898 666.6C137.913 672.882 143.147 677.45 148.93 680.265C150.133 680.851 151.359 681.401 152.599 681.901C179.603 691.628 209.736 688.396 237.689 685.612C244.106 684.973 252.478 685.163 258.359 682.629C258.52 682.56 258.663 682.457 258.814 682.37L259.209 682.417C261.371 685.862 263.613 689.294 265.645 692.816C258.022 694.481 250.147 695.585 242.442 696.839C210.797 701.99 158.085 709.404 129.266 693.892C123.576 690.829 118.752 686.27 117.018 679.849C114.771 671.528 118.749 662.48 122.817 655.343C137.255 630.018 165.023 609.934 188.115 592.934C196.286 586.919 206.547 578.338 216.397 575.683Z"/>
	<path fill="#14184D" d="M139.07 647.042C159.221 615.965 186.625 598.147 216.639 577.926C226.442 615.35 237.667 649.602 258.814 682.37C258.663 682.457 258.52 682.56 258.359 682.629C252.478 685.163 244.106 684.973 237.689 685.612C209.736 688.396 179.603 691.628 152.599 681.901C151.359 681.401 150.133 680.851 148.93 680.265C143.147 677.45 137.913 672.882 135.898 666.6C133.683 659.695 135.97 653.19 139.07 647.042Z"/>
	<path fill="#14184D" d="M841.356 473.468C850.689 466.574 859.957 459.552 868.972 452.246C874.685 447.616 880.205 442.41 886.203 438.185C890.496 449.329 893.038 468.899 894.678 481.056C904.099 550.885 895.419 619.545 866.792 684.066C824.662 779.025 744.216 852.563 647.639 889.627C585.928 913.309 513.077 919.948 447.937 908.931C414.627 903.297 382.035 892.953 351.212 879.191C292.392 852.93 240.801 811.284 202.447 759.632C198.023 753.675 193.464 747.744 189.447 741.506C187.135 737.917 185.863 736.844 181.506 736.983C181.273 736.99 181.04 736.988 180.808 736.991C191.493 734.705 206.316 734.791 217.792 733.23C241.829 729.959 265.67 725.034 289.733 722.221L290.483 722.091L290.593 722.728C290.341 723.838 290.515 724.574 290.958 725.595C294.255 733.186 305.169 741.691 311.162 747.608C349.435 785.395 384.222 814.614 434.921 834.659C503.568 861.801 579.37 861.371 647.242 831.865C727.97 796.771 788.246 734.552 820.401 652.675C839.373 604.365 847.827 552.602 844.79 500.803C844.31 492.622 844.624 480.978 841.356 473.468Z"/>
	<path fill="#F6F5F5" d="M520.128 856.892C522.097 859.039 522.964 862.892 523.875 865.609C526.82 867.451 529.843 868.709 533.064 869.988C531.215 870.527 529.182 871.053 527.46 871.929C523.159 874.117 521.994 878.288 520.643 882.537C518.933 880.857 518.213 876.913 516.938 874.711C515.161 871.646 510.56 870.808 507.354 870.034C509.298 869.347 511.358 868.705 513.2 867.778C517.615 865.553 518.725 861.229 520.128 856.892Z"/>
	<path fill="#F6F5F5" d="M263.331 763.502C264.702 763.484 266.147 763.411 267.506 763.615C269.791 763.96 272.086 765.499 273.445 767.339C274.841 769.23 275.33 771.647 274.887 773.946C274.183 777.606 271.707 779.789 268.746 781.761C267.59 781.81 266.413 781.765 265.264 781.634C262.694 781.342 260.031 779.867 258.501 777.763C257.133 775.881 256.664 773.57 257.106 771.296C257.836 767.547 260.357 765.555 263.331 763.502Z"/>
	<path fill="#F6F5F5" d="M796.562 727.017C797.925 726.945 799.399 726.924 800.749 727.134C803.107 727.501 805.515 728.975 806.924 730.894C808.311 732.782 808.762 735.153 808.266 737.433C807.488 741.004 804.984 743.087 802.077 745.019C800.776 745.269 799.404 745.407 798.085 745.19C795.767 744.809 793.393 743.567 792.022 741.622C790.479 739.432 790.103 736.72 790.694 734.136C791.495 730.635 793.682 728.9 796.562 727.017Z"/>
	<path fill="#F6F5F5" d="M870.782 535.431C871.928 540.756 872.217 545.864 875.517 550.485C880.409 557.338 888.797 558.7 896.538 559.812C891.359 560.513 885.672 561.506 881.147 564.261C874.804 568.122 873.062 574.353 871.448 581.105C871.256 582.387 871.094 583.43 870.577 584.631C868.998 582.198 869.06 574.805 866.287 569.992C862.379 563.209 855.424 561.155 848.374 559.221C852.872 558.013 857.864 556.73 861.8 554.187C868.43 549.904 869.355 542.507 870.782 535.431Z"/>
	<path fill="#02021A" d="M841.356 473.468C844.624 480.978 844.31 492.622 844.79 500.803C847.827 552.602 839.373 604.365 820.401 652.675C788.246 734.552 727.97 796.771 647.242 831.865C579.37 861.371 503.568 861.801 434.921 834.659C384.222 814.614 349.435 785.395 311.162 747.608C305.169 741.691 294.255 733.186 290.958 725.595C290.515 724.574 290.341 723.838 290.593 722.728L290.483 722.091C294.541 720.982 298.818 720.491 302.97 719.832L303.767 720.317C318.507 734.05 333.132 747.519 349.824 758.908C362.107 752.741 374.905 747.138 387.41 741.41C413.081 729.933 439.865 713.517 463.555 698.203C475.252 690.642 487.186 683.068 498.086 674.386C507.066 676.457 515.435 680.38 524.363 682.441C537.81 685.546 551.454 684.883 564.807 681.696C607.513 671.502 633.886 640.139 669.671 618.08C685.375 608.4 701.514 602.184 720.171 605.213C726.101 606.176 731.94 607.938 737.79 609.305C763.531 615.322 772.022 604.942 791.934 592.576C798.068 569.319 803.043 544.366 803.712 520.269C803.884 514.067 803.076 507.961 803.051 501.786L803.052 501.313C806.803 498.827 810.538 496.261 814.398 493.948L814.595 493.594C822.261 485.927 832.447 479.652 841.356 473.468Z"/>
	<path fill="#6076C8" d="M803.052 501.313C806.803 498.827 810.538 496.261 814.398 493.948C815.85 506.371 815.357 518.554 814.633 531C810.935 594.58 786.921 657.719 747.361 707.654C696.873 771.382 622.398 811.525 541.855 820.753C465.477 829.504 385.653 804.434 325.64 756.884C312.788 746.701 300.925 735.473 290.593 722.728L290.483 722.091C294.541 720.982 298.818 720.491 302.97 719.832L303.767 720.317C318.507 734.05 333.132 747.519 349.824 758.908C362.558 766.406 374.61 774.321 387.932 780.868C442.977 807.919 503.231 815.123 563.454 804.492C639.352 791.094 705.88 746.697 749.9 683.833C768.672 654.867 781.532 625.372 791.934 592.576C798.068 569.319 803.043 544.366 803.712 520.269C803.884 514.067 803.076 507.961 803.051 501.786L803.052 501.313Z"/>
	<path fill="#A34F27" d="M387.41 741.41C400.375 757.732 417.28 769.247 437.224 775.476C453.507 780.561 470.5 782.164 487.48 782.066C538.473 781.77 571.693 751.518 606.104 718.387C620.889 704.152 635.891 689.851 654.304 680.361C684.591 664.75 719.369 674.142 749.9 683.833C705.88 746.697 639.352 791.094 563.454 804.492C503.231 815.123 442.977 807.919 387.932 780.868C374.61 774.321 362.558 766.406 349.824 758.908C362.107 752.741 374.905 747.138 387.41 741.41Z"/>
	<path fill="#EA6E21" d="M624.226 765.711C624.934 765.926 625.955 766.246 626.531 766.743C627.542 767.614 628.038 768.354 627.996 769.723C627.948 771.27 626.698 772.564 625.762 773.684C625.382 773.49 624.997 773.303 624.633 773.081C623.246 772.236 622.508 771.378 622.098 769.783C622.304 767.964 623.086 767.1 624.226 765.711Z"/>
	<path fill="#983E1A" d="M671.884 685.595C676.608 685.193 681.002 685.47 685.26 687.774C689.972 690.324 693.29 694.763 694.776 699.877C696.362 705.334 695.738 711.425 692.844 716.344C689.456 722.105 684.416 724.164 678.289 725.839C674.378 726.271 669.85 725.531 666.274 723.937C661.276 721.709 657.376 717.662 655.536 712.488C653.652 707.189 654.23 701.102 656.86 696.158C660.147 689.978 665.468 687.416 671.884 685.595Z"/>
	<path fill="#90210E" d="M498.086 674.386C507.066 676.457 515.435 680.38 524.363 682.441C537.81 685.546 551.454 684.883 564.807 681.696C607.513 671.502 633.886 640.139 669.671 618.08C685.375 608.4 701.514 602.184 720.171 605.213C726.101 606.176 731.94 607.938 737.79 609.305C763.531 615.322 772.022 604.942 791.934 592.576C781.532 625.372 768.672 654.867 749.9 683.833C719.369 674.142 684.591 664.75 654.304 680.361C635.891 689.851 620.889 704.152 606.104 718.387C571.693 751.518 538.473 781.77 487.48 782.066C470.5 782.164 453.507 780.561 437.224 775.476C417.28 769.247 400.375 757.732 387.41 741.41C413.081 729.933 439.865 713.517 463.555 698.203C475.252 690.642 487.186 683.068 498.086 674.386Z"/>
	<path fill="#EA6E21" d="M531.999 719.23C532.543 719.298 533.091 719.365 533.629 719.468C535.202 719.77 535.85 720.284 536.716 721.602C536.801 723.367 536.007 724.389 535.113 725.818C534.252 725.921 533.025 725.981 532.221 725.511C531.146 724.884 530.696 724.223 530.524 722.994C530.316 721.508 531.214 720.378 531.999 719.23Z"/>
	<path fill="#14184D" d="M131.494 622.961C132.688 621.719 133.214 621.261 133.095 619.437C132.426 609.203 129.258 596.991 127.814 586.497C125.288 568.138 124.733 549.255 125.26 530.749C125.712 514.871 127.691 499.148 130.207 483.476C144.446 394.762 187.968 311.168 253.429 249.458C324.078 182.856 422.166 142.112 519.817 145.116C625.111 148.355 716.009 187.711 790.21 262.37C798.944 271.158 806.886 280.496 814.356 290.375C819.92 297.732 825.315 306.034 831.721 312.655L832.341 313.284C824.682 314.928 816.889 315.784 809.188 317.201C791.394 320.475 774.41 325.051 757.641 331.873L754.573 333.124C750.27 325.415 738.788 313.869 732.674 306.703C727.571 303.304 723.273 297.156 718.813 292.867C710.012 284.404 700.078 276.371 689.962 269.542C677.739 259.33 662.36 250.498 648.073 243.575C644.696 245.884 641.225 248.71 637.61 250.587L637.569 250.809C631.119 255.157 624.312 258.958 617.926 263.399C603.284 273.584 589.243 285.947 576.838 298.748C551.334 325.065 525.619 363.54 494.705 382.621C480.917 391.132 465.364 396.055 449.172 396.889C437.719 397.479 426.185 395.74 414.964 393.568C403.721 391.392 392.606 388.464 381.311 386.593C343.436 380.321 315.663 388.813 284.2 410.002C273.806 417.001 264.064 424.714 254.848 433.207C248.366 439.181 234.054 456.869 227.479 459.959C219.206 491.986 220.137 530.294 225.414 562.784C227.786 587.065 237.837 619.037 248.986 640.68C255.585 654.007 263.144 666.76 270.966 679.401C267.178 680.984 263.244 681.736 259.209 682.417L258.814 682.37C237.667 649.602 226.442 615.35 216.639 577.926L216.397 575.683L215.635 571.746L215.738 570.512C194.321 579.876 170.955 595.1 151.45 608.446C144.871 612.947 138.478 619.354 131.494 622.961Z"/>
	<path fill="#02021A" d="M732.674 306.703C736.005 306.849 745.495 317.793 748.19 320.732C751.483 324.321 754.602 328.068 757.641 331.873L754.573 333.124C750.27 325.415 738.788 313.869 732.674 306.703Z"/>
	<path fill="#F6F5F5" d="M147.43 505.26C150.567 508.678 150.676 514.881 153.414 518.655C156.351 522.705 164.097 523.672 168.66 524.472C164.389 526.007 159.686 526.666 155.822 529.188C150.588 532.604 149.553 538.516 148.265 544.164C145.219 541.145 145.881 535.43 143.862 531.983C140.91 526.946 132.05 525.605 126.749 524.439C131.059 523.855 135.744 523.141 139.457 520.736C144.885 517.22 146.068 511.105 147.43 505.26Z"/>
	<defs>
		<linearGradient id="gradient_0" gradientUnits="userSpaceOnUse" x1="500.46191" y1="546.38074" x2="339.90762" y2="266.16351">
			<stop offset="0" stop-color="#A5C2EB"/>
			<stop offset="1" stop-color="#BADAEE"/>
		</linearGradient>
	</defs>
	<path fill="url(#gradient_0)" d="M215.738 570.512C215.581 570.245 215.395 569.994 215.267 569.712C213.381 565.557 212.21 550.346 211.703 545.216C206.511 492.681 215.94 439.978 237.719 391.974C271.372 317.797 333.232 258.82 409.6 230.145C464.806 209.416 526.887 204.925 584.091 219.896C606.425 225.741 627.113 234.047 648.073 243.575C644.696 245.884 641.225 248.71 637.61 250.587C633.227 247.871 629.003 245.891 624.089 244.32C604.238 235.637 576.182 226.074 554.434 224.965C541.265 222.034 527.148 221.897 513.699 222.02C459.043 222.522 406.175 237.42 359.951 266.831C332.502 284.296 308.075 305.569 288.506 331.629C274.83 348.306 261.884 367.786 252.584 387.261C240.324 406.787 230.771 437.15 227.479 459.959C219.206 491.986 220.137 530.294 225.414 562.784C227.786 587.065 237.837 619.037 248.986 640.68C255.585 654.007 263.144 666.76 270.966 679.401C267.178 680.984 263.244 681.736 259.209 682.417L258.814 682.37C237.667 649.602 226.442 615.35 216.639 577.926L216.397 575.683L215.635 571.746L215.738 570.512Z"/>
	<path fill="#FEAF55" d="M288.506 331.629C308.075 305.569 332.502 284.296 359.951 266.831C406.175 237.42 459.043 222.522 513.699 222.02C527.148 221.897 541.265 222.034 554.434 224.965C547.606 228.956 540.008 231.989 532.788 235.224C518.254 241.737 503.555 247.802 488.707 253.562C472.536 259.834 456.526 265.647 441.203 273.898C415.489 287.746 396.208 311.8 368.104 321.681C350.952 327.711 332.082 327.554 314.139 328.957C305.574 329.627 297.066 330.886 288.506 331.629Z"/>
	<path fill="#FED195" d="M382.247 270.028C383.241 270.009 384.257 269.983 385.247 270.094C387.826 270.382 390.57 271.905 392.022 274.079C393.28 275.964 393.61 278.125 393.103 280.319C392.372 283.484 390.149 285.242 387.556 286.934C386.338 287.163 385.126 287.374 383.891 287.154C381.663 286.758 379.461 285.558 378.182 283.654C376.715 281.469 376.349 278.805 376.955 276.264C377.698 273.145 379.655 271.669 382.247 270.028Z"/>
	<path fill="#EA6E21" d="M554.434 224.965C576.182 226.074 604.238 235.637 624.089 244.32C603.203 253.002 584.673 264.716 562.031 268.975C530.513 274.902 497.963 269.176 467.288 280.466C426.835 295.355 413.166 329.425 380.056 346.79C357.312 358.718 330.625 360.308 306.12 366.964C287.387 372.051 270.404 379.832 252.584 387.261C261.884 367.786 274.83 348.306 288.506 331.629C297.066 330.886 305.574 329.627 314.139 328.957C332.082 327.554 350.952 327.711 368.104 321.681C396.208 311.8 415.489 287.746 441.203 273.898C456.526 265.647 472.536 259.834 488.707 253.562C503.555 247.802 518.254 241.737 532.788 235.224C540.008 231.989 547.606 228.956 554.434 224.965Z"/>
	<path fill="#FED195" d="M624.089 244.32C629.003 245.891 633.227 247.871 637.61 250.587L637.569 250.809C631.119 255.157 624.312 258.958 617.926 263.399C603.284 273.584 589.243 285.947 576.838 298.748C551.334 325.065 525.619 363.54 494.705 382.621C480.917 391.132 465.364 396.055 449.172 396.889C437.719 397.479 426.185 395.74 414.964 393.568C403.721 391.392 392.606 388.464 381.311 386.593C343.436 380.321 315.663 388.813 284.2 410.002C273.806 417.001 264.064 424.714 254.848 433.207C248.366 439.181 234.054 456.869 227.479 459.959C230.771 437.15 240.324 406.787 252.584 387.261C270.404 379.832 287.387 372.051 306.12 366.964C330.625 360.308 357.312 358.718 380.056 346.79C413.166 329.425 426.835 295.355 467.288 280.466C497.963 269.176 530.513 274.902 562.031 268.975C584.673 264.716 603.203 253.002 624.089 244.32Z"/>
	<path fill="#FEAF55" d="M464.212 315.553C467.958 315.382 471.292 315.418 474.833 316.913C479.275 318.788 482.783 322.437 484.465 326.958C486.105 331.365 485.966 336.455 483.858 340.687C481.316 345.79 476.87 348.166 471.717 349.924C468.004 350.514 464.583 350.429 461.069 348.96C456.822 347.185 453.538 343.748 451.841 339.481C450.051 334.979 450.017 329.868 452.014 325.425C454.498 319.896 458.834 317.569 464.212 315.553Z"/>
	<path fill="#EA6E21" d="M648.073 243.575C662.36 250.498 677.739 259.33 689.962 269.542C700.078 276.371 710.012 284.404 718.813 292.867C723.273 297.156 727.571 303.304 732.674 306.703C738.788 313.869 750.27 325.415 754.573 333.124L755.564 334.303C756.381 335.548 757.403 337.694 758.521 338.602C760.205 338.884 761.753 338.972 763.098 340.126L766.089 340.56L766.464 341.293C769.432 347.009 773.568 352.158 777.19 357.475C780.525 362.37 783.449 367.508 786.331 372.679C794.222 386.842 801.389 401.638 806.35 417.105C808.286 423.14 809.186 429.615 811.273 435.537C809.461 436.923 807.64 438.291 805.795 439.633L805.619 440.889L795.818 447.525L799.014 461.783C799.097 463.183 799.106 464.578 799.519 465.928L799.455 466.555C799.904 471.795 800.232 477.1 801.003 482.301C801.374 485.207 802.12 488.584 801.912 491.481L802.577 498.411L803.052 501.313L803.051 501.786C803.076 507.961 803.884 514.067 803.712 520.269C803.043 544.366 798.068 569.319 791.934 592.576C772.022 604.942 763.531 615.322 737.79 609.305C731.94 607.938 726.101 606.176 720.171 605.213C701.514 602.184 685.375 608.4 669.671 618.08C633.886 640.139 607.513 671.502 564.807 681.696C551.454 684.883 537.81 685.546 524.363 682.441C515.435 680.38 507.066 676.457 498.086 674.386C487.186 683.068 475.252 690.642 463.555 698.203C439.865 713.517 413.081 729.933 387.41 741.41C374.905 747.138 362.107 752.741 349.824 758.908C333.132 747.519 318.507 734.05 303.767 720.317L302.97 719.832L294.979 710.728C293.693 709.459 292.547 707.928 291.366 706.554L291.077 706.4C287.078 707.555 282.649 707.589 278.851 709.07C275.679 705.199 272.661 701.193 269.595 697.238L268.995 696.883C267.829 695.572 266.749 694.179 265.645 692.816C263.613 689.294 261.371 685.862 259.209 682.417C263.244 681.736 267.178 680.984 270.966 679.401C263.144 666.76 255.585 654.007 248.986 640.68C237.837 619.037 227.786 587.065 225.414 562.784C220.137 530.294 219.206 491.986 227.479 459.959C234.054 456.869 248.366 439.181 254.848 433.207C264.064 424.714 273.806 417.001 284.2 410.002C315.663 388.813 343.436 380.321 381.311 386.593C392.606 388.464 403.721 391.392 414.964 393.568C426.185 395.74 437.719 397.479 449.172 396.889C465.364 396.055 480.917 391.132 494.705 382.621C525.619 363.54 551.334 325.065 576.838 298.748C589.243 285.947 603.284 273.584 617.926 263.399C624.312 258.958 631.119 255.157 637.569 250.809L637.61 250.587C641.225 248.71 644.696 245.884 648.073 243.575Z"/>
	<path fill="#F2E948" d="M483.044 440.907C484.304 441.498 485.162 441.924 486.079 443.025C486.559 444.567 485.946 445.749 485.425 447.191C484.016 446.678 482.706 446.156 482.013 444.75C481.793 443.196 482.379 442.249 483.044 440.907Z"/>
	<path fill="#FED195" d="M359.931 471.387C360.749 471.545 361.998 471.726 362.707 472.164C363.697 472.776 364.375 473.496 364.493 474.695C364.645 476.239 363.537 477.704 362.74 478.929C362.117 478.738 361.488 478.548 360.879 478.319C359.306 477.728 358.773 477.052 358.102 475.549C358.213 473.727 358.881 472.843 359.931 471.387Z"/>
	<path fill="#F2E948" d="M293.505 418.401C294.42 418.582 295.517 418.792 296.346 419.227C297.586 419.876 297.825 420.711 298.251 421.956C298.102 423.709 297.434 424.717 296.5 426.181C295.549 426.081 293.975 425.825 293.18 425.238C292.12 424.456 291.577 423.659 291.556 422.311C291.534 420.824 292.654 419.517 293.505 418.401Z"/>
	<path fill="#F2E948" d="M591.201 337.866C592.791 338.071 594.683 338.231 595.937 339.357C596.575 339.931 597.017 340.661 597.116 341.508C597.381 343.784 596.146 345.143 594.789 346.782C593.463 347.032 592.299 347.084 591.091 346.412C590.168 345.898 589.576 345.236 589.342 344.167C588.758 341.506 589.765 339.992 591.201 337.866Z"/>
	<path fill="#FEAF55" d="M267.941 472.592C268.89 472.685 269.844 472.809 270.783 472.97C273.544 473.441 276.025 474.895 277.537 477.3C278.785 479.287 279.067 481.698 278.454 483.948C277.43 487.712 274.734 489.632 271.545 491.531C269.869 491.532 268.183 491.548 266.58 490.993C264.154 490.152 262.065 488.024 261.12 485.652C260.162 483.252 260.194 480.505 261.292 478.156C262.63 475.292 265.039 473.615 267.941 472.592Z"/>
	<path fill="#FEAF55" d="M637.92 291.606C639.45 291.673 640.938 291.781 642.403 292.264C644.837 293.067 647.055 294.903 648.139 297.248C649.132 299.397 649.2 301.829 648.347 304.035C647.013 307.481 644.302 309.062 641.045 310.411C639.367 310.349 637.816 310.232 636.247 309.577C633.771 308.543 631.805 306.594 630.845 304.082C629.955 301.752 630.095 299.079 631.238 296.86C632.653 294.111 635.073 292.578 637.92 291.606Z"/>
	<path fill="#FEAF55" d="M576.27 383.486C577.703 383.506 579.245 383.527 580.632 383.908C583.161 384.604 585.448 386.393 586.738 388.674C588.131 391.137 588.418 394.045 587.504 396.725C586.274 400.33 583.752 401.909 580.469 403.463C578.983 403.188 577.417 402.953 575.971 402.515C573.418 401.742 570.919 399.608 569.698 397.242C568.589 395.093 568.391 392.683 569.167 390.392C570.418 386.697 573.027 385.18 576.27 383.486Z"/>
	<path fill="#95A3D7" d="M648.073 243.575C662.36 250.498 677.739 259.33 689.962 269.542C690.181 274.433 690.945 279.316 691.052 284.199C674.592 273.687 655.791 258.04 637.569 250.809L637.61 250.587C641.225 248.71 644.696 245.884 648.073 243.575Z"/>
	<path fill="#FEAF55" d="M225.414 562.784C231.311 558.165 236.448 552.224 241.885 547.047C253.586 535.906 266.441 525.255 280.501 517.2C358.787 472.35 405.054 538.45 472.832 510.639C495.481 501.345 514.128 483.237 531.274 466.272C581.302 416.774 616.694 384.591 687.586 371.139C681.615 404.13 672.865 435.942 659.599 466.786C654.449 478.76 648.166 490.195 642.915 502.102C628.902 501.652 613.47 503.934 599.59 505.943C559.143 511.798 519.983 520.93 489.175 549.673C463.563 573.568 448.607 590.901 410.622 589.802C399.348 589.476 388.114 588.297 376.827 588.098C341.148 587.469 306.32 594.538 277.166 616.163C267.099 623.631 258.447 632.535 248.986 640.68C237.837 619.037 227.786 587.065 225.414 562.784Z"/>
	<path fill="#FE8447" d="M568.481 439.468C568.888 439.456 569.295 439.441 569.702 439.45C572.453 439.51 575.342 440.247 577.243 442.37C578.522 443.798 579.1 445.62 578.856 447.524C578.418 450.93 575.802 453.196 573.185 455.081C572.268 455.229 571.301 455.29 570.372 455.236C568.405 455.121 566.306 454.081 565.024 452.58C563.52 450.82 563.184 448.511 563.529 446.278C564.027 443.044 566.014 441.38 568.481 439.468Z"/>
	<path fill="#FE8447" d="M661.573 395C662.222 395.031 662.858 395.057 663.499 395.169C665.76 395.566 667.872 396.618 669.166 398.573C670.381 400.408 670.587 402.663 670.007 404.759C669.063 408.172 666.737 410.031 663.733 411.621C662.635 411.61 661.48 411.626 660.406 411.375C658.399 410.906 656.388 409.526 655.365 407.722C654.363 405.955 654.285 403.898 654.838 401.972C655.884 398.333 658.396 396.71 661.573 395Z"/>
	<path fill="#FE8447" d="M361.253 539.031C364.028 539.085 367.029 539.868 369.367 541.392C373.089 543.817 374.263 547.652 375.233 551.71C374.759 553.771 374.212 555.845 373.114 557.673C371.081 561.056 368.142 562.923 364.387 563.947C362.016 563.673 359.528 563.467 357.366 562.372C354.313 560.825 352.006 558.062 351.047 554.78C350.138 551.667 350.541 548.224 352.179 545.421C354.168 542.017 357.54 540.04 361.253 539.031Z"/>
	<path fill="#EA6E21" d="M248.986 640.68C258.447 632.535 267.099 623.631 277.166 616.163C306.32 594.538 341.148 587.469 376.827 588.098C388.114 588.297 399.348 589.476 410.622 589.802C448.607 590.901 463.563 573.568 489.175 549.673C519.983 520.93 559.143 511.798 599.59 505.943C613.47 503.934 628.902 501.652 642.915 502.102C639.348 509.05 635.663 515.797 631.309 522.293C623.941 533.284 615.572 543.612 608.574 554.851C607.747 555.766 606.881 556.925 605.957 557.724C599.97 566.841 592.939 575.128 586.558 583.948C585.425 584.753 584.309 585.449 583.496 586.603C577.422 593.7 565.673 605.939 561.633 613.93L559.005 616.146C556.4 619.328 553.526 622.22 550.644 625.146L549.928 625.667C546.412 629.425 542.935 633.273 539.231 636.846C533.288 642.579 525.509 648.426 521.062 655.389C513.858 661.736 506.861 669.74 498.147 673.952L498.086 674.386C487.186 683.068 475.252 690.642 463.555 698.203C439.865 713.517 413.081 729.933 387.41 741.41C374.905 747.138 362.107 752.741 349.824 758.908C333.132 747.519 318.507 734.05 303.767 720.317L302.97 719.832L294.979 710.728C293.693 709.459 292.547 707.928 291.366 706.554L291.077 706.4C287.078 707.555 282.649 707.589 278.851 709.07C275.679 705.199 272.661 701.193 269.595 697.238L268.995 696.883C267.829 695.572 266.749 694.179 265.645 692.816C263.613 689.294 261.371 685.862 259.209 682.417C263.244 681.736 267.178 680.984 270.966 679.401C263.144 666.76 255.585 654.007 248.986 640.68Z"/>
	<path fill="#F2E948" d="M377.564 621.14C377.767 621.168 377.973 621.185 378.175 621.226C379.886 621.571 380.768 622.226 381.66 623.694C381.73 625.472 381.161 626.382 380.274 627.889C379.712 627.805 378.796 627.738 378.251 627.502C376.904 626.917 376.73 626.5 376.114 625.261C376.095 623.527 376.717 622.575 377.564 621.14Z"/>
	<path fill="#FED195" d="M552.015 541.872C552.91 541.942 554.264 541.972 555.09 542.342C556.484 542.965 556.656 543.428 557.268 544.724C557.252 546.558 556.5 547.607 555.55 549.133C554.415 549.101 553.253 549.05 552.187 548.607C550.937 548.087 550.6 547.234 550.171 546.059C550.316 544.26 550.995 543.328 552.015 541.872Z"/>
	<path fill="#FE8447" d="M271.572 679.826C288.133 677.882 306.211 671.705 322.424 667.238C392.47 647.937 460.857 623.142 527.325 593.826C545.164 585.958 562.865 577.679 580.53 569.425C588.779 565.571 597.293 560.472 605.957 557.724C599.97 566.841 592.939 575.128 586.558 583.948C585.425 584.753 584.309 585.449 583.496 586.603C576.852 587.4 549.268 601.471 541.547 605.01C530.998 609.844 520.295 614.388 509.599 618.888C485.434 629.055 460.968 638.456 436.335 647.432C405.714 658.59 374.587 668.856 343.219 677.718C322.747 683.501 302.007 688.356 281.493 694.031L281.108 693.991C277.242 694.791 273.138 695.437 269.595 697.238L268.995 696.883C267.829 695.572 266.749 694.179 265.645 692.816C263.613 689.294 261.371 685.862 259.209 682.417C263.244 681.736 267.178 680.984 270.966 679.401L271.572 679.826Z"/>
	<path fill="#D6969B" d="M270.966 679.401L271.572 679.826C274.315 684.798 278.573 689.017 281.108 693.991C277.242 694.791 273.138 695.437 269.595 697.238L268.995 696.883C267.829 695.572 266.749 694.179 265.645 692.816C263.613 689.294 261.371 685.862 259.209 682.417C263.244 681.736 267.178 680.984 270.966 679.401Z"/>
	<path fill="#FEAF55" d="M281.493 694.031C302.007 688.356 322.747 683.501 343.219 677.718C374.587 668.856 405.714 658.59 436.335 647.432C460.968 638.456 485.434 629.055 509.599 618.888C520.295 614.388 530.998 609.844 541.547 605.01C549.268 601.471 576.852 587.4 583.496 586.603C577.422 593.7 565.673 605.939 561.633 613.93L559.005 616.146C556.4 619.328 553.526 622.22 550.644 625.146L549.928 625.667C546.412 629.425 542.935 633.273 539.231 636.846C533.288 642.579 525.509 648.426 521.062 655.389C513.858 661.736 506.861 669.74 498.147 673.952L498.086 674.386C487.186 683.068 475.252 690.642 463.555 698.203C439.865 713.517 413.081 729.933 387.41 741.41C374.905 747.138 362.107 752.741 349.824 758.908C333.132 747.519 318.507 734.05 303.767 720.317L302.97 719.832L294.979 710.728C293.693 709.459 292.547 707.928 291.366 706.554L291.077 706.4C287.078 707.555 282.649 707.589 278.851 709.07C275.679 705.199 272.661 701.193 269.595 697.238C273.138 695.437 277.242 694.791 281.108 693.991L281.493 694.031Z"/>
	<path fill="#D9BAB9" d="M281.108 693.991L281.493 694.031C284.414 698.402 288.236 702.073 291.077 706.4C287.078 707.555 282.649 707.589 278.851 709.07C275.679 705.199 272.661 701.193 269.595 697.238C273.138 695.437 277.242 694.791 281.108 693.991Z"/>
	<path fill="#FE8447" d="M291.366 706.554C309.137 701.045 327.794 697.542 345.777 692.611C379.603 683.335 412.98 672.52 446.015 660.747C468.098 652.876 490.082 644.7 511.693 635.604L536.674 624.816C543.895 621.638 551.312 617.998 559.005 616.146C556.4 619.328 553.526 622.22 550.644 625.146L549.928 625.667C547.252 625.325 544.274 626.878 541.822 627.873C534.26 630.941 527.034 634.847 519.603 638.22C506.461 644.185 493.101 649.694 479.605 654.806C455.26 664.028 430.594 672.427 405.835 680.456C392.708 684.712 379.592 689.193 366.276 692.825C350.739 697.063 335.11 701.171 319.455 704.95C311.426 706.888 302.748 707.975 294.979 710.728C293.693 709.459 292.547 707.928 291.366 706.554Z"/>
	<path fill="#FEAF55" d="M294.979 710.728C302.748 707.975 311.426 706.888 319.455 704.95C335.11 701.171 350.739 697.063 366.276 692.825C379.592 689.193 392.708 684.712 405.835 680.456C430.594 672.427 455.26 664.028 479.605 654.806C493.101 649.694 506.461 644.185 519.603 638.22C527.034 634.847 534.26 630.941 541.822 627.873C544.274 626.878 547.252 625.325 549.928 625.667C546.412 629.425 542.935 633.273 539.231 636.846C533.288 642.579 525.509 648.426 521.062 655.389C513.858 661.736 506.861 669.74 498.147 673.952C490.322 671.025 480.595 669.548 472.314 671.169C461.92 673.204 451.803 678.59 441.975 682.444C431.591 686.516 420.88 689.889 410.28 693.351C384.92 701.632 358.982 709.005 332.94 714.794C323.277 716.942 313.443 718.245 303.767 720.317L302.97 719.832L294.979 710.728Z"/>
	<path fill="#EA6E21" d="M303.767 720.317C313.443 718.245 323.277 716.942 332.94 714.794C358.982 709.005 384.92 701.632 410.28 693.351C420.88 689.889 431.591 686.516 441.975 682.444C451.803 678.59 461.92 673.204 472.314 671.169C480.595 669.548 490.322 671.025 498.147 673.952L498.086 674.386C487.186 683.068 475.252 690.642 463.555 698.203C439.865 713.517 413.081 729.933 387.41 741.41C374.905 747.138 362.107 752.741 349.824 758.908C333.132 747.519 318.507 734.05 303.767 720.317Z"/>
	<path fill="#EA6E21" d="M689.962 269.542C700.078 276.371 710.012 284.404 718.813 292.867C723.273 297.156 727.571 303.304 732.674 306.703C738.788 313.869 750.27 325.415 754.573 333.124L755.564 334.303C756.381 335.548 757.403 337.694 758.521 338.602C760.205 338.884 761.753 338.972 763.098 340.126L766.089 340.56L766.464 341.293C769.432 347.009 773.568 352.158 777.19 357.475C780.525 362.37 783.449 367.508 786.331 372.679C794.222 386.842 801.389 401.638 806.35 417.105C808.286 423.14 809.186 429.615 811.273 435.537C809.461 436.923 807.64 438.291 805.795 439.633L805.619 440.889L795.818 447.525L799.014 461.783C799.097 463.183 799.106 464.578 799.519 465.928L799.455 466.555C799.904 471.795 800.232 477.1 801.003 482.301C801.374 485.207 802.12 488.584 801.912 491.481L802.577 498.411L803.052 501.313L803.051 501.786C803.076 507.961 803.884 514.067 803.712 520.269C803.043 544.366 798.068 569.319 791.934 592.576C772.022 604.942 763.531 615.322 737.79 609.305C731.94 607.938 726.101 606.176 720.171 605.213C701.514 602.184 685.375 608.4 669.671 618.08C633.886 640.139 607.513 671.502 564.807 681.696C551.454 684.883 537.81 685.546 524.363 682.441C515.435 680.38 507.066 676.457 498.086 674.386L498.147 673.952C506.861 669.74 513.858 661.736 521.062 655.389C525.509 648.426 533.288 642.579 539.231 636.846C542.935 633.273 546.412 629.425 549.928 625.667L550.644 625.146C553.526 622.22 556.4 619.328 559.005 616.146L561.633 613.93C565.673 605.939 577.422 593.7 583.496 586.603C584.309 585.449 585.425 584.753 586.558 583.948C592.939 575.128 599.97 566.841 605.957 557.724C606.881 556.925 607.747 555.766 608.574 554.851C615.572 543.612 623.941 533.284 631.309 522.293C635.663 515.797 639.348 509.05 642.915 502.102C648.166 490.195 654.449 478.76 659.599 466.786C672.865 435.942 681.615 404.13 687.586 371.139C687.968 369.416 688.155 367.701 688.344 365.947C689.548 360.938 689.904 355.341 690.45 350.208C691.888 336.698 692.595 322.963 692.597 309.37C692.598 301.28 692.061 293.164 691.99 285.062L691.052 284.199C690.945 279.316 690.181 274.433 689.962 269.542Z"/>
	<path fill="#A34F27" d="M561.633 613.93C567.732 612.203 573.778 608.678 579.485 605.924L603.602 594.524C650.852 572.103 697.006 546.975 741.786 519.965C754.452 512.325 766.845 504.155 779.218 496.049C786.317 491.398 793.479 486.196 801.003 482.301C801.374 485.207 802.12 488.584 801.912 491.481C800.393 491.018 799.752 491.54 798.377 492.257C788.472 497.425 779.011 503.884 769.478 509.718C753.87 519.27 738.106 528.588 722.259 537.737C680.15 562.046 637.001 584.154 593.415 605.673C582.707 610.96 561.273 623.28 550.644 625.146C553.526 622.22 556.4 619.328 559.005 616.146L561.633 613.93Z"/>
	<path fill="#EA6E21" d="M586.558 583.948C594.025 583.265 611.818 572.255 619.434 568.471C658.767 548.931 697.061 529.977 734.887 507.459C749.082 499.009 763.23 490.25 777.076 481.236C784.413 476.461 791.703 470.557 799.455 466.555C799.904 471.795 800.232 477.1 801.003 482.301C793.479 486.196 786.317 491.398 779.218 496.049C766.845 504.155 754.452 512.325 741.786 519.965C697.006 546.975 650.852 572.103 603.602 594.524L579.485 605.924C573.778 608.678 567.732 612.203 561.633 613.93C565.673 605.939 577.422 593.7 583.496 586.603C584.309 585.449 585.425 584.753 586.558 583.948Z"/>
	<path fill="#A34F27" d="M795.633 447.542L795.818 447.525L799.014 461.783C799.097 463.183 799.106 464.578 799.519 465.928L799.455 466.555C791.703 470.557 784.413 476.461 777.076 481.236C763.23 490.25 749.082 499.009 734.887 507.459C697.061 529.977 658.767 548.931 619.434 568.471C611.818 572.255 594.025 583.265 586.558 583.948C592.939 575.128 599.97 566.841 605.957 557.724C606.881 556.925 607.747 555.766 608.574 554.851C615.572 543.612 623.941 533.284 631.309 522.293C635.663 515.797 639.348 509.05 642.915 502.102C663.157 498.315 679.269 489.66 696.555 478.982C701.473 478.96 706.45 478.82 711.358 479.127C714.011 479.293 740.769 482.285 741.478 482.688C754.763 476.023 767.606 467.06 779.892 458.693C785.125 455.13 790.827 451.656 795.633 447.542Z"/>
	<path fill="#90210E" d="M696.555 478.982C701.473 478.96 706.45 478.82 711.358 479.127C714.011 479.293 740.769 482.285 741.478 482.688C708.257 501.932 674.593 520.516 640.793 538.727C634.105 542.33 615.158 553.745 608.574 554.851C615.572 543.612 623.941 533.284 631.309 522.293C635.663 515.797 639.348 509.05 642.915 502.102C663.157 498.315 679.269 489.66 696.555 478.982Z"/>
	<path fill="#A34F27" d="M802.577 498.411L803.052 501.313L803.051 501.786C803.076 507.961 803.884 514.067 803.712 520.269C803.043 544.366 798.068 569.319 791.934 592.576C772.022 604.942 763.531 615.322 737.79 609.305C731.94 607.938 726.101 606.176 720.171 605.213C701.514 602.184 685.375 608.4 669.671 618.08C633.886 640.139 607.513 671.502 564.807 681.696C551.454 684.883 537.81 685.546 524.363 682.441C515.435 680.38 507.066 676.457 498.086 674.386L498.147 673.952C506.861 669.74 513.858 661.736 521.062 655.389C542.127 648.427 562.393 637.529 582.386 627.993C650.288 595.607 717.445 559.547 779.989 517.645C785.971 513.636 797.074 507.629 801.737 502.762C802.755 501.699 802.49 499.794 802.577 498.411Z"/>
	<path fill="#A34F27" d="M689.962 269.542C700.078 276.371 710.012 284.404 718.813 292.867C723.273 297.156 727.571 303.304 732.674 306.703C738.788 313.869 750.27 325.415 754.573 333.124L755.564 334.303C756.381 335.548 757.403 337.694 758.521 338.602C760.205 338.884 761.753 338.972 763.098 340.126L766.089 340.56L766.464 341.293C769.432 347.009 773.568 352.158 777.19 357.475C780.525 362.37 783.449 367.508 786.331 372.679C794.222 386.842 801.389 401.638 806.35 417.105C808.286 423.14 809.186 429.615 811.273 435.537C809.461 436.923 807.64 438.291 805.795 439.633L805.619 440.889L795.818 447.525L795.633 447.542C790.827 451.656 785.125 455.13 779.892 458.693C767.606 467.06 754.763 476.023 741.478 482.688C740.769 482.285 714.011 479.293 711.358 479.127C706.45 478.82 701.473 478.96 696.555 478.982C679.269 489.66 663.157 498.315 642.915 502.102C648.166 490.195 654.449 478.76 659.599 466.786C672.865 435.942 681.615 404.13 687.586 371.139C687.968 369.416 688.155 367.701 688.344 365.947C689.548 360.938 689.904 355.341 690.45 350.208C691.888 336.698 692.595 322.963 692.597 309.37C692.598 301.28 692.061 293.164 691.99 285.062L691.052 284.199C690.945 279.316 690.181 274.433 689.962 269.542Z"/>
	<path fill="#983E1A" d="M696.555 478.982C701.642 473.743 707.334 469.104 712.574 464.012C725.001 451.936 737.172 438.796 751.486 428.908C761.783 421.795 773.352 416.743 783.927 410.061C788.157 422.328 790.699 435.599 795.633 447.542C790.827 451.656 785.125 455.13 779.892 458.693C767.606 467.06 754.763 476.023 741.478 482.688C740.769 482.285 714.011 479.293 711.358 479.127C706.45 478.82 701.473 478.96 696.555 478.982Z"/>
	<path fill="#6076C8" d="M689.962 269.542C700.078 276.371 710.012 284.404 718.813 292.867C723.273 297.156 727.571 303.304 732.674 306.703C738.788 313.869 750.27 325.415 754.573 333.124L755.564 334.303C756.381 335.548 757.403 337.694 758.521 338.602C760.205 338.884 761.753 338.972 763.098 340.126L766.089 340.56L766.464 341.293C769.432 347.009 773.568 352.158 777.19 357.475C780.525 362.37 783.449 367.508 786.331 372.679C794.222 386.842 801.389 401.638 806.35 417.105C808.286 423.14 809.186 429.615 811.273 435.537C809.461 436.923 807.64 438.291 805.795 439.633L805.619 440.889L795.818 447.525L795.633 447.542C790.699 435.599 788.157 422.328 783.927 410.061C776.159 391.425 767.531 373.375 756.375 356.513C746.926 360.216 700.246 369.924 689.82 369.798C688.637 368.886 688.592 367.389 688.344 365.947C689.548 360.938 689.904 355.341 690.45 350.208C691.888 336.698 692.595 322.963 692.597 309.37C692.598 301.28 692.061 293.164 691.99 285.062L691.052 284.199C690.945 279.316 690.181 274.433 689.962 269.542Z"/>
	<path fill="#02021A" d="M758.521 338.602C760.205 338.884 761.753 338.972 763.098 340.126L766.089 340.56L766.464 341.293C769.432 347.009 773.568 352.158 777.19 357.475C780.525 362.37 783.449 367.508 786.331 372.679C794.222 386.842 801.389 401.638 806.35 417.105C808.286 423.14 809.186 429.615 811.273 435.537C809.461 436.923 807.64 438.291 805.795 439.633C801.162 425.269 796.768 410.922 790.967 396.966C782.298 376.115 770.853 357.431 758.521 338.602Z"/>
	<path fill="#983E1A" d="M691.99 285.062C711.357 301.268 727.96 318.843 743.473 338.751C747.947 344.492 752.715 350.21 756.375 356.513C746.926 360.216 700.246 369.924 689.82 369.798C688.637 368.886 688.592 367.389 688.344 365.947C689.548 360.938 689.904 355.341 690.45 350.208C691.888 336.698 692.595 322.963 692.597 309.37C692.598 301.28 692.061 293.164 691.99 285.062Z"/>
</svg>
