<?xml version="1.0" encoding="utf-8" ?>
<svg xmlns="http://www.w3.org/2000/svg" xmlns:xlink="http://www.w3.org/1999/xlink" width="1024" height="1024">
	<path fill="#EDD655" d="M395.862 977.187C397.127 977.662 397.696 977.924 398.508 979.02C398.838 980.543 398.323 981.629 397.811 983.035C396.705 982.435 395.974 981.859 395.096 980.958C394.849 979.277 395.231 978.732 395.862 977.187Z"/>
	<path fill="#EDD655" d="M354.845 67.6444C356.098 67.8485 356.851 68.2098 357.945 68.8063C358.696 70.4596 358.487 71.0986 358.305 72.8708C356.951 72.6691 356.227 72.4469 355.096 71.6695C354.365 70.2557 354.636 69.1468 354.845 67.6444Z"/>
	<path fill="#EDD655" d="M481.963 24.1822C483.158 24.7881 483.693 25.1527 484.423 26.2847C484.608 27.8103 483.948 28.9078 483.321 30.2455C482.176 29.4698 481.37 28.9093 480.631 27.694C480.685 26.0908 481.16 25.5437 481.963 24.1822Z"/>
	<path fill="#EDD655" d="M868.228 904.735C869.5 905.323 870.099 905.629 870.961 906.792C871.272 908.339 870.561 909.407 869.901 910.75C868.676 910.064 868.031 909.611 867.155 908.466C867.07 906.792 867.502 906.217 868.228 904.735Z"/>
	<path fill="#EDD655" d="M980.445 316.165C981.765 316.797 982.48 317.097 983.336 318.342C983.555 319.983 982.684 321.027 981.861 322.357C980.708 321.736 980.108 321.336 979.366 320.249C979.068 318.614 979.743 317.579 980.445 316.165Z"/>
	<path fill="#EDD655" d="M556.832 967.596C558.359 967.945 559.351 968.125 560.491 969.299C561.064 970.792 560.603 971.934 560.204 973.402C559.916 973.44 559.631 973.518 559.34 973.516C558.068 973.508 557.689 973.123 556.829 972.316C556.265 970.578 556.508 969.37 556.832 967.596Z"/>
	<path fill="#B5831A" d="M948.958 960.374C950.934 960.941 952.198 961.427 953.278 963.267C953.373 965.115 952.695 966.212 951.837 967.811C951.005 967.637 950.011 967.4 949.27 966.955C948.287 966.365 947.622 965.422 947.465 964.28C947.261 962.795 948.195 961.544 948.958 960.374Z"/>
	<path fill="#0484F1" d="M56.51 823.877C57.6905 823.944 59.1394 823.94 60.173 824.579C61.249 825.245 62.05 826.024 62.2865 827.317C62.6433 829.266 61.6105 830.6 60.5219 832.053C59.6428 831.991 58.8026 831.955 57.9713 831.635C56.5933 831.104 55.3807 830.21 54.9752 828.715C54.4362 826.728 55.4275 825.394 56.51 823.877Z"/>
	<path fill="#B5831A" d="M682.053 935.436C682.693 935.451 683.316 935.466 683.952 935.54C685.927 935.768 687.736 936.693 688.907 938.339C689.868 939.69 690.066 941.426 689.729 943.021C689.167 945.681 687.41 947.003 685.296 948.498C685.049 948.502 684.802 948.515 684.554 948.508C682.38 948.444 680.319 947.836 678.874 946.109C677.791 944.816 677.491 943.17 677.698 941.528C678.067 938.596 679.802 937.118 682.053 935.436Z"/>
	<path fill="#0484F1" d="M90.0128 955.005C91.1148 954.918 92.219 954.806 93.3151 955.013C94.9386 955.32 96.3795 956.367 97.2552 957.759C98.2513 959.342 98.4093 961.234 97.917 963.021C97.2424 965.469 95.6529 966.82 93.5688 968.101C91.0383 968.003 88.7062 967.746 86.8981 965.746C85.7841 964.514 85.3688 962.94 85.5598 961.306C85.9036 958.364 87.8086 956.731 90.0128 955.005Z"/>
	<path fill="#0484F1" d="M119.133 184.957C119.63 184.945 120.127 184.922 120.623 184.947C122.794 185.054 125.041 185.96 126.435 187.673C127.579 189.079 127.995 190.885 127.722 192.66C127.269 195.61 125.454 197.218 123.131 198.855C122.152 198.966 121.14 199.089 120.162 198.907C118.304 198.56 116.628 197.574 115.561 195.997C114.473 194.389 114.277 192.288 114.687 190.423C115.289 187.687 116.908 186.461 119.133 184.957Z"/>
	<path fill="#0484F1" d="M908.595 140.074C909.781 140.21 911.058 140.331 912.191 140.727C914.026 141.368 915.662 143.104 916.376 144.886C917.114 146.73 916.985 148.721 916.138 150.507C914.922 153.071 912.788 154.185 910.227 155.078C909.044 154.975 907.983 154.692 906.888 154.241C904.838 153.396 903.227 151.719 902.487 149.625C901.852 147.829 901.931 145.85 902.807 144.145C904.042 141.744 906.116 140.778 908.595 140.074Z"/>
	<path fill="#0484F1" d="M938.192 188.483C939.053 188.565 939.929 188.648 940.773 188.841C943.243 189.405 945.575 190.963 946.754 193.242C947.802 195.269 947.836 197.646 947.01 199.755C945.759 202.946 943.384 204.19 940.383 205.476C939.215 205.402 937.98 205.355 936.858 205.001C934.742 204.334 932.831 202.749 931.872 200.741C930.879 198.664 930.906 196.279 931.729 194.152C932.948 191.005 935.21 189.706 938.192 188.483Z"/>
	<path fill="#F6F9FA" d="M34.5839 586.514C36.3761 586.317 38.3205 586.237 40.0542 586.801C42.7903 587.692 45.1203 589.737 46.2649 592.385C47.3107 594.805 47.2773 597.444 46.227 599.853C44.8862 602.928 42.372 604.392 39.4026 605.642C38.199 605.668 36.9749 605.7 35.7823 605.509C32.9821 605.06 30.2488 603.645 28.6777 601.223C27.4094 599.268 27.0418 596.868 27.562 594.609C28.5104 590.491 31.1114 588.559 34.5839 586.514Z"/>
	<path fill="#F6F9FA" d="M980.069 453.508C981.612 453.404 983.141 453.292 984.662 453.647C987.439 454.293 990.191 455.999 991.618 458.525C992.893 460.782 993.097 463.352 992.252 465.791C991.073 469.196 988.567 470.778 985.526 472.385C983.666 472.701 981.999 472.844 980.16 472.301C977.576 471.538 975.324 469.779 974.076 467.378C972.832 464.985 972.677 462.303 973.564 459.768C974.714 456.481 977.106 455.006 980.069 453.508Z"/>
	<path fill="#F6F9FA" d="M199.373 920.99C200.742 921.069 202.156 921.254 203.483 921.608C206.1 922.305 208.54 924.202 209.829 926.584C211.255 929.22 211.41 932.425 210.383 935.226C208.898 939.277 206.101 941.137 202.309 942.808C200.236 942.673 198.247 942.497 196.361 941.55C193.605 940.166 191.437 937.688 190.565 934.72C189.791 932.085 190.073 929.225 191.405 926.817C193.174 923.62 195.998 922.042 199.373 920.99Z"/>
	<path fill="#F6F9FA" d="M906.758 796.535C908.566 796.461 910.255 796.469 912.007 796.998C915.337 798.004 918.135 800.023 919.757 803.15C921.143 805.823 921.329 809.005 920.277 811.824C918.773 815.851 915.62 817.774 911.928 819.49C908.921 819.689 906.084 819.47 903.439 817.873C899.785 815.669 898.422 811.927 897.392 808.029C897.589 807.015 897.785 805.987 898.081 804.995C899.414 800.53 902.869 798.502 906.758 796.535Z"/>
	<path fill="#71C5BD" d="M232.908 831.204C222.66 821.468 212.396 811.638 202.737 801.314C128.01 721.448 86.8077 609.299 90.5438 500.149C94.4067 387.297 142.998 279.066 225.832 202.149C288.309 144.135 366.768 103.818 451.471 91.481C466.673 89.2667 482.851 86.9612 498.239 87.5315C500.983 91.3133 503.071 87.9089 504.042 94.4158L504.817 94.321L505.335 93.5564C507.053 91.0393 508.729 90.6373 511.616 90.1459C522.463 88.2997 530.481 92.3364 540.057 96.6032C539.894 96.6197 539.73 96.6384 539.566 96.6527C534.934 97.0578 530.045 96.508 525.387 96.3178C518.336 96.0299 511.258 95.8771 504.203 96.1041C472.656 97.1187 441.373 102.109 410.773 109.67C403.655 111.429 394.844 112.885 388.709 117.045C384.802 119.093 380.578 120.638 376.482 122.271C364.028 122.854 293.805 157.683 284.802 167.422C284.7 167.533 284.602 167.648 284.502 167.762C281.961 169.219 279.758 170.554 277.686 172.669C273.492 173.958 258.708 185.878 254.916 189.423C249.767 190.11 242.969 198.218 239.215 201.795C220.856 219.284 203.262 237.517 187.842 257.691C164.966 287.618 146.453 319.65 132.115 354.492C128.205 363.992 124.346 373.629 121.491 383.509C119.66 389.846 118.453 396.409 117.1 402.863C113.173 407.916 111.2 420.716 109.877 427.423C100.88 473.04 98.0755 520.041 103.878 566.252C110.956 622.633 129.655 674.999 158.397 723.928C164.302 733.98 170.232 745.008 177.722 753.934C187.691 768.164 223.85 813.629 237.651 820.23C237.572 823.624 234.486 828.201 232.908 831.204Z"/>
	<path fill="#3BCD93" d="M498.239 87.5315C514.41 86.5657 530.641 87.4679 546.767 88.7234C566.499 90.2596 586.218 92.7854 605.552 97.1023C618.773 100.054 631.682 104.062 644.507 108.398C697.073 126.171 744.932 153.45 786.451 190.32C872.503 266.735 926.237 377.199 932.92 492.187C939.471 604.886 900.453 713.23 825.562 797.285C752.489 879.299 649.443 932.23 539.303 938.459C496.458 940.881 456.655 937.321 414.904 927.528C393.361 922.474 373.284 916.437 352.902 907.713C353.102 903.55 353.566 901.679 350.682 898.325C353.576 897.806 373.241 906.985 377.986 908.653C381.616 909.929 385.236 910.785 389.009 911.503C404.946 915.18 420.533 920.33 436.603 923.463C485.864 933.067 538.382 933.914 587.703 924.27C605.668 920.757 623.225 915.648 640.629 910.029C685.253 895.622 725.33 872.62 762.49 844.292C768.976 839.347 778.448 833.643 782.214 826.291C785.972 825.147 818.577 789.743 823.327 784.204C828.071 778.672 832.479 772.944 836.768 767.054C890.506 693.253 920.947 611.776 921.017 519.883C921.029 503.13 920.872 486.087 918.259 469.5C914.981 467.139 911.926 464.784 908.127 463.309C905.199 462.432 904.035 462.603 901.364 464.014C899.195 465.159 896.04 467.733 893.502 467.132C893.267 467.077 893.042 466.98 892.824 466.875C886.488 463.872 880.694 458.283 875.173 453.924C869.825 449.293 865.711 445.265 862.3 439.012C861.376 435.993 860.148 430.939 862.183 428.11C862.682 427.415 863.324 426.986 864.146 426.811C866.472 426.317 868.157 427.554 870.049 428.714C870.573 427.923 870.997 427.182 871.113 426.214C871.593 422.212 870.1 416.783 869.474 412.776C866.331 392.657 855.451 340.631 843.413 325.503C836.637 332.475 828.949 335.263 820.506 339.596C816.086 341.379 812.03 343.47 807.294 341.38C804.443 340.122 802.011 337.82 799.436 336.086C794.107 336.431 789.361 336.8 785.662 341.183C777.608 350.729 783.594 364.251 770.5 375.582C766.019 379.459 760.44 381.641 754.592 382.306C752.129 382.586 749.557 382.534 747.084 382.418C745.516 377.936 742.334 373.479 739.897 369.392C733.105 359.367 725.581 351.38 716.294 343.617C717.423 333.095 718.452 294.378 714.087 285.825L708.859 286.78C706.804 287.214 704.673 287.818 702.598 288.088C700.522 287.472 698.256 286.534 696.731 284.945C694.627 282.753 694.716 280.248 694.888 277.399C694.961 273.513 695.376 269.757 696.151 265.95C698.731 263.287 702.241 262.321 705.639 261.089L706.588 260.926C709.554 260.409 711.619 260.26 713.475 257.63C713.648 256.258 713.592 256.252 712.864 255.063C709.894 253.153 707.683 253.818 704.401 254.322C702.714 242.779 702.031 229.914 698.479 218.802L698.622 218.624C694.541 196.141 677.641 161.723 666.002 142.077C661.476 134.437 656.325 127.118 651.37 119.749C644.721 116.191 636.936 114.233 629.718 112.138C600.162 103.559 570.632 99.317 540.057 96.6032C530.481 92.3364 522.463 88.2997 511.616 90.1459C508.729 90.6373 507.053 91.0393 505.335 93.5564L504.817 94.321L504.042 94.4158C503.071 87.9089 500.983 91.3133 498.239 87.5315Z"/>
	<path fill="#70AB0D" d="M762.956 187.06C770.916 190.114 777.715 197.308 783.926 202.958C818.32 234.247 856.844 283.414 875.269 326.318C875.555 326.985 875.778 327.651 876.004 328.339C871.284 326.026 867.936 321.185 863.811 318C861.238 316.013 858.023 314.262 854.658 314.856C849.906 315.694 846.543 320.605 844.036 324.36C840.928 318.549 838.533 312.13 835.511 306.21C823.746 283.161 810.983 260.178 795.196 239.602C787.818 229.986 780.06 220.75 771.908 211.783C766.084 205.375 756.289 196.229 752.047 189.044C755.965 188.958 759.338 188.792 762.956 187.06Z"/>
	<path fill="#044FA6" d="M651.37 119.749C686.545 133.237 736.923 159.9 765.68 183.491L762.956 187.06C759.338 188.792 755.965 188.958 752.047 189.044C742.003 188.247 727.265 186.515 719.098 193.77C714.441 197.907 712.666 204.82 708.802 209.685C705.911 213.325 701.876 215.438 698.622 218.624C694.541 196.141 677.641 161.723 666.002 142.077C661.476 134.437 656.325 127.118 651.37 119.749Z"/>
	<path fill="#B5831A" d="M844.036 324.36C846.543 320.605 849.906 315.694 854.658 314.856C858.023 314.262 861.238 316.013 863.811 318C867.936 321.185 871.284 326.026 876.004 328.339C891.923 352.207 914.985 431.224 916.712 460.737C917.42 463.66 917.887 466.518 918.259 469.5C914.981 467.139 911.926 464.784 908.127 463.309C905.199 462.432 904.035 462.603 901.364 464.014C899.195 465.159 896.04 467.733 893.502 467.132C893.267 467.077 893.042 466.98 892.824 466.875C886.488 463.872 880.694 458.283 875.173 453.924C869.825 449.293 865.711 445.265 862.3 439.012C861.376 435.993 860.148 430.939 862.183 428.11C862.682 427.415 863.324 426.986 864.146 426.811C866.472 426.317 868.157 427.554 870.049 428.714C870.573 427.923 870.997 427.182 871.113 426.214C871.593 422.212 870.1 416.783 869.474 412.776C866.331 392.657 855.451 340.631 843.413 325.503L844.036 324.36Z"/>
	<path fill="#112258" d="M862.3 439.012C861.376 435.993 860.148 430.939 862.183 428.11C862.682 427.415 863.324 426.986 864.146 426.811C866.472 426.317 868.157 427.554 870.049 428.714C873.123 431.242 875.781 433.764 878.025 437.077C881.808 442.66 887.603 458.793 896.068 457.829C901.611 457.198 902.885 450.912 909.306 455.325C911.793 457.034 914.056 459.329 916.712 460.737C917.42 463.66 917.887 466.518 918.259 469.5C914.981 467.139 911.926 464.784 908.127 463.309C905.199 462.432 904.035 462.603 901.364 464.014C899.195 465.159 896.04 467.733 893.502 467.132C893.267 467.077 893.042 466.98 892.824 466.875C886.488 463.872 880.694 458.283 875.173 453.924C869.825 449.293 865.711 445.265 862.3 439.012Z"/>
	<path fill="#044FA6" d="M862.3 439.012C863.595 437.13 864.428 435.519 866.876 435.159C868.809 434.874 870.765 436.032 872.154 437.25C873.234 438.195 874.19 439.284 875.08 440.407C878.495 444.711 880.526 449.869 883.699 454.306C885.88 457.356 889.196 459.63 891.227 462.747C892.023 463.969 892.416 465.488 892.824 466.875C886.488 463.872 880.694 458.283 875.173 453.924C869.825 449.293 865.711 445.265 862.3 439.012Z"/>
	<path fill="#7ACB2C" d="M698.622 218.624C701.876 215.438 705.911 213.325 708.802 209.685C712.666 204.82 714.441 197.907 719.098 193.77C727.265 186.515 742.003 188.247 752.047 189.044C756.289 196.229 766.084 205.375 771.908 211.783C780.06 220.75 787.818 229.986 795.196 239.602C810.983 260.178 823.746 283.161 835.511 306.21C838.533 312.13 840.928 318.549 844.036 324.36L843.413 325.503C836.637 332.475 828.949 335.263 820.506 339.596C816.086 341.379 812.03 343.47 807.294 341.38C804.443 340.122 802.011 337.82 799.436 336.086C794.107 336.431 789.361 336.8 785.662 341.183C777.608 350.729 783.594 364.251 770.5 375.582C766.019 379.459 760.44 381.641 754.592 382.306C752.129 382.586 749.557 382.534 747.084 382.418C745.516 377.936 742.334 373.479 739.897 369.392C733.105 359.367 725.581 351.38 716.294 343.617C717.423 333.095 718.452 294.378 714.087 285.825L708.859 286.78C706.804 287.214 704.673 287.818 702.598 288.088C700.522 287.472 698.256 286.534 696.731 284.945C694.627 282.753 694.716 280.248 694.888 277.399C694.961 273.513 695.376 269.757 696.151 265.95C698.731 263.287 702.241 262.321 705.639 261.089L706.588 260.926C709.554 260.409 711.619 260.26 713.475 257.63C713.648 256.258 713.592 256.252 712.864 255.063C709.894 253.153 707.683 253.818 704.401 254.322C702.714 242.779 702.031 229.914 698.479 218.802L698.622 218.624Z"/>
	<path fill="#112258" d="M721.91 241.66C723.913 240.717 726.34 239.807 727.999 238.324C732.461 234.334 731.829 226.305 736.785 223.168C738.952 221.797 742.033 221.227 744.523 221.897C745.997 222.294 747.445 223.164 748.102 224.605C748.933 226.429 747.916 228.374 747.24 230.078C744.375 230.051 741.906 229.832 739.721 232.038C733.667 238.151 738.904 244.475 727.367 248.651C731.765 254.553 735.8 261.438 734.518 269.137C734.086 271.726 733.022 274.758 730.794 276.352C728.612 277.913 725.745 277.765 723.256 277.203C720.697 276.625 718.484 275.256 716.324 273.819C715.491 277.748 715.025 281.711 714.287 285.651L714.087 285.825L708.859 286.78C706.804 287.214 704.673 287.818 702.598 288.088C700.522 287.472 698.256 286.534 696.731 284.945C694.627 282.753 694.716 280.248 694.888 277.399C694.961 273.513 695.376 269.757 696.151 265.95C698.731 263.287 702.241 262.321 705.639 261.089C706.569 265.777 708.475 270.229 709.37 274.887C711.662 272.598 713.401 270.095 715.202 267.414C718.853 268.08 722.655 268.973 726.129 267.113C727.815 266.21 728.894 264.58 729.321 262.742C730.971 255.647 725.588 247.298 721.91 241.66Z"/>
	<path fill="#B6EA41" d="M696.151 265.95C698.731 263.287 702.241 262.321 705.639 261.089C706.569 265.777 708.475 270.229 709.37 274.887C706.823 277.32 704.323 279.69 700.533 279.55C698.372 279.471 696.651 278.568 694.888 277.399C694.961 273.513 695.376 269.757 696.151 265.95Z"/>
	<path fill="#044FA6" d="M727.367 248.651C738.904 244.475 733.667 238.151 739.721 232.038C741.906 229.832 744.375 230.051 747.24 230.078C746.779 235.478 746.885 239.835 750.371 244.331C754.179 247.133 761.541 250.95 762.277 255.966C762.455 257.179 762.147 258.279 761.701 259.399C757.839 262.463 750.002 266.905 749.528 272.212C749.125 276.724 752.889 281.018 750.846 285.525C749.781 286.402 749.249 286.67 747.831 286.575C744.573 286.356 741.354 284.573 738.192 283.804C730.386 281.906 721.91 283.831 714.287 285.651C715.025 281.711 715.491 277.748 716.324 273.819C718.484 275.256 720.697 276.625 723.256 277.203C725.745 277.765 728.612 277.913 730.794 276.352C733.022 274.758 734.086 271.726 734.518 269.137C735.8 261.438 731.765 254.553 727.367 248.651Z"/>
	<path fill="#112258" d="M750.371 244.331C754.179 247.133 761.541 250.95 762.277 255.966C762.455 257.179 762.147 258.279 761.701 259.399C757.954 258.822 755.143 256.564 752.365 254.162C751.448 250.873 750.75 247.725 750.371 244.331Z"/>
	<path fill="#044FA6" d="M843.413 325.503C855.451 340.631 866.331 392.657 869.474 412.776C870.1 416.783 871.593 422.212 871.113 426.214C870.997 427.182 870.573 427.923 870.049 428.714C868.157 427.554 866.472 426.317 864.146 426.811C863.324 426.986 862.682 427.415 862.183 428.11C860.148 430.939 861.376 435.993 862.3 439.012C865.711 445.265 869.825 449.293 875.173 453.924C880.694 458.283 886.488 463.872 892.824 466.875C893.042 466.98 893.267 467.077 893.502 467.132C896.04 467.733 899.195 465.159 901.364 464.014C904.035 462.603 905.199 462.432 908.127 463.309C911.926 464.784 914.981 467.139 918.259 469.5C920.872 486.087 921.029 503.13 921.017 519.883C920.947 611.776 890.506 693.253 836.768 767.054C832.479 772.944 828.071 778.672 823.327 784.204C818.577 789.743 785.972 825.147 782.214 826.291C778.448 833.643 768.976 839.347 762.49 844.292C725.33 872.62 685.253 895.622 640.629 910.029C623.225 915.648 605.668 920.757 587.703 924.27C538.382 933.914 485.864 933.067 436.603 923.463C420.533 920.33 404.946 915.18 389.009 911.503C385.236 910.785 381.616 909.929 377.986 908.653C373.241 906.985 353.576 897.806 350.682 898.325C353.566 901.679 353.102 903.55 352.902 907.713C309.007 889.834 268.499 862.213 232.908 831.204C234.486 828.201 237.572 823.624 237.651 820.23L237.841 820.032C238.947 818.492 239.81 817.29 241.85 817.025C252.576 815.632 276.877 834.431 288.082 838.896C299.366 843.393 310.996 843.464 322.79 845.515C335.627 847.747 346.975 853.957 358.008 860.615C362.408 855.253 378.759 862.517 384.397 859.423C392.137 867.233 404.225 882.308 416.158 882.461C418.548 882.492 421.104 881.627 422.721 879.803C423.83 878.553 424.267 876.959 424.113 875.312C423.639 870.217 419.535 865.518 417.533 860.892C425.187 859.528 433.106 859.164 440.835 858.292C452.216 857.008 463.621 855.311 474.881 853.232C535.431 842.05 598.302 816.19 648.754 780.862C658.983 773.698 703.416 742.585 705.207 732.412L705.337 734.116C707.356 733.198 709.202 731.903 710.927 730.519C721.226 722.253 730.865 712.409 739.668 702.582C788.213 648.386 818.295 575.772 825.898 503.602C826.367 500.148 826.373 496.688 827.107 493.266C825.283 488.015 822.777 482.899 820.739 477.71C816.415 466.707 812.566 455.439 809.549 444.005C808.103 440.33 807.447 437.147 807.877 433.172C808.403 429.185 805.823 424.973 808.022 421.236C801.369 420.565 794.661 420.435 788.091 419.047C777.419 416.791 766.55 412.71 755.62 412.076C739.969 411.168 747.542 423.186 740.78 428.041C738.867 429.414 736.749 429.171 734.542 428.782C720.424 426.298 711.112 410.54 703.405 399.841L703.537 399.426C707.308 389.023 709.086 376.62 709.604 365.542L708.636 364.069C710.291 364.236 711.134 364.963 712.344 366.034C713.109 366.711 713.317 366.999 714.312 367.287C714.832 366.064 714.428 364.748 714.222 363.482C718.191 367.99 720.276 373.646 724.519 378.017C726.08 378.564 727.435 378.63 729.08 378.68C731.876 378.48 732.066 377.054 734.029 375.427C734.715 374.858 734.931 375.111 735.762 375.218C735.744 373.662 735.732 372.326 736.167 370.809C737.432 369.703 738.272 369.716 739.897 369.392C742.334 373.479 745.516 377.936 747.084 382.418C749.557 382.534 752.129 382.586 754.592 382.306C760.44 381.641 766.019 379.459 770.5 375.582C783.594 364.251 777.608 350.729 785.662 341.183C789.361 336.8 794.107 336.431 799.436 336.086C802.011 337.82 804.443 340.122 807.294 341.38C812.03 343.47 816.086 341.379 820.506 339.596C828.949 335.263 836.637 332.475 843.413 325.503Z"/>
	<path fill="#112258" d="M910.339 471.908C913.689 480.407 913.914 488.464 913.434 497.495C903.701 506.447 880.015 520.762 867.426 525.145C863.665 526.455 860.053 527.03 856.073 527.127C850.565 523.815 846.847 519.11 845.277 512.831C844.365 509.187 844.447 505.605 844.587 501.876C845.734 507.412 846.761 515.121 851.882 518.521C854.591 520.319 857.941 520.322 861.008 519.605C864.399 518.812 867.625 517.252 870.773 515.806C882.669 509.938 902.01 498.7 911.57 489.932C911.524 483.953 910.676 477.889 910.339 471.908Z"/>
	<path fill="#112258" d="M872.198 645.965C878.174 651.178 879.996 659.925 880.563 667.557C881.031 673.863 880.234 679.084 875.933 684.03C872.248 688.268 867.54 691.787 864.69 696.672C857.93 708.258 856.715 725.273 843.993 732.283C842.501 733.105 840.202 734.382 838.514 734.445C837.192 734.495 836.284 734.141 835.314 733.247C833.568 731.638 833.11 728.615 832.662 726.427C834.814 726.962 836.409 727.031 838.54 726.301C852.443 721.539 854.337 699.089 861.364 688.184C865.224 682.195 871.908 678.344 874.888 671.711C878.568 663.519 875.218 653.812 872.198 645.965Z"/>
	<path fill="#B5831A" d="M832.662 726.427C831.442 724.203 830.206 721.742 829.57 719.271C829.51 719.039 829.458 718.805 829.413 718.569C828.111 711.789 834.056 707.398 835.894 701.52C838.672 692.637 837.012 681.99 842.049 673.876C845.731 667.946 851.403 668.456 857.387 666.848C870.783 663.247 862.531 649.664 866.966 643.19C867.455 642.477 867.772 642.621 868.552 642.48C870.279 643.187 871.094 644.516 872.198 645.965C875.218 653.812 878.568 663.519 874.888 671.711C871.908 678.344 865.224 682.195 861.364 688.184C854.337 699.089 852.443 721.539 838.54 726.301C836.409 727.031 834.814 726.962 832.662 726.427Z"/>
	<path fill="#B5831A" d="M875.173 453.924C880.694 458.283 886.488 463.872 892.824 466.875C893.042 466.98 893.267 467.077 893.502 467.132C896.04 467.733 899.195 465.159 901.364 464.014C904.035 462.603 905.199 462.432 908.127 463.309C908.803 465.94 909.261 469.469 910.339 471.908C910.676 477.889 911.524 483.953 911.57 489.932C902.01 498.7 882.669 509.938 870.773 515.806C871.232 506.481 870.341 497.103 870.999 487.748C871.632 478.745 872.955 469.774 874.088 460.822C874.34 458.825 874.921 456.885 875.096 454.892L875.173 453.924Z"/>
	<path fill="#112258" d="M876.364 536.746C879.412 546.267 877.462 554.675 873.03 563.376C863.338 582.405 845.465 593.21 836.853 611.933C825.913 635.721 838.351 651.478 832.259 670.997C826.5 689.453 812.566 685.225 805.58 695.094C801.035 701.514 804.107 710.074 800.863 717.019C797.799 723.58 790.696 727.247 786.582 733.039C782.542 738.726 780.326 745.524 777.017 751.628C769.312 765.841 755.211 778.17 739.758 783.083C733.588 785.044 726.548 785.653 720.617 782.593C716.25 780.341 713.056 776.243 711.705 771.549C711.043 769.252 710.903 767.298 711.33 764.959C711.916 766.215 712.543 767.554 713.297 768.722C715.289 771.803 718.452 773.892 722.012 774.695C731.718 776.886 743.876 771.524 751.842 766.339C761.772 759.875 769.955 751.223 774.715 740.307C776.747 735.645 778.512 730.66 781.587 726.564C785.915 720.798 793.528 717.423 796.479 710.616C798.866 705.11 797.172 699.086 798.573 693.434C800.396 686.082 809.778 682.605 815.721 679.202C819.701 676.923 823.304 673.956 825.556 669.893C832.11 658.064 827.242 643.605 827.009 630.998C826.879 623.976 828.005 617.699 830.382 611.098C838.099 589.677 849.425 585.795 861.748 569.454C869.152 559.637 873.196 548.5 876.364 536.746Z"/>
	<path fill="#70AB0D" d="M827.107 493.266C832.649 504.548 842.328 528.423 854.437 532.671C860.885 534.933 873.008 531.971 876.364 536.746C873.196 548.5 869.152 559.637 861.748 569.454C849.425 585.795 838.099 589.677 830.382 611.098C828.005 617.699 826.879 623.976 827.009 630.998C827.242 643.605 832.11 658.064 825.556 669.893C823.304 673.956 819.701 676.923 815.721 679.202C809.778 682.605 800.396 686.082 798.573 693.434C797.172 699.086 798.866 705.11 796.479 710.616C793.528 717.423 785.915 720.798 781.587 726.564C778.512 730.66 776.747 735.645 774.715 740.307C769.955 751.223 761.772 759.875 751.842 766.339C743.876 771.524 731.718 776.886 722.012 774.695C718.452 773.892 715.289 771.803 713.297 768.722C712.543 767.554 711.916 766.215 711.33 764.959C708.772 754.833 707.209 744.39 705.337 734.116C707.356 733.198 709.202 731.903 710.927 730.519C721.226 722.253 730.865 712.409 739.668 702.582C788.213 648.386 818.295 575.772 825.898 503.602C826.367 500.148 826.373 496.688 827.107 493.266Z"/>
	<defs>
		<linearGradient id="gradient_0" gradientUnits="userSpaceOnUse" x1="870.26599" y1="421.55817" x2="801.33252" y2="427.45844">
			<stop offset="0" stop-color="#AF862B"/>
			<stop offset="1" stop-color="#E3CE50"/>
		</linearGradient>
	</defs>
	<path fill="url(#gradient_0)" d="M843.413 325.503C855.451 340.631 866.331 392.657 869.474 412.776C870.1 416.783 871.593 422.212 871.113 426.214C870.997 427.182 870.573 427.923 870.049 428.714C868.157 427.554 866.472 426.317 864.146 426.811C863.324 426.986 862.682 427.415 862.183 428.11C860.148 430.939 861.376 435.993 862.3 439.012C865.711 445.265 869.825 449.293 875.173 453.924L875.096 454.892C874.921 456.885 874.34 458.825 874.088 460.822C872.955 469.774 871.632 478.745 870.999 487.748C870.341 497.103 871.232 506.481 870.773 515.806C867.625 517.252 864.399 518.812 861.008 519.605C857.941 520.322 854.591 520.319 851.882 518.521C846.761 515.121 845.734 507.412 844.587 501.876C844.449 500.759 844.076 499.591 843.819 498.49C838.762 491.931 833.538 483.192 829.939 475.718C825.27 466.021 823.151 457.625 815.986 448.929C814.472 447.091 812.028 444.237 809.549 444.005C808.103 440.33 807.447 437.147 807.877 433.172C808.403 429.185 805.823 424.973 808.022 421.236C801.369 420.565 794.661 420.435 788.091 419.047C777.419 416.791 766.55 412.71 755.62 412.076C739.969 411.168 747.542 423.186 740.78 428.041C738.867 429.414 736.749 429.171 734.542 428.782C720.424 426.298 711.112 410.54 703.405 399.841L703.537 399.426C707.308 389.023 709.086 376.62 709.604 365.542L708.636 364.069C710.291 364.236 711.134 364.963 712.344 366.034C713.109 366.711 713.317 366.999 714.312 367.287C714.832 366.064 714.428 364.748 714.222 363.482C718.191 367.99 720.276 373.646 724.519 378.017C726.08 378.564 727.435 378.63 729.08 378.68C731.876 378.48 732.066 377.054 734.029 375.427C734.715 374.858 734.931 375.111 735.762 375.218C735.744 373.662 735.732 372.326 736.167 370.809C737.432 369.703 738.272 369.716 739.897 369.392C742.334 373.479 745.516 377.936 747.084 382.418C749.557 382.534 752.129 382.586 754.592 382.306C760.44 381.641 766.019 379.459 770.5 375.582C783.594 364.251 777.608 350.729 785.662 341.183C789.361 336.8 794.107 336.431 799.436 336.086C802.011 337.82 804.443 340.122 807.294 341.38C812.03 343.47 816.086 341.379 820.506 339.596C828.949 335.263 836.637 332.475 843.413 325.503Z"/>
	<path fill="#EDD655" d="M792.42 372.27C794.17 372.067 795.115 371.607 796.624 372.585C798.329 375.218 798.7 386.079 798.31 389.469C796.406 390.48 793.657 389.762 791.417 389.976C787.864 389.255 785.301 386.828 782.75 384.44C782.903 383.453 783.084 382.486 783.361 381.525C784.641 377.096 788.603 374.392 792.42 372.27Z"/>
	<path fill="#112258" d="M807.877 433.172C811.886 436.107 815.254 439.624 818.074 443.715C823.382 451.412 842.036 490.368 843.819 498.49C838.762 491.931 833.538 483.192 829.939 475.718C825.27 466.021 823.151 457.625 815.986 448.929C814.472 447.091 812.028 444.237 809.549 444.005C808.103 440.33 807.447 437.147 807.877 433.172Z"/>
	<path fill="#044FA6" d="M747.084 382.418C749.557 382.534 752.129 382.586 754.592 382.306C760.44 381.641 766.019 379.459 770.5 375.582C783.594 364.251 777.608 350.729 785.662 341.183C789.361 336.8 794.107 336.431 799.436 336.086C802.011 337.82 804.443 340.122 807.294 341.38C812.03 343.47 816.086 341.379 820.506 339.596C827.866 344.394 838.906 352.226 841.136 361.342C841.459 362.659 841.653 363.738 840.956 364.947C840.899 365.045 840.807 365.117 840.732 365.201C826.875 368.639 804.182 365.125 792.42 372.27C788.603 374.392 784.641 377.096 783.361 381.525C783.084 382.486 782.903 383.453 782.75 384.44C785.301 386.828 787.864 389.255 791.417 389.976L792.084 390.145C799.166 391.873 812.194 387.997 816.586 394.865C818.126 397.273 818.52 400.694 818.712 403.5C819.024 408.002 819.81 414.02 816.608 417.721C814.415 420.257 811.227 420.959 808.022 421.236C801.369 420.565 794.661 420.435 788.091 419.047C777.419 416.791 766.55 412.71 755.62 412.076C739.969 411.168 747.542 423.186 740.78 428.041C738.867 429.414 736.749 429.171 734.542 428.782C720.424 426.298 711.112 410.54 703.405 399.841L703.537 399.426C707.308 389.023 709.086 376.62 709.604 365.542L708.636 364.069C710.291 364.236 711.134 364.963 712.344 366.034C713.109 366.711 713.317 366.999 714.312 367.287C714.832 366.064 714.428 364.748 714.222 363.482C718.191 367.99 720.276 373.646 724.519 378.017C726.08 378.564 727.435 378.63 729.08 378.68C731.876 378.48 732.066 377.054 734.029 375.427C734.715 374.858 734.931 375.111 735.762 375.218C735.744 373.662 735.732 372.326 736.167 370.809C737.432 369.703 738.272 369.716 739.897 369.392C742.334 373.479 745.516 377.936 747.084 382.418Z"/>
	<path fill="#112258" d="M708.636 364.069C710.291 364.236 711.134 364.963 712.344 366.034C713.109 366.711 713.317 366.999 714.312 367.287C714.832 366.064 714.428 364.748 714.222 363.482C718.191 367.99 720.276 373.646 724.519 378.017L722.644 377.805L721.97 378.489C722.316 380.765 724.186 382.638 725.343 384.582C719.42 380.765 717.228 370.499 709.604 365.542L708.636 364.069Z"/>
	<path fill="#044FA6" d="M729.08 378.68C731.876 378.48 732.066 377.054 734.029 375.427C734.715 374.858 734.931 375.111 735.762 375.218L735.898 376.179C736.04 377.114 736.29 377.887 736.608 378.773C737.112 380.176 737.278 381.354 736.534 382.741C735.575 384.531 733.414 385.713 731.469 386.059C729.818 386.353 726.809 385.703 725.459 384.722C725.41 384.687 725.382 384.629 725.343 384.582C724.186 382.638 722.316 380.765 721.97 378.489L722.644 377.805L724.519 378.017C726.08 378.564 727.435 378.63 729.08 378.68Z"/>
	<path fill="#112258" d="M782.75 384.44C785.301 386.828 787.864 389.255 791.417 389.976L792.084 390.145C799.166 391.873 812.194 387.997 816.586 394.865C818.126 397.273 818.52 400.694 818.712 403.5C808.934 398.533 791.696 402.738 785.165 395.213C782.387 392.012 782.41 388.423 782.75 384.44Z"/>
	<path fill="#112258" d="M747.084 382.418C749.557 382.534 752.129 382.586 754.592 382.306C760.44 381.641 766.019 379.459 770.5 375.582C783.594 364.251 777.608 350.729 785.662 341.183C789.361 336.8 794.107 336.431 799.436 336.086C802.011 337.82 804.443 340.122 807.294 341.38C812.03 343.47 816.086 341.379 820.506 339.596C827.866 344.394 838.906 352.226 841.136 361.342C841.459 362.659 841.653 363.738 840.956 364.947C840.899 365.045 840.807 365.117 840.732 365.201C840.596 365.07 840.457 364.941 840.322 364.808C835.059 359.635 830.822 350.286 822.503 350.062C818.632 349.958 814.717 352.321 810.948 351.516C804.524 350.146 800.18 339.841 792.37 347.918C782.972 357.638 788.292 374.33 774.674 385.439C770.626 388.741 765.619 390.668 760.402 390.943C756.785 391.135 753.657 390.612 750.866 388.137C749.094 386.565 747.974 384.587 747.084 382.418Z"/>
	<path fill="#71C5BD" d="M463.663 890.99C470.045 894.092 477.05 898.018 484.358 897.671C506.349 896.627 515.366 862.278 540.748 857.664C565.041 853.247 580.219 873.899 602.407 876.034C619.884 877.716 626.2 862.703 641.191 860.029C655.141 857.54 664.064 868.774 681.5 863.725C712.16 854.848 731.017 820.85 763.382 816.702C768.429 816.056 775.183 815.502 779.35 818.946C781.838 821.002 781.978 823.23 782.214 826.291C778.448 833.643 768.976 839.347 762.49 844.292C725.33 872.62 685.253 895.622 640.629 910.029C623.225 915.648 605.668 920.757 587.703 924.27C538.382 933.914 485.864 933.067 436.603 923.463C420.533 920.33 404.946 915.18 389.009 911.503C385.236 910.785 381.616 909.929 377.986 908.653C373.241 906.985 353.576 897.806 350.682 898.325C353.566 901.679 353.102 903.55 352.902 907.713C309.007 889.834 268.499 862.213 232.908 831.204C234.486 828.201 237.572 823.624 237.651 820.23L237.841 820.032C238.947 818.492 239.81 817.29 241.85 817.025C252.576 815.632 276.877 834.431 288.082 838.896C299.366 843.393 310.996 843.464 322.79 845.515C335.627 847.747 346.975 853.957 358.008 860.615C370.993 869.049 384.257 876.985 397.757 884.568C407.107 889.821 416.689 895.433 426.922 898.786C432.009 900.453 438.261 901.737 443.578 900.621C451.032 899.055 455.982 892.532 463.663 890.99Z"/>
	<defs>
		<linearGradient id="gradient_1" gradientUnits="userSpaceOnUse" x1="365.42258" y1="835.8725" x2="337.1857" y2="884.71063">
			<stop offset="0" stop-color="#C5F0EC"/>
			<stop offset="1" stop-color="#B5E3F6"/>
		</linearGradient>
	</defs>
	<path fill="url(#gradient_1)" d="M237.841 820.032C238.947 818.492 239.81 817.29 241.85 817.025C252.576 815.632 276.877 834.431 288.082 838.896C299.366 843.393 310.996 843.464 322.79 845.515C335.627 847.747 346.975 853.957 358.008 860.615C370.993 869.049 384.257 876.985 397.757 884.568C407.107 889.821 416.689 895.433 426.922 898.786C432.009 900.453 438.261 901.737 443.578 900.621C451.032 899.055 455.982 892.532 463.663 890.99L464.052 903.85C455.073 905.05 446.038 906.326 436.985 906.82C419.096 907.795 393.297 906.357 376.103 901.422C370.678 901.299 365.223 900.615 359.891 899.612C363.727 901.529 367.589 903.585 371.623 905.048C377.328 907.115 383.873 908.19 389.009 911.503C385.236 910.785 381.616 909.929 377.986 908.653C373.241 906.985 353.576 897.806 350.682 898.325C353.566 901.679 353.102 903.55 352.902 907.713C309.007 889.834 268.499 862.213 232.908 831.204C234.486 828.201 237.572 823.624 237.651 820.23L237.841 820.032Z"/>
	<defs>
		<linearGradient id="gradient_2" gradientUnits="userSpaceOnUse" x1="294.85751" y1="883.84009" x2="308.09915" y2="849.64545">
			<stop offset="0" stop-color="#81E0C1"/>
			<stop offset="1" stop-color="#8CBFDD"/>
		</linearGradient>
	</defs>
	<path fill="url(#gradient_2)" d="M237.651 820.23L237.841 820.032C238.414 822.23 240.466 823.761 242.162 825.164C247.646 829.702 254.038 833.175 259.871 837.237C273.329 846.609 286.347 856.183 300.521 864.501C316.238 873.725 332.306 882.014 348.725 889.903C357.53 894.134 366.642 898.863 376.103 901.422C370.678 901.299 365.223 900.615 359.891 899.612C363.727 901.529 367.589 903.585 371.623 905.048C377.328 907.115 383.873 908.19 389.009 911.503C385.236 910.785 381.616 909.929 377.986 908.653C373.241 906.985 353.576 897.806 350.682 898.325C353.566 901.679 353.102 903.55 352.902 907.713C309.007 889.834 268.499 862.213 232.908 831.204C234.486 828.201 237.572 823.624 237.651 820.23Z"/>
	<path fill="#0484F1" d="M388.709 117.045C394.844 112.885 403.655 111.429 410.773 109.67C441.373 102.109 472.656 97.1187 504.203 96.1041C511.258 95.8771 518.336 96.0299 525.387 96.3178C530.045 96.508 534.934 97.0578 539.566 96.6527C539.73 96.6384 539.894 96.6197 540.057 96.6032C570.632 99.317 600.162 103.559 629.718 112.138C636.936 114.233 644.721 116.191 651.37 119.749C656.325 127.118 661.476 134.437 666.002 142.077C677.641 161.723 694.541 196.141 698.622 218.624L698.479 218.802C702.031 229.914 702.714 242.779 704.401 254.322C707.683 253.818 709.894 253.153 712.864 255.063C713.592 256.252 713.648 256.258 713.475 257.63C711.619 260.26 709.554 260.409 706.588 260.926L705.639 261.089C702.241 262.321 698.731 263.287 696.151 265.95C695.376 269.757 694.961 273.513 694.888 277.399C694.716 280.248 694.627 282.753 696.731 284.945C698.256 286.534 700.522 287.472 702.598 288.088C704.673 287.818 706.804 287.214 708.859 286.78L714.087 285.825C718.452 294.378 717.423 333.095 716.294 343.617C725.581 351.38 733.105 359.367 739.897 369.392C738.272 369.716 737.432 369.703 736.167 370.809C735.732 372.326 735.744 373.662 735.762 375.218C734.931 375.111 734.715 374.858 734.029 375.427C732.066 377.054 731.876 378.48 729.08 378.68C727.435 378.63 726.08 378.564 724.519 378.017C720.276 373.646 718.191 367.99 714.222 363.482C714.428 364.748 714.832 366.064 714.312 367.287C713.317 366.999 713.109 366.711 712.344 366.034C711.134 364.963 710.291 364.236 708.636 364.069L709.604 365.542C709.086 376.62 707.308 389.023 703.537 399.426L703.405 399.841C711.112 410.54 720.424 426.298 734.542 428.782C736.749 429.171 738.867 429.414 740.78 428.041C747.542 423.186 739.969 411.168 755.62 412.076C766.55 412.71 777.419 416.791 788.091 419.047C794.661 420.435 801.369 420.565 808.022 421.236C805.823 424.973 808.403 429.185 807.877 433.172C807.447 437.147 808.103 440.33 809.549 444.005C812.566 455.439 816.415 466.707 820.739 477.71C822.777 482.899 825.283 488.015 827.107 493.266C826.373 496.688 826.367 500.148 825.898 503.602C818.295 575.772 788.213 648.386 739.668 702.582C730.865 712.409 721.226 722.253 710.927 730.519C709.202 731.903 707.356 733.198 705.337 734.116L705.207 732.412C703.416 742.585 658.983 773.698 648.754 780.862C598.302 816.19 535.431 842.05 474.881 853.232C463.621 855.311 452.216 857.008 440.835 858.292C433.106 859.164 425.187 859.528 417.533 860.892C419.535 865.518 423.639 870.217 424.113 875.312C424.267 876.959 423.83 878.553 422.721 879.803C421.104 881.627 418.548 882.492 416.158 882.461C404.225 882.308 392.137 867.233 384.397 859.423C378.759 862.517 362.408 855.253 358.008 860.615C346.975 853.957 335.627 847.747 322.79 845.515C310.996 843.464 299.366 843.393 288.082 838.896C276.877 834.431 252.576 815.632 241.85 817.025C239.81 817.29 238.947 818.492 237.841 820.032L237.651 820.23C223.85 813.629 187.691 768.164 177.722 753.934C170.232 745.008 164.302 733.98 158.397 723.928C129.655 674.999 110.956 622.633 103.878 566.252C98.0755 520.041 100.88 473.04 109.877 427.423C111.2 420.716 113.173 407.916 117.1 402.863C118.453 396.409 119.66 389.846 121.491 383.509C124.346 373.629 128.205 363.992 132.115 354.492C146.453 319.65 164.966 287.618 187.842 257.691C203.262 237.517 220.856 219.284 239.215 201.795C242.969 198.218 249.767 190.11 254.916 189.423C258.708 185.878 273.492 173.958 277.686 172.669C279.758 170.554 281.961 169.219 284.502 167.762C284.602 167.648 284.7 167.533 284.802 167.422C293.805 157.683 364.028 122.854 376.482 122.271C380.578 120.638 384.802 119.093 388.709 117.045Z"/>
	<path fill="#044FA6" d="M316.797 163.06L320.186 165.169C319.205 166.204 317.978 167.29 317.15 168.436C315.71 168.537 314.641 168.309 313.271 167.946C313.992 165.655 315.054 164.67 316.797 163.06Z"/>
	<path fill="#044FA6" d="M280.34 558.89C285.06 562.034 288.397 564.678 289.568 570.559C289.626 570.85 289.676 571.143 289.73 571.436C288.063 570.921 286.462 570.209 285.099 569.098C281.812 566.416 280.747 562.972 280.34 558.89Z"/>
	<path fill="#F6F9FA" d="M353.327 147.29C353.124 147.133 352.902 146.999 352.718 146.821C351.736 145.876 351.187 144.895 351.186 143.509C351.183 141.189 353.192 138.807 354.832 137.378C356.936 135.545 360.339 133.751 363.231 134.203C364.821 134.452 365.5 135.482 366.425 136.665C362.224 141.41 358.772 144.163 353.327 147.29Z"/>
	<path fill="#044FA6" d="M458.599 141.126C467.904 144.462 479.304 147.973 484.063 157.537C484.122 157.656 484.171 157.78 484.224 157.901C483.402 157.822 462.594 147.594 461.36 146.572C459.375 144.926 458.859 143.664 458.599 141.126Z"/>
	<path fill="#F6F9FA" d="M316.797 163.06L316.337 162.003C316.382 160.464 316.715 159.317 317.486 157.994C319.235 154.991 322.933 152.027 326.372 151.316C327.925 150.995 329.033 151.184 330.37 152.076C331.411 153.438 331.503 154.38 331.647 156.016C328.241 159.704 324.813 162.385 320.633 165.128L320.186 165.169L316.797 163.06Z"/>
	<path fill="#B6EA41" d="M340.283 495.134L339.987 494.958C338.061 493.791 335.509 492.214 335.192 489.74C335.03 488.484 335.426 487.335 336.349 486.465C337.597 485.291 339.404 484.854 341.077 484.915C345.165 485.065 347.595 487.416 350.174 490.319C350.188 491.864 350.378 493.608 349.293 494.86C348.489 495.789 347.311 496.153 346.114 496.111C344.167 496.042 342.17 495.603 340.283 495.134Z"/>
	<path fill="#044FA6" d="M131.103 464.658C135.22 467.948 139.392 470.971 143.805 473.856L141.212 465.309C146.744 470.548 149.085 479.012 151.407 486.043C142.061 480.219 134.814 475.618 131.103 464.658Z"/>
	<path fill="#044FA6" d="M331.647 156.016C334.493 156.03 336.986 156.062 339.18 158.064C339.721 159.317 339.937 159.705 339.573 161.097C338.807 164.029 334.735 167.008 332.156 168.184C330.174 169.088 327.83 169.41 325.7 169.812C325.468 169.727 325.241 169.633 325.015 169.534C322.525 168.442 321.652 167.651 320.633 165.128C324.813 162.385 328.241 159.704 331.647 156.016Z"/>
	<path fill="#044FA6" d="M350.174 490.319C352.889 491.726 357.146 494.008 358.109 497.176C358.528 498.554 358.51 499.847 357.815 501.125C356.823 502.946 354.867 504.085 352.908 504.583C350.316 505.242 347.331 504.896 345.032 503.499C342.498 501.959 341.076 499.455 340.503 496.593C340.407 496.11 340.349 495.621 340.283 495.134C342.17 495.603 344.167 496.042 346.114 496.111C347.311 496.153 348.489 495.789 349.293 494.86C350.378 493.608 350.188 491.864 350.174 490.319Z"/>
	<path fill="#044FA6" d="M359.051 164.594C361.03 164.597 363.074 164.482 365.021 164.864C366.371 167.426 367.759 169.499 369.817 171.575L365.769 175.763C363.291 177.153 360.686 178.461 358.346 180.072C356.702 180.047 355.079 179.756 353.455 179.521C351.263 177.083 349.216 174.726 347.449 171.957C352.788 170.516 355.63 169.089 359.051 164.594Z"/>
	<path fill="#044FA6" d="M366.425 136.665C366.657 136.828 366.885 136.995 367.12 137.152C369.866 138.997 373.322 138.73 374.644 142.283C374.613 144.671 373.533 146.131 371.897 147.786C369.131 150.584 365.724 152.719 362.44 154.844C358.793 152.74 356.086 150.472 353.327 147.29C358.772 144.163 362.224 141.41 366.425 136.665Z"/>
	<path fill="#044FA6" d="M251.672 514.975C256.232 517.247 259.336 519.963 260.945 524.943C263.209 531.95 261.696 541.731 260.875 548.936C251.52 538.547 254.657 527.932 251.814 515.556C251.769 515.362 251.719 515.169 251.672 514.975Z"/>
	<path fill="#044FA6" d="M393.061 120.045C395.899 121.394 399.446 122.717 401.356 125.321C396.096 128.543 393.469 131.525 392.005 137.672L391.879 138.217C390.79 139.623 389.724 140.84 388.053 141.563C386.49 142.24 384.711 142.35 383.117 141.713C380.351 140.609 379.192 138.43 378.081 135.826C384.692 131.505 389.079 126.827 393.061 120.045Z"/>
	<path fill="#F6F9FA" d="M388.709 117.045C390.217 117.985 391.722 118.87 393.061 120.045C389.079 126.827 384.692 131.505 378.081 135.826C376.565 135.853 374.632 135.382 373.442 134.394C372.397 133.527 372.055 132.421 371.972 131.114C371.746 127.507 374.186 124.691 376.482 122.271C380.578 120.638 384.802 119.093 388.709 117.045Z"/>
	<path fill="#F6F9FA" d="M347.449 171.957C346.62 171.525 345.765 171.093 344.991 170.565C343.69 169.675 342.881 168.18 342.614 166.649C342.146 163.962 343.078 161.33 344.671 159.181C346.477 156.743 349.233 154.597 352.326 154.229C354.024 154.027 355.603 154.441 356.862 155.629C359.297 157.925 359.064 161.533 359.051 164.594C355.63 169.089 352.788 170.516 347.449 171.957Z"/>
	<path fill="#044FA6" d="M245.249 544.912C250.404 549.581 258.164 556.905 265.71 556.515C266.31 556.483 266.652 556.41 267.281 556.313C267.858 556.261 267.725 556.222 268.402 556.465C271.053 557.418 273.136 559.522 274.162 562.127C274.72 563.544 274.754 564.689 274.112 566.097C273.428 566.799 272.898 567.19 271.948 567.422C268.224 568.332 264.286 566.527 261.215 564.565C254.478 560.259 247.009 552.924 245.249 544.912Z"/>
	<path fill="#044FA6" d="M316.83 483.448C319.419 485.441 322.923 488.092 323.224 491.625C323.363 493.254 322.794 494.81 321.726 496.031C319.766 498.272 316.66 499.101 313.784 499.174C308.218 499.316 302.065 497.283 298.156 493.213C295.645 490.598 294.416 487.764 293.544 484.296C296.535 486.128 299.888 487.602 303.234 488.644C306.429 489.638 310.501 490.363 313.575 488.607C315.699 487.394 316.159 485.651 316.83 483.448Z"/>
	<path fill="#B6EA41" d="M289.574 473.697C298.183 473.795 308.383 475.032 314.903 481.29C315.599 481.958 316.222 482.702 316.83 483.448C316.159 485.651 315.699 487.394 313.575 488.607C310.501 490.363 306.429 489.638 303.234 488.644C299.888 487.602 296.535 486.128 293.544 484.296L290.748 481.186C289.762 478.632 289.411 476.427 289.574 473.697Z"/>
	<path fill="#044FA6" d="M434.651 314.411C439.293 316.434 442.609 320.371 444.425 325.041C445.031 326.6 445.521 328.171 445.938 329.789C443.417 333.614 440.966 336.266 436.238 337.183C431.234 338.154 425.475 336.143 421.468 333.187C417.755 330.447 415.786 327.385 414.221 323.149C419.273 325.248 427.154 328.632 432.626 327.132C434.013 326.752 435.174 325.986 435.864 324.691C437.554 321.517 435.748 317.504 434.651 314.411Z"/>
	<path fill="#044FA6" d="M229.869 471.143C233.366 473.038 236.331 475.446 237.6 479.371C239.102 484.021 237.473 489.277 235.168 493.378C232.887 497.439 229.659 501.574 228.085 505.929C226.688 505.466 225.082 504.857 223.918 503.935C216.922 498.388 228.226 483.086 229.756 476.427C230.143 474.745 229.965 472.849 229.869 471.143Z"/>
	<path fill="#B6EA41" d="M246.759 473.311C246.002 472.918 245.303 472.534 244.642 471.988C243.477 471.025 242.989 469.768 242.933 468.297C242.871 466.65 243.402 465.346 244.64 464.226C248.272 460.94 258.167 463.021 262.764 463.546C266.569 463.805 270.092 464.039 273.823 463.005C278.442 463.414 281.044 464.159 284.28 467.722C283.719 469.374 283.335 471.261 281.857 472.316C273.206 475.016 255.992 473.628 246.759 473.311Z"/>
	<path fill="#B6EA41" d="M412.773 304.625C414.409 303.786 415.765 304.034 417.467 304.547C419.934 305.291 422.321 306.459 424.667 307.517C428.547 309.383 431.61 311.299 434.651 314.411C435.748 317.504 437.554 321.517 435.864 324.691C435.174 325.986 434.013 326.752 432.626 327.132C427.154 328.632 419.273 325.248 414.221 323.149C413.991 322.857 413.761 322.565 413.546 322.263C410.086 317.4 411.87 310.06 412.773 304.625Z"/>
	<path fill="#B6EA41" d="M608.603 300.535C607.871 299.432 607.136 298.31 606.794 297.015C606.041 294.161 607.34 290.912 608.868 288.536C611.767 284.031 618.223 278.797 623.61 277.938C625.416 277.65 627.519 277.736 628.946 279.033C630.585 280.523 630.542 282.608 630.588 284.639C628.851 290.816 626.361 299.914 620.273 303.186C618.261 304.268 615.795 304.484 613.631 303.735C611.748 303.082 610.147 301.751 608.603 300.535Z"/>
	<path fill="#044FA6" d="M284.28 467.722C286.779 469.46 288.793 470.52 289.574 473.697C289.411 476.427 289.762 478.632 290.748 481.186C290.026 482.474 289.367 483.229 287.959 483.757C280.895 486.411 261.12 485.447 254.51 482.366C250.312 480.409 248.349 477.556 246.759 473.311C255.992 473.628 273.206 475.016 281.857 472.316C283.335 471.261 283.719 469.374 284.28 467.722Z"/>
	<path fill="#044FA6" d="M608.329 214.982C610.473 214.998 613.248 214.781 614.94 216.396C616.708 218.082 616.804 221.603 616.537 223.839C615.938 228.86 612.84 233.049 608.904 236.053C601.708 241.542 591.81 243.282 582.984 241.999C577.387 241.185 571.894 238.849 568.517 234.126C567.197 232.28 566.561 230.408 566.121 228.205C568.9 229.704 571.741 230.827 574.791 231.627C582.491 233.645 591.958 234.388 599.012 230.061C604.817 226.501 606.714 221.213 608.329 214.982Z"/>
	<path fill="#044FA6" d="M159.661 488.557C169.951 497.873 181.472 501.783 193.624 507.891C199.002 510.594 204.071 514.167 209.606 516.513C216.18 519.3 223.598 520.401 229.497 524.647C234.409 528.182 237.94 533.38 240.703 538.683C237.796 537.484 235.029 535.833 232.161 534.512L205.163 521.977C196.705 518.022 187.763 514.809 179.659 510.157C171.459 505.45 162.195 498.052 159.661 488.557Z"/>
	<path fill="#B6EA41" d="M566.121 228.205C565.392 226.549 565.154 224.845 565.685 223.105C570.196 218.353 597.999 208.731 604.957 208.168C605.741 208.41 606.251 208.613 606.815 209.258C608.221 210.867 608.286 212.958 608.329 214.982C606.714 221.213 604.817 226.501 599.012 230.061C591.958 234.388 582.491 233.645 574.791 231.627C571.741 230.827 568.9 229.704 566.121 228.205Z"/>
	<path fill="#044FA6" d="M567.929 525.534C573.88 531.862 579.664 538.3 585.19 545.006C591.47 552.627 597.694 563.193 605.803 568.818C618.358 568.628 635.27 564.426 647.554 561.293L650.91 560.933C649.87 564.767 648.642 568.57 647.067 572.222L644.112 572.668C631.736 574.841 620.155 577.894 607.53 578.759C601.289 572.547 572.626 539.746 569.326 533.231C568.108 530.827 568.077 528.167 567.929 525.534Z"/>
	<path fill="#B6EA41" d="M683.472 256.501C681.011 252.291 680.151 248.437 680.991 243.572C682.75 233.391 690.219 224.546 698.479 218.802C702.031 229.914 702.714 242.779 704.401 254.322C707.683 253.818 709.894 253.153 712.864 255.063C713.592 256.252 713.648 256.258 713.475 257.63C711.619 260.26 709.554 260.409 706.588 260.926L705.639 261.089C702.241 262.321 698.731 263.287 696.151 265.95C693.953 266.527 691.585 267.01 689.444 265.975C686.002 264.311 684.713 259.818 683.472 256.501Z"/>
	<path fill="#112258" d="M704.401 254.322C707.683 253.818 709.894 253.153 712.864 255.063C713.592 256.252 713.648 256.258 713.475 257.63C711.619 260.26 709.554 260.409 706.588 260.926L705.639 261.089C702.241 262.321 698.731 263.287 696.151 265.95C693.953 266.527 691.585 267.01 689.444 265.975C686.002 264.311 684.713 259.818 683.472 256.501C690.946 257.886 697.219 256.206 704.401 254.322Z"/>
	<path fill="#044FA6" d="M649.49 256.917C652.756 258.218 655.929 260.313 657.341 263.65C659.976 269.877 660.953 276.651 662.983 283.074C665.439 290.841 668.77 298.054 670.574 306.056C666.646 311.162 663.401 314.715 656.63 315.531C654.137 315.831 651.52 316.005 649.01 316.027C643.251 311.834 639.026 309.93 633.789 304.529C633.185 305.534 632.576 306.541 631.905 307.502C628.545 312.313 624.998 313.123 619.529 314.106C612.908 310.614 610.915 307.63 608.603 300.535C610.147 301.751 611.748 303.082 613.631 303.735C615.795 304.484 618.261 304.268 620.273 303.186C626.361 299.914 628.851 290.816 630.588 284.639C632.521 287.452 634.379 290.406 636.481 293.09C635.083 294.797 633.274 297.153 633.651 299.502C633.957 301.411 635.515 302.963 637.096 303.923C641.649 306.688 650.116 307.912 655.243 306.687C657.82 306.071 660.409 304.813 661.749 302.419C662.588 300.919 662.656 299.975 662.324 298.315C660.947 291.428 657.518 285.252 655.247 278.662C652.832 271.651 651.359 264.105 649.49 256.917Z"/>
	<path fill="#044FA6" d="M425.83 173.631C429.526 174.616 432.4 176.228 434.294 179.671C436.053 182.87 436.736 186.584 438.217 189.905C442.221 198.882 445.883 198.103 445.464 209.229C439.186 215.781 430.773 218.707 425.3 226.249C426.034 230.297 427.702 237.232 425.214 240.836C424.297 242.164 423.076 242.893 421.484 243.069C417.063 243.557 412.656 240.131 409.521 237.381C407.132 235.285 404.845 233.05 402.374 231.051C398.363 227.807 389.93 223.383 389.593 217.611C389.558 217.009 389.591 216.63 389.614 215.993C395.35 221.325 403.463 230.815 411.428 232.257C413.229 232.583 414.541 232.344 416.056 231.263C418.791 226.634 415.971 220.252 417.033 215.096C418.04 210.209 428.097 207.13 432.015 204.564C433.968 203.284 436.441 201.236 436.689 198.727C437.155 194.029 430.017 189.232 427.042 186.043C427.077 181.76 427.069 177.778 425.83 173.631Z"/>
	<path fill="#B6EA41" d="M636.481 293.09C644.411 280.352 634.246 281.566 634.189 271.534C634.159 266.226 636.251 259.493 640.143 255.736C641.801 254.135 643.464 253.538 645.732 253.549C647.551 254.168 648.342 255.443 649.49 256.917C651.359 264.105 652.832 271.651 655.247 278.662C657.518 285.252 660.947 291.428 662.324 298.315C662.656 299.975 662.588 300.919 661.749 302.419C660.409 304.813 657.82 306.071 655.243 306.687C650.116 307.912 641.649 306.688 637.096 303.923C635.515 302.963 633.957 301.411 633.651 299.502C633.274 297.153 635.083 294.797 636.481 293.09Z"/>
	<path fill="#F6F9FA" d="M401.356 125.321C408.884 122.6 416.105 119.019 423.595 116.179C435.054 111.835 462.916 102.631 474.103 106.145C477.087 107.082 478.096 108.462 479.477 111.15C481.922 110.392 483.965 109.79 486.379 110.981C487.365 111.468 487.996 112.152 488.338 113.211C489.07 115.483 487.944 117.545 486.832 119.457C480.346 120.614 473.95 121.944 467.542 123.473C457.862 121.555 433.37 134.123 423.609 137.613C425.716 139.249 428.991 141.381 429.223 144.322C429.339 145.805 429.028 146.781 428.074 147.918C425.209 151.338 418.558 151.924 414.346 151.922C410.52 151.92 405.165 151.784 402.21 149.043C401.358 148.253 401.117 147.503 401.117 146.388C401.117 145.374 401.335 144.632 401.7 143.683C400.116 143.774 398.532 143.819 396.986 143.387C394.311 142.639 393.086 140.526 391.879 138.217L392.005 137.672C393.469 131.525 396.096 128.543 401.356 125.321Z"/>
	<path fill="#044FA6" d="M479.477 111.15C481.922 110.392 483.965 109.79 486.379 110.981C487.365 111.468 487.996 112.152 488.338 113.211C489.07 115.483 487.944 117.545 486.832 119.457C480.346 120.614 473.95 121.944 467.542 123.473C457.862 121.555 433.37 134.123 423.609 137.613C425.716 139.249 428.991 141.381 429.223 144.322C429.339 145.805 429.028 146.781 428.074 147.918C425.209 151.338 418.558 151.924 414.346 151.922C410.52 151.92 405.165 151.784 402.21 149.043C401.358 148.253 401.117 147.503 401.117 146.388C401.117 145.374 401.335 144.632 401.7 143.683C404.732 143.557 407.775 143.457 410.801 143.236C415.901 142.864 418.964 141.579 422.309 137.722C418.205 134.97 414.137 133.193 409.504 131.492C422.667 127.295 436.05 122.916 449.389 119.339C459.546 116.616 469.736 115.419 479.477 111.15Z"/>
	<path fill="#044FA6" d="M618.501 140.53C621.055 142.282 623.846 144.21 624.558 147.439C625.002 149.457 624.307 151.343 623.096 152.952C619.355 157.924 611.761 160.933 606.382 163.84C602.684 176.119 597.722 177.908 589.484 186.203C589.417 192.215 588.982 198.403 584.483 202.935C580.244 207.206 574.201 208.038 568.455 207.914C565.081 207.841 561.704 207.655 558.334 207.481C554.657 210.286 550.872 214.183 546.558 215.883C539.032 218.848 526.451 215.078 520.872 221.931C514.817 229.369 510.089 258.728 496.404 256.913C493.304 256.501 490.905 254.676 489.173 252.142C488.08 250.543 487.308 248.897 486.625 247.092C487.488 247.148 488.36 247.178 489.224 247.109C505.675 245.792 504.51 221.095 512.836 212.293C519.637 205.102 530.52 209.64 538.851 206.457C543.597 204.643 545.812 198.628 550.854 197.532C556.032 196.406 561.516 197.729 566.744 197.483C570.572 197.303 574.686 196.362 577.251 193.288C580.94 188.867 579.943 183.545 579.591 178.314C587.124 172.715 595.404 165.09 597.88 155.755C606.101 152.093 613.499 148.29 618.501 140.53Z"/>
	<path fill="#044FA6" d="M387.029 327.766C390.503 329.132 393.634 330.365 395.172 334.085C395.888 335.815 395.625 337.381 394.885 339.043C393.969 341.104 392.402 342.729 390.237 343.453C381.562 346.354 372.31 337.395 363.737 341.268C354.589 345.4 352.189 356.895 345.077 363.038C337.849 369.281 327.623 370.822 320.769 377.526C314.634 383.525 312.486 392.441 306.729 398.769C299.066 407.192 286.342 410.538 280.595 420.796C272.397 435.431 286.909 448.705 273.823 463.005C270.092 464.039 266.569 463.805 262.764 463.546C260.446 459.555 257.671 456.603 255.764 452.21C257.116 452.584 258.473 452.954 259.851 453.219C262.522 453.732 265.385 453.833 267.689 452.149C275.275 446.605 267.921 427.009 269.156 418.211C271.424 402.051 289.353 399.684 298.635 389.292C304.561 382.657 306.73 373.033 313.508 367.189C319.968 361.619 329.135 360.877 335.377 354.965C342.077 348.618 344.88 339.078 352.463 333.475C362.36 326.16 369.226 333.617 379.321 334.879C381.406 335.14 383.74 335.022 385.353 333.495C387.033 331.906 386.945 329.906 387.029 327.766Z"/>
	<path fill="#F6F9FA" d="M373.818 156.957C376.051 160.238 378.076 163.741 382.319 164.521C385.518 165.109 388.75 163.724 391.776 162.85C406.13 158.702 414.75 166.046 425.83 173.631C427.069 177.778 427.077 181.76 427.042 186.043C430.017 189.232 437.155 194.029 436.689 198.727C436.441 201.236 433.968 203.284 432.015 204.564C428.097 207.13 418.04 210.209 417.033 215.096C415.971 220.252 418.791 226.634 416.056 231.263C414.541 232.344 413.229 232.583 411.428 232.257C403.463 230.815 395.35 221.325 389.614 215.993C387.379 213.436 384.912 210.263 384.533 206.777C386.087 202.562 391.583 203.447 394.336 200.087C397.188 196.608 395.561 188.706 395.186 184.486C391.877 186.811 388.282 189.619 384.517 191.135C382.409 191.984 380.128 192.327 378.018 191.293C375.297 189.961 374.619 186.953 373.714 184.325C372.182 184.007 370.448 183.695 369.133 182.8C366.698 181.142 366.369 178.418 365.769 175.763L369.817 171.575C367.759 169.499 366.371 167.426 365.021 164.864C367.409 161.161 369.947 159.042 373.818 156.957Z"/>
	<path fill="#044FA6" d="M373.714 184.325C373.882 184.229 374.052 184.137 374.219 184.039C378.586 181.488 385.997 173.203 391.179 174.34C392.693 174.673 393.702 175.912 394.321 177.254C395.286 179.345 395.066 182.221 395.186 184.486C391.877 186.811 388.282 189.619 384.517 191.135C382.409 191.984 380.128 192.327 378.018 191.293C375.297 189.961 374.619 186.953 373.714 184.325Z"/>
	<path fill="#B7F5F6" d="M488.43 174.215C488.587 174.198 488.744 174.184 488.9 174.164C494.329 173.47 498.644 169.644 503.829 168.316C524.485 163.026 548.395 163.649 568.135 171.955C571.662 173.439 575.785 175.284 578.799 177.65C579.07 177.863 579.346 178.071 579.591 178.314C579.943 183.545 580.94 188.867 577.251 193.288C574.686 196.362 570.572 197.303 566.744 197.483C561.516 197.729 556.032 196.406 550.854 197.532C545.812 198.628 543.597 204.643 538.851 206.457C530.52 209.64 519.637 205.102 512.836 212.293C504.51 221.095 505.675 245.792 489.224 247.109C488.36 247.178 487.488 247.148 486.625 247.092C477.231 236.042 474.227 225.42 471.852 211.371L475.13 205.941C478.549 198.466 482.051 191.041 485.337 183.506C486.4 180.419 487.423 177.321 488.43 174.215Z"/>
	<path fill="#F6F9FA" d="M485.337 183.506C486.272 184.432 486.641 184.841 486.665 186.204C486.757 191.516 482.271 200.991 478.42 204.656C477.351 205.674 476.521 205.765 475.13 205.941C478.549 198.466 482.051 191.041 485.337 183.506Z"/>
	<path fill="#B6EA41" d="M708.859 286.78L714.087 285.825C718.452 294.378 717.423 333.095 716.294 343.617C725.581 351.38 733.105 359.367 739.897 369.392C738.272 369.716 737.432 369.703 736.167 370.809C735.732 372.326 735.744 373.662 735.762 375.218C734.931 375.111 734.715 374.858 734.029 375.427C732.066 377.054 731.876 378.48 729.08 378.68C727.435 378.63 726.08 378.564 724.519 378.017C720.276 373.646 718.191 367.99 714.222 363.482C714.428 364.748 714.832 366.064 714.312 367.287C713.317 366.999 713.109 366.711 712.344 366.034C711.134 364.963 710.291 364.236 708.636 364.069C701.587 358.528 694.862 355.626 685.743 356.711C680.718 357.309 675.695 359.244 672.623 363.456C670.163 366.83 669.23 371.4 667.738 375.251C663.67 385.753 649.729 388.524 639.863 390.437C635.108 391.359 630.339 391.69 625.607 390.432C624.55 387.567 623.513 384.71 622.589 381.799C621.145 381.278 619.738 380.74 618.506 379.802C616.267 378.097 615.138 375.107 614.768 372.402C613.919 366.186 616.324 358.269 620.277 353.459C625.039 347.665 632.224 346.987 639.157 346.215C636.715 341.664 635.537 336.525 632.747 331.997C628.865 325.698 623.371 320.405 619.529 314.106C624.998 313.123 628.545 312.313 631.905 307.502C632.576 306.541 633.185 305.534 633.789 304.529C639.026 309.93 643.251 311.834 649.01 316.027C651.52 316.005 654.137 315.831 656.63 315.531C663.401 314.715 666.646 311.162 670.574 306.056C680.039 297.204 690.702 292.633 702.598 288.088C704.673 287.818 706.804 287.214 708.859 286.78Z"/>
	<path fill="#044FA6" d="M649.316 327.125C651.795 330.028 657.466 335.481 656.775 339.761C656.522 341.333 655.625 342.037 654.396 342.919C650.887 338.437 649.654 332.682 649.316 327.125Z"/>
	<path fill="#112258" d="M713.522 346.935C710.239 344.2 700.682 339.172 699.501 335.166L700.262 334.683C705.044 335.044 708.522 337.854 712.396 340.393L716.294 343.617C725.581 351.38 733.105 359.367 739.897 369.392C738.272 369.716 737.432 369.703 736.167 370.809C735.732 372.326 735.744 373.662 735.762 375.218C734.931 375.111 734.715 374.858 734.029 375.427C732.066 377.054 731.876 378.48 729.08 378.68C729.836 378.105 730.712 377.508 731.358 376.815C732.685 375.391 732.958 373.615 732.768 371.745C731.862 362.818 720.249 352.263 713.522 346.935Z"/>
	<path fill="#0068C4" d="M619.529 314.106C624.998 313.123 628.545 312.313 631.905 307.502C632.576 306.541 633.185 305.534 633.789 304.529C639.026 309.93 643.251 311.834 649.01 316.027C647.436 317.281 646.259 318.108 646.117 320.286C645.968 322.568 648.021 325.357 649.316 327.125C649.654 332.682 650.887 338.437 654.396 342.919C649.382 344.567 644.398 345.613 639.157 346.215C636.715 341.664 635.537 336.525 632.747 331.997C628.865 325.698 623.371 320.405 619.529 314.106Z"/>
	<path fill="#044FA6" d="M622.589 381.799C627.177 382.33 631.371 382.149 635.915 381.353C645.491 379.674 657.672 376.295 660.26 365.677C661.118 362.159 661.638 358.397 663.844 355.41C667.816 350.035 674.505 347.637 680.919 346.833C693.361 345.273 700.038 350.37 709.38 357.594C711.064 359.479 712.905 361.318 714.222 363.482C714.428 364.748 714.832 366.064 714.312 367.287C713.317 366.999 713.109 366.711 712.344 366.034C711.134 364.963 710.291 364.236 708.636 364.069C701.587 358.528 694.862 355.626 685.743 356.711C680.718 357.309 675.695 359.244 672.623 363.456C670.163 366.83 669.23 371.4 667.738 375.251C663.67 385.753 649.729 388.524 639.863 390.437C635.108 391.359 630.339 391.69 625.607 390.432C624.55 387.567 623.513 384.71 622.589 381.799Z"/>
	<path fill="#F6F9FA" d="M486.832 119.457C498.727 117.977 510.639 116.488 522.61 115.772C547.913 114.26 573.109 114.707 598.404 115.977C605.783 116.347 614.196 116.115 621.374 117.838C623.318 118.305 624.941 119 626.526 120.234C626.753 120.411 626.974 120.596 627.198 120.777C629.771 121.833 633.37 123.068 634.63 125.788C635.182 126.981 635.148 128.135 634.585 129.303C632.088 134.487 622.052 136.718 616.947 138.165L618.501 140.53C613.499 148.29 606.101 152.093 597.88 155.755C595.404 165.09 587.124 172.715 579.591 178.314C579.346 178.071 579.07 177.863 578.799 177.65C575.785 175.284 571.662 173.439 568.135 171.955C548.395 163.649 524.485 163.026 503.829 168.316C498.644 169.644 494.329 173.47 488.9 174.164C488.744 174.184 488.587 174.198 488.43 174.215C488.037 168.596 487.418 162.708 484.224 157.901C484.171 157.78 484.122 157.656 484.063 157.537C479.304 147.973 467.904 144.462 458.599 141.126C456.712 140.525 454.799 139.947 452.948 139.24C450.975 138.487 449.418 137.565 448.562 135.557C448.537 134.562 448.552 133.97 449.018 133.058C451.611 127.98 462.39 125.24 467.542 123.473C473.95 121.944 480.346 120.614 486.832 119.457Z"/>
	<path fill="#044FA6" d="M627.198 120.777C629.771 121.833 633.37 123.068 634.63 125.788C635.182 126.981 635.148 128.135 634.585 129.303C632.088 134.487 622.052 136.718 616.947 138.165C613.936 138.016 611.032 137.932 608.109 137.116C606.529 136.675 605.572 136.296 604.765 134.849C605.743 130.643 621.758 125.765 626.678 121.262L627.198 120.777Z"/>
	<path fill="#0068C4" d="M342.663 738.799C345.338 763.439 344.67 779.347 354.436 803.428C353.158 818.813 374.979 846.994 384.397 859.423C378.759 862.517 362.408 855.253 358.008 860.615C346.975 853.957 335.627 847.747 322.79 845.515C310.996 843.464 299.366 843.393 288.082 838.896C276.877 834.431 252.576 815.632 241.85 817.025C239.81 817.29 238.947 818.492 237.841 820.032L237.651 820.23C223.85 813.629 187.691 768.164 177.722 753.934C183.01 753.935 188.621 755.421 193.887 756.162C204.281 757.625 214.707 758.904 225.124 760.191C246.367 762.814 267.673 764.659 288.991 766.536C306.962 768.118 324.777 769.973 342.831 770.063C341.591 760.081 340.735 748.7 342.663 738.799Z"/>
	<path fill="#B6EA41" d="M567.929 525.534C567.71 525.191 567.487 524.85 567.296 524.492C566.025 522.108 565.877 519.473 565.827 516.822C565.719 511.125 566.91 505.191 567.409 499.505C568.512 486.967 568.149 472.408 572.093 460.442C573.786 455.307 576.649 450.556 580.083 446.401C589.217 435.344 602.768 428.035 611.005 416.285C614.31 411.57 621.007 399.234 626.067 397.424C634.001 394.586 643.975 394.975 652.363 393.387C659.53 392.03 666.434 389.492 673.642 388.325C676.915 387.795 680.935 387.162 684.235 387.418C692.395 388.052 698.529 393.519 703.537 399.426L703.405 399.841C711.112 410.54 720.424 426.298 734.542 428.782C736.749 429.171 738.867 429.414 740.78 428.041C747.542 423.186 739.969 411.168 755.62 412.076C766.55 412.71 777.419 416.791 788.091 419.047C794.661 420.435 801.369 420.565 808.022 421.236C805.823 424.973 808.403 429.185 807.877 433.172C807.447 437.147 808.103 440.33 809.549 444.005C812.566 455.439 816.415 466.707 820.739 477.71C822.777 482.899 825.283 488.015 827.107 493.266C826.373 496.688 826.367 500.148 825.898 503.602C821.188 503.306 815.401 503.684 810.885 502.411C804.695 500.667 800.319 487.427 797.182 482.095C794.239 477.093 790.468 472.606 786.344 468.539C772.168 454.558 757.351 453.174 739.475 447.323C730.682 444.445 722.241 440.49 713.465 437.535C709.718 436.273 702.556 435.871 699.779 434.479C698.701 433.94 698.698 432.443 698.432 431.357L697.905 434.537C695.058 449 687.761 482.195 681.35 494.967C678.562 489.975 674.621 485.772 668.997 484.06C663.743 482.461 657.747 483.32 652.942 485.893C648.104 488.484 644.688 492.803 643.152 498.056C639.206 511.552 649.242 522.758 653.597 534.654C655.798 540.667 656.536 546.691 657.197 553.03C656.91 555.527 655.975 557.629 655.01 559.916C653.595 560.542 652.444 560.769 650.91 560.933L647.554 561.293C635.27 564.426 618.358 568.628 605.803 568.818C597.694 563.193 591.47 552.627 585.19 545.006C579.664 538.3 573.88 531.862 567.929 525.534Z"/>
	<path fill="#7ACB2C" d="M698.432 431.357C698.698 432.443 698.701 433.94 699.779 434.479C702.556 435.871 709.718 436.273 713.465 437.535C722.241 440.49 730.682 444.445 739.475 447.323C757.351 453.174 772.168 454.558 786.344 468.539C790.468 472.606 794.239 477.093 797.182 482.095C800.319 487.427 804.695 500.667 810.885 502.411C815.401 503.684 821.188 503.306 825.898 503.602C818.295 575.772 788.213 648.386 739.668 702.582C730.865 712.409 721.226 722.253 710.927 730.519C709.202 731.903 707.356 733.198 705.337 734.116L705.207 732.412C705.982 727.276 706.762 721.973 706.56 716.774C703.272 706.52 696.514 696.407 696.965 685.478C694.585 663.521 714.148 657.101 712.597 641.332C709.173 636.775 706.668 631.411 703.677 626.557C699.871 620.379 695.167 614.582 692.312 607.873C691.338 605.583 690.992 603.635 690.897 601.156C689.613 594.669 694.377 588.687 696.188 582.69C696.874 580.422 696.958 577.999 697.098 575.645C696.614 573.2 696.219 570.652 694.681 568.608C691.342 564.171 683.787 564.709 678.762 563.89C676.838 562.096 674.768 560.095 672.444 558.836C666.706 555.73 660.733 558.132 655.01 559.916C655.975 557.629 656.91 555.527 657.197 553.03C656.536 546.691 655.798 540.667 653.597 534.654C649.242 522.758 639.206 511.552 643.152 498.056C644.688 492.803 648.104 488.484 652.942 485.893C657.747 483.32 663.743 482.461 668.997 484.06C674.621 485.772 678.562 489.975 681.35 494.967C687.761 482.195 695.058 449 697.905 434.537L698.432 431.357Z"/>
	<path fill="#112258" d="M696.965 685.478C702.07 695.437 706.781 705.37 706.56 716.774C703.272 706.52 696.514 696.407 696.965 685.478Z"/>
	<path fill="#112258" d="M690.897 601.156C700.55 613.677 710.083 625.256 712.597 641.332C709.173 636.775 706.668 631.411 703.677 626.557C699.871 620.379 695.167 614.582 692.312 607.873C691.338 605.583 690.992 603.635 690.897 601.156Z"/>
	<path fill="#0068C4" d="M655.01 559.916C660.733 558.132 666.706 555.73 672.444 558.836C674.768 560.095 676.838 562.096 678.762 563.89C683.787 564.709 691.342 564.171 694.681 568.608C696.219 570.652 696.614 573.2 697.098 575.645C696.958 577.999 696.874 580.422 696.188 582.69C694.377 588.687 689.613 594.669 690.897 601.156C690.992 603.635 691.338 605.583 692.312 607.873C695.167 614.582 699.871 620.379 703.677 626.557C706.668 631.411 709.173 636.775 712.597 641.332C714.148 657.101 694.585 663.521 696.965 685.478C696.514 696.407 703.272 706.52 706.56 716.774C706.762 721.973 705.982 727.276 705.207 732.412C703.416 742.585 658.983 773.698 648.754 780.862C598.302 816.19 535.431 842.05 474.881 853.232C463.621 855.311 452.216 857.008 440.835 858.292C433.106 859.164 425.187 859.528 417.533 860.892C413.839 854.505 409.909 848.246 406.055 841.954C407.597 837.946 409.621 833.637 410.089 829.356C410.809 822.764 403.91 817.665 404.565 812.686C404.676 811.84 405.117 811.712 405.716 811.191C407.603 810.798 409.319 811.45 411.13 811.945C411.679 811.755 412.223 811.552 412.772 811.365C413.845 811 414.859 810.682 415.817 810.051C426.771 802.834 416.355 794.494 418.469 787.721C419.624 784.022 431.639 786.158 435.797 783.3C440.489 780.073 439.148 773.108 440.665 768.342C443.236 760.263 452.315 760.364 454.27 749.973C454.751 750.135 454.948 750.281 455.427 750.212C459.553 749.619 483.884 731.695 488.963 727.954C506.27 715.207 523.91 703.02 540.692 689.567C575.306 661.816 602.233 633.196 628.458 597.531C632.425 592.135 636.619 586.877 640.381 581.334C641.964 579.001 644.68 575.539 644.112 572.668L647.067 572.222C648.642 568.57 649.87 564.767 650.91 560.933C652.444 560.769 653.595 560.542 655.01 559.916Z"/>
	<path fill="#112258" d="M655.01 559.916C660.733 558.132 666.706 555.73 672.444 558.836C674.768 560.095 676.838 562.096 678.762 563.89C683.787 564.709 691.342 564.171 694.681 568.608C696.219 570.652 696.614 573.2 697.098 575.645C684.337 573.633 682.95 576.097 671.844 567.245C663.506 568.313 655.369 570.798 647.067 572.222C648.642 568.57 649.87 564.767 650.91 560.933C652.444 560.769 653.595 560.542 655.01 559.916Z"/>
	<path fill="#B6EA41" d="M302.054 535.708C301.606 532.657 300.937 529.895 302.28 526.98C303.879 525.355 305.916 525.051 308.125 525.039C319.04 524.984 328.22 531.738 338.505 534.248C346.64 536.233 355.231 535.577 363.273 538.159C366.697 539.259 370.093 540.768 372.61 543.411C375.722 546.679 377.913 551.103 381.651 553.689C383.763 555.15 386.926 555.921 389.41 556.493C393.9 557.527 398.506 557.833 403.023 558.693C412.798 560.552 419.601 567.286 425.447 574.842C432.21 579.393 435.385 586.06 436.897 593.815C437.092 594.814 437.249 595.796 437.366 596.806C448.996 597.873 452.447 596.586 462.386 604.43C465.151 606.612 467.778 608.93 471.031 610.369C475.024 612.135 479.631 612.138 483.902 612.642C497.505 614.248 505.515 623.07 514.23 632.721C516.136 634.737 518.97 637.091 519.023 640.089C519.061 642.265 517.208 644.708 515.984 646.425C509.981 654.841 500.959 663.537 497.14 673.116C491.489 687.291 499.37 709.49 487.235 720.711C482.106 725.454 474.029 727.525 467.695 730.324C461.806 732.927 456.462 735.899 451.46 739.964C452.698 743.293 453.571 746.491 454.27 749.973C452.315 760.364 443.236 760.263 440.665 768.342C439.148 773.108 440.489 780.073 435.797 783.3C431.639 786.158 419.624 784.022 418.469 787.721C416.355 794.494 426.771 802.834 415.817 810.051C414.859 810.682 413.845 811 412.772 811.365C412.223 811.552 411.679 811.755 411.13 811.945C409.319 811.45 407.603 810.798 405.716 811.191C405.117 811.712 404.676 811.84 404.565 812.686C403.91 817.665 410.809 822.764 410.089 829.356C409.621 833.637 407.597 837.946 406.055 841.954C409.909 848.246 413.839 854.505 417.533 860.892C419.535 865.518 423.639 870.217 424.113 875.312C424.267 876.959 423.83 878.553 422.721 879.803C421.104 881.627 418.548 882.492 416.158 882.461C404.225 882.308 392.137 867.233 384.397 859.423C374.979 846.994 353.158 818.813 354.436 803.428C344.67 779.347 345.338 763.439 342.663 738.799C341.982 730.636 341.151 722.711 339.325 714.704C338.929 714.527 338.539 714.352 338.152 714.153C334.278 712.169 331.021 708.571 327.365 706.139C314.527 697.598 297.095 690.191 291.886 674.299C290.037 672.229 288.206 670.188 286.715 667.837C282.483 661.162 271.362 635.378 269.714 627.934C268.795 623.784 268.488 619.356 269.531 615.2C270.991 609.381 275.992 606.721 280.748 603.827C275.216 586.621 284.166 585.619 289.73 571.436C289.676 571.143 289.626 570.85 289.568 570.559C288.397 564.678 285.06 562.034 280.34 558.89C277.934 557.228 274.537 555.353 273.819 552.277C273.522 551.005 273.881 550.012 274.661 549.016C277.958 544.807 293.433 544.708 302.054 535.708Z"/>
	<path fill="#044FA6" d="M425.447 574.842C432.21 579.393 435.385 586.06 436.897 593.815C437.092 594.814 437.249 595.796 437.366 596.806C433.763 595.412 431.013 593.595 428.053 591.172C428.014 588.061 427.878 585.136 427.36 582.063C426.809 579.645 426.087 577.24 425.447 574.842Z"/>
	<path fill="#044FA6" d="M291.886 674.299C296.483 677.734 301.088 681.08 306.003 684.055C318.4 691.557 335.945 699.095 339.325 714.704C338.929 714.527 338.539 714.352 338.152 714.153C334.278 712.169 331.021 708.571 327.365 706.139C314.527 697.598 297.095 690.191 291.886 674.299Z"/>
	<path fill="#7ACB2C" d="M392.832 609.197C392.977 609.173 393.121 609.142 393.267 609.126C401.258 608.222 410.017 611.669 416.185 616.555C424.452 623.104 430.473 633.309 431.678 643.837C432.638 652.232 430.257 661.423 424.847 667.982C419.546 674.41 412.081 677.358 404.01 678.213C395.312 678.55 387.196 676.164 380.208 670.941C371.626 664.525 365.59 654.932 364.208 644.245C363.108 635.734 365.078 626.53 370.469 619.732C376.152 612.566 384.139 610.118 392.832 609.197Z"/>
	<path fill="#7ACB2C" d="M514.23 632.721C516.136 634.737 518.97 637.091 519.023 640.089C519.061 642.265 517.208 644.708 515.984 646.425C509.981 654.841 500.959 663.537 497.14 673.116C491.489 687.291 499.37 709.49 487.235 720.711C482.106 725.454 474.029 727.525 467.695 730.324C461.806 732.927 456.462 735.899 451.46 739.964C452.698 743.293 453.571 746.491 454.27 749.973C452.315 760.364 443.236 760.263 440.665 768.342C439.148 773.108 440.489 780.073 435.797 783.3C431.639 786.158 419.624 784.022 418.469 787.721C416.355 794.494 426.771 802.834 415.817 810.051C414.859 810.682 413.845 811 412.772 811.365C412.223 811.552 411.679 811.755 411.13 811.945C409.319 811.45 407.603 810.798 405.716 811.191C405.117 811.712 404.676 811.84 404.565 812.686C403.91 817.665 410.809 822.764 410.089 829.356C409.621 833.637 407.597 837.946 406.055 841.954C409.909 848.246 413.839 854.505 417.533 860.892C419.535 865.518 423.639 870.217 424.113 875.312C424.267 876.959 423.83 878.553 422.721 879.803C421.104 881.627 418.548 882.492 416.158 882.461C404.225 882.308 392.137 867.233 384.397 859.423C374.979 846.994 353.158 818.813 354.436 803.428C356.974 808.162 359.661 812.794 362.327 817.456C363.546 815.258 361.477 811.264 360.698 808.965C357.14 798.454 355.075 788.314 356.221 777.166C357.308 766.589 361.509 757.337 369.95 750.656C391.695 733.445 417.803 751.113 440.942 753.657C442.29 752.754 443.607 751.844 444.737 750.669C447.523 747.775 448.111 744.834 448.09 740.936C447.371 739.165 446.43 737.128 446.238 735.222C444.823 721.209 475.396 720.433 482.129 710.541C490.882 697.679 484.201 677.898 490.955 663.164C496.171 651.783 506.272 642.265 514.23 632.721Z"/>
	<path fill="#112258" d="M514.23 632.721C516.136 634.737 518.97 637.091 519.023 640.089C519.061 642.265 517.208 644.708 515.984 646.425C509.981 654.841 500.959 663.537 497.14 673.116C491.489 687.291 499.37 709.49 487.235 720.711C482.106 725.454 474.029 727.525 467.695 730.324C461.806 732.927 456.462 735.899 451.46 739.964C452.698 743.293 453.571 746.491 454.27 749.973C452.315 760.364 443.236 760.263 440.665 768.342C439.148 773.108 440.489 780.073 435.797 783.3C431.639 786.158 419.624 784.022 418.469 787.721C416.355 794.494 426.771 802.834 415.817 810.051C414.859 810.682 413.845 811 412.772 811.365C412.223 811.552 411.679 811.755 411.13 811.945C409.319 811.45 407.603 810.798 405.716 811.191C405.117 811.712 404.676 811.84 404.565 812.686C403.91 817.665 410.809 822.764 410.089 829.356C409.621 833.637 407.597 837.946 406.055 841.954C409.909 848.246 413.839 854.505 417.533 860.892C419.535 865.518 423.639 870.217 424.113 875.312C424.267 876.959 423.83 878.553 422.721 879.803C421.104 881.627 418.548 882.492 416.158 882.461C404.225 882.308 392.137 867.233 384.397 859.423C374.979 846.994 353.158 818.813 354.436 803.428C356.974 808.162 359.661 812.794 362.327 817.456C362.386 817.645 362.432 817.837 362.504 818.021C368.515 833.424 394.955 867.711 410.287 874.004C412.616 874.961 414.32 875.221 416.659 874.256C417.957 871.362 414.111 864.75 412.723 862.071C408.045 853.045 398.33 842.741 401.43 831.97C402.606 827.882 403.664 824.17 402.769 819.855C401.913 815.728 396.391 812.056 397.65 807.501C399.35 801.351 407.785 806.689 411.227 803.621C416.485 798.935 411.542 789.586 411.811 783.71C411.892 781.93 412.504 779.878 413.949 778.733C416.72 776.538 421.5 777.879 424.761 777.91C436.786 778.027 431.927 762.452 440.4 754.179L440.942 753.657C442.29 752.754 443.607 751.844 444.737 750.669C447.523 747.775 448.111 744.834 448.09 740.936C447.371 739.165 446.43 737.128 446.238 735.222C444.823 721.209 475.396 720.433 482.129 710.541C490.882 697.679 484.201 677.898 490.955 663.164C496.171 651.783 506.272 642.265 514.23 632.721Z"/>
	<path fill="#B6EA41" d="M284.502 167.762C291.346 165.813 298.705 159.466 305.984 160.556C307.438 161.36 307.875 162.112 308.627 163.514C310.707 164.904 311.942 165.789 313.271 167.946C314.641 168.309 315.71 168.537 317.15 168.436C317.978 167.29 319.205 166.204 320.186 165.169L320.633 165.128C321.652 167.651 322.525 168.442 325.015 169.534C325.241 169.633 325.468 169.727 325.7 169.812L325.75 170.857C326.738 175.765 325.454 179.804 323.018 184.075C333.179 181.748 343.063 180.362 353.455 179.521C355.079 179.756 356.702 180.047 358.346 180.072C360.705 181.45 363.117 182.683 365.023 184.672C367.97 187.23 372.389 189.717 373.834 193.449C373.804 196.207 372.246 198.032 370.36 199.902C366.357 203.87 361.135 206.409 357.268 210.483C361.475 215.389 365.771 220.377 368.892 226.067C372.236 228.021 375.711 230.003 378.568 232.652C384.925 235.515 388.997 241.604 391.403 247.944C391.771 248.914 392.112 249.893 392.448 250.875C398.215 251.329 401.605 252.43 405.541 256.964C405.885 257.359 406.22 257.762 406.555 258.164C416.149 264.627 418.592 275.58 425.949 283.932C428.753 286.148 431.478 289.629 431.974 293.252C432.436 296.631 431.433 300.199 429.347 302.893C428.013 304.615 426.288 306.072 424.667 307.517C422.321 306.459 419.934 305.291 417.467 304.547C415.765 304.034 414.409 303.786 412.773 304.625C403.336 307.413 386.709 307.816 376.729 307.678L377.636 309.164C380.694 310.905 386.006 313.384 386.966 317.13C387.426 318.927 387.072 320.734 386.066 322.283C385.29 323.479 384.23 324.604 383.19 325.572L387.029 327.766C386.945 329.906 387.033 331.906 385.353 333.495C383.74 335.022 381.406 335.14 379.321 334.879C369.226 333.617 362.36 326.16 352.463 333.475C344.88 339.078 342.077 348.618 335.377 354.965C329.135 360.877 319.968 361.619 313.508 367.189C306.73 373.033 304.561 382.657 298.635 389.292C289.353 399.684 271.424 402.051 269.156 418.211C267.921 427.009 275.275 446.605 267.689 452.149C265.385 453.833 262.522 453.732 259.851 453.219C258.473 452.954 257.116 452.584 255.764 452.21C250.081 442.755 250.336 431.349 244.264 421.968C239.646 426.722 234.989 431.244 227.906 431.408C221.864 431.548 216.184 428.52 210.953 425.838C200.542 431.613 191.793 440.798 188.393 452.414C185.117 463.61 187.684 473.187 189.898 484.237C192.75 485.604 196.464 486.583 199.623 486.507C212.069 486.206 210.912 472.088 217.802 465.428C218.836 464.428 220.123 463.648 221.628 463.881C225.185 464.431 228.008 468.357 229.869 471.143C229.965 472.849 230.143 474.745 229.756 476.427C228.226 483.086 216.922 498.388 223.918 503.935C225.082 504.857 226.688 505.466 228.085 505.929C234.787 505.485 241.376 504.679 246.913 509.307C248.808 510.891 250.293 512.946 251.672 514.975C251.719 515.169 251.769 515.362 251.814 515.556C254.657 527.932 251.52 538.547 260.875 548.936L267.281 556.313C266.652 556.41 266.31 556.483 265.71 556.515C258.164 556.905 250.404 549.581 245.249 544.912C244.132 542.802 242.147 540.62 240.703 538.683C237.94 533.38 234.409 528.182 229.497 524.647C223.598 520.401 216.18 519.3 209.606 516.513C204.071 514.167 199.002 510.594 193.624 507.891C181.472 501.783 169.951 497.873 159.661 488.557C152.719 479.36 150.594 468.852 145.356 458.934C141.695 452.002 137.281 449.265 133.52 440.529C131.448 444.958 133.019 449.11 134.306 453.509C136.539 457.333 138.633 461.758 141.212 465.309L143.805 473.856C139.392 470.971 135.22 467.948 131.103 464.658C115.542 448.759 116.929 423.427 117.1 402.863C118.453 396.409 119.66 389.846 121.491 383.509C124.346 373.629 128.205 363.992 132.115 354.492C146.453 319.65 164.966 287.618 187.842 257.691C203.262 237.517 220.856 219.284 239.215 201.795C242.969 198.218 249.767 190.11 254.916 189.423C258.708 185.878 273.492 173.958 277.686 172.669C279.758 170.554 281.961 169.219 284.502 167.762Z"/>
	<path fill="#044FA6" d="M378.568 232.652C384.925 235.515 388.997 241.604 391.403 247.944C391.771 248.914 392.112 249.893 392.448 250.875C391.229 250.775 389.69 250.761 388.596 250.174C383.613 247.502 380.723 237.773 378.568 232.652Z"/>
	<path fill="#044FA6" d="M377.636 309.164C380.694 310.905 386.006 313.384 386.966 317.13C387.426 318.927 387.072 320.734 386.066 322.283C385.29 323.479 384.23 324.604 383.19 325.572C381.775 325.283 380.36 324.995 378.956 324.655C377.136 324.216 375.41 323.575 374.539 321.742C373.06 318.63 376.477 312.268 377.636 309.164Z"/>
	<path fill="#044FA6" d="M320.198 272.113C322.95 273.561 326.615 275.441 327.756 278.574C328.503 280.626 327.829 282.711 326.737 284.489C323.94 289.045 319.647 291.565 317.509 296.747C316.911 296.681 316.311 296.611 315.72 296.491C313.744 296.088 311.208 294.6 310.2 292.798C306.518 286.217 316.86 280.387 319.276 275.774C319.746 274.876 319.913 273.719 320.093 272.73C320.13 272.524 320.163 272.318 320.198 272.113Z"/>
	<path fill="#044FA6" d="M406.555 258.164C416.149 264.627 418.592 275.58 425.949 283.932C428.753 286.148 431.478 289.629 431.974 293.252C432.436 296.631 431.433 300.199 429.347 302.893C428.013 304.615 426.288 306.072 424.667 307.517C422.321 306.459 419.934 305.291 417.467 304.547C415.765 304.034 414.409 303.786 412.773 304.625C403.336 307.413 386.709 307.816 376.729 307.678C369.549 304.935 363.224 310.368 357.97 308.097C356.735 307.563 355.646 306.228 355.278 304.946C354.94 303.772 354.99 302.641 355.681 301.592C359.625 295.611 372.467 298.302 378.544 298.177C384.231 298.06 389.888 297.082 395.582 297.026C402.221 296.962 409.048 298.438 415.621 297.088C417.943 296.611 420.462 295.944 421.773 293.791C423.662 290.689 422.881 287.232 422.174 283.922C419.581 279.453 416.225 275.414 413.425 271.064C410.783 266.96 408.673 262.553 406.555 258.164Z"/>
	<path fill="#044FA6" d="M235.264 413.403C238.648 415.993 241.671 418.554 244.264 421.968C239.646 426.722 234.989 431.244 227.906 431.408C221.864 431.548 216.184 428.52 210.953 425.838C200.542 431.613 191.793 440.798 188.393 452.414C185.117 463.61 187.684 473.187 189.898 484.237C185.092 481.128 181.982 477.036 179.987 471.666C175.935 460.758 176.731 447.621 181.693 437.14C185.98 428.082 193.086 420.447 202.636 417.046C206.593 418.562 210.586 420.109 214.812 420.669C223.042 421.761 228.995 418.118 235.264 413.403Z"/>
	<path fill="#7ACB2C" d="M246.341 317.688C250.428 317.844 254.435 318.719 257.809 321.14C261.061 323.474 262.935 327.002 263.515 330.921C264.583 338.139 261.946 345.869 257.662 351.661C252.25 358.979 244.954 362.277 236.16 363.579C231.716 363.462 227.517 362.58 223.989 359.674C220.136 356.499 218.488 351.799 218.188 346.93C217.753 339.861 220.135 332.908 224.828 327.604C230.515 321.176 237.968 318.312 246.341 317.688Z"/>
	<path fill="#0484F1" d="M294.003 263.97C292.462 259.126 291.347 254.146 293.524 249.298C298.135 239.036 313.174 230.486 323.201 226.723C335.541 222.093 345.817 225.24 357.256 230.469C357.816 240.905 361.68 259.857 354.479 268.277C351.441 271.829 345.962 272.417 341.623 273.376C341.481 273.523 341.337 273.667 341.197 273.816C333.79 281.716 329.72 295.006 317.509 296.747C319.647 291.565 323.94 289.045 326.737 284.489C327.829 282.711 328.503 280.626 327.756 278.574C326.615 275.441 322.95 273.561 320.198 272.113C311.662 266.655 303.773 265.884 294.003 263.97Z"/>
	<path fill="#EDD655" d="M284.502 167.762C291.346 165.813 298.705 159.466 305.984 160.556C307.438 161.36 307.875 162.112 308.627 163.514C310.707 164.904 311.942 165.789 313.271 167.946C314.641 168.309 315.71 168.537 317.15 168.436C317.978 167.29 319.205 166.204 320.186 165.169L320.633 165.128C321.652 167.651 322.525 168.442 325.015 169.534C325.241 169.633 325.468 169.727 325.7 169.812L325.75 170.857C326.738 175.765 325.454 179.804 323.018 184.075C333.179 181.748 343.063 180.362 353.455 179.521C355.079 179.756 356.702 180.047 358.346 180.072C360.705 181.45 363.117 182.683 365.023 184.672C367.97 187.23 372.389 189.717 373.834 193.449C373.804 196.207 372.246 198.032 370.36 199.902C366.357 203.87 361.135 206.409 357.268 210.483C361.475 215.389 365.771 220.377 368.892 226.067C363.744 225.301 361.228 227.609 357.256 230.469C345.817 225.24 335.541 222.093 323.201 226.723C313.174 230.486 298.135 239.036 293.524 249.298C291.347 254.146 292.462 259.126 294.003 263.97C290.609 262.99 287.3 261.438 285.101 258.567C281.409 253.747 282.501 247.398 283.235 241.831C272.918 245.042 263.987 253.099 255.637 259.72C216.252 290.95 183.599 328.525 160.134 373.11C151.764 389.015 144.893 405.654 140.293 423.047C139.412 426.377 137.049 438.85 134.104 439.915C133.962 439.967 133.811 439.992 133.665 440.031L133.52 440.529C131.448 444.958 133.019 449.11 134.306 453.509C136.539 457.333 138.633 461.758 141.212 465.309L143.805 473.856C139.392 470.971 135.22 467.948 131.103 464.658C115.542 448.759 116.929 423.427 117.1 402.863C118.453 396.409 119.66 389.846 121.491 383.509C124.346 373.629 128.205 363.992 132.115 354.492C146.453 319.65 164.966 287.618 187.842 257.691C203.262 237.517 220.856 219.284 239.215 201.795C242.969 198.218 249.767 190.11 254.916 189.423C258.708 185.878 273.492 173.958 277.686 172.669C279.758 170.554 281.961 169.219 284.502 167.762Z"/>
	<path fill="#044FA6" d="M134.306 453.509C131.308 450.708 128.339 447.951 126.53 444.186C124.878 440.746 124.423 436.514 125.828 432.909C126.428 431.37 127.175 430.528 128.692 429.808C130.027 429.908 130.396 429.952 131.422 430.936C133.555 432.982 133.495 437.293 133.665 440.031L133.52 440.529C131.448 444.958 133.019 449.11 134.306 453.509Z"/>
	<path fill="#0484F1" d="M254.916 189.423C258.708 185.878 273.492 173.958 277.686 172.669C277.972 174.216 278.171 175.651 279.482 176.709C281.598 178.417 285.244 178.304 287.864 178.514C287.864 180.444 287.727 182.014 288.709 183.726C291.371 186.14 295.49 184.43 298.468 186.946C294.028 186.95 289.582 186.949 285.166 187.462C275.332 188.607 264.793 191.617 254.916 189.423Z"/>
	<path fill="#044FA6" d="M320.633 165.128C321.652 167.651 322.525 168.442 325.015 169.534C325.241 169.633 325.468 169.727 325.7 169.812L325.75 170.857C326.738 175.765 325.454 179.804 323.018 184.075C316.311 186.293 305.48 188.878 298.468 186.946C295.49 184.43 291.371 186.14 288.709 183.726C287.727 182.014 287.864 180.444 287.864 178.514C294.88 179.031 303.138 179.891 309.895 177.432C314.142 175.887 316.31 173.645 318.257 169.658L317.15 168.436C317.978 167.29 319.205 166.204 320.186 165.169L320.633 165.128Z"/>
	<path fill="#0068C4" d="M320.633 165.128C321.652 167.651 322.525 168.442 325.015 169.534C325.241 169.633 325.468 169.727 325.7 169.812L325.75 170.857C323.204 170.77 320.744 170.172 318.257 169.658L317.15 168.436C317.978 167.29 319.205 166.204 320.186 165.169L320.633 165.128Z"/>
	<path fill="#F6F9FA" d="M284.502 167.762C291.346 165.813 298.705 159.466 305.984 160.556C307.438 161.36 307.875 162.112 308.627 163.514C310.707 164.904 311.942 165.789 313.271 167.946C314.641 168.309 315.71 168.537 317.15 168.436L318.257 169.658C316.31 173.645 314.142 175.887 309.895 177.432C303.138 179.891 294.88 179.031 287.864 178.514C285.244 178.304 281.598 178.417 279.482 176.709C278.171 175.651 277.972 174.216 277.686 172.669C279.758 170.554 281.961 169.219 284.502 167.762Z"/>
	<path fill="#044FA6" d="M308.627 163.514C310.707 164.904 311.942 165.789 313.271 167.946L312.905 168.774C309.486 170.179 305.67 170.697 302.05 171.394C304.305 168.83 306.445 166.141 308.627 163.514Z"/>
	<path fill="#044FA6" d="M365.023 184.672C367.97 187.23 372.389 189.717 373.834 193.449C373.804 196.207 372.246 198.032 370.36 199.902C366.357 203.87 361.135 206.409 357.268 210.483C361.475 215.389 365.771 220.377 368.892 226.067C363.744 225.301 361.228 227.609 357.256 230.469C345.817 225.24 335.541 222.093 323.201 226.723C313.174 230.486 298.135 239.036 293.524 249.298C291.347 254.146 292.462 259.126 294.003 263.97C290.609 262.99 287.3 261.438 285.101 258.567C281.409 253.747 282.501 247.398 283.235 241.831C283.702 240.892 284.182 240.017 284.788 239.158C288.834 233.423 295.109 229.262 300.774 225.268C317.582 213.42 325.288 213.084 344.415 218.634C347.563 219.548 350.67 220.645 353.991 219.976C355.513 219.67 355.987 219.126 356.737 217.897C356.919 213.504 350.74 209.761 349.253 205.619C348.887 204.599 348.741 203.981 349.203 202.97C350.729 199.632 358.466 193.948 361.316 190.727C362.93 188.904 363.956 186.836 365.023 184.672Z"/>
</svg>
