<?xml version="1.0" encoding="utf-8" ?>
<svg xmlns="http://www.w3.org/2000/svg" xmlns:xlink="http://www.w3.org/1999/xlink" width="1024" height="1024">
	<path fill="#FEFEFA" d="M226.085 87.2059C226.288 87.2439 226.494 87.2714 226.695 87.3199C228.406 87.7321 229.034 88.324 229.864 89.771C229.907 91.5493 229.345 92.3768 228.389 93.8407C227.777 93.7354 227.365 93.6859 226.757 93.4761C225.523 93.0502 225.059 92.3419 224.468 91.2582C224.445 89.4599 225.111 88.6145 226.085 87.2059Z"/>
	<path fill="#FEFEFA" d="M311 899.667C311.825 899.808 313.078 899.95 313.808 900.414C314.827 901.061 315.408 901.714 315.517 902.947C315.648 904.425 314.439 905.861 313.642 907.005C313.005 906.835 312.917 906.831 312.241 906.55C310.906 905.996 310.263 905.304 309.67 903.984C309.532 902.134 310.08 901.241 311 899.667Z"/>
	<path fill="#FEFEFA" d="M78.9642 907.92C79.8567 907.921 80.8826 907.863 81.7541 908.057C83.064 908.347 83.495 909.122 84.1073 910.199C84.2073 911.975 83.6586 912.94 82.8304 914.482C82.0229 914.413 80.9996 914.295 80.244 914.015C78.9396 913.532 78.4305 912.977 77.8096 911.777C77.7781 909.932 78.1088 909.502 78.9642 907.92Z"/>
	<path fill="#FEFEFA" d="M904.067 787.335C904.865 787.515 905.753 787.673 906.504 787.998C907.787 788.553 908.147 789.31 908.723 790.508C908.766 792.267 908.178 793.166 907.309 794.61C906.377 794.625 905.061 794.489 904.244 793.995C903.218 793.375 902.684 792.723 902.477 791.523C902.214 790.005 903.311 788.555 904.067 787.335Z"/>
	<path fill="#FEFEFA" d="M752.602 105.22C753.506 105.426 754.522 105.694 755.311 106.213C756.56 107.037 756.768 107.769 757.115 109.157C756.783 111.029 756.031 111.822 754.752 113.189C753.737 113.029 752.302 112.596 751.501 111.902C750.561 111.088 750.146 110.309 750.175 109.043C750.211 107.475 751.592 106.268 752.602 105.22Z"/>
	<path fill="#FEFEFA" d="M883.668 62.817C884.723 62.8188 886.327 62.9094 887.24 63.56C888.336 64.3404 888.847 65.0978 888.952 66.4588C889.071 68.0123 888.006 69.3453 887.171 70.5457C886.178 70.5954 884.857 70.4423 883.988 69.9085C882.912 69.2477 882.329 68.5247 882.104 67.2545C881.804 65.558 882.811 64.172 883.668 62.817Z"/>
	<path fill="#FEFEFA" d="M99.3794 298.372C100.443 298.637 101.807 299.01 102.692 299.703C103.628 300.435 104.21 301.439 104.189 302.649C104.158 304.355 102.721 305.815 101.71 307.055C100.339 306.741 98.8041 306.433 97.7374 305.427C97.1211 304.846 96.7054 304.153 96.6493 303.312C96.5014 301.097 97.9506 299.83 99.3794 298.372Z"/>
	<path fill="#FEFEFA" d="M746.542 934.716C747.943 934.879 749.427 935.023 750.56 935.976C751.2 936.514 751.612 937.171 751.717 937.99C752.009 940.282 750.731 941.564 749.354 943.202C748.11 943.045 746.51 942.774 745.553 941.867C744.608 940.972 744.135 940.126 744.174 938.796C744.223 937.104 745.48 935.889 746.542 934.716Z"/>
	<path fill="#8073B4" d="M118.256 171.183C114.856 168.102 112.154 164.485 110.421 160.226C107.514 153.084 107.623 144.904 110.677 137.829C113.628 130.989 119.313 125.741 126.247 123.087C133.989 120.124 142.928 120.98 150.362 124.407C141.03 141.078 130.938 156.839 118.256 171.183Z"/>
	<path fill="#4C2F71" d="M150.362 124.407C157.887 129.264 162.73 134.734 164.652 143.711C166.28 151.312 164.842 159.058 160.454 165.494C156.258 171.649 149.371 176.08 142.037 177.397C133.736 178.888 126.272 176.888 119.503 172.127C119.076 171.827 118.661 171.511 118.256 171.183C130.938 156.839 141.03 141.078 150.362 124.407Z"/>
	<path fill="#286F9C" d="M815.505 845.255C814.955 844.333 814.481 843.393 814.025 842.421C809.479 832.739 809.237 820.99 812.961 811.011C816.654 801.12 824.393 793.084 834.022 788.79C844.159 784.27 854.783 784.737 865.018 788.627C860.149 793.515 855.848 799.037 851.368 804.284L833.815 824.496C827.819 831.505 821.996 838.69 815.505 845.255Z"/>
	<path fill="#4C2F71" d="M865.018 788.627C875.438 794.518 883.481 801.938 886.797 813.795C889.765 824.41 888.391 835.901 882.899 845.467C877.863 854.24 869.608 860.945 859.784 863.567C849.85 866.218 838.591 865.294 829.644 860.043C823.578 856.483 818.757 851.496 815.505 845.255C821.996 838.69 827.819 831.505 833.815 824.496L851.368 804.284C855.848 799.037 860.149 793.515 865.018 788.627Z"/>
	<path fill="#184092" d="M872.867 412.684C878.611 404.408 884.739 396.409 890.489 388.141C893.335 384.048 895.687 379.517 898.717 375.588C905.3 391.664 909.51 408.357 913.237 425.3C931.413 507.939 924.115 597.66 891.415 675.853C858.894 753.616 800.702 816.242 729.469 860.314C709.842 872.458 690.146 883.184 668.744 891.956C567.745 933.35 450.982 934.59 350.055 892.335C332.002 884.777 313.943 876.147 297.241 865.912C288.286 860.425 279.866 853.558 270.657 848.618C271.987 847.46 275.278 846.727 277.031 846.089C289.399 841.589 301.574 836.647 313.55 831.189C318.944 826.839 327.084 824.198 333.624 822.067C343.672 818.156 353.142 813.029 362.685 808.048C371.692 812.383 380.684 816.968 389.923 820.783C440.489 841.665 493.687 848.788 547.995 842.919C630.67 833.984 704.653 789.45 756.364 725.074C805.853 663.464 830.982 592.187 828.452 512.928C828.044 500.131 826.123 487.461 824.737 474.749C834.055 461.699 845.687 448.505 855.901 436.032C860.124 428.657 867.589 419.69 872.867 412.684Z"/>
	<path fill="#142065" d="M855.901 436.032C860.124 428.657 867.589 419.69 872.867 412.684C900.469 509.42 888.177 609.16 839.361 696.867C827.349 718.449 811.778 738.246 795.18 756.459C744.755 811.791 681.193 853.511 608.897 873.887C521.795 898.435 413.768 888.313 334.489 843.796C327.398 839.814 320.406 835.564 313.55 831.189C318.944 826.839 327.084 824.198 333.624 822.067C345.805 830.676 360.4 837.525 374.096 843.345C433.205 868.464 502.908 876.746 566.304 866.375C592.934 862.018 618.514 854.35 643.494 844.205C684.257 827.651 723.574 801.936 755.273 771.431C763.668 763.352 771.167 754.288 778.635 745.361C803.304 715.871 823.979 684.858 838.941 649.28C862.745 592.672 870.71 531.088 862.578 470.246C861.275 460.497 859.544 444.945 855.901 436.032Z"/>
	<path fill="#4C2F71" d="M855.901 436.032C859.544 444.945 861.275 460.497 862.578 470.246C870.71 531.088 862.745 592.672 838.941 649.28C823.979 684.858 803.304 715.871 778.635 745.361C771.167 754.288 763.668 763.352 755.273 771.431C723.574 801.936 684.257 827.651 643.494 844.205C618.514 854.35 592.934 862.018 566.304 866.375C502.908 876.746 433.205 868.464 374.096 843.345C360.4 837.525 345.805 830.676 333.624 822.067C343.672 818.156 353.142 813.029 362.685 808.048C371.692 812.383 380.684 816.968 389.923 820.783C440.489 841.665 493.687 848.788 547.995 842.919C630.67 833.984 704.653 789.45 756.364 725.074C805.853 663.464 830.982 592.187 828.452 512.928C828.044 500.131 826.123 487.461 824.737 474.749C834.055 461.699 845.687 448.505 855.901 436.032Z"/>
	<path fill="#080648" d="M805.003 466.422C813.728 458.658 821.702 449.73 829.802 441.306C855.126 414.969 878.72 387.525 900.716 358.353C911.011 344.699 920.208 329.882 930.906 316.603L931.318 316.098C930.042 321.565 927.902 326.362 925.245 331.3C921.262 338.699 899.12 371.701 898.717 375.588C895.687 379.517 893.335 384.048 890.489 388.141C884.739 396.409 878.611 404.408 872.867 412.684C867.589 419.69 860.124 428.657 855.901 436.032C845.687 448.505 834.055 461.699 824.737 474.749C826.123 487.461 828.044 500.131 828.452 512.928C830.982 592.187 805.853 663.464 756.364 725.074C704.653 789.45 630.67 833.984 547.995 842.919C493.687 848.788 440.489 841.665 389.923 820.783C380.684 816.968 371.692 812.383 362.685 808.048C353.142 813.029 343.672 818.156 333.624 822.067C327.084 824.198 318.944 826.839 313.55 831.189C301.574 836.647 289.399 841.589 277.031 846.089C275.278 846.727 271.987 847.46 270.657 848.618C258.923 853.661 246.382 856.425 234.137 859.886C195.595 870.782 149.394 883.126 110.488 867.486C101.289 863.788 92.7217 858.524 84.9565 852.389C160.881 876.608 299.031 813.136 367.283 779.355C371.266 776.266 376.529 774.304 381.121 772.26C385.716 768.536 393.22 765.422 398.557 762.363C413.814 753.616 428.976 744.689 444.346 736.142L450.172 733.554C466.235 723.951 482.053 713.881 498 704.083C505.013 699.775 512.09 694.845 519.423 691.148C525.873 685.722 534.221 681.392 541.293 676.683C555.778 667.039 570.113 657.16 584.371 647.184C600.696 635.761 616.711 623.951 632.662 612.013C643.174 604.145 653.576 595.882 664.549 588.675C680.897 574.35 698.635 561.314 715.393 547.423C740.975 526.218 765.667 503.976 789.788 481.133C794.728 476.092 799.874 471.269 805.003 466.422Z"/>
	<path fill="#E07D3F" d="M789.788 481.133C794.728 476.092 799.874 471.269 805.003 466.422C807.6 480.708 809.737 494.848 810.367 509.37C813.057 571.424 793.838 634.742 758.586 685.757C726.885 731.634 682.537 772.135 630.165 792.87C624.281 788.503 606.436 792.132 598.82 792.08C596.131 792.061 593.492 791.52 590.861 791.011C592.238 788.651 595.398 787.336 597.709 785.991C621.11 778.932 643.435 769.374 663.971 756.008C725.528 715.942 772.428 647.595 787.522 575.757C792.806 550.965 793.184 527.828 791.891 502.653C791.589 495.434 790.746 488.289 789.788 481.133Z"/>
	<path fill="#EF9042" d="M450.172 733.554C459.454 741.407 471.42 747.912 482.288 753.332L482.896 753.689C498.566 761.618 514.388 769.606 531.161 774.987L532.52 775.503C547.36 780.461 562.005 784.931 577.747 785.939C584.372 786.364 591.072 785.973 597.709 785.991C595.398 787.336 592.238 788.651 590.861 791.011C593.492 791.52 596.131 792.061 598.82 792.08C606.436 792.132 624.281 788.503 630.165 792.87C625.369 795.031 620.538 797.066 615.612 798.913C549.893 823.556 478.269 825.3 412.288 800.605C396.551 794.716 382.471 786.253 367.283 779.355C371.266 776.266 376.529 774.304 381.121 772.26C385.716 768.536 393.22 765.422 398.557 762.363C413.814 753.616 428.976 744.689 444.346 736.142L450.172 733.554Z"/>
	<path fill="#CA5640" d="M531.161 774.987L532.52 775.503C547.36 780.461 562.005 784.931 577.747 785.939C584.372 786.364 591.072 785.973 597.709 785.991C595.398 787.336 592.238 788.651 590.861 791.011C587.321 790.202 555.901 799.17 548.167 800.269C513.839 805.146 480.429 802.878 447.139 793.266C453.138 790.972 466.872 790.982 473.951 790.016C493.775 787.311 512.61 782.604 531.161 774.987Z"/>
	<path fill="#AD3B38" d="M450.172 733.554C459.454 741.407 471.42 747.912 482.288 753.332L482.896 753.689C498.566 761.618 514.388 769.606 531.161 774.987C512.61 782.604 493.775 787.311 473.951 790.016C466.872 790.982 453.138 790.972 447.139 793.266L443.299 792.545C420.661 793.259 400.443 782.809 381.121 772.26C385.716 768.536 393.22 765.422 398.557 762.363C413.814 753.616 428.976 744.689 444.346 736.142L450.172 733.554Z"/>
	<path fill="#CA5640" d="M450.172 733.554C459.454 741.407 471.42 747.912 482.288 753.332C476.524 756.547 469.912 757.72 463.588 759.404C452.565 762.339 441.58 765.077 430.413 767.424C422.505 769.086 414.409 770.35 406.574 772.29C412.503 775.998 418.472 779.584 424.705 782.763C430.906 785.926 437.542 788.626 443.299 792.545C420.661 793.259 400.443 782.809 381.121 772.26C385.716 768.536 393.22 765.422 398.557 762.363C413.814 753.616 428.976 744.689 444.346 736.142L450.172 733.554Z"/>
	<path fill="#842823" d="M532.52 775.503C538.455 770.583 547.666 767.656 554.641 764.282C563.601 759.946 572.446 755.362 581.148 750.53C614.822 731.832 646.708 710.62 676.767 686.533C700.788 667.285 723.908 645.931 744.952 623.46C754.029 613.767 762.338 603.115 770.945 592.992C775.8 587.282 781.244 579.913 787.522 575.757C772.428 647.595 725.528 715.942 663.971 756.008C643.435 769.374 621.11 778.932 597.709 785.991C591.072 785.973 584.372 786.364 577.747 785.939C562.005 784.931 547.36 780.461 532.52 775.503Z"/>
	<path fill="#6E2120" d="M482.896 753.689C488.727 750.523 495.974 748.616 502.182 746.122C510.947 742.602 519.448 738.307 527.82 733.948C593.801 699.59 648.032 661.046 702.185 609.84C726.364 586.976 749.014 559.895 769.327 533.543C774.235 527.175 779.135 520.799 783.588 514.1C785.692 510.934 787.317 507.24 789.564 504.238C790.371 503.16 790.656 503.035 791.891 502.653C793.184 527.828 792.806 550.965 787.522 575.757C781.244 579.913 775.8 587.282 770.945 592.992C762.338 603.115 754.029 613.767 744.952 623.46C723.908 645.931 700.788 667.285 676.767 686.533C646.708 710.62 614.822 731.832 581.148 750.53C572.446 755.362 563.601 759.946 554.641 764.282C547.666 767.656 538.455 770.583 532.52 775.503L531.161 774.987C514.388 769.606 498.566 761.618 482.896 753.689Z"/>
	<path fill="#842823" d="M789.788 481.133C790.746 488.289 791.589 495.434 791.891 502.653C790.656 503.035 790.371 503.16 789.564 504.238C787.317 507.24 785.692 510.934 783.588 514.1C779.135 520.799 774.235 527.175 769.327 533.543C749.014 559.895 726.364 586.976 702.185 609.84C648.032 661.046 593.801 699.59 527.82 733.948C519.448 738.307 510.947 742.602 502.182 746.122C495.974 748.616 488.727 750.523 482.896 753.689L482.288 753.332C471.42 747.912 459.454 741.407 450.172 733.554C466.235 723.951 482.053 713.881 498 704.083C505.013 699.775 512.09 694.845 519.423 691.148C525.873 685.722 534.221 681.392 541.293 676.683C555.778 667.039 570.113 657.16 584.371 647.184C600.696 635.761 616.711 623.951 632.662 612.013C643.174 604.145 653.576 595.882 664.549 588.675C680.897 574.35 698.635 561.314 715.393 547.423C740.975 526.218 765.667 503.976 789.788 481.133Z"/>
	<path fill="#AD3B38" d="M664.549 588.675C660.933 594.573 653.306 599.549 647.986 603.972C613.524 632.625 576.876 657.307 538.631 680.626C533.793 683.576 526.177 689.513 520.958 690.868C520.322 691.033 520.128 691.041 519.423 691.148C525.873 685.722 534.221 681.392 541.293 676.683C555.778 667.039 570.113 657.16 584.371 647.184C600.696 635.761 616.711 623.951 632.662 612.013C643.174 604.145 653.576 595.882 664.549 588.675Z"/>
	<path fill="#184092" d="M129.829 673.645C129.191 671.656 127.981 669.614 127.159 667.658C125.174 662.936 123.307 658.175 121.728 653.301C107.51 609.416 99.5028 567.375 99.0878 521.065C98.8319 492.505 100.715 463.773 106.012 435.683C121.002 356.195 162.161 278.697 218.856 221.093C252.11 187.308 291.612 157.588 334.774 137.645C353.953 128.783 373.801 121.91 394.007 115.825C429.536 105.125 466.61 98.7515 503.781 98.5176C582.588 98.0217 661.008 119.826 728.219 160.946C745.954 171.797 763.72 184.034 779.253 197.911C782.04 200.402 784.45 203.382 787.114 206.017C785.469 207.254 782.819 207.87 780.853 208.564C773.53 211.146 758.833 214.872 753.412 219.749C751.775 220.603 750.172 221.293 748.429 221.903C740.536 224.762 732.8 227.87 725.133 231.293C705.957 240.273 686.675 249.026 668.121 259.26C649.794 246.161 630.25 237.579 609.226 229.794C583.345 221.21 556.69 215.276 529.342 213.999C450.638 209.148 369.255 237.215 310.162 289.423C249.888 342.675 212.417 417.477 207.481 497.875C205.701 526.864 207.552 555.611 215.22 583.69C202.138 596.322 189.117 609.003 176.328 621.933C171.111 627.475 165.867 632.994 160.723 638.604C156.751 643.705 152.605 648.646 147.904 653.096C140.353 657.373 135.482 670.225 129.829 673.645Z"/>
	<path fill="#142065" d="M160.723 638.604C158.106 633.166 156.599 626.443 154.767 620.657C140.683 576.18 136.923 528.23 140.601 481.847C147.165 399.059 179.243 323.584 234.561 261.605C245.96 248.834 258.16 236.353 271.201 225.254C345.786 161.774 444.572 129.243 542.41 137.037C603.481 141.902 661.699 163.076 713.544 195.317C725.436 202.713 739.333 211.213 748.429 221.903C740.536 224.762 732.8 227.87 725.133 231.293C714.034 221.446 700.566 213.358 687.759 205.946C626.439 170.457 557.042 155.48 486.503 159.673C394.773 165.125 308.652 209.208 247.89 277.776C241.771 284.68 236.277 292.135 230.759 299.52C179.556 368.051 156.297 452.339 161.419 537.429C162.841 561.067 167.846 599.823 176.328 621.933C171.111 627.475 165.867 632.994 160.723 638.604Z"/>
	<path fill="#4C2F71" d="M176.328 621.933C167.846 599.823 162.841 561.067 161.419 537.429C156.297 452.339 179.556 368.051 230.759 299.52C236.277 292.135 241.771 284.68 247.89 277.776C308.652 209.208 394.773 165.125 486.503 159.673C557.042 155.48 626.439 170.457 687.759 205.946C700.566 213.358 714.034 221.446 725.133 231.293C705.957 240.273 686.675 249.026 668.121 259.26C649.794 246.161 630.25 237.579 609.226 229.794C583.345 221.21 556.69 215.276 529.342 213.999C450.638 209.148 369.255 237.215 310.162 289.423C249.888 342.675 212.417 417.477 207.481 497.875C205.701 526.864 207.552 555.611 215.22 583.69C202.138 596.322 189.117 609.003 176.328 621.933Z"/>
	<path fill="#286F9C" d="M787.114 206.017C799.669 202.49 812.183 198.507 824.806 195.275C855.54 187.407 893.367 180.929 924.887 185.882C932.898 187.141 940.998 188.758 948.162 192.728C956.027 197.087 961.927 203.499 964.378 212.291C971.382 237.417 956.913 271.734 944.433 293.603C940.112 301.173 934.478 307.892 931.318 316.098L930.906 316.603C920.208 329.882 911.011 344.699 900.716 358.353C878.72 387.525 855.126 414.969 829.802 441.306C821.702 449.73 813.728 458.658 805.003 466.422C799.874 471.269 794.728 476.092 789.788 481.133C765.667 503.976 740.975 526.218 715.393 547.423C698.635 561.314 680.897 574.35 664.549 588.675C653.576 595.882 643.174 604.145 632.662 612.013C616.711 623.951 600.696 635.761 584.371 647.184C570.113 657.16 555.778 667.039 541.293 676.683C534.221 681.392 525.873 685.722 519.423 691.148C512.09 694.845 505.013 699.775 498 704.083C482.053 713.881 466.235 723.951 450.172 733.554L444.346 736.142L445.767 734.288L445.651 733.434C440.409 728.964 433.504 724.054 427.411 720.843L427.048 720.882C425.53 717.22 408.328 704.985 403.997 701.411L402.49 702.101C400.617 696.793 389.957 688.832 385.531 684.818L385.865 684.28C393.071 682.318 407.287 672.66 414.236 668.469C453.699 644.671 492.06 619.358 529.587 592.615C544.501 581.987 560.217 571.796 574.003 559.741C580.635 556.376 604.326 536.93 610.329 531.305C611.352 517.065 616.35 502.938 615.966 488.611L616.786 486.077C616.597 481.082 617.267 476.071 616.726 471.073C616.27 465.161 616.589 459.184 616.104 453.242C615.021 439.962 612.528 426.967 609.785 413.946L609.714 413.05C606.254 399.398 601.722 386.813 595.79 374.024C599.405 367.07 605.534 360.775 609.772 354.034C619.368 338.77 627.75 322.864 636.123 306.913C623.361 296.633 611.763 285.547 597.522 277.207C599.938 270.974 602.026 264.596 603.974 258.203C604.883 255.222 605.438 251.991 606.672 249.141L606.006 248.832C608.349 242.61 608.16 236.271 609.226 229.794C630.25 237.579 649.794 246.161 668.121 259.26C686.675 249.026 705.957 240.273 725.133 231.293C732.8 227.87 740.536 224.762 748.429 221.903C750.172 221.293 751.775 220.603 753.412 219.749C758.833 214.872 773.53 211.146 780.853 208.564C782.819 207.87 785.469 207.254 787.114 206.017Z"/>
	<path fill="#CA5640" d="M701.52 386.213C709.198 393.87 719.119 423.167 723.189 434.059C686.931 467.954 649.22 500.464 610.329 531.305C611.352 517.065 616.35 502.938 615.966 488.611L616.786 486.077C621.432 480.214 627.424 475.055 632.599 469.62C642.248 459.488 651.77 448.978 660.857 438.342C668.81 429.033 676.528 419.554 683.828 409.725C689.603 401.949 695.137 393.467 701.52 386.213Z"/>
	<path fill="#080648" d="M698.131 280.044C722.5 269.021 777.954 251.671 803.29 261.307C809.864 263.808 815.511 268.715 818.375 275.204C821.589 282.487 821.082 291.467 819.353 299.065C817.502 309.473 813.966 319.829 808.77 329.051C805.382 335.508 801.903 341.88 798.244 348.188C792.282 358.454 785.45 369.393 777.762 378.472C762.666 349.91 744.138 324.759 721.861 301.392C714.155 294.031 706.194 287.008 698.131 280.044Z"/>
	<path fill="#142065" d="M787.209 295.937C797.981 296.598 808.614 298.18 819.353 299.065C817.502 309.473 813.966 319.829 808.77 329.051C802.704 317.566 794.87 306.408 787.209 295.937Z"/>
	<path fill="#4C2F71" d="M721.861 301.392C735.204 299.442 748.849 297.137 762.318 296.34C768.927 305.067 775.677 313.751 781.693 322.902C786.401 330.066 792.743 342.403 798.244 348.188C792.282 358.454 785.45 369.393 777.762 378.472C762.666 349.91 744.138 324.759 721.861 301.392Z"/>
	<path fill="#CA5640" d="M609.226 229.794C630.25 237.579 649.794 246.161 668.121 259.26C671.285 262.089 674.799 264.577 678.488 266.678C685.501 270.494 691.75 275.281 698.131 280.044C706.194 287.008 714.155 294.031 721.861 301.392C744.138 324.759 762.666 349.91 777.762 378.472C773.852 383.346 769.503 387.784 765.113 392.223C751.606 406.436 737.619 420.806 723.189 434.059C719.119 423.167 709.198 393.87 701.52 386.213C695.137 393.467 689.603 401.949 683.828 409.725C676.528 419.554 668.81 429.033 660.857 438.342C651.77 448.978 642.248 459.488 632.599 469.62C627.424 475.055 621.432 480.214 616.786 486.077C616.597 481.082 617.267 476.071 616.726 471.073C616.27 465.161 616.589 459.184 616.104 453.242C615.021 439.962 612.528 426.967 609.785 413.946L609.714 413.05C606.254 399.398 601.722 386.813 595.79 374.024C599.405 367.07 605.534 360.775 609.772 354.034C619.368 338.77 627.75 322.864 636.123 306.913C623.361 296.633 611.763 285.547 597.522 277.207C599.938 270.974 602.026 264.596 603.974 258.203C604.883 255.222 605.438 251.991 606.672 249.141L606.006 248.832C608.349 242.61 608.16 236.271 609.226 229.794Z"/>
	<path fill="#AD3B38" d="M597.522 277.207C599.938 270.974 602.026 264.596 603.974 258.203C604.883 255.222 605.438 251.991 606.672 249.141C632.808 260.025 656.939 272.808 679.444 290.13C676.234 305.546 669.491 319.131 662.861 333.26C653.685 324.741 645.269 315.452 636.123 306.913C623.361 296.633 611.763 285.547 597.522 277.207Z"/>
	<path fill="#E07D3F" d="M662.894 333.867C676.995 350.567 689.126 368.032 701.607 385.936L701.52 386.213C695.137 393.467 689.603 401.949 683.828 409.725C676.528 419.554 668.81 429.033 660.857 438.342C651.77 448.978 642.248 459.488 632.599 469.62C627.424 475.055 621.432 480.214 616.786 486.077C616.597 481.082 617.267 476.071 616.726 471.073C616.27 465.161 616.589 459.184 616.104 453.242C615.021 439.962 612.528 426.967 609.785 413.946L609.714 413.05C616.119 408.927 645.804 364.424 650.744 356.206C655.1 348.959 658.931 341.336 662.894 333.867Z"/>
	<path fill="#EF9042" d="M609.226 229.794C630.25 237.579 649.794 246.161 668.121 259.26C671.285 262.089 674.799 264.577 678.488 266.678C685.501 270.494 691.75 275.281 698.131 280.044C706.194 287.008 714.155 294.031 721.861 301.392C744.138 324.759 762.666 349.91 777.762 378.472C773.852 383.346 769.503 387.784 765.113 392.223C751.606 406.436 737.619 420.806 723.189 434.059C719.119 423.167 709.198 393.87 701.52 386.213L701.607 385.936C713.646 370.871 718.351 351.541 726.19 334.313C718.23 322.837 691.21 299.044 679.444 290.13C656.939 272.808 632.808 260.025 606.672 249.141L606.006 248.832C608.349 242.61 608.16 236.271 609.226 229.794Z"/>
	<path fill="#AD3B38" d="M701.607 385.936C713.646 370.871 718.351 351.541 726.19 334.313C737.626 348.681 747.875 363.294 757.358 379.031C759.943 383.322 762.908 387.732 765.113 392.223C751.606 406.436 737.619 420.806 723.189 434.059C719.119 423.167 709.198 393.87 701.52 386.213L701.607 385.936Z"/>
	<path fill="#C0AEA3" d="M787.114 206.017C799.669 202.49 812.183 198.507 824.806 195.275C855.54 187.407 893.367 180.929 924.887 185.882C932.898 187.141 940.998 188.758 948.162 192.728C956.027 197.087 961.927 203.499 964.378 212.291C971.382 237.417 956.913 271.734 944.433 293.603C940.112 301.173 934.478 307.892 931.318 316.098L930.906 316.603C920.208 329.882 911.011 344.699 900.716 358.353C878.72 387.525 855.126 414.969 829.802 441.306C821.702 449.73 813.728 458.658 805.003 466.422C799.874 471.269 794.728 476.092 789.788 481.133C765.667 503.976 740.975 526.218 715.393 547.423C698.635 561.314 680.897 574.35 664.549 588.675C653.576 595.882 643.174 604.145 632.662 612.013C616.711 623.951 600.696 635.761 584.371 647.184C570.113 657.16 555.778 667.039 541.293 676.683C534.221 681.392 525.873 685.722 519.423 691.148C512.09 694.845 505.013 699.775 498 704.083C482.053 713.881 466.235 723.951 450.172 733.554L444.346 736.142L445.767 734.288L445.651 733.434C440.409 728.964 433.504 724.054 427.411 720.843L427.048 720.882C425.53 717.22 408.328 704.985 403.997 701.411C422.829 689.775 442.145 678.947 460.988 667.312C489.298 649.831 517.118 631.252 544.35 612.134C584.065 584.252 622.422 554.642 659.878 523.807C720.186 474.16 777.48 421.48 827.334 361.195C847.021 337.388 867.838 311.794 877.899 282.132C882.547 268.43 885.882 251.493 879.004 237.926C874.789 229.611 867.532 224.331 858.787 221.485C845.597 217.191 831.039 218.066 817.441 219.509C767.436 224.815 722.965 244.369 678.488 266.678C674.799 264.577 671.285 262.089 668.121 259.26C686.675 249.026 705.957 240.273 725.133 231.293C732.8 227.87 740.536 224.762 748.429 221.903C750.172 221.293 751.775 220.603 753.412 219.749C758.833 214.872 773.53 211.146 780.853 208.564C782.819 207.87 785.469 207.254 787.114 206.017Z"/>
	<path fill="#286F9C" d="M787.114 206.017C799.669 202.49 812.183 198.507 824.806 195.275C855.54 187.407 893.367 180.929 924.887 185.882C932.898 187.141 940.998 188.758 948.162 192.728C956.027 197.087 961.927 203.499 964.378 212.291C971.382 237.417 956.913 271.734 944.433 293.603C940.112 301.173 934.478 307.892 931.318 316.098L930.906 316.603C920.208 329.882 911.011 344.699 900.716 358.353C878.72 387.525 855.126 414.969 829.802 441.306C821.702 449.73 813.728 458.658 805.003 466.422C799.874 471.269 794.728 476.092 789.788 481.133C765.667 503.976 740.975 526.218 715.393 547.423C698.635 561.314 680.897 574.35 664.549 588.675C653.576 595.882 643.174 604.145 632.662 612.013C616.711 623.951 600.696 635.761 584.371 647.184C570.113 657.16 555.778 667.039 541.293 676.683C534.221 681.392 525.873 685.722 519.423 691.148C512.09 694.845 505.013 699.775 498 704.083C482.053 713.881 466.235 723.951 450.172 733.554L444.346 736.142L445.767 734.288L445.651 733.434C440.409 728.964 433.504 724.054 427.411 720.843C431.903 717.329 437.718 714.673 442.698 711.809C450.097 707.554 457.363 703.077 464.617 698.583C491.381 682.004 517.7 664.843 543.686 647.066C623.034 592.782 698.682 532.043 769.02 466.534C809.141 429.168 848.229 390.29 882.108 347.072C904.613 318.363 943.651 264.107 938.769 225.652C937.6 216.441 933.463 208.455 926.006 202.804C896.567 180.5 824.466 197.593 791.362 207.711C780.799 210.939 764.034 218.371 753.921 219.691C753.752 219.713 753.582 219.729 753.412 219.749C758.833 214.872 773.53 211.146 780.853 208.564C782.819 207.87 785.469 207.254 787.114 206.017Z"/>
	<defs>
		<linearGradient id="gradient_0" gradientUnits="userSpaceOnUse" x1="426.82434" y1="588.36896" x2="197.6154" y2="448.20569">
			<stop offset="0" stop-color="#F7DFD6"/>
			<stop offset="1" stop-color="white"/>
		</linearGradient>
	</defs>
	<path fill="url(#gradient_0)" d="M215.22 583.69C207.552 555.611 205.701 526.864 207.481 497.875C212.417 417.477 249.888 342.675 310.162 289.423C369.255 237.215 450.638 209.148 529.342 213.999C556.69 215.276 583.345 221.21 609.226 229.794C608.16 236.271 608.349 242.61 606.006 248.832L606.672 249.141C605.438 251.991 604.883 255.222 603.974 258.203C602.026 264.596 599.938 270.974 597.522 277.207C611.763 285.547 623.361 296.633 636.123 306.913C627.75 322.864 619.368 338.77 609.772 354.034C605.534 360.775 599.405 367.07 595.79 374.024C601.722 386.813 606.254 399.398 609.714 413.05L609.785 413.946C612.528 426.967 615.021 439.962 616.104 453.242C616.589 459.184 616.27 465.161 616.726 471.073C617.267 476.071 616.597 481.082 616.786 486.077L615.966 488.611C616.35 502.938 611.352 517.065 610.329 531.305C604.326 536.93 580.635 556.376 574.003 559.741C560.217 571.796 544.501 581.987 529.587 592.615C492.06 619.358 453.699 644.671 414.236 668.469C407.287 672.66 393.071 682.318 385.865 684.28L385.531 684.818C389.957 688.832 400.617 696.793 402.49 702.101L403.997 701.411C408.328 704.985 425.53 717.22 427.048 720.882L427.411 720.843C433.504 724.054 440.409 728.964 445.651 733.434L445.767 734.288L444.346 736.142C428.976 744.689 413.814 753.616 398.557 762.363C393.22 765.422 385.716 768.536 381.121 772.26C376.529 774.304 371.266 776.266 367.283 779.355C299.031 813.136 160.881 876.608 84.9565 852.389C78.2818 849.554 71.8322 846.52 66.4282 841.576C58.8313 834.627 55.4815 825.349 55.1373 815.2C53.8191 776.335 94.0225 720.044 116.923 690.463C121.2 684.938 125.062 678.744 129.829 673.645C135.482 670.225 140.353 657.373 147.904 653.096C152.605 648.646 156.751 643.705 160.723 638.604C165.867 632.994 171.111 627.475 176.328 621.933C189.117 609.003 202.138 596.322 215.22 583.69Z"/>
	<path fill="#4C2F71" d="M259.673 738.603C257.557 732.536 253.367 727.614 250.895 721.732C245.38 708.606 244.055 694.924 245.735 680.88C246.212 676.887 246.728 672.6 248.269 668.857C261.234 690.368 273.925 710.519 291.928 728.193C282.648 730.782 268.489 735.088 259.673 738.603Z"/>
	<path fill="#FDCB4F" d="M229.96 452.909C235.324 450.756 241.213 449.426 246.746 447.721C253.519 445.634 260.2 443.147 266.889 440.802C267.337 450.21 270.69 459.923 272.985 469.048L273.069 470.258C272.778 488.457 275.47 516.879 286.252 531.598C286.911 532.771 287.162 533.697 287.444 534.993L287.857 534.99C290.773 549.596 302.768 569.153 308.356 583.462C295.053 588.162 281.881 592.631 268.286 596.421C261.293 598.37 243.338 601.296 238.137 604.112C232.89 586.738 228.936 569.389 226.192 551.453C224.23 526.98 223.46 503.53 225.787 479.052C226.807 470.28 228.267 461.574 229.96 452.909Z"/>
	<path fill="#FCAB43" d="M229.96 452.909C235.324 450.756 241.213 449.426 246.746 447.721C253.519 445.634 260.2 443.147 266.889 440.802C267.337 450.21 270.69 459.923 272.985 469.048L273.069 470.258C257.844 473.928 241.533 478.799 225.787 479.052C226.807 470.28 228.267 461.574 229.96 452.909Z"/>
	<path fill="#1AAFDD" d="M129.829 673.645C135.482 670.225 140.353 657.373 147.904 653.096C147.785 653.398 147.672 653.701 147.548 654C143.728 663.196 132.079 674.988 125.8 683.58C106.497 709.995 67.1292 769.394 79.8053 803.191C83.7411 813.685 91.3286 820.992 101.508 825.473C144.74 844.504 227.162 817.57 268.805 801.152C278.045 797.509 287.214 793.645 296.362 789.774C300.977 787.821 306.054 786.081 310.353 783.525L308.734 782.788C308.347 780.883 310.52 778.194 311.02 776.239C311.454 774.539 310.183 773.173 309.359 771.808C311.266 762.713 317.007 754.854 318.401 745.798C324.39 742.651 330.642 740.055 336.765 737.184C347.377 732.209 357.927 727.078 368.367 721.75C379.972 715.826 391.178 708.61 402.49 702.101L403.997 701.411C408.328 704.985 425.53 717.22 427.048 720.882L427.411 720.843C433.504 724.054 440.409 728.964 445.651 733.434L445.767 734.288L444.346 736.142C428.976 744.689 413.814 753.616 398.557 762.363C393.22 765.422 385.716 768.536 381.121 772.26C376.529 774.304 371.266 776.266 367.283 779.355C299.031 813.136 160.881 876.608 84.9565 852.389C78.2818 849.554 71.8322 846.52 66.4282 841.576C58.8313 834.627 55.4815 825.349 55.1373 815.2C53.8191 776.335 94.0225 720.044 116.923 690.463C121.2 684.938 125.062 678.744 129.829 673.645Z"/>
	<path fill="#F4C89B" d="M403.997 701.411C408.328 704.985 425.53 717.22 427.048 720.882C402.221 735.078 378.24 749.337 352.866 762.658C338.874 770.003 324.282 776.161 310.353 783.525L308.734 782.788C308.347 780.883 310.52 778.194 311.02 776.239C311.454 774.539 310.183 773.173 309.359 771.808C311.266 762.713 317.007 754.854 318.401 745.798C324.39 742.651 330.642 740.055 336.765 737.184C347.377 732.209 357.927 727.078 368.367 721.75C379.972 715.826 391.178 708.61 402.49 702.101L403.997 701.411Z"/>
	<path fill="#1AAFDD" d="M318.401 745.798C309.743 749.047 301.31 752.956 292.688 756.316C255.983 770.621 215.506 784.896 175.696 784.956C160.234 784.98 142.4 783.173 130.905 771.596C123.783 764.423 121.299 754.68 121.437 744.808C122.034 701.917 162.77 646.942 190.865 616.585C199.141 607.643 208.351 599.584 217.087 591.096C219.769 599.001 222.082 607.068 224.632 615.022C228.797 627.607 233.549 639.56 239.269 651.52C242.378 657.016 246.262 662.857 248.269 668.857C246.728 672.6 246.212 676.887 245.735 680.88C244.055 694.924 245.38 708.606 250.895 721.732C253.367 727.614 257.557 732.536 259.673 738.603C268.489 735.088 282.648 730.782 291.928 728.193C298.131 727.307 304.674 724.566 310.015 721.351C321.933 714.657 335.284 710.286 347.659 704.452C360.538 698.38 372.682 690.838 385.531 684.818C389.957 688.832 400.617 696.793 402.49 702.101C391.178 708.61 379.972 715.826 368.367 721.75C357.927 727.078 347.377 732.209 336.765 737.184C330.642 740.055 324.39 742.651 318.401 745.798Z"/>
	<path fill="#142065" d="M224.632 615.022C228.797 627.607 233.549 639.56 239.269 651.52C242.378 657.016 246.262 662.857 248.269 668.857C246.728 672.6 246.212 676.887 245.735 680.88C244.055 694.924 245.38 708.606 250.895 721.732C253.367 727.614 257.557 732.536 259.673 738.603C252.535 740.366 245.403 742 238.116 743.03C222.702 744.74 204.398 746.731 191.5 736.112C184.762 730.565 181.689 722.718 180.805 714.23C177.384 681.419 204.471 639.734 224.632 615.022Z"/>
	<path fill="#080648" d="M238.116 743.03C229.651 727.728 225.407 709.309 226.964 691.885C227.794 682.596 231.914 657.705 239.269 651.52C242.378 657.016 246.262 662.857 248.269 668.857C246.728 672.6 246.212 676.887 245.735 680.88C244.055 694.924 245.38 708.606 250.895 721.732C253.367 727.614 257.557 732.536 259.673 738.603C252.535 740.366 245.403 742 238.116 743.03Z"/>
	<path fill="#FDCB4F" d="M524.145 230.502L524.369 230.579C517.956 244.465 509.198 256.876 501.465 270.022L501.08 270.059C466.616 320.654 413.303 364.247 360.451 394.469C350.234 400.31 337.53 407.698 326.485 411.589L324.941 413.125C316.687 415.55 309.215 420.843 301.201 424.107C293.881 443.507 290.805 465.29 288.784 485.819C288.255 491.194 287.802 496.607 287.605 502.005C287.373 508.396 288.645 526.627 286.252 531.598C275.47 516.879 272.778 488.457 273.069 470.258L272.985 469.048C270.69 459.923 267.337 450.21 266.889 440.802C260.2 443.147 253.519 445.634 246.746 447.721C241.213 449.426 235.324 450.756 229.96 452.909C233.904 437.536 238.484 422.326 244.503 407.632C264.107 359.773 296.374 318.962 337.446 287.71C347.648 279.947 359.082 271.673 370.94 266.693C378.04 261.811 386.25 258.219 394.104 254.727C436.098 236.051 478.57 230.368 524.145 230.502Z"/>
	<path fill="#FEE69F" d="M267.016 440.392C266.535 423.109 267.522 406.355 272.135 389.572C284.228 345.573 315.692 311.078 354.907 289.021C376.125 277.087 411.35 262.657 435.486 269.399C427.282 288.401 404.49 307.116 390.139 322.001C371.368 341.471 335.663 386.445 326.485 411.589L324.941 413.125C316.687 415.55 309.215 420.843 301.201 424.107C293.881 443.507 290.805 465.29 288.784 485.819C288.255 491.194 287.802 496.607 287.605 502.005C287.373 508.396 288.645 526.627 286.252 531.598C275.47 516.879 272.778 488.457 273.069 470.258L272.985 469.048C270.69 459.923 267.337 450.21 266.889 440.802L267.016 440.392Z"/>
	<path fill="#FEFEFA" d="M276.265 436.396C281.696 410.274 288.1 384.896 301.501 361.583C320.045 329.324 344.907 308.838 377.353 291.647C387.47 286.286 397.726 281.107 408.828 278.102C401.031 282.43 393.069 286.742 385.961 292.15C344.418 323.761 317.834 375.831 301.201 424.107C293.881 443.507 290.805 465.29 288.784 485.819C288.255 491.194 287.802 496.607 287.605 502.005C287.373 508.396 288.645 526.627 286.252 531.598C275.47 516.879 272.778 488.457 273.069 470.258L272.985 469.048C270.69 459.923 267.337 450.21 266.889 440.802L267.016 440.392C270.038 439.065 272.89 436.585 276.265 436.396Z"/>
	<path fill="#F4C89B" d="M267.016 440.392C270.038 439.065 272.89 436.585 276.265 436.396C275.071 447.037 274.957 458.581 272.985 469.048C270.69 459.923 267.337 450.21 266.889 440.802L267.016 440.392Z"/>
	<path fill="#F4C89B" d="M529.342 213.999C556.69 215.276 583.345 221.21 609.226 229.794C608.16 236.271 608.349 242.61 606.006 248.832L606.672 249.141C605.438 251.991 604.883 255.222 603.974 258.203C602.026 264.596 599.938 270.974 597.522 277.207C611.763 285.547 623.361 296.633 636.123 306.913C627.75 322.864 619.368 338.77 609.772 354.034C605.534 360.775 599.405 367.07 595.79 374.024L595.507 373.936C591.71 362.867 576.173 338.154 568.388 328.914L568.167 328.937C554.839 345.085 542.295 361.454 527.875 376.715C474.453 433.257 408.045 480.147 337.932 513.718C321.554 521.56 304.718 528.28 287.857 534.99L287.444 534.993C287.162 533.697 286.911 532.771 286.252 531.598C288.645 526.627 287.373 508.396 287.605 502.005C287.802 496.607 288.255 491.194 288.784 485.819C290.805 465.29 293.881 443.507 301.201 424.107C309.215 420.843 316.687 415.55 324.941 413.125L326.485 411.589C337.53 407.698 350.234 400.31 360.451 394.469C413.303 364.247 466.616 320.654 501.08 270.059L501.465 270.022C509.198 256.876 517.956 244.465 524.369 230.579L524.145 230.502C526.078 225.051 527.725 219.549 529.342 213.999Z"/>
	<path fill="#EF9042" d="M529.342 213.999C556.69 215.276 583.345 221.21 609.226 229.794C608.16 236.271 608.349 242.61 606.006 248.832L606.672 249.141C605.438 251.991 604.883 255.222 603.974 258.203C602.026 264.596 599.938 270.974 597.522 277.207C611.763 285.547 623.361 296.633 636.123 306.913C627.75 322.864 619.368 338.77 609.772 354.034C605.534 360.775 599.405 367.07 595.79 374.024L595.507 373.936C591.71 362.867 576.173 338.154 568.388 328.914L568.167 328.937C560.07 315.6 539.966 297.536 528.25 286.671C515.57 304.643 502.019 321.77 486.67 337.556C472.911 351.707 457.75 364.524 442.191 376.649C399.577 409.861 353.589 436.159 304.479 458.456C309.446 442.202 318.729 428.675 324.941 413.125L326.485 411.589C337.53 407.698 350.234 400.31 360.451 394.469C413.303 364.247 466.616 320.654 501.08 270.059L501.465 270.022C509.198 256.876 517.956 244.465 524.369 230.579L524.145 230.502C526.078 225.051 527.725 219.549 529.342 213.999Z"/>
	<path fill="#F4C89B" d="M553.818 264.538C559.115 264.368 563.854 265.214 568.659 267.447C575.782 270.756 583.651 277.327 586.28 284.939C587.06 287.196 587.185 289.592 586.024 291.746C584.236 295.066 580.824 296.522 577.393 297.506C572.883 297.587 568.695 297.153 564.422 295.681C556.484 292.945 548.655 287.111 545.111 279.32C543.983 276.84 543.431 274.096 544.548 271.51C546.229 267.618 550.108 265.913 553.818 264.538Z"/>
	<path fill="#E07D3F" d="M529.342 213.999C556.69 215.276 583.345 221.21 609.226 229.794C608.16 236.271 608.349 242.61 606.006 248.832L606.672 249.141C605.438 251.991 604.883 255.222 603.974 258.203C602.026 264.596 599.938 270.974 597.522 277.207C611.763 285.547 623.361 296.633 636.123 306.913C627.75 322.864 619.368 338.77 609.772 354.034C605.534 360.775 599.405 367.07 595.79 374.024L595.507 373.936C591.71 362.867 576.173 338.154 568.388 328.914C569.466 325.295 576.095 317.968 578.427 314.016C585.476 302.067 591.576 289.806 597.393 277.213C582.44 265.48 564.42 257.492 547.31 249.486C542.468 262.462 537.215 275.658 528.445 286.536C520.397 279.491 510.926 274.826 501.465 270.022C509.198 256.876 517.956 244.465 524.369 230.579L524.145 230.502C526.078 225.051 527.725 219.549 529.342 213.999Z"/>
	<path fill="#F4C89B" d="M529.342 213.999C556.69 215.276 583.345 221.21 609.226 229.794C608.16 236.271 608.349 242.61 606.006 248.832C583.995 239.008 548.574 230.769 524.369 230.579L524.145 230.502C526.078 225.051 527.725 219.549 529.342 213.999Z"/>
	<path fill="#FCAB43" d="M568.167 328.937L568.388 328.914C576.173 338.154 591.71 362.867 595.507 373.936L595.79 374.024C601.722 386.813 606.254 399.398 609.714 413.05L609.785 413.946C612.528 426.967 615.021 439.962 616.104 453.242C616.589 459.184 616.27 465.161 616.726 471.073C617.267 476.071 616.597 481.082 616.786 486.077L615.966 488.611C616.35 502.938 611.352 517.065 610.329 531.305C604.326 536.93 580.635 556.376 574.003 559.741C560.217 571.796 544.501 581.987 529.587 592.615C492.06 619.358 453.699 644.671 414.236 668.469C407.287 672.66 393.071 682.318 385.865 684.28L385.531 684.818C372.682 690.838 360.538 698.38 347.659 704.452C335.284 710.286 321.933 714.657 310.015 721.351C304.477 714.803 298.624 708.527 293.141 701.928C286.22 693.598 279.821 684.909 273.513 676.111C265.933 668.789 255.276 645.299 250.487 635.17C246.138 624.891 242.077 614.552 238.137 604.112C243.338 601.296 261.293 598.37 268.286 596.421C281.881 592.631 295.053 588.162 308.356 583.462C302.768 569.153 290.773 549.596 287.857 534.99C304.718 528.28 321.554 521.56 337.932 513.718C408.045 480.147 474.453 433.257 527.875 376.715C542.295 361.454 554.839 345.085 568.167 328.937Z"/>
	<path fill="#EF9042" d="M616.726 471.073C617.267 476.071 616.597 481.082 616.786 486.077L615.966 488.611C608.61 498.483 598.309 506.646 589.234 514.91C547.812 552.629 504.458 584.294 453.322 607.637C446.309 610.839 438.218 615.652 430.596 616.639C430.051 616.709 429.503 616.758 428.955 616.785C433.87 611.88 456.618 600.242 464.461 595.618C474.528 589.683 484.091 583.336 493.647 576.622C527.502 552.837 559.749 526.902 589.775 498.411C599.07 489.591 607.623 480.079 616.726 471.073Z"/>
	<path fill="#FDCB4F" d="M250.487 635.17L251.037 635.025C256.002 633.766 261.189 633.283 266.236 632.409C272.552 631.316 278.815 629.748 285.013 628.127C299.37 624.373 312.99 618.821 327.206 614.788C333.573 623.818 340.13 632.664 347.142 641.206C348.963 643.424 354.815 649.472 355.465 651.903C338.145 659.382 319.966 665.132 301.633 669.58C292.535 671.787 282.103 672.508 273.513 676.111C265.933 668.789 255.276 645.299 250.487 635.17Z"/>
	<path fill="#EF9042" d="M355.465 651.903L356.303 651.661L360.001 656.293C365.791 661.451 383.753 678.015 385.865 684.28L385.531 684.818C372.682 690.838 360.538 698.38 347.659 704.452C335.284 710.286 321.933 714.657 310.015 721.351C304.477 714.803 298.624 708.527 293.141 701.928C286.22 693.598 279.821 684.909 273.513 676.111C282.103 672.508 292.535 671.787 301.633 669.58C319.966 665.132 338.145 659.382 355.465 651.903Z"/>
	<path fill="#E07D3F" d="M428.955 616.785C429.503 616.758 430.051 616.709 430.596 616.639C438.218 615.652 446.309 610.839 453.322 607.637C504.458 584.294 547.812 552.629 589.234 514.91C598.309 506.646 608.61 498.483 615.966 488.611C616.35 502.938 611.352 517.065 610.329 531.305C604.326 536.93 580.635 556.376 574.003 559.741C560.217 571.796 544.501 581.987 529.587 592.615C492.06 619.358 453.699 644.671 414.236 668.469C407.287 672.66 393.071 682.318 385.865 684.28C383.753 678.015 365.791 661.451 360.001 656.293L356.303 651.661C372.559 644.35 389.147 637.669 405.154 629.819C413.27 625.838 420.957 620.996 428.955 616.785Z"/>
	<path fill="#CA5640" d="M360.001 656.293C371.329 651.557 383.603 648.53 395.219 644.471C415.09 637.529 434.621 629.614 453.864 621.088C468.004 614.823 481.929 608.019 495.824 601.233C504.275 597.105 512.946 593.136 521.2 588.629C532.602 582.402 543.961 575.924 555.229 569.456C560.152 566.63 564.955 563.3 570.001 560.744C571.441 560.014 572.38 559.588 574.003 559.741C560.217 571.796 544.501 581.987 529.587 592.615C492.06 619.358 453.699 644.671 414.236 668.469C407.287 672.66 393.071 682.318 385.865 684.28C383.753 678.015 365.791 661.451 360.001 656.293Z"/>
	<path fill="#EF9042" d="M595.507 373.936L595.79 374.024C601.722 386.813 606.254 399.398 609.714 413.05L609.785 413.946C600.9 420.548 594.071 431.441 586.536 439.604C575.754 451.284 564.156 462.308 552.544 473.16C502.39 520.032 444.356 559.189 383.145 590.085C364.814 599.338 346.707 607.971 327.343 614.86C320.614 604.569 314.154 594.259 308.512 583.326C315.464 580.25 322.695 577.718 329.708 574.765C341.712 569.712 353.587 564.231 365.311 558.557C431.848 526.351 492.693 483.156 545.21 431.16C561.691 414.843 582.841 393.074 595.507 373.936Z"/>
</svg>
