<?xml version="1.0" encoding="utf-8" ?>
<svg xmlns="http://www.w3.org/2000/svg" xmlns:xlink="http://www.w3.org/1999/xlink" width="1024" height="1024">
	<path fill="white" d="M921.497 813.362C921.633 813.441 921.783 813.5 921.907 813.598C923.146 814.578 923.745 815.423 924.121 816.912C923.404 818.656 922.756 819.006 921.311 820.164C921.039 820.082 920.754 820.035 920.497 819.917C919.403 819.414 918.757 818.468 918.433 817.393C918.898 815.553 920.149 814.622 921.497 813.362Z"/>
	<path fill="white" d="M60.3317 265.895C61.0546 266.082 62.0632 266.255 62.7002 266.632C63.9341 267.363 64.1032 267.924 64.5694 269.18C64.4534 270.846 63.9153 271.759 63.0743 273.139C62.375 272.946 61.4018 272.76 60.789 272.383C59.809 271.781 59.0843 270.986 58.9176 269.812C58.7146 268.38 59.6211 267.05 60.3317 265.895Z"/>
	<path fill="white" d="M904.595 248.162C905.22 248.299 905.878 248.419 906.475 248.663C907.665 249.152 908.317 249.838 908.823 251.01C908.969 252.857 908.363 253.769 907.434 255.328C906.826 255.218 906.096 255.131 905.518 254.88C904.442 254.413 903.514 253.662 903.206 252.49C902.804 250.963 903.88 249.429 904.595 248.162Z"/>
	<path fill="white" d="M205.054 152.333C205.908 152.378 206.915 152.376 207.731 152.629C209.033 153.033 209.381 153.801 209.892 154.953C209.774 156.699 209.239 157.516 208.239 158.927C207.986 158.9 207.732 158.882 207.48 158.844C205.786 158.588 204.92 158.154 203.921 156.769C203.699 154.982 204.293 153.923 205.054 152.333Z"/>
	<path fill="#EC3126" d="M163.146 875.704C163.913 875.879 164.821 876.126 165.516 876.49C166.531 877.022 167.282 877.828 167.465 878.99C167.709 880.538 166.484 881.991 165.662 883.185C165.043 883.032 164.289 882.895 163.707 882.607C162.605 882.062 161.836 881.231 161.596 880C161.291 878.442 162.379 876.962 163.146 875.704Z"/>
	<path fill="#EC3126" d="M844.062 156.569C845.657 156.483 847.201 156.546 848.76 156.941C851.613 157.665 854.183 159.557 855.585 162.161C857.031 164.845 857.167 168.033 856.115 170.876C854.721 174.647 852.264 176.307 848.787 177.991C847.144 178.095 845.596 178.034 843.996 177.59C841.173 176.807 838.682 174.801 837.327 172.206C835.893 169.461 835.633 166.275 836.723 163.364C838.078 159.743 840.667 158.08 844.062 156.569Z"/>
	<path fill="#405570" d="M115.152 767.582C118.793 767.244 122.341 767.177 125.82 768.468C130.223 770.103 133.853 773.593 135.635 777.945C137.323 782.07 137.135 786.712 135.331 790.765C133.069 795.846 129.075 798.68 124.018 800.601C120.269 801.407 116.665 801.582 113.054 800.06C108.956 798.332 105.852 794.807 104.241 790.704C102.405 786.027 102.499 780.769 104.699 776.231C106.911 771.668 110.465 769.171 115.152 767.582Z"/>
	<path fill="#1A131F" d="M497.661 97.2168C497.901 97.1898 498.139 97.1544 498.38 97.1357C517.429 95.6528 537.779 97.3738 556.753 99.4831C643.866 109.167 723.628 144.374 789.353 202.465C875.076 278.231 924.047 383.528 931.038 497.24C936.703 589.37 905.955 686.731 854.104 762.446C843.553 777.853 831.579 792.515 819.19 806.473C809.917 816.92 799.74 826.589 789.391 835.956C717.05 901.435 624.968 936.116 528.122 941.885C504.516 942.764 480.179 940.894 456.826 937.566C373.524 925.694 296.692 890.678 234.553 833.66C213.595 814.428 193.951 793.818 176.775 771.116C125.971 703.967 98.0421 621.826 94.446 538.003C90.8395 453.938 112.52 372.483 155.785 300.519C169.728 277.327 185.891 254.685 204.228 234.747C255.732 178.744 316.863 139.123 389.494 116.332C424.948 105.206 460.538 98.7393 497.661 97.2168Z"/>
	<path fill="#D65535" d="M160.124 660.431C168.161 661.654 175.227 666.857 183.13 668.665L183.421 668.843C184.504 671.377 185.545 673.748 187.072 676.056C195.665 691.95 204.914 707.887 215.281 722.71C212.164 731.876 214.348 739.97 213.948 749.212L211.295 749.035C206.654 744.075 202.601 737.901 198.75 732.307C183.176 709.68 170.652 685.772 160.124 660.431Z"/>
	<path fill="#961A13" d="M848.021 327.88C855.682 340.108 861.435 353.237 866.895 366.565C887.085 415.856 895.276 464.787 894.979 517.876C886.517 523.351 882.789 533.16 873.822 538.426C877.792 483.515 871.082 427.323 850.736 376.012C848.065 369.275 845.077 359.302 840.893 353.687L840.333 352.91C841.196 350.538 841.618 347.767 842.293 345.298C843.912 339.38 845.722 333.576 848.021 327.88Z"/>
	<path fill="#961A13" d="M187.072 676.056C188.848 675.211 190.694 675.247 192.541 675.957C198.137 678.108 206.328 697.37 209.874 703.307C213.168 708.821 216.85 714.213 220.49 719.504C228.344 730.923 237.784 742.46 247.28 752.575C244.791 752.464 242.292 752.303 239.801 752.282C247.355 760.016 254.14 768.389 262.059 775.804C304.473 815.521 356.721 843.997 411.916 861.558C422.296 864.86 433.033 867.811 443.723 869.922C448.428 870.851 456.429 871.063 460.467 872.574C456.481 875.344 437.053 887.257 433.144 887.339C420.402 884.104 407.8 881.211 395.269 877.157C338.024 858.637 285.381 826.844 242.683 784.457C231.496 773.352 219.89 762.344 211.295 749.035L213.948 749.212C214.348 739.97 212.164 731.876 215.281 722.71C204.914 707.887 195.665 691.95 187.072 676.056Z"/>
	<path fill="#C22519" d="M215.281 722.71C219.857 726.728 223.513 732.809 227.408 737.585C231.328 742.391 235.711 746.937 239.417 751.898C231.455 750.842 221.318 752.253 213.948 749.212C214.348 739.97 212.164 731.876 215.281 722.71Z"/>
	<path fill="#D65535" d="M616.86 144.232C713.721 171.06 796.846 237.397 846.264 324.724L848.021 327.88C845.722 333.576 843.912 339.38 842.293 345.298C841.618 347.767 841.196 350.538 840.333 352.91L840.893 353.687L836.92 362.102C833.395 355.932 830.181 349.597 826.587 343.46C814.177 322.269 800.417 300.677 784.59 281.852C773.005 268.074 759.56 255.202 745.982 243.416C738.543 236.959 729.424 228.142 720.111 224.795C715.218 225.377 708.963 221.413 704.139 220.152C696.213 220.213 688.36 219.284 680.407 219.5L679.4 219.019C676.226 213.543 672.201 208.315 668.735 202.985C665.627 200.325 661.526 194.948 659.912 191.171C654.566 186.312 650.464 180.409 646.148 174.656C644.586 173.855 643.228 172.588 641.87 171.479C638.463 166.431 633.629 161.519 629.28 157.226C625.489 153.483 619.091 149.015 616.86 144.232Z"/>
	<defs>
		<linearGradient id="gradient_0" gradientUnits="userSpaceOnUse" x1="730.75641" y1="341.89661" x2="755.95239" y2="194.72475">
			<stop offset="0" stop-color="#A00000"/>
			<stop offset="1" stop-color="#CD1812"/>
		</linearGradient>
	</defs>
	<path fill="url(#gradient_0)" d="M646.148 174.656C666.854 181.135 694.447 197.076 712.499 209.493C717.988 213.269 723.634 216.803 729.002 220.752C769.779 250.746 797.648 282.55 824.291 325.439C829.889 334.451 834.986 343.751 840.333 352.91L840.893 353.687L836.92 362.102C833.395 355.932 830.181 349.597 826.587 343.46C814.177 322.269 800.417 300.677 784.59 281.852C773.005 268.074 759.56 255.202 745.982 243.416C738.543 236.959 729.424 228.142 720.111 224.795C715.218 225.377 708.963 221.413 704.139 220.152C696.213 220.213 688.36 219.284 680.407 219.5L679.4 219.019C676.226 213.543 672.201 208.315 668.735 202.985C665.627 200.325 661.526 194.948 659.912 191.171C654.566 186.312 650.464 180.409 646.148 174.656Z"/>
	<path fill="#EC3126" d="M659.912 191.171C674.247 193.963 694.509 208.481 706.851 216.524C711.065 219.27 715.529 222.731 720.111 224.795C715.218 225.377 708.963 221.413 704.139 220.152C696.213 220.213 688.36 219.284 680.407 219.5L679.4 219.019C676.226 213.543 672.201 208.315 668.735 202.985C665.627 200.325 661.526 194.948 659.912 191.171Z"/>
	<path fill="#D65535" d="M668.735 202.985C676.114 205.027 698.508 215.178 704.139 220.152C696.213 220.213 688.36 219.284 680.407 219.5L679.4 219.019C676.226 213.543 672.201 208.315 668.735 202.985Z"/>
	<path fill="#68100C" d="M873.822 538.426C882.789 533.16 886.517 523.351 894.979 517.876C894.7 531.339 894.074 544.898 892.39 558.264C881.292 646.363 838.289 730.628 774.321 792.036C702.636 860.85 608.091 897.656 508.665 895.656C490.559 895.292 472.254 893.601 454.335 890.99C447.259 889.96 440.226 888.168 433.144 887.339C437.053 887.257 456.481 875.344 460.467 872.574C461.163 872.307 461.976 872.168 462.724 872.2C467.724 872.413 473.024 873.682 478.043 874.252C488.963 875.492 500.041 876.373 511.027 876.76C519.828 877.07 528.617 876.518 537.406 876.068C586.842 873.538 634.113 861.437 677.854 838.048C745.129 802.074 795.539 750.571 831.156 683.257C842.435 661.941 852.11 639.8 858.808 616.6C863.585 600.051 867.762 583.136 870.426 566.106C871.63 558.409 871.354 545.762 873.544 539.204C873.631 538.942 873.73 538.685 873.822 538.426Z"/>
	<defs>
		<linearGradient id="gradient_1" gradientUnits="userSpaceOnUse" x1="499.89926" y1="436.94901" x2="201.66924" y2="281.83902">
			<stop offset="0" stop-color="#FE8157"/>
			<stop offset="1" stop-color="#FFAE6B"/>
		</linearGradient>
	</defs>
	<path fill="url(#gradient_1)" d="M138.921 591.732C121.935 521.856 129.61 443.98 154.645 376.971C190.004 282.327 266.055 204.399 357.764 162.891C424.276 132.788 497.72 123.39 569.745 133.946C585.539 136.261 601.873 138.566 616.86 144.232C619.091 149.015 625.489 153.483 629.28 157.226C633.629 161.519 638.463 166.431 641.87 171.479C625.402 165.829 608.625 160.202 591.662 156.238C546.104 145.594 497.142 145.231 451.18 153.514C439.674 155.588 428.179 158.56 416.833 161.38C352.88 178.101 290.511 217.301 245.317 265.343C226.484 285.362 210.082 307.723 196.229 331.453C175.972 366.154 161.491 405.308 154.473 444.873C153.08 452.728 152.503 460.541 151.453 468.42C154.236 466.725 156.865 464.114 159.389 462.02C159.392 462.193 159.398 462.365 159.399 462.537C159.463 470.902 157.494 479.424 157.026 487.814C155.726 511.133 156.077 534.637 158.896 557.836C160.556 571.495 163.088 585.021 166.362 598.384C168.145 605.661 174.015 619.431 173.983 626.095C175.184 634.561 184.75 654.57 188.961 662.731C186.075 662.13 183.264 661.833 180.328 661.604C181.279 663.877 182.537 666.281 183.13 668.665C175.227 666.857 168.161 661.654 160.124 660.431C158.708 657.783 157.839 654.93 156.875 652.095C148.577 632.819 143.55 612.139 138.921 591.732Z"/>
	<path fill="#D65535" d="M159.389 462.02C159.392 462.193 159.398 462.365 159.399 462.537C159.463 470.902 157.494 479.424 157.026 487.814C155.726 511.133 156.077 534.637 158.896 557.836C160.556 571.495 163.088 585.021 166.362 598.384C168.145 605.661 174.015 619.431 173.983 626.095C175.184 634.561 184.75 654.57 188.961 662.731C186.075 662.13 183.264 661.833 180.328 661.604C181.279 663.877 182.537 666.281 183.13 668.665C175.227 666.857 168.161 661.654 160.124 660.431C158.708 657.783 157.839 654.93 156.875 652.095C148.577 632.819 143.55 612.139 138.921 591.732C147.446 599.13 154.804 608.233 162.904 616.154C160.306 603.416 156.515 590.968 154.117 578.15C147.264 541.529 147.486 505.314 151.453 468.42C154.236 466.725 156.865 464.114 159.389 462.02Z"/>
	<path fill="#C22519" d="M164.036 618.646C167.256 621.174 170.468 623.998 173.983 626.095C175.184 634.561 184.75 654.57 188.961 662.731C186.075 662.13 183.264 661.833 180.328 661.604C181.279 663.877 182.537 666.281 183.13 668.665C175.227 666.857 168.161 661.654 160.124 660.431C158.708 657.783 157.839 654.93 156.875 652.095C164.583 655.774 171.93 659.114 180.192 661.427C173.675 647.762 168.533 633.091 164.036 618.646Z"/>
	<defs>
		<linearGradient id="gradient_2" gradientUnits="userSpaceOnUse" x1="738.15924" y1="796.90161" x2="519.36432" y2="527.57861">
			<stop offset="0" stop-color="#5D0402"/>
			<stop offset="1" stop-color="#961210"/>
		</linearGradient>
	</defs>
	<path fill="url(#gradient_2)" d="M840.893 353.687C845.077 359.302 848.065 369.275 850.736 376.012C871.082 427.323 877.792 483.515 873.822 538.426C873.73 538.685 873.631 538.942 873.544 539.204C871.354 545.762 871.63 558.409 870.426 566.106C867.762 583.136 863.585 600.051 858.808 616.6C852.11 639.8 842.435 661.941 831.156 683.257C795.539 750.571 745.129 802.074 677.854 838.048C634.113 861.437 586.842 873.538 537.406 876.068C528.617 876.518 519.828 877.07 511.027 876.76C500.041 876.373 488.963 875.492 478.043 874.252C473.024 873.682 467.724 872.413 462.724 872.2C461.976 872.168 461.163 872.307 460.467 872.574C456.429 871.063 448.428 870.851 443.723 869.922C433.033 867.811 422.296 864.86 411.916 861.558C356.721 843.997 304.473 815.521 262.059 775.804C254.14 768.389 247.355 760.016 239.801 752.282C242.292 752.303 244.791 752.464 247.28 752.575C248.698 753.326 250.203 754.337 251.786 754.576C254.501 759.63 259.589 763.871 263.66 767.857C281.096 784.927 333.22 828.595 356.617 835.029C366.487 837.744 416.302 823.342 428.776 819.596C433.341 818.225 437.764 816.22 442.354 815.014C449.46 813.147 456.819 812.067 463.978 810.355C476.366 807.393 488.784 803.569 500.854 799.493C525.084 791.31 549.96 782.227 572.898 770.816C583.452 780.359 592.844 790.678 602.849 800.743C628.15 793.802 653.721 787.406 677.596 776.337C680.446 775.015 684.285 773.726 686.785 771.843C688.704 770.914 690.569 770.416 692.627 769.906C692.788 769.646 692.838 769.115 692.903 768.81C689.546 765.249 686.938 760.644 684.933 756.201C680.216 745.748 680.602 733.811 684.701 723.195C688.748 712.71 697.072 704.037 707.401 699.587C716.096 695.84 730.168 694.744 739.032 698.272L740.962 699.369C744.805 696.462 747.756 691.59 750.802 687.857C753.431 684.636 756.27 681.564 758.995 678.422C781.907 651.999 791.046 629.663 792.865 594.846C793.508 582.548 793.463 570.153 795.718 558.002C799.917 535.379 812.602 515.432 817.068 491.957C818.955 482.041 819.56 471.718 818.66 461.655C818.178 456.271 817.013 450.803 817.168 445.392C817.627 429.389 823.787 412.269 827.764 396.864C828.029 394.761 828.586 392.662 829.039 390.59C830.577 380.706 836.473 372.246 836.92 362.102L840.893 353.687Z"/>
	<path fill="#68100C" d="M829.039 390.59C830.407 389.906 832.003 388.92 833.584 389.431C834.758 389.811 835.594 390.578 836.038 391.738C836.596 393.201 836.183 395.146 835.249 396.366C834.348 397.542 832.958 398.137 831.494 398.144C830.166 398.15 828.884 397.515 827.764 396.864C828.029 394.761 828.586 392.662 829.039 390.59Z"/>
	<path fill="#68100C" d="M783.902 688.557C786.088 688.453 787.948 688.454 789.833 689.717C791.167 690.611 791.799 691.836 792.002 693.403C792.349 696.083 790.555 698.499 788.943 700.41C788.787 700.418 788.631 700.428 788.475 700.434C786.124 700.526 784.338 700.104 782.637 698.357C781.329 697.014 780.756 695.252 780.934 693.398C781.149 691.164 782.267 689.966 783.902 688.557Z"/>
	<path fill="#68100C" d="M836.954 433.943C837.914 433.918 838.879 433.881 839.835 433.997C842.296 434.297 844.78 435.658 846.237 437.684C847.439 439.355 847.847 441.297 847.496 443.319C846.929 446.583 844.734 448.272 842.128 450.006C841.966 450.01 841.805 450.017 841.644 450.017C838.889 450.016 836.039 449.355 834.095 447.266C832.654 445.717 832.1 443.808 832.212 441.717C832.403 438.146 834.407 436.185 836.954 433.943Z"/>
	<path fill="#68100C" d="M820.337 614.608C824.227 614.475 827.972 615.177 831.325 617.218C835.503 619.762 838.361 624.058 839.375 628.817C840.358 633.431 839.516 638.391 836.851 642.311C833.781 646.827 829.291 648.738 824.124 649.852C819.937 649.913 815.897 649.254 812.262 647.063C808.535 644.817 805.894 641.167 804.861 636.946C803.731 632.329 804.556 627.223 807.06 623.19C810.181 618.164 814.808 615.955 820.337 614.608Z"/>
	<path fill="#68100C" d="M692.627 769.906C692.788 769.646 692.838 769.115 692.903 768.81C689.546 765.249 686.938 760.644 684.933 756.201C680.216 745.748 680.602 733.811 684.701 723.195C688.748 712.71 697.072 704.037 707.401 699.587C716.096 695.84 730.168 694.744 739.032 698.272L740.962 699.369C753.633 709.407 763.274 716.563 765.211 733.762C766.335 743.741 763.413 753.854 757.096 761.667C749.624 770.909 738.227 777.59 726.341 778.697C719.483 779.336 711.715 778.855 705.409 775.858C701.499 774 696.975 770.108 692.627 769.906Z"/>
	<path fill="#F57B41" d="M416.833 161.38C428.179 158.56 439.674 155.588 451.18 153.514C497.142 145.231 546.104 145.594 591.662 156.238C608.625 160.202 625.402 165.829 641.87 171.479C643.228 172.588 644.586 173.855 646.148 174.656C650.464 180.409 654.566 186.312 659.912 191.171C661.526 194.948 665.627 200.325 668.735 202.985C672.201 208.315 676.226 213.543 679.4 219.019L680.407 219.5C687.656 232.43 701.803 252.814 706.004 266.062C707.286 270.295 709.606 279.817 712.661 282.718C713.476 284.773 714.269 286.832 715.029 288.908C710.398 292.781 707.012 324.657 700.18 334.037L699.977 334.393C696.475 340.623 693.936 347.358 690.365 353.591C677.802 375.52 660.485 395.457 637.258 406.429C629.808 409.948 621.441 412.548 613.517 414.792C600.904 418.364 587.82 420.431 574.879 422.396C547.619 426.534 511.409 429.956 496.274 456.68C484.067 478.234 489.66 521.151 460.497 528.94C456.001 530.141 451.39 530.11 446.771 530.049C417.837 529.664 391.174 514.823 362.183 527.403C355.763 530.189 349.712 534.283 346.114 540.442C329.151 569.481 383.232 607.291 308.795 635.099C294.757 640.935 280.717 646.613 265.83 649.922C240.79 655.487 214.369 653.105 192.12 639.463C185.934 635.67 180.85 630.337 174.771 626.573L173.983 626.095C174.015 619.431 168.145 605.661 166.362 598.384C163.088 585.021 160.556 571.495 158.896 557.836C156.077 534.637 155.726 511.133 157.026 487.814C157.494 479.424 159.463 470.902 159.399 462.537C159.398 462.365 159.392 462.193 159.389 462.02C156.865 464.114 154.236 466.725 151.453 468.42C152.503 460.541 153.08 452.728 154.473 444.873C161.491 405.308 175.972 366.154 196.229 331.453C210.082 307.723 226.484 285.362 245.317 265.343C290.511 217.301 352.88 178.101 416.833 161.38Z"/>
	<path fill="#FFC882" d="M213.79 560.624C215.359 560.998 216.422 561.188 217.584 562.408C218.201 563.968 217.923 565.104 217.645 566.691C216.155 566.236 215.01 565.941 213.861 564.815C213.2 563.277 213.493 562.196 213.79 560.624Z"/>
	<path fill="#FE9846" d="M181.274 494.755C182.974 495.392 184.372 495.802 185.587 497.197C186.198 498.749 185.831 499.861 185.473 501.412C185.232 501.377 184.989 501.351 184.748 501.308C183.103 501.012 181.829 500.673 180.805 499.276C180.346 497.538 180.748 496.44 181.274 494.755Z"/>
	<path fill="#FFC882" d="M172.232 536.498C173.297 536.715 174.54 536.866 175.534 537.304C176.865 537.89 177.212 538.722 177.711 539.992C177.561 541.951 176.833 543.043 175.782 544.672C174.36 544.591 172.663 544.57 171.482 543.664C170.832 543.166 170.294 542.522 170.148 541.713C169.757 539.548 171.03 538.14 172.232 536.498Z"/>
	<path fill="#FFC882" d="M241.291 556.499C242.576 556.752 244.216 556.99 245.233 557.887C245.843 558.424 246.268 559.113 246.289 559.923C246.348 562.261 244.498 563.914 243.036 565.514C241.658 565.127 240.106 564.702 239.064 563.662C238.285 562.884 237.749 561.729 237.928 560.624C238.265 558.554 239.685 557.604 241.291 556.499Z"/>
	<path fill="#FFC882" d="M196.223 518.927C197.911 519.141 199.698 519.49 200.874 520.85C201.735 521.846 201.905 522.94 201.754 524.207C201.498 526.363 199.902 527.662 198.261 528.842C196.364 528.723 194.622 528.623 193.294 527.049C192.406 525.997 192.248 524.746 192.531 523.442C193.013 521.225 194.445 520.16 196.223 518.927Z"/>
	<path fill="#FFC882" d="M194.999 549.048C196.94 549.24 198.705 549.401 200.166 550.835C201.304 551.953 201.691 553.095 201.604 554.668C201.487 556.794 199.962 558.282 198.514 559.648C196.382 559.604 194.664 559.55 193.023 557.979C192.202 557.194 191.781 556.328 191.746 555.193C191.663 552.528 193.268 550.855 194.999 549.048Z"/>
	<path fill="#F3533B" d="M654.143 341.073C654.439 341.035 654.732 340.941 655.029 340.959C656.145 341.026 657.863 341.754 658.615 342.559C659.503 343.509 659.807 344.824 659.789 346.087C659.743 349.345 658.572 350.723 656.257 352.869C654.435 353.055 653.188 352.998 651.475 352.242C650.712 351.273 650.257 350.63 650.36 349.332C650.556 346.864 651.814 344.523 653.534 342.823C654.106 342.258 654.011 341.848 654.143 341.073Z"/>
	<path fill="#FFC882" d="M252.676 521.008L253.366 521.487L253.25 522.116C252.379 526.612 250.25 530.06 246.326 532.548C242.609 534.905 238.018 535.72 233.72 534.755C229.262 533.755 225.872 530.895 223.453 527.089C221.099 523.387 220.275 519.119 221.433 514.858C222.595 510.578 225.616 506.823 229.464 504.647C232.903 502.703 237.378 501.95 241.183 503.206C243.25 503.888 246.623 506.036 247.664 507.949C243.47 505.76 239.879 504.429 235.092 505.825C230.996 507.02 227.306 510.095 225.325 513.863C223.461 517.408 223.327 521.348 224.622 525.113C224.972 526.128 225.477 527.003 226.02 527.924C228.182 529.939 230.517 531.808 233.357 532.748C237.246 534.035 241.415 533.832 245.067 531.922C249.566 529.569 251.346 525.635 252.676 521.008Z"/>
	<path fill="#D65535" d="M247.568 508.425C251.2 511.664 252.175 514.973 252.561 519.716L252.676 521.008C251.346 525.635 249.566 529.569 245.067 531.922C241.415 533.832 237.246 534.035 233.357 532.748C230.517 531.808 228.182 529.939 226.02 527.924C229.585 526.737 233.422 525.85 236.823 524.24C243.876 520.901 245.065 515.027 247.568 508.425Z"/>
	<path fill="#FE9846" d="M166.581 427.109C173.81 393.533 188.165 361.731 204.663 331.793C207.898 325.924 211.476 317.499 216.875 313.435C216.839 313.602 216.805 313.768 216.767 313.934C215.216 320.585 211.705 326.719 209.748 333.27C204.113 352.133 202.517 370.56 202.44 390.169C201.732 387.539 201.83 384.311 201.663 381.572C197.525 386.321 192.844 390.571 188.649 395.27C180.16 404.779 172.739 415.965 166.581 427.109Z"/>
	<path fill="#F3533B" d="M679.4 219.019L680.407 219.5C687.656 232.43 701.803 252.814 706.004 266.062C707.286 270.295 709.606 279.817 712.661 282.718C713.476 284.773 714.269 286.832 715.029 288.908C710.398 292.781 707.012 324.657 700.18 334.037C700.627 332.622 701.306 331.044 700.83 329.572C699.706 326.088 695.509 317.322 692.149 315.942C691.668 315.745 690.317 315.287 689.98 314.965C687.071 312.193 690.498 302.144 687.366 297.977C685.612 297.305 684.952 297.858 683.205 298.432C682.047 289.324 677.41 276.156 671.583 268.955C669.232 266.049 666.088 263.538 663.214 261.159L662.502 261.311C662.463 263.186 662.664 265.021 662.846 266.885C655.878 259.998 658.152 255.112 653.592 248.132C651.377 245.693 649.252 243.333 648.123 240.165C646.95 236.878 647.083 233.481 648.731 230.384C650.658 226.765 654.516 224.329 658.325 223.108C665.274 220.947 672.212 219.952 679.4 219.019Z"/>
	<path fill="#EC3126" d="M679.4 219.019L680.407 219.5C687.656 232.43 701.803 252.814 706.004 266.062C699.7 263.147 691.741 262.431 684.981 260.653C673.834 257.722 663.843 253.317 653.592 248.132C651.377 245.693 649.252 243.333 648.123 240.165C646.95 236.878 647.083 233.481 648.731 230.384C650.658 226.765 654.516 224.329 658.325 223.108C665.274 220.947 672.212 219.952 679.4 219.019Z"/>
	<path fill="#F3533B" d="M416.833 161.38C428.179 158.56 439.674 155.588 451.18 153.514C497.142 145.231 546.104 145.594 591.662 156.238C608.625 160.202 625.402 165.829 641.87 171.479C643.228 172.588 644.586 173.855 646.148 174.656C650.464 180.409 654.566 186.312 659.912 191.171C661.526 194.948 665.627 200.325 668.735 202.985C672.201 208.315 676.226 213.543 679.4 219.019C672.212 219.952 665.274 220.947 658.325 223.108C656.921 214.564 651.373 205.372 645.505 199.151C644.611 199.272 644.059 199.303 643.145 199.192C642.307 197.764 643.112 195.807 642.862 194.148C639.885 190.95 608.587 183.464 601.978 181.725L604.021 181.112C616.841 185.157 630.146 187.935 643.022 191.766C650.682 194.046 658.13 197.132 665.499 200.205C661.367 195.734 658.59 191.643 652.839 188.947C642.489 184.095 630.748 182.317 619.82 179.083C563.394 162.385 524.569 154.904 465.544 161.706C457.437 162.64 449.761 164.27 441.775 165.753C435.643 166.891 429.23 167.695 423.353 169.835L417.696 171.329C417.332 168.024 417.11 164.694 416.833 161.38Z"/>
	<defs>
		<linearGradient id="gradient_3" gradientUnits="userSpaceOnUse" x1="415.26114" y1="328.22757" x2="218.52435" y2="288.48145">
			<stop offset="0" stop-color="#FFA957"/>
			<stop offset="1" stop-color="#FFC76E"/>
		</linearGradient>
	</defs>
	<path fill="url(#gradient_3)" d="M423.353 169.835L422.018 171.799C423.217 173.829 431.89 175.722 434.549 176.805C439.211 178.705 443.421 181.231 447.285 184.465L447.003 185.083C445.239 186.736 416.819 195.399 411.911 197.295L411.451 197.463C395.777 204.481 379.923 212.16 365.222 221.053C315.224 251.299 266.208 297.878 236.179 348.222C231.819 355.532 227.558 363.003 224.058 370.768C220.986 377.587 218.429 384.704 215.202 391.437C220.476 399.875 225.185 406.728 235.575 409.084C247.502 411.788 264.941 408.454 275.203 401.956C276.608 401.067 278.356 400.154 279.262 398.744L279.599 399.005C281.691 407.564 288.316 418.628 294.533 424.868C288.625 425.275 281.9 425.347 276.356 427.691C263.959 432.93 250.373 455.39 235.536 451.021C228.655 448.995 224.277 442.821 218.07 439.617C208.444 423.842 203.632 408.673 202.44 390.169C202.517 370.56 204.113 352.133 209.748 333.27C211.705 326.719 215.216 320.585 216.767 313.934C216.805 313.768 216.839 313.602 216.875 313.435C259.58 242.75 339.3 192.686 417.696 171.329L423.353 169.835Z"/>
	<path fill="#FFC882" d="M397.345 188.033C414.079 183.737 429.899 182.341 447.003 185.083C445.239 186.736 416.819 195.399 411.911 197.295L411.451 197.463C408.796 192.577 402.321 190.876 397.767 188.278L397.345 188.033Z"/>
	<path fill="#FEF1B9" d="M215.202 391.437C213.702 388.695 212.504 386.007 211.727 382.972C206.508 362.589 221.175 334.637 231.623 317.29C241.651 300.639 253.077 284.671 266.154 270.264C299.698 233.306 348.583 200.134 397.345 188.033L397.767 188.278C402.321 190.876 408.796 192.577 411.451 197.463C395.777 204.481 379.923 212.16 365.222 221.053C315.224 251.299 266.208 297.878 236.179 348.222C231.819 355.532 227.558 363.003 224.058 370.768C220.986 377.587 218.429 384.704 215.202 391.437Z"/>
	<defs>
		<linearGradient id="gradient_4" gradientUnits="userSpaceOnUse" x1="432.7677" y1="292.48059" x2="207.93929" y2="316.95642">
			<stop offset="0" stop-color="#FFB45E"/>
			<stop offset="1" stop-color="#FFD780"/>
		</linearGradient>
	</defs>
	<path fill="url(#gradient_4)" d="M411.451 197.463L411.911 197.295C411.952 197.465 411.979 197.638 412.032 197.805C413.15 201.348 416.286 205.287 418.153 208.576C420.377 212.494 422.247 216.657 423.893 220.846C434.108 246.844 426.056 277.999 414.796 302.282C410.096 312.418 404.405 322.43 398.146 331.676C393.102 325.436 387.733 319.626 381.017 315.165C377.498 312.375 373.6 310.634 369.526 308.825C355.26 343.503 330.037 367.213 299.314 387.366C294.348 390.623 286.512 396.691 281.275 398.643C280.703 398.856 280.2 398.991 279.599 399.005L279.262 398.744C278.356 400.154 276.608 401.067 275.203 401.956C264.941 408.454 247.502 411.788 235.575 409.084C225.185 406.728 220.476 399.875 215.202 391.437C218.429 384.704 220.986 377.587 224.058 370.768C227.558 363.003 231.819 355.532 236.179 348.222C266.208 297.878 315.224 251.299 365.222 221.053C379.923 212.16 395.777 204.481 411.451 197.463Z"/>
	<path fill="#FFC882" d="M280.386 319.344C280.896 319.41 281.407 319.466 281.913 319.556C283.43 319.827 284.153 320.198 285.043 321.453C285.083 323.076 284.281 323.947 283.378 325.195C282.85 325.16 282.018 325.168 281.497 324.99C280.14 324.524 279.896 324.178 279.176 323.033C279.107 321.433 279.598 320.657 280.386 319.344Z"/>
	<path fill="#FFC882" d="M261.322 369.253C261.975 369.366 262.861 369.461 263.49 369.72C264.751 370.239 265.308 370.762 265.879 371.97C266.05 373.713 265.575 374.598 264.805 376.087C264.659 376.069 264.51 376.062 264.365 376.033C262.802 375.712 261.668 375.014 260.812 373.663C260.383 371.869 260.686 370.958 261.322 369.253Z"/>
	<path fill="#FFC882" d="M268.43 358.275C269.913 358.367 271.471 358.774 272.469 359.973C273.145 360.785 273.332 361.776 273.206 362.802C272.893 365.352 271.551 366.532 269.571 367.986C268.001 367.604 265.865 366.849 264.931 365.432C264.456 364.71 264.262 363.932 264.407 363.094C264.825 360.681 266.584 359.621 268.43 358.275Z"/>
	<path fill="#FFC882" d="M371.971 243.514C373.949 243.449 376.691 243.36 378.134 245.006C378.985 245.976 379.243 247.153 379.034 248.401C378.544 251.323 376.048 252.986 373.736 254.425C373.404 254.451 373.073 254.482 372.741 254.502C370.991 254.609 369.207 254.272 367.976 252.891C367.113 251.922 367.005 250.769 367.16 249.536C367.533 246.569 369.648 245.027 371.971 243.514Z"/>
	<path fill="#FFC882" d="M317.751 312.045C315.483 311.606 313.286 311.123 311.602 309.418C310.711 308.516 310.124 307.266 310.248 305.973C310.431 304.054 311.986 302.348 313.462 301.257C315.107 300.041 318.174 298.599 320.256 299.289C321.458 299.687 322.048 300.419 322.482 301.564C323.651 304.649 321.215 308.678 319.912 311.347L317.751 312.045Z"/>
	<path fill="#FFC882" d="M344.447 255.953C346.373 256.325 348.756 257.218 349.937 258.88C350.719 259.982 350.85 261.37 350.549 262.654C349.678 266.381 346.844 268.593 343.817 270.592C342.799 270.579 341.865 270.584 340.888 270.258C339.329 269.736 337.872 268.858 337.236 267.254C336.572 265.579 336.97 263.707 337.602 262.095C338.976 258.587 341.096 257.359 344.447 255.953Z"/>
	<path fill="#F57B41" d="M319.912 311.347C336.856 305.315 352.126 303.84 369.526 308.825C355.26 343.503 330.037 367.213 299.314 387.366C294.348 390.623 286.512 396.691 281.275 398.643C280.703 398.856 280.2 398.991 279.599 399.005L279.262 398.744C276.029 387.97 274.909 377.609 276.894 366.467C281.541 340.383 297.053 326.407 317.751 312.045L319.912 311.347Z"/>
	<path fill="#FE9846" d="M447.285 184.465L448.95 184.662L449.243 185.117L448.462 184.961C453.212 192.485 468.686 198.848 477.107 200.747C497.002 205.233 518.579 199.867 538.625 198.763C563.684 197.382 606.481 201.456 621.297 224.377C628.07 234.855 628.619 245.246 626.224 257.133L624.719 263.055C623.776 262.695 623.476 262.407 622.761 261.728C620.278 262.221 618.544 264.328 617.172 266.328C614.832 269.741 613.903 273.494 613.087 277.47C613.174 277.697 613.263 277.923 613.348 278.152C613.728 279.173 614.017 279.934 613.989 281.028C613.747 281.154 613.503 281.278 613.263 281.407C608.586 283.923 604.942 288.347 600.165 290.807C584.827 298.708 568.47 302.924 554.834 314.016C538.688 327.151 530.171 345.846 519.319 363.045C512.508 373.841 504.81 383.635 495.237 392.146C476.762 408.573 453.516 409.801 433.082 421.945C417.067 431.462 405.101 446.312 390.812 458.023C360.271 483.052 313.149 495.748 274.864 484.867C253.952 478.923 231.618 465.213 220.708 445.805C219.614 443.859 218.673 441.767 218.07 439.617C224.277 442.821 228.655 448.995 235.536 451.021C250.373 455.39 263.959 432.93 276.356 427.691C281.9 425.347 288.625 425.275 294.533 424.868C288.316 418.628 281.691 407.564 279.599 399.005C280.2 398.991 280.703 398.856 281.275 398.643C286.512 396.691 294.348 390.623 299.314 387.366C330.037 367.213 355.26 343.503 369.526 308.825C373.6 310.634 377.498 312.375 381.017 315.165C387.733 319.626 393.102 325.436 398.146 331.676C404.405 322.43 410.096 312.418 414.796 302.282C426.056 277.999 434.108 246.844 423.893 220.846C422.247 216.657 420.377 212.494 418.153 208.576C416.286 205.287 413.15 201.348 412.032 197.805C411.979 197.638 411.952 197.465 411.911 197.295C416.819 195.399 445.239 186.736 447.003 185.083L447.285 184.465Z"/>
	<path fill="#C22519" d="M545.246 210.533C546.881 212.604 548.404 214.699 547.983 217.487C547.66 219.629 546.241 221.216 544.552 222.455C544.281 221.569 544.231 221.811 544.347 221.073C544.897 217.569 545.032 214.072 545.246 210.533Z"/>
	<path fill="#C22519" d="M479.783 280.618C482.015 282.632 483.865 284.7 483.951 287.864C484.013 290.148 482.917 292.424 481.21 293.929C480.324 294.709 479.246 295.286 478.213 295.843C478.605 294.137 480.018 292.445 480.968 290.965C481.093 287.305 480.58 284.168 479.783 280.618Z"/>
	<path fill="#FFC882" d="M528.981 216.601C530.104 214.013 531.199 211.17 533.409 209.299C535.262 207.731 537.231 207.482 539.565 207.658C536.873 209.777 533.654 212.47 533.438 216.199C533.325 218.16 533.947 219.755 535.252 221.199C536.485 222.561 538.048 223.247 539.714 223.93C537.588 224.934 535.431 223.799 533.359 223.072C531.544 221.038 530.3 218.968 528.981 216.601Z"/>
	<path fill="#FFC882" d="M474.179 297.148C472.093 297.607 469.966 297.875 467.907 297.132C465.71 296.34 464.062 294.633 463.143 292.509C461.973 289.808 462.158 286.594 463.314 283.922C464.493 281.198 466.755 279.018 469.518 277.935C471.31 277.234 473.25 277.194 475.032 277.918L475.165 278.506C471.524 280.122 468.445 282.204 467.081 286.143C466.326 288.325 466.488 290.559 467.623 292.571C469.097 295.183 471.486 296.181 474.179 297.148Z"/>
	<path fill="#F3533B" d="M539.565 207.658C541.718 208.435 543.425 209.081 545.246 210.533C545.032 214.072 544.897 217.569 544.347 221.073C544.231 221.811 544.281 221.569 544.552 222.455C542.945 223.104 541.408 223.563 539.714 223.93C538.048 223.247 536.485 222.561 535.252 221.199C533.947 219.755 533.325 218.16 533.438 216.199C533.654 212.47 536.873 209.777 539.565 207.658Z"/>
	<path fill="#F57B41" d="M475.165 278.506C476.581 279.058 478.695 279.571 479.783 280.618C480.58 284.168 481.093 287.305 480.968 290.965C480.018 292.445 478.605 294.137 478.213 295.843C476.841 296.445 475.644 296.828 474.179 297.148C471.486 296.181 469.097 295.183 467.623 292.571C466.488 290.559 466.326 288.325 467.081 286.143C468.445 282.204 471.524 280.122 475.165 278.506Z"/>
	<path fill="#D65535" d="M594.381 222.105C599.205 221.867 604.218 222.201 608.552 224.499C614.179 227.484 618.26 232.974 619.866 239.097C621.469 245.206 620.772 252.339 617.525 257.812C614.306 263.24 609.384 266.168 603.39 267.595C597.401 268.464 592.015 268.355 586.719 264.986C581.68 261.781 578.276 256.545 577.103 250.718C575.754 244.019 577.249 236.681 581.123 231.049C584.291 226.443 588.86 223.111 594.381 222.105Z"/>
	<path fill="#C22519" d="M399.912 353.145C401.72 350.372 403.432 347.465 405.643 344.991C413.02 363.723 414.345 384.289 406.114 403.033C398.663 420.002 384.234 433.577 366.96 440.225C349.864 446.804 330.218 446.121 313.529 438.627C306.923 435.661 301.603 431.604 296.431 426.591L296.967 425.711C308.856 430.878 317.153 433.303 330.45 433.066C348.834 432.739 367.372 424.928 380.048 411.536C396.021 394.66 400.496 375.711 399.912 353.145Z"/>
	<path fill="#D65535" d="M381.017 315.165C387.733 319.626 393.102 325.436 398.146 331.676C400.819 336.017 403.632 340.293 405.643 344.991C403.432 347.465 401.72 350.372 399.912 353.145C400.496 375.711 396.021 394.66 380.048 411.536C367.372 424.928 348.834 432.739 330.45 433.066C317.153 433.303 308.856 430.878 296.967 425.711C298.326 425.153 299.816 425.047 301.255 424.789C333.616 418.983 357.514 398.179 379.852 375.449C386.562 368.621 394.077 361.235 399.534 353.412C397.329 343.168 393.216 332.507 386.986 324.015C385.299 321.716 383 319.808 381.43 317.474C380.742 316.451 380.803 316.315 381.017 315.165Z"/>
	<path fill="#F3533B" d="M369.526 308.825C373.6 310.634 377.498 312.375 381.017 315.165C380.803 316.315 380.742 316.451 381.43 317.474C383 319.808 385.299 321.716 386.986 324.015C393.216 332.507 397.329 343.168 399.534 353.412C394.077 361.235 386.562 368.621 379.852 375.449C357.514 398.179 333.616 418.983 301.255 424.789C299.816 425.047 298.326 425.153 296.967 425.711L296.431 426.591L294.533 424.868C288.316 418.628 281.691 407.564 279.599 399.005C280.2 398.991 280.703 398.856 281.275 398.643C286.512 396.691 294.348 390.623 299.314 387.366C330.037 367.213 355.26 343.503 369.526 308.825Z"/>
	<defs>
		<linearGradient id="gradient_5" gradientUnits="userSpaceOnUse" x1="721.78522" y1="736.70282" x2="445.25931" y2="440.68472">
			<stop offset="0" stop-color="#6B0F10"/>
			<stop offset="1" stop-color="#D12419"/>
		</linearGradient>
	</defs>
	<path fill="url(#gradient_5)" d="M680.407 219.5C688.36 219.284 696.213 220.213 704.139 220.152C708.963 221.413 715.218 225.377 720.111 224.795C729.424 228.142 738.543 236.959 745.982 243.416C759.56 255.202 773.005 268.074 784.59 281.852C800.417 300.677 814.177 322.269 826.587 343.46C830.181 349.597 833.395 355.932 836.92 362.102C836.473 372.246 830.577 380.706 829.039 390.59C828.586 392.662 828.029 394.761 827.764 396.864C823.787 412.269 817.627 429.389 817.168 445.392C817.013 450.803 818.178 456.271 818.66 461.655C819.56 471.718 818.955 482.041 817.068 491.957C812.602 515.432 799.917 535.379 795.718 558.002C793.463 570.153 793.508 582.548 792.865 594.846C791.046 629.663 781.907 651.999 758.995 678.422C756.27 681.564 753.431 684.636 750.802 687.857C747.756 691.59 744.805 696.462 740.962 699.369L739.032 698.272C730.168 694.744 716.096 695.84 707.401 699.587C697.072 704.037 688.748 712.71 684.701 723.195C680.602 733.811 680.216 745.748 684.933 756.201C686.938 760.644 689.546 765.249 692.903 768.81C692.838 769.115 692.788 769.646 692.627 769.906C690.569 770.416 688.704 770.914 686.785 771.843C684.285 773.726 680.446 775.015 677.596 776.337C653.721 787.406 628.15 793.802 602.849 800.743C592.844 790.678 583.452 780.359 572.898 770.816C549.96 782.227 525.084 791.31 500.854 799.493C488.784 803.569 476.366 807.393 463.978 810.355C456.819 812.067 449.46 813.147 442.354 815.014C437.764 816.22 433.341 818.225 428.776 819.596C416.302 823.342 366.487 837.744 356.617 835.029C333.22 828.595 281.096 784.927 263.66 767.857C259.589 763.871 254.501 759.63 251.786 754.576C250.203 754.337 248.698 753.326 247.28 752.575C237.784 742.46 228.344 730.923 220.49 719.504C216.85 714.213 213.168 708.821 209.874 703.307C206.328 697.37 198.137 678.108 192.541 675.957C190.694 675.247 188.848 675.211 187.072 676.056C185.545 673.748 184.504 671.377 183.421 668.843L183.13 668.665C182.537 666.281 181.279 663.877 180.328 661.604C183.264 661.833 186.075 662.13 188.961 662.731C184.75 654.57 175.184 634.561 173.983 626.095L174.771 626.573C180.85 630.337 185.934 635.67 192.12 639.463C214.369 653.105 240.79 655.487 265.83 649.922C280.717 646.613 294.757 640.935 308.795 635.099C383.232 607.291 329.151 569.481 346.114 540.442C349.712 534.283 355.763 530.189 362.183 527.403C391.174 514.823 417.837 529.664 446.771 530.049C451.39 530.11 456.001 530.141 460.497 528.94C489.66 521.151 484.067 478.234 496.274 456.68C511.409 429.956 547.619 426.534 574.879 422.396C587.82 420.431 600.904 418.364 613.517 414.792C621.441 412.548 629.808 409.948 637.258 406.429C660.485 395.457 677.802 375.52 690.365 353.591C693.936 347.358 696.475 340.623 699.977 334.393L700.18 334.037C707.012 324.657 710.398 292.781 715.029 288.908C714.269 286.832 713.476 284.773 712.661 282.718C709.606 279.817 707.286 270.295 706.004 266.062C701.803 252.814 687.656 232.43 680.407 219.5Z"/>
	<path fill="#68100C" d="M632.448 750.051C633.521 750.299 634.541 750.541 635.523 751.056C637.319 751.997 638.667 753.587 639.227 755.546C639.931 758.006 639.353 760.667 637.968 762.78C636.397 765.179 634.428 766.096 631.713 766.723C630.564 766.49 629.48 766.251 628.411 765.755C626.589 764.911 625.126 763.414 624.504 761.482C623.803 759.304 624.235 757.121 625.322 755.153C626.928 752.242 629.383 750.98 632.448 750.051Z"/>
	<path fill="#961A13" d="M686.785 771.843C682.823 769.782 679.901 766.254 677.765 762.391C671.492 751.043 670.831 736.772 674.375 724.457C678.15 711.342 686.477 700.539 698.461 693.963C709.902 687.685 722.599 685.751 735.193 689.522C737.742 690.285 742.953 692.068 744.208 694.377L743.839 695.559C742.526 696.741 741.293 697.317 739.668 698.006L739.032 698.272C730.168 694.744 716.096 695.84 707.401 699.587C697.072 704.037 688.748 712.71 684.701 723.195C680.602 733.811 680.216 745.748 684.933 756.201C686.938 760.644 689.546 765.249 692.903 768.81C692.838 769.115 692.788 769.646 692.627 769.906C690.569 770.416 688.704 770.914 686.785 771.843Z"/>
	<path fill="#961A13" d="M758.766 586.125C755.191 593.766 749.812 600.471 744.856 607.263C723.901 635.977 700.126 661.622 672.756 684.338C665.55 690.319 658.456 696.406 650.413 701.258C648.581 702.363 641.71 702.327 640.99 703.811C643.524 703.459 645.948 703.048 648.429 702.402C636.958 713.366 620.266 722.388 606.482 730.131C561.087 755.633 511.651 778.361 458.475 777.134C445.252 776.829 432.786 774.878 419.992 771.602C414.619 768.039 407.229 765.982 401.429 762.587C388.356 754.934 377.819 744.175 367.043 733.703C375.11 734.349 383.443 734.129 391.526 733.76L392.313 734.2C401.246 731.811 412.045 731.325 421.36 729.524C454.454 723.127 505.866 710.598 533.647 691.974L536.582 691.025C552.32 691.269 568.765 686.448 583.839 682.196C633.308 668.242 677.844 649.609 719.814 619.608C727.745 613.939 735.356 607.414 742.464 600.744C747.556 595.965 752.604 590.331 758.377 586.383C758.505 586.295 758.636 586.211 758.766 586.125Z"/>
	<defs>
		<linearGradient id="gradient_6" gradientUnits="userSpaceOnUse" x1="541.88678" y1="772.44403" x2="472.63885" y2="666.85742">
			<stop offset="0" stop-color="#A02D2B"/>
			<stop offset="1" stop-color="#BF3D2E"/>
		</linearGradient>
	</defs>
	<path fill="url(#gradient_6)" d="M648.429 702.402C636.958 713.366 620.266 722.388 606.482 730.131C561.087 755.633 511.651 778.361 458.475 777.134C445.252 776.829 432.786 774.878 419.992 771.602C414.619 768.039 407.229 765.982 401.429 762.587C388.356 754.934 377.819 744.175 367.043 733.703C375.11 734.349 383.443 734.129 391.526 733.76L392.313 734.2C395.776 737.043 399.49 739.784 403.346 742.068C426.044 755.521 456.612 753.713 480.643 744.974C494.616 739.892 508.021 732.41 521.099 725.415C528.495 721.459 535.014 715.44 543.404 713.699C551.157 712.09 559.527 713.309 567.413 712.874C590.222 711.618 619.122 709.483 640.99 703.811C643.524 703.459 645.948 703.048 648.429 702.402Z"/>
	<path fill="#961A13" d="M524.229 739.958C526.265 740.104 528.451 740.691 529.822 742.326C530.701 743.375 531.007 744.666 530.858 746.001C530.5 749.209 528.66 750.748 526.264 752.669C525.549 752.65 524.839 752.592 524.136 752.45C522.492 752.119 520.991 751.094 520.135 749.643C519.156 747.984 519.198 746.036 519.796 744.253C520.626 741.778 522.031 741.117 524.229 739.958Z"/>
	<path fill="#C22519" d="M189.558 662.876C230.432 672.675 249.27 673.597 288.571 656.297C297.58 652.332 307.219 648.507 315.61 643.358C316.583 642.761 317.523 642.124 318.45 641.459C330.424 647.946 342.246 654.753 354.556 660.594C396.681 680.581 442.498 692.285 489.176 693.464C504.091 693.841 518.824 691.826 533.647 691.974C505.866 710.598 454.454 723.127 421.36 729.524C412.045 731.325 401.246 731.811 392.313 734.2L391.526 733.76C383.443 734.129 375.11 734.349 367.043 733.703C377.819 744.175 388.356 754.934 401.429 762.587C407.229 765.982 414.619 768.039 419.992 771.602C404.83 773.596 387.734 776.282 372.496 774.054C369.038 782.452 365.402 789.047 356.482 792.622C349.703 795.339 341.744 795.137 335.1 792.091C329.521 789.532 324.924 784.797 322.549 779.133L321.219 775.525C320.778 773.859 320.515 772.136 320.198 770.442L319.811 770.305L319.164 770.087C311.536 767.429 303.113 766.185 295.219 764.428L251.786 754.576C250.203 754.337 248.698 753.326 247.28 752.575C237.784 742.46 228.344 730.923 220.49 719.504C216.85 714.213 213.168 708.821 209.874 703.307C206.328 697.37 198.137 678.108 192.541 675.957C190.694 675.247 188.848 675.211 187.072 676.056C185.545 673.748 184.504 671.377 183.421 668.843L183.13 668.665C182.537 666.281 181.279 663.877 180.328 661.604C183.264 661.833 186.075 662.13 188.961 662.731L189.558 662.876Z"/>
	<path fill="#961A13" d="M180.328 661.604C183.264 661.833 186.075 662.13 188.961 662.731L189.558 662.876C191.068 665.934 192.467 669.016 193.815 672.149C190.368 670.849 187.018 669.653 183.421 668.843L183.13 668.665C182.537 666.281 181.279 663.877 180.328 661.604Z"/>
	<path fill="#D65535" d="M345.629 745.535C350.051 745.782 354.521 747.185 357.585 750.526C360.834 754.068 361.98 758.962 361.723 763.668C361.373 770.086 358.403 776.377 353.603 780.665C349.249 784.554 343.617 786.436 337.804 785.888C331.43 785.287 327.897 781.983 322.549 779.133L321.219 775.525C320.778 773.859 320.515 772.136 320.198 770.442C320.145 769.545 320.11 768.647 320.134 767.749C320.302 761.386 322.495 755.392 327.263 751.02C332.601 746.126 338.727 745.301 345.629 745.535Z"/>
	<path fill="#F57B41" d="M320.198 770.442C320.145 769.545 320.11 768.647 320.134 767.749C320.302 761.386 322.495 755.392 327.263 751.02C332.601 746.126 338.727 745.301 345.629 745.535C345.401 745.674 345.174 745.816 344.945 745.953C342.921 747.157 340.494 747.81 338.339 748.766C331.293 751.893 324.772 756.984 322.877 764.879C322.147 767.922 322.717 772.926 321.219 775.525C320.778 773.859 320.515 772.136 320.198 770.442Z"/>
	<path fill="#D65535" d="M193.857 672.169C219.229 680.186 245.605 688.284 271.788 693.184C285.122 695.678 298.691 697.032 312.193 698.224C329.323 699.735 350.773 698.713 366.294 706.843C377.031 712.467 383.289 725.221 391.526 733.76C383.443 734.129 375.11 734.349 367.043 733.703C356.812 727.82 348.995 719.513 337.342 715.77C318.542 709.732 307.933 719.878 292.452 727.627C286.945 730.384 280.782 731.626 274.822 729.494C263.155 725.321 254.555 712.865 244.854 705.431C236.358 698.92 226.27 693.388 216.766 688.475C210.22 685.091 202.364 682.214 196.856 677.211C195.399 675.888 194.645 673.934 193.857 672.169Z"/>
	<path fill="#C22519" d="M278.183 712.499C279.954 712.469 282.134 712.299 283.618 713.467C284.272 713.982 284.675 714.612 284.803 715.422C285.176 717.778 283.876 719.364 282.601 721.187C280.905 720.873 279.227 720.588 277.746 719.646C276.352 718.759 276.069 717.866 275.75 716.31C276.123 714.509 276.9 713.771 278.183 712.499Z"/>
	<defs>
		<linearGradient id="gradient_7" gradientUnits="userSpaceOnUse" x1="742.43274" y1="600.11176" x2="565.03284" y2="384.0798">
			<stop offset="0" stop-color="#8E2B29"/>
			<stop offset="1" stop-color="#E53525"/>
		</linearGradient>
	</defs>
	<path fill="url(#gradient_7)" d="M706.004 266.062C712.975 268.547 720.277 270.034 727.208 272.664C759.562 284.94 785.166 306.249 800.167 337.808C826.094 392.357 813.437 456.627 793.846 511.005C784.519 536.895 774.05 563.144 758.766 586.125C758.636 586.211 758.505 586.295 758.377 586.383C752.604 590.331 747.556 595.965 742.464 600.744C735.356 607.414 727.745 613.939 719.814 619.608C677.844 649.609 633.308 668.242 583.839 682.196C568.765 686.448 552.32 691.269 536.582 691.025C544.679 684.564 553.57 679.716 562.295 674.217C572.572 667.739 582.667 660.799 592.269 653.354C636.346 619.178 675.876 576.195 702.169 526.756C705.61 520.285 708.51 513.467 711.505 506.778C722.221 482.845 729.483 460.526 732.785 434.42C737.631 401.758 734.798 362.03 727.272 329.921C723.989 315.917 719.609 302.508 715.029 288.908C714.269 286.832 713.476 284.773 712.661 282.718C709.606 279.817 707.286 270.295 706.004 266.062Z"/>
	<path fill="#961A13" d="M721.592 533.356C723.189 533.642 725.117 534.071 726.236 535.349C727.231 536.486 727.555 537.456 727.45 538.964C727.264 541.636 725.027 543.347 723.073 544.815C721.457 544.478 719.58 544.001 718.417 542.735C717.514 541.752 717.118 540.847 717.176 539.509C717.301 536.639 719.523 534.963 721.592 533.356Z"/>
	<path fill="#961A13" d="M774.338 433.913C776.009 434.077 777.936 434.618 779.077 435.968C780.091 437.167 780.42 438.461 780.141 440.009C779.688 442.523 777.981 443.831 775.968 445.167C774.092 445.041 771.96 444.349 770.664 442.924C769.8 441.975 769.541 440.787 769.717 439.533C770.111 436.729 772.187 435.394 774.338 433.913Z"/>
	<path fill="#961A13" d="M712.661 282.718C738.531 290.205 764.799 307.355 777.986 331.494C788.602 350.926 790.402 373.799 784.112 394.935C779.933 408.975 770.987 424.079 757.775 431.331C749.886 435.661 741.436 435.114 732.785 434.42C737.631 401.758 734.798 362.03 727.272 329.921C723.989 315.917 719.609 302.508 715.029 288.908C714.269 286.832 713.476 284.773 712.661 282.718Z"/>
	<path fill="#D65535" d="M700.18 334.037C707.012 324.657 710.398 292.781 715.029 288.908C719.609 302.508 723.989 315.917 727.272 329.921C734.798 362.03 737.631 401.758 732.785 434.42C729.483 460.526 722.221 482.845 711.505 506.778C708.51 513.467 705.61 520.285 702.169 526.756C675.876 576.195 636.346 619.178 592.269 653.354C582.667 660.799 572.572 667.739 562.295 674.217C553.57 679.716 544.679 684.564 536.582 691.025L533.647 691.974C518.824 691.826 504.091 693.841 489.176 693.464C442.498 692.285 396.681 680.581 354.556 660.594C342.246 654.753 330.424 647.946 318.45 641.459C317.523 642.124 316.583 642.761 315.61 643.358C307.219 648.507 297.58 652.332 288.571 656.297C249.27 673.597 230.432 672.675 189.558 662.876L188.961 662.731C184.75 654.57 175.184 634.561 173.983 626.095L174.771 626.573C180.85 630.337 185.934 635.67 192.12 639.463C214.369 653.105 240.79 655.487 265.83 649.922C280.717 646.613 294.757 640.935 308.795 635.099C383.232 607.291 329.151 569.481 346.114 540.442C349.712 534.283 355.763 530.189 362.183 527.403C391.174 514.823 417.837 529.664 446.771 530.049C451.39 530.11 456.001 530.141 460.497 528.94C489.66 521.151 484.067 478.234 496.274 456.68C511.409 429.956 547.619 426.534 574.879 422.396C587.82 420.431 600.904 418.364 613.517 414.792C621.441 412.548 629.808 409.948 637.258 406.429C660.485 395.457 677.802 375.52 690.365 353.591C693.936 347.358 696.475 340.623 699.977 334.393L700.18 334.037Z"/>
	<path fill="#961A13" d="M713.908 392.364C714.382 392.984 714.833 393.626 715.244 394.289C718.001 398.735 717.454 403.276 716.27 408.083C713.211 410.926 711.272 412.191 707.122 412.993C706.147 413.029 705.67 413.012 704.811 412.533C706.074 409.966 710.211 408.315 712.169 405.836C715.326 401.839 714.497 397.046 713.908 392.364Z"/>
	<path fill="#FFC882" d="M447.386 557.229C449.472 557.537 451.497 557.839 453.041 559.41C454.03 560.416 454.383 561.52 454.323 562.926C454.228 565.13 452.524 566.777 451.049 568.2C449.475 568.538 447.28 568.433 445.927 567.42C444.782 566.562 444.373 565.62 444.192 564.222C443.813 561.293 445.541 559.235 447.386 557.229Z"/>
	<path fill="#C22519" d="M503.166 641.531C504.933 643.895 506.064 645.809 505.713 648.855C505.457 651.072 504.29 653.02 502.445 654.282C500.055 655.917 497.478 656.079 494.73 655.44C493.64 655.186 492.621 654.772 491.602 654.319C496.789 650.513 500.987 647.943 503.166 641.531Z"/>
	<path fill="#F57B41" d="M702.539 388.554C703.269 388.503 704.013 388.435 704.746 388.444C705.999 388.46 706.901 388.328 707.807 389.221C704.787 390.483 702.075 391.967 699.971 394.547C697.79 397.221 696.631 400.685 697.097 404.133C697.627 408.06 699.646 410.172 702.682 412.486L703.447 412.76C702.509 412.955 702.251 412.977 701.376 412.637C698.729 411.608 696.108 408.99 694.945 406.419C693.509 403.246 693.295 399.57 694.584 396.315C696.128 392.417 698.721 390.104 702.539 388.554Z"/>
	<path fill="#EC3126" d="M491.602 654.319C491.529 654.167 491.448 654.018 491.384 653.862C490.157 650.823 489.638 648.075 491.065 645.025C492.02 642.983 493.588 641.324 495.78 640.642C498.357 639.841 500.807 640.404 503.166 641.531C500.987 647.943 496.789 650.513 491.602 654.319Z"/>
	<path fill="#FE9846" d="M605.059 496.745C604.904 496.746 604.747 496.773 604.594 496.748C601.411 496.215 597.91 493.35 596.128 490.746C593.429 486.8 592.404 481.983 593.474 477.308C594.432 473.125 596.962 469.392 600.686 467.205C605.879 464.156 610.623 465.241 616.057 466.656C610.726 467.996 605.348 468.775 601.294 472.881C598.282 475.932 596.262 480.159 596.392 484.499C596.494 487.892 597.991 490.898 600.447 493.201C601.992 494.332 603.689 495.409 605.059 496.745Z"/>
	<path fill="#961A13" d="M600.447 493.201C606.849 491.614 613.412 490.035 616.963 483.809C619.773 478.881 619.22 473.27 617.622 468.045L617.456 467.518C621.732 471.214 625.613 474.985 625.944 481.024C626.156 484.89 624.709 488.765 622.1 491.61C618.963 495.03 614.237 497.005 609.616 497.07C608.088 497.092 606.574 496.932 605.059 496.745C603.689 495.409 601.992 494.332 600.447 493.201Z"/>
	<path fill="#FFC882" d="M384.863 605.949C383.737 605.911 382.992 605.586 382.064 604.981C376.963 601.649 372.927 594.493 371.669 588.677C370.19 581.84 371.673 575.059 375.507 569.253C379.37 563.401 385.529 559.135 392.429 557.797C399.33 556.458 406.65 558.168 412.358 562.235C414.872 564.026 419.149 567.295 419.69 570.383C416.813 567.914 414.001 565.755 410.616 564.023C405.077 561.427 398.765 561.192 392.992 563.185C386.052 565.58 379.954 570.799 376.901 577.516C374.502 582.794 374.044 589.426 376.152 594.879C377.242 597.699 379.115 600.641 381.397 602.619L384.863 605.949Z"/>
	<path fill="#C22519" d="M410.616 564.023C414.001 565.755 416.813 567.914 419.69 570.383C423.736 577.501 426.145 583.794 423.939 592.142C422.172 598.824 417.651 604.548 411.543 607.787C406.356 610.536 398.482 611.798 392.765 609.809C390.037 608.86 387.36 607.386 384.863 605.949L381.397 602.619C384.389 601.2 388.369 602.067 391.605 601.978C396.879 601.835 402.407 598.69 405.898 594.861C410.73 589.561 413.24 581.352 412.166 574.233C411.705 571.174 410.751 567.962 410.639 564.889C410.628 564.6 410.624 564.312 410.616 564.023Z"/>
	<path fill="#D65535" d="M381.397 602.619C379.115 600.641 377.242 597.699 376.152 594.879C374.044 589.426 374.502 582.794 376.901 577.516C379.954 570.799 386.052 565.58 392.992 563.185C398.765 561.192 405.077 561.427 410.616 564.023C410.624 564.312 410.628 564.6 410.639 564.889C410.751 567.962 411.705 571.174 412.166 574.233C413.24 581.352 410.73 589.561 405.898 594.861C402.407 598.69 396.879 601.835 391.605 601.978C388.369 602.067 384.389 601.2 381.397 602.619Z"/>
</svg>
