<?xml version="1.0" encoding="utf-8" ?>
<svg xmlns="http://www.w3.org/2000/svg" xmlns:xlink="http://www.w3.org/1999/xlink" width="1024" height="1024">
	<path fill="#06C2FD" d="M921.959 808.838C923.536 808.901 925.046 808.949 926.422 809.829C927.451 810.486 928.211 811.473 928.31 812.719C928.524 815.416 926.739 817.032 924.968 818.709C923.082 818.686 921.424 818.553 919.964 817.201C918.984 816.292 918.584 815.074 918.704 813.755C918.912 811.457 920.341 810.255 921.959 808.838Z"/>
	<path fill="#FCFBF5" d="M865.651 83.9139C866.797 84.154 868.011 84.4071 869.087 84.8793C870.949 85.6968 872.601 87.4831 873.354 89.3572C874.089 91.184 874.038 93.1432 873.234 94.9407C872.048 97.5904 869.914 98.738 867.332 99.754C866.592 99.6471 865.862 99.5222 865.143 99.3112C862.961 98.6703 860.805 97.0594 859.822 94.976C858.978 93.1873 859.008 91.1899 859.684 89.3502C860.745 86.4622 863.026 85.1964 865.651 83.9139Z"/>
	<path fill="#FCFBF5" d="M84.1416 752.479C85.1788 752.566 86.2139 752.67 87.2121 752.982C89.7245 753.767 91.9048 755.394 93.0495 757.808C94.0041 759.822 94.0588 762.045 93.201 764.106C92.0743 766.812 89.9628 767.981 87.4094 769.122C86.1615 769.185 84.809 769.2 83.5927 768.895C81.4187 768.35 79.3989 767.011 78.3202 765.012C77.2168 762.967 77.1394 760.594 77.8884 758.417C78.9812 755.241 81.2376 753.847 84.1416 752.479Z"/>
	<path fill="#1FDEF3" d="M122.196 64.5664C124.812 64.3611 127.166 64.3428 129.678 65.2115C133.345 66.4795 136.291 69.0979 137.839 72.6721C139.349 76.1595 139.38 80.1997 137.901 83.7022C135.963 88.2926 132.503 90.4072 128.147 92.2637C125.535 92.4619 123.047 92.3336 120.572 91.3892C116.916 89.9947 114.024 87.1276 112.541 83.5127C111.104 80.0072 111.049 76.0241 112.59 72.5425C114.554 68.1046 117.894 66.208 122.196 64.5664Z"/>
	<path fill="#F39A2D" d="M891.896 926.098C895.086 925.808 897.807 926.035 900.839 927.139C905.324 928.771 908.834 932.144 910.777 936.492C912.758 940.925 913.037 946.012 911.124 950.515C908.594 956.473 903.864 959.135 898.133 961.32C894.077 961.884 889.719 961.163 886.126 959.157C881.914 956.805 878.988 952.874 877.823 948.203C876.608 943.334 877.388 937.67 880.188 933.466C883.032 929.198 887.008 927.17 891.896 926.098Z"/>
	<path fill="#5625B8" d="M929.08 143.608C933.357 143.336 937.119 143.157 941.203 144.792C945.718 146.6 949.495 150.266 951.358 154.767C953.162 159.124 953.091 164.176 951.16 168.479C948.714 173.929 944.207 176.665 938.904 178.795C934.885 179.563 931.362 179.657 927.489 178.111C922.976 176.31 919.371 172.716 917.495 168.241C915.586 163.69 915.434 158.38 917.36 153.807C919.651 148.366 923.866 145.741 929.08 143.608Z"/>
	<path fill="#E06F28" d="M136.989 910.1C142.989 909.591 148.783 910.222 154.204 913.074C160.473 916.372 165.182 922.021 167.259 928.802C169.39 935.759 168.543 943.261 164.914 949.568C160.589 957.085 153.749 960.782 145.722 963.077C139.774 964.164 132.737 962.598 127.488 959.668C121.508 956.329 117.377 950.799 115.506 944.251C113.506 937.25 114.388 929.724 118.003 923.395C122.302 915.871 128.941 912.213 136.989 910.1Z"/>
	<path fill="#1D1E3D" d="M497.313 64.2195C500.27 63.8735 503.495 64.0083 506.484 63.9932C626.365 63.3901 742.224 109.855 827.274 194.588C912.033 279.032 959.934 393.224 960.053 512.874C960.169 629.634 912.683 744.06 830.165 826.653C765.662 891.215 684.107 936.076 594.358 953.504C571.874 957.87 549.021 960.952 526.084 960.978C504.776 961.231 483.75 960.999 462.545 958.66C369.288 948.375 280.536 907.173 210.91 844.571C122.433 765.021 69.202 653.254 63.0435 534.427C57.0972 419.693 98.5995 303.118 175.602 217.867C188.074 204.058 200.819 190.675 214.728 178.297C293.366 108.312 392.501 69.4965 497.313 64.2195Z"/>
	<path fill="#293959" d="M501.965 100.213C525.565 98.9234 550.029 100.893 573.357 104.498C652.07 116.665 723.911 150.851 783.857 203.112C808.268 224.394 830.017 249.255 848.729 275.648C893.224 338.407 918.451 406.792 923.558 483.665C930.831 593.169 894.472 703.468 821.941 786.104C764.197 851.894 684.302 899.255 598.559 917.315C573.183 922.661 548.098 924.779 522.299 926.485C406.019 927.386 313.849 890.836 227.825 812.982C209.982 796.834 193.889 777.741 179.76 758.307C131.016 691.267 103.23 612.669 99.0914 529.926C93.7532 423.198 134.054 316.286 205.558 237.415C263.213 173.818 341.942 128.242 425.777 109.835C450.973 104.303 476.226 101.481 501.965 100.213Z"/>
	<path fill="#1D1E3D" d="M867.848 460.336L868.438 459.763C868.554 460.596 868.402 460.998 869.059 461.567L869.279 460.263C871.007 466.905 871.547 474.919 871.472 481.806C871.566 488.76 872.011 495.931 871.53 502.86L870.082 504.427C870.305 499.326 870.143 494.259 869.985 489.161C869.879 485.023 869.555 480.885 869.296 476.755C868.691 471.302 868.326 465.803 867.848 460.336Z"/>
	<path fill="#F2851E" d="M686.71 192.305C693.171 196.298 699.578 200.563 706.198 204.276L704.221 207.15C697.928 203.886 691.51 200.871 685.116 197.813L684.649 197.175C685.195 195.532 686.027 193.901 686.71 192.305Z"/>
	<path fill="#F9B252" d="M602.305 159.267C632.003 166.833 660.013 177.109 686.71 192.305C686.027 193.901 685.195 195.532 684.649 197.175C678.322 194.639 672.19 191.58 665.87 189.002C651.65 183.201 637.271 178.064 622.639 173.4C615.673 171.179 607.974 168.374 600.665 167.93L600.615 167.26C601.371 164.653 601.809 161.935 602.305 159.267Z"/>
	<path fill="#FECB86" d="M154.441 498.58C159.501 499.712 164.321 502.366 169.181 504.208C168.921 509.083 168.571 513.971 168.482 518.851L168.447 519.576C166.42 535.84 168.228 561.077 169.858 577.978C170.619 585.861 172.606 594.481 171.81 602.365L165.322 599.967C158.414 570.655 154.835 541.638 154.375 511.522C153.985 507.269 154.333 502.851 154.441 498.58Z"/>
	<path fill="#F9B252" d="M154.441 498.58C159.501 499.712 164.321 502.366 169.181 504.208C168.921 509.083 168.571 513.971 168.482 518.851C163.955 516.223 159.28 513.366 154.375 511.522C153.985 507.269 154.333 502.851 154.441 498.58Z"/>
	<path fill="#F2851E" d="M240.283 277.516C244.782 281.211 249.229 283.705 254.757 285.575C251.891 291.876 246.86 297.131 242.82 302.696C235.094 313.337 211.298 347.267 209.665 358.144L209.267 358.111C203.555 355.162 197.481 352.871 191.543 350.42C196.647 342.292 200.797 333.56 205.81 325.352C216.147 308.425 227.736 292.873 240.283 277.516Z"/>
	<path fill="#FEDCAB" d="M240.283 277.516C266.363 246.424 296.901 220.435 331.621 199.426C414.329 149.38 508.65 136.266 602.305 159.267C601.809 161.935 601.371 164.653 600.615 167.26C591.977 164.699 582.983 162.93 574.085 161.53C561.601 159.565 501.865 152.556 493.018 157.216C442.46 155.699 388.785 172.39 346.109 199.136C341.225 202.198 336.73 205.889 332.361 209.636C330.241 211.453 328.095 213.692 325.77 215.217C318.819 217.894 312.848 223.953 307.476 228.959C297.619 238.146 288.163 247.452 279.266 257.596C271.163 266.834 263.661 276.709 255.137 285.558L254.757 285.575C249.229 283.705 244.782 281.211 240.283 277.516Z"/>
	<path fill="#FECB86" d="M493.018 157.216C501.865 152.556 561.601 159.565 574.085 161.53C582.983 162.93 591.977 164.699 600.615 167.26L600.665 167.93C589.673 203.257 539.733 234.421 508.54 250.81C446.279 283.521 371.637 304.196 300.91 295.582C285.352 293.687 270.206 289.742 255.137 285.558C263.661 276.709 271.163 266.834 279.266 257.596C288.163 247.452 297.619 238.146 307.476 228.959C312.848 223.953 318.819 217.894 325.77 215.217C328.095 213.692 330.241 211.453 332.361 209.636C336.73 205.889 341.225 202.198 346.109 199.136C388.785 172.39 442.46 155.699 493.018 157.216Z"/>
	<path fill="#F9B252" d="M325.77 215.217C328.095 213.692 330.241 211.453 332.361 209.636C336.73 205.889 341.225 202.198 346.109 199.136C388.785 172.39 442.46 155.699 493.018 157.216L493.943 157.535C502.085 160.284 511.62 160.299 516.203 169.053C518.86 174.13 518.131 180.09 516.301 185.307C508.026 208.898 475.025 227.871 453.11 238.173C420.801 253.361 366.409 269.057 331.652 256.593C325.182 254.273 318.919 250.691 315.979 244.136C313.913 239.529 314.23 234.564 316.018 229.917C318.232 224.161 322.926 220.426 325.77 215.217Z"/>
	<path fill="#F39A2D" d="M447.27 171.686C449.077 171.336 451.153 171.331 452.994 171.274C459.413 171.076 469.49 172.293 474.276 176.981C476.447 179.107 477.531 181.944 477.552 184.964C477.601 191.877 471.992 198.979 467.44 203.783C445.952 226.456 405.046 239.951 374.161 240.674C367.856 240.568 361.17 240.282 355.095 238.464C349.407 236.762 345.9 234.036 343.059 228.871C343.701 223.198 345.45 218.309 348.913 213.759C367.301 189.597 417.86 175.492 447.27 171.686Z"/>
	<path fill="#E06F28" d="M600.665 167.93C607.974 168.374 615.673 171.179 622.639 173.4C637.271 178.064 651.65 183.201 665.87 189.002C672.19 191.58 678.322 194.639 684.649 197.175L685.116 197.813C681.994 203.619 679.023 209.717 675.475 215.267C660.99 237.925 638.844 257.331 612.892 265.227C601.101 268.815 588.627 270.908 576.326 271.68C561.529 272.609 546.701 272.237 532.117 275.347C526.931 276.452 521.808 277.871 517.049 280.25C504.015 286.765 492.628 296.683 481.327 305.751C467.559 316.801 453.839 328.059 439.46 338.312C432.283 343.429 424.969 348.43 417.45 353.035C412.098 356.314 405.849 359.319 400.95 363.173C399.605 363.497 397.746 363.73 396.513 364.294C388.211 365.75 379.72 366.605 371.355 367.654C330.444 372.78 290.506 373.713 249.585 368.074C236.76 366.307 221.443 363.799 209.665 358.144C211.298 347.267 235.094 313.337 242.82 302.696C246.86 297.131 251.891 291.876 254.757 285.575L255.137 285.558C270.206 289.742 285.352 293.687 300.91 295.582C371.637 304.196 446.279 283.521 508.54 250.81C539.733 234.421 589.673 203.257 600.665 167.93Z"/>
	<path fill="#1D1E3D" d="M870.082 504.427L871.53 502.86C871.506 512.491 872.089 521.98 871.608 531.629C866.642 631.338 831.53 719.227 760.313 789.976C694.403 855.455 603.135 890.309 510.534 889.922C421.312 889.549 331.153 852.595 268.266 789.068C233.752 754.203 208.05 713.227 188.198 668.54C185.581 662.648 179.725 652.013 179.683 645.875C179.676 644.968 179.72 644.915 179.848 643.978C184.044 653.846 187.973 663.801 193.588 672.972C200.269 686.075 207.673 700.779 217.507 711.792C219.23 714.419 221.658 719.262 224.079 721.096C233.869 734.686 244.618 747.567 255.881 759.952C258.635 762.815 261.318 765.757 264.497 768.159C271.739 769.721 278.905 772.121 286.055 774.095C306.287 779.683 326.802 784.901 347.9 785.56C352.013 786.449 356.708 786.503 360.911 786.857C374.675 788.015 388.441 788.442 402.244 788.756C425.138 789.276 447.885 788.12 470.709 786.416C478.601 785.826 486.603 785.636 494.452 784.647C527.238 780.518 559.287 773.089 591.074 764.214C644.044 749.426 695.137 730.468 743.928 704.927C766.102 693.319 787.33 680.548 808 666.452C817.32 660.097 826.008 651.652 835.943 646.397C836.104 646.312 836.268 646.23 836.43 646.147C847.762 631.868 858.929 585.074 863.096 566.5C863.865 564.009 864.24 561.433 864.685 558.869C868.357 548.306 870.139 516.483 870.082 504.427Z"/>
	<path fill="#912900" d="M346.646 827.509C353.735 822.774 360.249 819.954 368.514 817.992C389.482 813.014 412.101 814.157 432.231 821.987C443.778 826.478 454.941 831.812 467.006 834.854C495.795 842.113 528.426 840.145 557.184 833.338C579.05 828.163 599.222 817.942 620.542 811.046C627.503 808.794 634.526 806.622 641.657 804.972C660.261 800.667 680.294 798.133 697.036 788.321C706.632 782.697 714.3 774.469 721.19 765.854C727.227 758.306 732.971 750.129 739.945 743.423C752.842 731.022 776.633 721.909 794.047 718.149C787.105 728.271 778.974 737.71 771.031 747.055C718.924 808.357 654.496 847.468 574.979 862.213C510.68 874.135 444.595 868.016 383.634 844.338C371.093 839.467 358.372 834.139 346.646 827.509Z"/>
	<path fill="#AC4104" d="M347.9 785.56C352.013 786.449 356.708 786.503 360.911 786.857C374.675 788.015 388.441 788.442 402.244 788.756C425.138 789.276 447.885 788.12 470.709 786.416C478.601 785.826 486.603 785.636 494.452 784.647C527.238 780.518 559.287 773.089 591.074 764.214C644.044 749.426 695.137 730.468 743.928 704.927C766.102 693.319 787.33 680.548 808 666.452C817.32 660.097 826.008 651.652 835.943 646.397C836.104 646.312 836.268 646.23 836.43 646.147C828.434 665.919 817.064 684.671 805.491 702.519C802.109 707.735 798.632 713.935 794.047 718.149C776.633 721.909 752.842 731.022 739.945 743.423C732.971 750.129 727.227 758.306 721.19 765.854C714.3 774.469 706.632 782.697 697.036 788.321C680.294 798.133 660.261 800.667 641.657 804.972C634.526 806.622 627.503 808.794 620.542 811.046C599.222 817.942 579.05 828.163 557.184 833.338C528.426 840.145 495.795 842.113 467.006 834.854C454.941 831.812 443.778 826.478 432.231 821.987C412.101 814.157 389.482 813.014 368.514 817.992C360.249 819.954 353.735 822.774 346.646 827.509C319.466 815.702 285.202 789.48 264.497 768.159C271.739 769.721 278.905 772.121 286.055 774.095C306.287 779.683 326.802 784.901 347.9 785.56Z"/>
	<path fill="#912900" d="M548.32 783.689C556.609 782.115 568.8 783.243 576.152 787.683C581.015 790.621 582.925 794.174 584.28 799.455C583.536 802.654 582.35 805.539 580.35 808.171C573.02 817.817 559.556 820.083 548.328 821.49C538.406 821.824 525.376 821.056 516.94 815.19C514.14 813.244 511.894 810.501 511.422 807.039C510.955 803.617 512.264 800.309 514.392 797.666C522.15 788.027 536.759 785.053 548.32 783.689Z"/>
	<path fill="#FECB86" d="M685.116 197.813C691.51 200.871 697.928 203.886 704.221 207.15L706.198 204.276C722.986 215.091 738.979 226.701 753.902 239.996C756.658 242.554 759.378 245.129 762.017 247.808C768.677 254.469 775.518 261.024 781.829 268.019C786.038 272.898 790.264 277.764 794.39 282.714C799.249 288.57 803.773 294.69 808.145 300.916C811.075 305.043 813.907 309.201 816.665 313.445C814.699 316.197 812.468 319.395 811.279 322.561C801.94 334.222 792.91 346.417 782.541 357.193C756.21 384.56 711.762 415.71 678.72 435.128C664.645 443.4 649.757 450.207 635.851 458.69C634.715 462.208 614.862 474.965 610.386 478.674C601.798 485.788 593.204 494.156 586.394 502.971C574.627 518.204 567.689 535.517 549.549 544.735C531.734 553.788 510.697 552.594 492.956 561.41C477.012 569.333 473.049 588.197 458.875 598.217C445.119 607.943 427.843 608.889 413.106 616.311C407.062 619.354 401.747 623.652 396.781 628.206C396.605 628.367 396.413 628.511 396.237 628.674C395.672 629.197 395.867 629.014 395.564 629.889C397.276 630.007 399.007 629.913 400.717 630.05C395.476 630.952 390.122 630.015 384.916 630.945C357.025 631.575 329.351 631.235 301.501 629.452C293.579 629.65 284.708 627.89 276.827 626.916C251.79 623.823 226.41 619.438 202.125 612.495C191.897 609.57 181.852 605.866 171.81 602.365C172.606 594.481 170.619 585.861 169.858 577.978C168.228 561.077 166.42 535.84 168.447 519.576L168.482 518.851C168.571 513.971 168.921 509.083 169.181 504.208C164.321 502.366 159.501 499.712 154.441 498.58C154.361 490.737 155.299 482.793 156.074 474.997C156.652 468.446 157.401 461.839 158.486 455.353C159.832 438.85 164.896 422.096 169.13 406.155C170.176 403.126 171.047 400.009 171.997 396.946C174.495 391.873 176.142 385.704 178.154 380.388C182.052 370.086 186.388 360.153 191.543 350.42C197.481 352.871 203.555 355.162 209.267 358.111L209.665 358.144C221.443 363.799 236.76 366.307 249.585 368.074C290.506 373.713 330.444 372.78 371.355 367.654C379.72 366.605 388.211 365.75 396.513 364.294C397.746 363.73 399.605 363.497 400.95 363.173C405.849 359.319 412.098 356.314 417.45 353.035C424.969 348.43 432.283 343.429 439.46 338.312C453.839 328.059 467.559 316.801 481.327 305.751C492.628 296.683 504.015 286.765 517.049 280.25C521.808 277.871 526.931 276.452 532.117 275.347C546.701 272.237 561.529 272.609 576.326 271.68C588.627 270.908 601.101 268.815 612.892 265.227C638.844 257.331 660.99 237.925 675.475 215.267C679.023 209.717 681.994 203.619 685.116 197.813Z"/>
	<path fill="#F9B252" d="M217.499 462.069C227.908 463.938 238.253 465.496 248.029 469.754C263.798 476.622 270.88 486.641 283.392 497.09C288.515 501.369 294.191 504.637 300.025 507.832C302.818 509.362 305.819 511.393 308.792 512.458C299.615 512.578 290.302 511.722 281.168 510.928C242.037 507.527 204.984 498.506 168.545 483.944C169.689 480.544 170.126 476.869 170.714 473.337C175.664 476.611 180.141 479.028 186.315 477.823C193.524 476.417 198.964 470.854 205.186 467.365C209.069 465.187 213.341 463.632 217.499 462.069Z"/>
	<path fill="#F9B252" d="M794.39 282.714C799.249 288.57 803.773 294.69 808.145 300.916C801.189 311.651 794.111 322.462 785.805 332.221C735.009 391.907 654.543 434.973 582.461 463.209C569.476 468.296 556.187 472.28 543.084 476.976C544.174 472.55 545.484 468.234 547.025 463.945C552.658 448.273 558.62 433.372 571.038 421.733C593.571 400.615 634.448 393.773 663.402 383.595C682.925 376.732 702.104 368.956 720.828 360.142C728.781 356.399 736.649 352.47 744.553 348.625C762.532 339.877 777.35 331.997 785.2 312.516C789.088 302.867 790.862 292.503 794.39 282.714Z"/>
	<defs>
		<linearGradient id="gradient_0" gradientUnits="userSpaceOnUse" x1="503.70792" y1="261.6105" x2="464.59335" y2="552.69397">
			<stop offset="0" stop-color="#D94800"/>
			<stop offset="1" stop-color="#F37017"/>
		</linearGradient>
	</defs>
	<path fill="url(#gradient_0)" d="M808.145 300.916C811.075 305.043 813.907 309.201 816.665 313.445C814.699 316.197 812.468 319.395 811.279 322.561C801.94 334.222 792.91 346.417 782.541 357.193C756.21 384.56 711.762 415.71 678.72 435.128C664.645 443.4 649.757 450.207 635.851 458.69C613.094 468.528 590.851 478.779 567.513 487.259C463.997 524.868 351.021 541.552 241.744 523.487C225.573 520.814 209.666 517.332 193.995 512.502C186.515 510.197 176.189 505.653 169.181 504.208C164.321 502.366 159.501 499.712 154.441 498.58C154.361 490.737 155.299 482.793 156.074 474.997C159.785 478.957 163.565 481.741 168.545 483.944C204.984 498.506 242.037 507.527 281.168 510.928C290.302 511.722 299.615 512.578 308.792 512.458C367.694 515.397 427.655 508.027 484.777 493.687C497.701 490.442 510.505 486.78 523.263 482.94C529.473 481.071 535.898 478.516 542.209 477.158L543.084 476.976C556.187 472.28 569.476 468.296 582.461 463.209C654.543 434.973 735.009 391.907 785.805 332.221C794.111 322.462 801.189 311.651 808.145 300.916Z"/>
	<path fill="#F9B252" d="M762.017 247.808C768.677 254.469 775.518 261.024 781.829 268.019C778.979 271.11 776.266 275.052 772.939 277.587C764.341 284.14 753.77 287.584 743.895 291.674C733.62 295.929 723.493 301.272 714.884 308.368C694.316 325.321 685.324 353.707 661.726 367.339C641.309 379.134 616.733 380.032 594.038 384.164C581.655 386.418 568.98 389.893 557.377 394.798C548.053 398.739 538.912 403.277 530.227 408.481C514.462 417.928 498.541 432.305 479.317 433.137C465.323 433.742 450.826 428.935 436.965 431.622C404.406 437.936 395.2 474.603 355.152 478.759C325.052 481.883 297.379 465.308 269.369 457.112C257.365 453.6 245.65 451.81 233.128 451.812C243.715 446.694 254.833 441.802 264.482 435.025L266.855 434.167C275.24 435.664 283.971 435.835 292.461 436.206C335.825 438.099 380.363 433.471 422.822 424.587C529.765 402.213 629.866 360.673 715.722 292.018C731.116 279.708 751.223 264.293 762.017 247.808Z"/>
	<path fill="#FECB86" d="M753.902 239.996C756.658 242.554 759.378 245.129 762.017 247.808C751.223 264.293 731.116 279.708 715.722 292.018C629.866 360.673 529.765 402.213 422.822 424.587C380.363 433.471 335.825 438.099 292.461 436.206C283.971 435.835 275.24 435.664 266.855 434.167L264.482 435.025C257.601 432.899 250.178 433.032 243.077 432.104C225.398 429.792 200.018 424.727 185.197 415.212C180.557 427.387 176.923 440.654 173.809 453.324C172.464 458.795 171.535 464.482 169.958 469.876L169.7 469.761L169.45 471.346C163.55 468.262 162.118 460.472 158.486 455.353C159.832 438.85 164.896 422.096 169.13 406.155C170.176 403.126 171.047 400.009 171.997 396.946C174.495 391.873 176.142 385.704 178.154 380.388C182.052 370.086 186.388 360.153 191.543 350.42C197.481 352.871 203.555 355.162 209.267 358.111L209.665 358.144C221.443 363.799 236.76 366.307 249.585 368.074C290.506 373.713 330.444 372.78 371.355 367.654C379.72 366.605 388.211 365.75 396.513 364.294L396.666 364.79C395.57 366.994 390.391 369.039 388.191 370.279C365.904 382.847 343.119 394.395 320.305 405.979C309.165 411.636 297.027 416.602 286.569 423.392C290.51 423.509 294.449 423.673 298.392 423.748C333.903 424.421 369.389 420.943 404.393 415.236C423.297 412.154 442.121 408.81 460.731 404.219C548.298 382.617 634.663 341.502 705.369 285.399C716.226 276.783 727.06 267.603 736.893 257.827C742.717 252.038 747.981 245.682 753.902 239.996Z"/>
	<path fill="#FEDCAB" d="M191.543 350.42C197.481 352.871 203.555 355.162 209.267 358.111C208.175 363.87 202.981 372.175 200.414 377.808C196.399 386.62 192.609 395.565 189.065 404.577C196.417 408.49 204.75 410.65 212.773 412.772C237.117 419.208 261.476 422.752 286.676 423.089C280.675 427.55 272.242 429.137 266.855 434.167L264.482 435.025C257.601 432.899 250.178 433.032 243.077 432.104C225.398 429.792 200.018 424.727 185.197 415.212C180.557 427.387 176.923 440.654 173.809 453.324C172.464 458.795 171.535 464.482 169.958 469.876L169.7 469.761L169.45 471.346C163.55 468.262 162.118 460.472 158.486 455.353C159.832 438.85 164.896 422.096 169.13 406.155C170.176 403.126 171.047 400.009 171.997 396.946C174.495 391.873 176.142 385.704 178.154 380.388C182.052 370.086 186.388 360.153 191.543 350.42Z"/>
	<path fill="#FEE6CB" d="M171.997 396.946C177.961 398.743 183.296 402.704 189.097 405.061C187.84 408.4 186.717 411.91 185.217 415.139C179.994 412.866 173.332 410.067 169.13 406.155C170.176 403.126 171.047 400.009 171.997 396.946Z"/>
	<path fill="#F9B252" d="M685.116 197.813C691.51 200.871 697.928 203.886 704.221 207.15L706.198 204.276C722.986 215.091 738.979 226.701 753.902 239.996C747.981 245.682 742.717 252.038 736.893 257.827C727.06 267.603 716.226 276.783 705.369 285.399C634.663 341.502 548.298 382.617 460.731 404.219C442.121 408.81 423.297 412.154 404.393 415.236C369.389 420.943 333.903 424.421 298.392 423.748C294.449 423.673 290.51 423.509 286.569 423.392C297.027 416.602 309.165 411.636 320.305 405.979C343.119 394.395 365.904 382.847 388.191 370.279C390.391 369.039 395.57 366.994 396.666 364.79L396.513 364.294C397.746 363.73 399.605 363.497 400.95 363.173C405.849 359.319 412.098 356.314 417.45 353.035C424.969 348.43 432.283 343.429 439.46 338.312C453.839 328.059 467.559 316.801 481.327 305.751C492.628 296.683 504.015 286.765 517.049 280.25C521.808 277.871 526.931 276.452 532.117 275.347C546.701 272.237 561.529 272.609 576.326 271.68C588.627 270.908 601.101 268.815 612.892 265.227C638.844 257.331 660.99 237.925 675.475 215.267C679.023 209.717 681.994 203.619 685.116 197.813Z"/>
	<path fill="#CE480C" d="M685.116 197.813C691.51 200.871 697.928 203.886 704.221 207.15C685.43 227.796 665.232 246.688 642.88 263.444C590.787 302.496 525.466 331.276 462.909 348.922C443.051 354.524 421.424 360.434 400.95 363.173C405.849 359.319 412.098 356.314 417.45 353.035C424.969 348.43 432.283 343.429 439.46 338.312C453.839 328.059 467.559 316.801 481.327 305.751C492.628 296.683 504.015 286.765 517.049 280.25C521.808 277.871 526.931 276.452 532.117 275.347C546.701 272.237 561.529 272.609 576.326 271.68C588.627 270.908 601.101 268.815 612.892 265.227C638.844 257.331 660.99 237.925 675.475 215.267C679.023 209.717 681.994 203.619 685.116 197.813Z"/>
	<path fill="#F39A2D" d="M635.851 458.69C634.715 462.208 614.862 474.965 610.386 478.674C601.798 485.788 593.204 494.156 586.394 502.971C574.627 518.204 567.689 535.517 549.549 544.735C531.734 553.788 510.697 552.594 492.956 561.41C477.012 569.333 473.049 588.197 458.875 598.217C445.119 607.943 427.843 608.889 413.106 616.311C407.062 619.354 401.747 623.652 396.781 628.206C396.605 628.367 396.413 628.511 396.237 628.674C395.672 629.197 395.867 629.014 395.564 629.889C397.276 630.007 399.007 629.913 400.717 630.05C395.476 630.952 390.122 630.015 384.916 630.945C357.025 631.575 329.351 631.235 301.501 629.452C293.579 629.65 284.708 627.89 276.827 626.916C251.79 623.823 226.41 619.438 202.125 612.495C191.897 609.57 181.852 605.866 171.81 602.365C172.606 594.481 170.619 585.861 169.858 577.978C168.228 561.077 166.42 535.84 168.447 519.576L168.482 518.851C168.571 513.971 168.921 509.083 169.181 504.208C176.189 505.653 186.515 510.197 193.995 512.502C209.666 517.332 225.573 520.814 241.744 523.487C351.021 541.552 463.997 524.868 567.513 487.259C590.851 478.779 613.094 468.528 635.851 458.69Z"/>
	<path fill="#CE480C" d="M348.417 547.06C351.357 546.952 354.382 546.638 356.675 548.902C357.675 549.889 357.795 550.499 357.857 551.856C356.774 554.189 354.724 554.983 352.451 555.866C350.587 556.327 348.338 556.787 346.471 556.158C344.871 555.62 344.001 554.751 343.215 553.272C343.116 552.398 343.031 551.721 343.412 550.886C344.347 548.833 346.511 547.962 348.417 547.06Z"/>
	<path fill="#F9B252" d="M168.447 519.576C168.709 519.686 168.974 519.793 169.235 519.907C183.774 526.312 194.116 544.451 209.993 549.644C231.717 556.749 256.82 546.51 279.573 550.736C287.309 552.173 294.881 554.852 302.028 558.107C313.25 563.218 324.543 571.432 337.261 571.439C352.071 571.448 367.129 563.712 381.494 560.346C392.401 557.79 403.495 556.185 414.503 554.141C424.106 552.358 433.693 550.162 443.338 548.647C455.837 546.682 468.847 546.427 481.474 545.899C492.26 545.447 504.246 545.497 514.531 541.876L515.052 541.69C517.582 540.765 519.627 539.675 522.34 539.265C520.77 542.091 478.512 555.015 471.725 557.857C471.436 565.424 469.289 571.337 463.59 576.577C457.686 582.005 449.847 585.325 441.751 584.808C437.909 584.564 435.155 583.5 431.853 581.592C422.982 584.553 414.136 587.401 404.819 588.606C383.068 591.418 357.997 587.834 338.169 598.824C329.966 603.37 323.181 610.147 316.187 616.304C312.374 619.661 303.669 624.852 301.641 628.971C301.568 629.121 301.548 629.291 301.501 629.452C293.579 629.65 284.708 627.89 276.827 626.916C251.79 623.823 226.41 619.438 202.125 612.495C191.897 609.57 181.852 605.866 171.81 602.365C172.606 594.481 170.619 585.861 169.858 577.978C168.228 561.077 166.42 535.84 168.447 519.576Z"/>
	<path fill="#E06F28" d="M277.74 574.529C279.891 576.752 281.022 578.933 280.943 582.107C280.845 585.981 278.189 589.705 275.361 592.153C270.797 596.106 264.357 598.298 258.326 597.692C254.452 597.302 250.88 595.873 248.498 592.67C247.35 591.128 247.001 589.531 246.768 587.661C248.358 589.701 249.866 591.889 252.142 593.213C256.544 595.774 261.551 596.182 266.438 594.938C270.987 593.781 275.31 591.18 277.566 586.938C279.939 582.475 279.156 579.042 277.74 574.529Z"/>
	<path fill="#E06F28" d="M246.768 587.661C247.101 585.699 247.452 583.852 248.38 582.071C250.683 577.656 254.906 574.628 259.593 573.153C265.909 571.165 271.852 571.574 277.74 574.529C279.156 579.042 279.939 582.475 277.566 586.938C275.31 591.18 270.987 593.781 266.438 594.938C261.551 596.182 256.544 595.774 252.142 593.213C249.866 591.889 248.358 589.701 246.768 587.661Z"/>
	<path fill="#E06F28" d="M451.785 552.89C454.796 551.766 457.844 551.528 461.015 551.458C464.916 551.927 468.062 552.866 470.568 556.079C471.007 556.641 471.373 557.238 471.725 557.857C471.436 565.424 469.289 571.337 463.59 576.577C457.686 582.005 449.847 585.325 441.751 584.808C437.909 584.564 435.155 583.5 431.853 581.592C430.948 580.367 430.064 578.955 429.604 577.495C428.448 573.826 429.357 569.91 431.245 566.661C435.429 559.457 443.908 554.794 451.785 552.89Z"/>
	<path fill="#CE480C" d="M461.015 551.458C464.916 551.927 468.062 552.866 470.568 556.079C471.007 556.641 471.373 557.238 471.725 557.857C471.436 565.424 469.289 571.337 463.59 576.577C457.686 582.005 449.847 585.325 441.751 584.808C437.909 584.564 435.155 583.5 431.853 581.592C430.948 580.367 430.064 578.955 429.604 577.495C428.448 573.826 429.357 569.91 431.245 566.661C435.429 559.457 443.908 554.794 451.785 552.89C449.471 555.487 443.679 557.237 440.563 558.916C436.822 560.933 433.447 564.02 432.37 568.261C431.657 571.071 431.533 574.352 433.222 576.843C435.065 579.56 438.702 581.177 441.865 581.607C448.457 582.504 455.648 579.472 460.811 575.486C466.855 570.82 469.043 565.844 469.944 558.52C467.694 554.84 464.79 553.348 461.015 551.458Z"/>
	<defs>
		<linearGradient id="gradient_1" gradientUnits="userSpaceOnUse" x1="661.37463" y1="737.70844" x2="462.99826" y2="565.11603">
			<stop offset="0" stop-color="#D5540B"/>
			<stop offset="1" stop-color="#E9750B"/>
		</linearGradient>
	</defs>
	<path fill="url(#gradient_1)" d="M811.279 322.561C812.468 319.395 814.699 316.197 816.665 313.445C822.189 322.386 827.152 331.581 831.635 341.09C838.268 353.071 843.353 366.233 847.873 379.135C853.326 393.446 858.018 408.401 861.184 423.394C863.423 434.531 866.02 445.585 867.156 456.907C867.347 457.932 867.426 459.411 867.848 460.336C868.326 465.803 868.691 471.302 869.296 476.755C869.555 480.885 869.879 485.023 869.985 489.161C870.143 494.259 870.305 499.326 870.082 504.427C870.139 516.483 868.357 548.306 864.685 558.869C864.24 561.433 863.865 564.009 863.096 566.5C858.929 585.074 847.762 631.868 836.43 646.147C836.268 646.23 836.104 646.312 835.943 646.397C826.008 651.652 817.32 660.097 808 666.452C787.33 680.548 766.102 693.319 743.928 704.927C695.137 730.468 644.044 749.426 591.074 764.214C559.287 773.089 527.238 780.518 494.452 784.647C486.603 785.636 478.601 785.826 470.709 786.416C447.885 788.12 425.138 789.276 402.244 788.756C388.441 788.442 374.675 788.015 360.911 786.857C356.708 786.503 352.013 786.449 347.9 785.56C326.802 784.901 306.287 779.683 286.055 774.095C278.905 772.121 271.739 769.721 264.497 768.159C261.318 765.757 258.635 762.815 255.881 759.952C244.618 747.567 233.869 734.686 224.079 721.096C221.658 719.262 219.23 714.419 217.507 711.792C207.673 700.779 200.269 686.075 193.588 672.972C187.973 663.801 184.044 653.846 179.848 643.978C178.102 638.929 176.077 633.936 174.195 628.934C170.467 619.439 167.62 609.895 165.322 599.967L171.81 602.365C181.852 605.866 191.897 609.57 202.125 612.495C226.41 619.438 251.79 623.823 276.827 626.916C284.708 627.89 293.579 629.65 301.501 629.452C329.351 631.235 357.025 631.575 384.916 630.945C390.122 630.015 395.476 630.952 400.717 630.05C399.007 629.913 397.276 630.007 395.564 629.889C395.867 629.014 395.672 629.197 396.237 628.674C396.413 628.511 396.605 628.367 396.781 628.206C401.747 623.652 407.062 619.354 413.106 616.311C427.843 608.889 445.119 607.943 458.875 598.217C473.049 588.197 477.012 569.333 492.956 561.41C510.697 552.594 531.734 553.788 549.549 544.735C567.689 535.517 574.627 518.204 586.394 502.971C593.204 494.156 601.798 485.788 610.386 478.674C614.862 474.965 634.715 462.208 635.851 458.69C649.757 450.207 664.645 443.4 678.72 435.128C711.762 415.71 756.21 384.56 782.541 357.193C792.91 346.417 801.94 334.222 811.279 322.561Z"/>
	<path fill="#F2851E" d="M469.642 655.326C486.626 652.078 503.728 649.891 520.632 646.092C546.779 640.217 572.167 632.304 598.002 625.321C599.396 626.502 600.685 627.427 602.323 628.242C596.43 634.481 591.14 641.259 585.322 647.579L559.372 675.571C554.818 680.56 549.023 685.858 545.803 691.841C536.503 694.994 527.45 698.424 517.877 700.716C487.617 707.962 456.291 705.928 425.487 705.345C417.43 705.192 408.09 707.195 400.265 705.684C407.984 699.26 417.689 694.293 426.104 688.743C436.305 682.014 446.003 674.418 455.721 667.016C460.316 663.516 466.115 659.916 469.642 655.326Z"/>
	<path fill="#E06F28" d="M513.997 666.666C515.468 666.628 517.039 666.689 518.489 666.934C520.766 667.32 524.262 668.372 525.515 670.499C526.489 672.151 526.167 674.057 525.548 675.762C522.803 683.327 516.016 687.066 509.136 690.171C506.451 690.354 503.524 690.392 500.998 689.309C499.487 688.662 498.187 687.522 497.636 685.944C496.744 683.388 497.713 680.364 498.911 678.076C502.067 672.047 507.639 668.528 513.997 666.666Z"/>
	<path fill="#F39A2D" d="M314.071 734.203C329.906 737.136 346.422 738.116 362.481 739.06C444.689 743.893 526.594 731.737 605.411 708.63C621.346 703.959 637.02 698.561 652.583 692.778C662.371 689.141 671.784 684.582 681.997 682.188C679.611 684.659 674.12 688.225 673.179 691.32C670.353 692.558 667.249 693.686 664.592 695.231C660.89 700.532 631.093 717.151 623.823 720.343C619.352 722.305 614.418 723.092 609.741 724.441C605.242 725.738 600.804 727.627 596.401 729.244C565.308 740.666 534.088 752.626 502.192 761.651C481.933 767.384 461.468 772.131 440.738 775.805C417.785 779.872 394.743 782.531 371.494 784.159C363.716 784.704 355.687 785.671 347.9 785.56C326.802 784.901 306.287 779.683 286.055 774.095C278.905 772.121 271.739 769.721 264.497 768.159C261.318 765.757 258.635 762.815 255.881 759.952C244.618 747.567 233.869 734.686 224.079 721.096C221.658 719.262 219.23 714.419 217.507 711.792C248.999 720.813 281.231 731.749 314.071 734.203Z"/>
	<defs>
		<linearGradient id="gradient_2" gradientUnits="userSpaceOnUse" x1="445.55988" y1="675.41461" x2="457.40854" y2="745.58807">
			<stop offset="0" stop-color="#E15C01"/>
			<stop offset="1" stop-color="#B63905"/>
		</linearGradient>
	</defs>
	<path fill="url(#gradient_2)" d="M314.071 734.203C329.906 737.136 346.422 738.116 362.481 739.06C444.689 743.893 526.594 731.737 605.411 708.63C621.346 703.959 637.02 698.561 652.583 692.778C662.371 689.141 671.784 684.582 681.997 682.188C679.611 684.659 674.12 688.225 673.179 691.32C670.353 692.558 667.249 693.686 664.592 695.231C643.384 703.189 622.307 711.035 600.573 717.473C533.67 737.288 462.704 747.163 392.938 747.203C378.12 747.211 362.935 746.848 348.144 745.967C340.251 745.496 332.391 744.48 324.491 744.191C309.523 752.711 273.476 760.869 255.881 759.952C244.618 747.567 233.869 734.686 224.079 721.096C221.658 719.262 219.23 714.419 217.507 711.792C248.999 720.813 281.231 731.749 314.071 734.203Z"/>
	<path fill="#F9B252" d="M224.079 721.096C233.291 721.919 251.513 729.148 261.766 731.756C282.474 737.024 303.437 740.649 324.491 744.191C309.523 752.711 273.476 760.869 255.881 759.952C244.618 747.567 233.869 734.686 224.079 721.096Z"/>
	<path fill="#E06F28" d="M867.156 456.907C867.347 457.932 867.426 459.411 867.848 460.336C868.326 465.803 868.691 471.302 869.296 476.755C869.555 480.885 869.879 485.023 869.985 489.161C862.962 497.936 857.438 508.418 850.934 517.655C838.636 535.123 825.226 551.285 810.852 567.062C805.703 568.405 801.011 571.244 796.01 573.048C787.478 576.128 773.648 576.837 767.263 583.879C758.363 593.694 752.779 606.096 744.414 616.434C711.646 656.934 666.151 683.359 613.411 685.384C590.24 686.274 568.333 684.721 545.803 691.841C549.023 685.858 554.818 680.56 559.372 675.571L585.322 647.579C591.14 641.259 596.43 634.481 602.323 628.242C600.685 627.427 599.396 626.502 598.002 625.321C656.342 605.557 706.26 584.054 759.96 553.635C769.092 545.712 781.18 540.315 791.181 533.419C822.238 512.004 846.083 488.141 867.156 456.907Z"/>
	<path fill="#CE480C" d="M759.96 553.635C761.064 555.775 759.679 559.362 758.978 561.571C749.929 590.127 735.082 613.917 707.621 627.824C676.509 643.581 640.917 641.111 608.707 630.426L602.323 628.242C600.685 627.427 599.396 626.502 598.002 625.321C656.342 605.557 706.26 584.054 759.96 553.635Z"/>
	<path fill="#F39A2D" d="M165.322 599.967L171.81 602.365C181.852 605.866 191.897 609.57 202.125 612.495C226.41 619.438 251.79 623.823 276.827 626.916C284.708 627.89 293.579 629.65 301.501 629.452C329.351 631.235 357.025 631.575 384.916 630.945C387.843 631.034 390.757 631.073 393.685 631.039C378.349 641.338 350.615 658.501 332.835 662.145L333.838 662.49C340 661.77 347.169 662.85 353.399 663.154C362.382 663.591 371.494 663.668 380.486 663.465C410.318 662.791 440.058 658.973 469.642 655.326C466.115 659.916 460.316 663.516 455.721 667.016C446.003 674.418 436.305 682.014 426.104 688.743C417.689 694.293 407.984 699.26 400.265 705.684L398.085 706.382C381.865 717.417 357.507 725.854 338.238 729.753C330.936 731.231 320.486 730.444 314.071 734.203C281.231 731.749 248.999 720.813 217.507 711.792C207.673 700.779 200.269 686.075 193.588 672.972C187.973 663.801 184.044 653.846 179.848 643.978C178.102 638.929 176.077 633.936 174.195 628.934C170.467 619.439 167.62 609.895 165.322 599.967Z"/>
	<path fill="#E06F28" d="M299.288 689.132C300.153 688.003 302.115 686.995 303.377 686.373C307.409 684.383 312.404 683.449 316.747 684.907C320.652 685.779 324.02 687.281 326.139 690.869C327.915 693.875 328.179 697.396 327.223 700.71C327.054 701.297 326.857 701.875 326.657 702.452C325.296 704.033 324.081 705.764 322.664 707.292C319.219 711.01 312.678 713.029 307.786 713.256C303.847 713.44 299.772 712.648 296.81 709.874C293.422 706.703 293.036 703.386 292.799 699.029C293.966 694.866 295.87 691.79 299.288 689.132Z"/>
	<path fill="#CE480C" d="M316.747 684.907C320.652 685.779 324.02 687.281 326.139 690.869C327.915 693.875 328.179 697.396 327.223 700.71C327.054 701.297 326.857 701.875 326.657 702.452C325.296 704.033 324.081 705.764 322.664 707.292C319.219 711.01 312.678 713.029 307.786 713.256C303.847 713.44 299.772 712.648 296.81 709.874C293.422 706.703 293.036 703.386 292.799 699.029C293.966 694.866 295.87 691.79 299.288 689.132C298.828 690.017 299.06 689.656 298.468 690.455C297.179 692.195 295.877 693.934 294.999 695.93C293.946 698.324 293.577 701.423 294.63 703.878C295.688 706.344 297.933 707.914 300.406 708.768C305.965 710.689 312.299 709.156 317.363 706.489C320.837 704.658 324.233 701.953 325.294 698.004C326.289 694.304 325.005 691.791 323.097 688.674C320.902 687.513 318.72 686.429 316.747 684.907Z"/>
	<path fill="#F2851E" d="M193.588 672.972C209.835 678.826 227.158 686.293 244.485 687.394C249.079 690.087 287.283 700.544 292.242 699.245C292.435 699.194 292.614 699.101 292.799 699.029C293.036 703.386 293.422 706.703 296.81 709.874C299.772 712.648 303.847 713.44 307.786 713.256C312.678 713.029 319.219 711.01 322.664 707.292C324.081 705.764 325.296 704.033 326.657 702.452C331.429 704.021 369.192 705.831 375.839 705.85C382.834 705.87 391.333 704.852 398.085 706.382C381.865 717.417 357.507 725.854 338.238 729.753C330.936 731.231 320.486 730.444 314.071 734.203C281.231 731.749 248.999 720.813 217.507 711.792C207.673 700.779 200.269 686.075 193.588 672.972Z"/>
	<path fill="#FCFBF5" d="M165.322 599.967L171.81 602.365C181.852 605.866 191.897 609.57 202.125 612.495C226.41 619.438 251.79 623.823 276.827 626.916C284.708 627.89 293.579 629.65 301.501 629.452C329.351 631.235 357.025 631.575 384.916 630.945C387.843 631.034 390.757 631.073 393.685 631.039C378.349 641.338 350.615 658.501 332.835 662.145L333.838 662.49C322.07 673.513 284.552 684.149 268.516 686.05C264.052 686.579 259.586 686.887 255.093 686.985C251.701 687.058 247.796 686.712 244.485 687.394C227.158 686.293 209.835 678.826 193.588 672.972C187.973 663.801 184.044 653.846 179.848 643.978C178.102 638.929 176.077 633.936 174.195 628.934C170.467 619.439 167.62 609.895 165.322 599.967Z"/>
	<path fill="#F9B252" d="M174.195 628.934C210.367 644.685 253.907 653.043 292.806 658.476C305.989 660.317 319.486 662.343 332.835 662.145L333.838 662.49C322.07 673.513 284.552 684.149 268.516 686.05C264.052 686.579 259.586 686.887 255.093 686.985C251.701 687.058 247.796 686.712 244.485 687.394C227.158 686.293 209.835 678.826 193.588 672.972C187.973 663.801 184.044 653.846 179.848 643.978C178.102 638.929 176.077 633.936 174.195 628.934Z"/>
	<path fill="#E06F28" d="M810.852 567.062C825.226 551.285 838.636 535.123 850.934 517.655C857.438 508.418 862.962 497.936 869.985 489.161C870.143 494.259 870.305 499.326 870.082 504.427C870.139 516.483 868.357 548.306 864.685 558.869C864.24 561.433 863.865 564.009 863.096 566.5C858.929 585.074 847.762 631.868 836.43 646.147C836.268 646.23 836.104 646.312 835.943 646.397C826.008 651.652 817.32 660.097 808 666.452C787.33 680.548 766.102 693.319 743.928 704.927C695.137 730.468 644.044 749.426 591.074 764.214C559.287 773.089 527.238 780.518 494.452 784.647C486.603 785.636 478.601 785.826 470.709 786.416C447.885 788.12 425.138 789.276 402.244 788.756C388.441 788.442 374.675 788.015 360.911 786.857C356.708 786.503 352.013 786.449 347.9 785.56C355.687 785.671 363.716 784.704 371.494 784.159C394.743 782.531 417.785 779.872 440.738 775.805C461.468 772.131 481.933 767.384 502.192 761.651C534.088 752.626 565.308 740.666 596.401 729.244C600.804 727.627 605.242 725.738 609.741 724.441C614.418 723.092 619.352 722.305 623.823 720.343C631.093 717.151 660.89 700.532 664.592 695.231C667.249 693.686 670.353 692.558 673.179 691.32C674.12 688.225 679.611 684.659 681.997 682.188C684.982 679.405 689.926 677.349 693.504 675.34C704.448 663.451 718.366 655.028 730.819 644.891C759.412 621.615 787.974 596.07 810.852 567.062Z"/>
	<path fill="#912900" d="M693.504 675.34C702.424 673.958 711.809 667.721 719.709 663.522C757.821 643.266 794.476 620.598 827.533 592.714C834.305 587.002 841.009 581.067 847.364 574.894C852.911 569.507 858 562.872 864.685 558.869C864.24 561.433 863.865 564.009 863.096 566.5C855.482 570.798 848.85 578.897 842.474 584.904C836.144 590.869 829.563 596.626 822.804 602.101C787.008 631.098 748.16 654.777 707.227 675.708C696.403 681.243 684.796 687.683 673.179 691.32C674.12 688.225 679.611 684.659 681.997 682.188C684.982 679.405 689.926 677.349 693.504 675.34Z"/>
	<path fill="#AC4104" d="M810.852 567.062C825.226 551.285 838.636 535.123 850.934 517.655C857.438 508.418 862.962 497.936 869.985 489.161C870.143 494.259 870.305 499.326 870.082 504.427C870.139 516.483 868.357 548.306 864.685 558.869C858 562.872 852.911 569.507 847.364 574.894C841.009 581.067 834.305 587.002 827.533 592.714C794.476 620.598 757.821 643.266 719.709 663.522C711.809 667.721 702.424 673.958 693.504 675.34C704.448 663.451 718.366 655.028 730.819 644.891C759.412 621.615 787.974 596.07 810.852 567.062Z"/>
	<path fill="#F2851E" d="M811.279 322.561C812.468 319.395 814.699 316.197 816.665 313.445C822.189 322.386 827.152 331.581 831.635 341.09C838.268 353.071 843.353 366.233 847.873 379.135C853.326 393.446 858.018 408.401 861.184 423.394C863.423 434.531 866.02 445.585 867.156 456.907C846.083 488.141 822.238 512.004 791.181 533.419C781.18 540.315 769.092 545.712 759.96 553.635C706.26 584.054 656.342 605.557 598.002 625.321C572.167 632.304 546.779 640.217 520.632 646.092C503.728 649.891 486.626 652.078 469.642 655.326C440.058 658.973 410.318 662.791 380.486 663.465C371.494 663.668 362.382 663.591 353.399 663.154C347.169 662.85 340 661.77 333.838 662.49L332.835 662.145C350.615 658.501 378.349 641.338 393.685 631.039C390.757 631.073 387.843 631.034 384.916 630.945C390.122 630.015 395.476 630.952 400.717 630.05C399.007 629.913 397.276 630.007 395.564 629.889C395.867 629.014 395.672 629.197 396.237 628.674C396.413 628.511 396.605 628.367 396.781 628.206C401.747 623.652 407.062 619.354 413.106 616.311C427.843 608.889 445.119 607.943 458.875 598.217C473.049 588.197 477.012 569.333 492.956 561.41C510.697 552.594 531.734 553.788 549.549 544.735C567.689 535.517 574.627 518.204 586.394 502.971C593.204 494.156 601.798 485.788 610.386 478.674C614.862 474.965 634.715 462.208 635.851 458.69C649.757 450.207 664.645 443.4 678.72 435.128C711.762 415.71 756.21 384.56 782.541 357.193C792.91 346.417 801.94 334.222 811.279 322.561Z"/>
	<path fill="#CE480C" d="M739.634 460.545C741.187 460.47 742.815 460.352 744.358 460.589C745.822 460.814 747.338 461.566 748.084 462.902C748.696 464 748.592 465.32 748.212 466.473C746.724 470.989 742.842 473.544 738.887 475.668C737.28 476.066 735.462 476.003 733.821 475.83C732.473 475.688 731.718 475.204 730.839 474.18C730.391 472.961 730.324 472.157 730.633 470.915C731.841 466.059 735.568 462.987 739.634 460.545Z"/>
	<path fill="#AC4104" d="M643.566 475.618C647.169 475.206 650.942 475.325 654.253 476.97C656.953 478.311 658.9 480.649 659.733 483.546C660.944 487.761 659.967 492.371 657.763 496.085C653.853 502.674 647.582 505.295 640.506 507.006C636.02 507.413 631.409 507.387 627.506 504.783C624.941 503.073 623.292 500.416 622.749 497.394C621.985 493.142 623.374 488.928 625.833 485.467C630.196 479.329 636.466 476.929 643.566 475.618Z"/>
	<path fill="#CE480C" d="M644.66 476.688C647.707 476.541 651.252 477.279 653.887 478.857C655.865 480.043 657.15 481.934 657.677 484.167C658.624 488.185 657.105 492.576 654.809 495.861C650.881 501.479 645.226 503.957 638.677 504.962C635.258 505.052 631.531 504.367 628.694 502.335C626.82 500.993 625.61 499.01 625.27 496.737C624.689 492.85 626.173 488.83 628.488 485.744C632.591 480.275 638.091 477.7 644.66 476.688Z"/>
	<path fill="#F39A2D" d="M811.279 322.561C812.468 319.395 814.699 316.197 816.665 313.445C822.189 322.386 827.152 331.581 831.635 341.09C828.648 344.72 826.028 348.884 823.256 352.703C818.795 358.85 814.08 364.806 809.107 370.548C788.545 394.286 749.764 424.199 718.432 430.206C732.427 423.83 744.815 417.656 756.082 406.916C769.288 394.328 810.874 339.159 811.279 322.561Z"/>
	<path fill="#E06F28" d="M847.873 379.135C853.326 393.446 858.018 408.401 861.184 423.394C844.623 445.186 827.683 466.021 806.662 483.752C793.168 495.132 777.767 504.458 762.812 513.758C685.937 561.561 597.093 595.705 508.408 613.78C511.063 607.481 530.391 593.421 536.531 588.248C559.847 568.602 583.181 547.972 611.75 536.295C628.115 529.606 645.659 527.421 662.882 524.018C691.345 518.395 718.627 505.978 742.553 489.689C762.686 475.983 780.502 457.65 792.911 436.65C798.222 427.662 802.287 417.702 809.542 410.013C819.161 399.818 840.954 389.095 847.873 379.135Z"/>
	<path fill="#FEE6CB" d="M861.184 423.394C863.423 434.531 866.02 445.585 867.156 456.907C846.083 488.141 822.238 512.004 791.181 533.419C781.18 540.315 769.092 545.712 759.96 553.635C706.26 584.054 656.342 605.557 598.002 625.321C572.167 632.304 546.779 640.217 520.632 646.092C503.728 649.891 486.626 652.078 469.642 655.326C440.058 658.973 410.318 662.791 380.486 663.465C371.494 663.668 362.382 663.591 353.399 663.154C347.169 662.85 340 661.77 333.838 662.49L332.835 662.145C350.615 658.501 378.349 641.338 393.685 631.039C390.757 631.073 387.843 631.034 384.916 630.945C390.122 630.015 395.476 630.952 400.717 630.05C408.951 630.084 417.619 628.72 425.827 627.83C453.81 624.798 480.948 619.883 508.408 613.78C597.093 595.705 685.937 561.561 762.812 513.758C777.767 504.458 793.168 495.132 806.662 483.752C827.683 466.021 844.623 445.186 861.184 423.394Z"/>
</svg>
