<?xml version="1.0" encoding="utf-8" ?>
<svg xmlns="http://www.w3.org/2000/svg" xmlns:xlink="http://www.w3.org/1999/xlink" width="1024" height="1024">
	<path fill="#FCFDEE" d="M130.02 171.725C130.983 171.816 132.161 172.026 133.012 172.512C134.059 173.111 134.708 173.998 134.831 175.216C134.988 176.778 133.788 178.136 132.919 179.305C132.102 179.182 131.128 179.034 130.384 178.646C129.303 178.082 128.609 177.219 128.388 176.008C128.108 174.474 129.259 172.961 130.02 171.725Z"/>
	<path fill="#15B4DE" d="M876.428 195.536C878.022 195.468 879.594 195.411 881.15 195.829C883.689 196.511 886.067 198.323 887.356 200.621C888.634 202.901 888.924 205.61 888.074 208.088C886.899 211.515 884.614 212.813 881.474 214.251C880.267 214.305 879.023 214.377 877.827 214.169C874.996 213.676 872.322 211.885 870.833 209.417C869.521 207.242 869.166 204.555 869.912 202.125C870.937 198.79 873.447 197.025 876.428 195.536Z"/>
	<path fill="#15B4DE" d="M907.243 121.617C909.377 121.786 911.632 121.873 913.645 122.66C917.127 124.023 919.984 126.606 921.307 130.142C922.549 133.46 922.329 137.224 920.786 140.404C918.607 144.893 914.843 146.791 910.393 148.384C907.733 148.471 905.249 148.135 902.858 146.888C899.441 145.107 896.94 141.97 895.945 138.248C895.032 134.835 895.447 131.089 897.258 128.032C899.567 124.135 902.983 122.573 907.243 121.617Z"/>
	<path fill="#E5AC69" d="M562.343 195.127C574.105 196.809 585.854 199.932 597.322 203.008C608.716 205.564 631.242 212.518 640.535 219.118C641.582 223.193 644.639 226.471 646.028 230.452C648.245 233.99 651.98 238.799 652.477 242.94C637.138 235.106 621.117 227.912 604.94 222.01C599.238 213.894 587.317 207.167 578.439 203.219C573.557 201.047 565.955 199.097 562.343 195.127Z"/>
	<path fill="#D2763B" d="M597.322 203.008C608.716 205.564 631.242 212.518 640.535 219.118C641.582 223.193 644.639 226.471 646.028 230.452C642.242 229.128 638.645 226.447 635.216 224.366C629.447 220.864 623.641 217.324 617.724 214.076C612.111 210.996 601.327 207.618 597.322 203.008Z"/>
	<defs>
		<linearGradient id="gradient_0" gradientUnits="userSpaceOnUse" x1="432.33157" y1="445.99121" x2="303.31168" y2="267.20822">
			<stop offset="0" stop-color="#F0B375"/>
			<stop offset="1" stop-color="#F3C2A3"/>
		</linearGradient>
	</defs>
	<path fill="url(#gradient_0)" d="M194.243 478.549C195.165 469.504 196.604 460.551 198.2 451.603C212.768 369.902 259.452 296.325 327.72 248.843C394.785 202.197 481.474 180.53 562.343 195.127C565.955 199.097 573.557 201.047 578.439 203.219C587.317 207.167 599.238 213.894 604.94 222.01C596.226 220.123 587.69 217.154 578.945 215.215C563.312 211.748 547.807 209.613 531.899 208.019C524.904 207.318 517.866 206.469 510.83 206.409C497.872 206.297 484.934 207.578 472.105 209.251C453.083 212.801 434.399 216.704 415.935 222.555C351.91 242.846 298.549 282.603 260.633 337.989C252.412 349.997 230.057 384.548 229.316 397.548C226.196 408.02 222.141 418.193 219.216 428.72C213.577 449.009 211.02 469.511 209.018 490.418C208.539 495.416 206.588 505.944 208.953 510.323L208.98 511.044C209.129 516.433 208.739 521.825 208.998 527.273C209.451 536.763 210.968 546.408 212.348 555.808C213.676 555.871 215.76 555.714 216.883 556.357C215.372 556.361 213.881 556.119 212.544 556.878C212.866 561.141 214.141 565.439 215.113 569.594C217.516 579.867 220.649 590.182 222.515 600.549L202.622 591.416C193.712 554.865 191.032 515.984 194.243 478.549Z"/>
	<path fill="#A6694A" d="M640.535 219.118C667.264 231.81 689.06 244.972 712.02 263.974C778.22 318.405 818.56 391.536 830.249 476.381C830.77 481.595 831.636 486.999 831.553 492.237C832.848 500.459 832.842 510.506 832.298 518.795C831.789 516.429 831.783 514.208 831.775 511.804C826.071 519.654 821.542 528.531 815.16 535.841C815.363 528.08 816.151 520.346 816.014 512.576C797.085 531.794 778.147 549.132 754.904 563.01C758.515 551.672 762.729 541.099 765.136 529.348L766.006 526.434C767.408 516.576 770.073 506.881 771.848 497.076C775.933 474.515 777.822 452.608 776.794 429.705L776.902 428.499C775.898 415.143 774.592 402.061 771.787 388.943L771.542 388.829C764.537 366.974 759.266 352.02 748.205 331.694C746.607 328.757 744.502 323.799 741.825 321.784L741.101 322.398C741.092 321.444 741.071 320.506 740.772 319.59C739.062 314.357 733.28 309.798 729.65 305.75C707.686 281.256 683.855 260.022 654.529 244.783L652.477 242.94C651.98 238.799 648.245 233.99 646.028 230.452C644.639 226.471 641.582 223.193 640.535 219.118Z"/>
	<path fill="#9D452C" d="M779.666 367.438C787.257 378.579 792.246 393.034 795.578 405.997C789.314 413.467 783.051 420.934 776.902 428.499C775.898 415.143 774.592 402.061 771.787 388.943C775.856 382.351 777.792 374.875 779.666 367.438Z"/>
	<path fill="#B26E66" d="M640.535 219.118C667.264 231.81 689.06 244.972 712.02 263.974C712.131 265.424 712.258 266.644 712.975 267.932C716.608 274.459 722.578 280.215 727.043 286.232C736.916 299.541 776.824 354.438 779.666 367.438C777.792 374.875 775.856 382.351 771.787 388.943L771.542 388.829C764.537 366.974 759.266 352.02 748.205 331.694C746.607 328.757 744.502 323.799 741.825 321.784L741.101 322.398C741.092 321.444 741.071 320.506 740.772 319.59C739.062 314.357 733.28 309.798 729.65 305.75C707.686 281.256 683.855 260.022 654.529 244.783L652.477 242.94C651.98 238.799 648.245 233.99 646.028 230.452C644.639 226.471 641.582 223.193 640.535 219.118Z"/>
	<path fill="#9D452C" d="M766.006 526.434C770.782 522.516 774.601 516.529 778.001 511.415C792.187 490.079 801.088 467.949 809.24 443.763C815.531 465.609 815.918 489.867 816.076 512.438C820.4 507.702 825.238 503.719 829.728 499.195C831.822 497.084 831.495 495.065 831.553 492.237C832.848 500.459 832.842 510.506 832.298 518.795C831.789 516.429 831.783 514.208 831.775 511.804C826.071 519.654 821.542 528.531 815.16 535.841C815.363 528.08 816.151 520.346 816.014 512.576C797.085 531.794 778.147 549.132 754.904 563.01C758.515 551.672 762.729 541.099 765.136 529.348L766.006 526.434Z"/>
	<defs>
		<linearGradient id="gradient_1" gradientUnits="userSpaceOnUse" x1="402.49225" y1="365.43173" x2="320.57892" y2="273.02997">
			<stop offset="0" stop-color="#E5A172"/>
			<stop offset="1" stop-color="#EEBEA6"/>
		</linearGradient>
	</defs>
	<path fill="url(#gradient_1)" d="M229.316 397.548C230.057 384.548 252.412 349.997 260.633 337.989C298.549 282.603 351.91 242.846 415.935 222.555C434.399 216.704 453.083 212.801 472.105 209.251C479.001 213.737 486.179 217.883 492.829 222.723C505.783 232.151 517.706 244.039 528.307 256C521.531 259.009 514.339 260.43 507.395 262.922C494.515 267.546 452.773 284.785 443.314 292.49L442.979 292.48C427.726 276.66 409.365 266.458 386.956 266.041C354.148 265.431 328.976 277.208 305.616 299.858C284.027 320.791 268.78 348.251 268.411 378.826C268.314 386.855 268.919 401.791 273.257 408.663C274.191 421.753 288.305 439.775 297.596 448.277C289.026 454.677 279.784 461.532 270.496 466.827C256.32 453.071 245.312 436.003 237.475 417.873C234.667 411.376 232.733 404.423 229.591 398.088L229.316 397.548Z"/>
	<path fill="#F1C59C" d="M440.406 227.479C441.283 227.461 442.167 227.433 443.041 227.533C444.909 227.745 446.766 228.754 447.904 230.264C448.924 231.618 449.295 233.271 448.996 234.936C448.481 237.804 446.528 239.339 444.23 240.86C443.731 240.907 443.77 240.914 443.172 240.903C441.011 240.863 438.787 240.301 437.333 238.593C436.264 237.338 435.884 235.656 436.08 234.041C436.451 230.988 438.121 229.34 440.406 227.479Z"/>
	<path fill="#F1C59C" d="M432.259 254.89C432.952 254.978 432.952 254.962 433.73 255.145C435.651 255.596 437.424 256.603 438.448 258.337C439.466 260.059 439.47 262.092 438.838 263.952C437.85 266.861 435.911 268.33 433.298 269.727C430.595 268.856 427.974 267.378 426.704 264.723C425.958 263.163 425.906 261.439 426.539 259.829C427.56 257.235 429.873 256.007 432.259 254.89Z"/>
	<path fill="#F1C59C" d="M473.445 250.044C474.306 250.13 475.178 250.216 476.024 250.4C477.953 250.819 479.677 252.02 480.705 253.711C481.689 255.33 481.859 257.122 481.342 258.934C480.534 261.768 478.41 263.136 475.948 264.453C474.893 264.304 473.793 264.169 472.768 263.87C470.903 263.326 469.171 261.68 468.305 259.975C467.427 258.247 467.328 256.474 468.039 254.661C468.957 252.321 471.196 250.875 473.445 250.044Z"/>
	<path fill="#F9D59F" d="M273.257 408.663C268.919 401.791 268.314 386.855 268.411 378.826C268.78 348.251 284.027 320.791 305.616 299.858C328.976 277.208 354.148 265.431 386.956 266.041C409.365 266.458 427.726 276.66 442.979 292.48C428.23 302.681 411.143 312.678 398.974 325.973C389.335 336.504 381.641 348.503 372.941 359.77C369.355 364.414 364.774 368.216 361.269 372.932C356.314 379.599 352.194 386.922 346.986 393.402C332.675 411.206 313.443 418.281 290.877 414.151C284.741 413.028 279.033 410.94 273.257 408.663Z"/>
	<path fill="#FCFDEE" d="M345.751 301.584C353.032 301.127 360.644 302.221 367.122 305.721C373.846 309.355 378.911 315.724 381.01 323.071C383.602 332.145 381.849 342.857 375.486 349.995C372.357 353.506 368.377 356.353 365.521 360.093C361.95 364.767 359.728 370.216 356.794 375.272C351.221 384.873 342.766 388.715 332.445 391.445C324.497 392.936 315.443 391.899 308.488 387.594C301.731 383.412 297.363 376.381 295.7 368.711C292.767 355.179 297.574 341.104 304.858 329.764C314.405 314.903 328.553 305.323 345.751 301.584Z"/>
	<path fill="#9D452C" d="M239.5 677.21C247.372 680.881 255.221 684.759 263.458 687.565L266.142 689.654C269.828 698.197 277.48 706.726 284.013 713.321C276.804 712.27 266.142 707.506 259.475 708.156C252.795 702.046 244.101 685.295 239.5 677.21Z"/>
	<defs>
		<linearGradient id="gradient_2" gradientUnits="userSpaceOnUse" x1="313.72327" y1="767.95258" x2="278.27673" y2="699.54742">
			<stop offset="0" stop-color="#925D5A"/>
			<stop offset="1" stop-color="#A47567"/>
		</linearGradient>
	</defs>
	<path fill="url(#gradient_2)" d="M259.475 708.156C266.142 707.506 276.804 712.27 284.013 713.321L284.593 713.787C294.5 724.904 304.856 735.462 315.941 745.413C319.699 748.787 330.475 755.517 332.342 759.535L331.677 760.209C322.339 759.576 313.523 756.183 304.115 755.8C287.332 741.787 272.342 725.852 259.475 708.156Z"/>
	<path fill="#5E2630" d="M827.735 563.442C814.973 647.46 765.578 725.005 697.394 775.171C628.217 826.068 541.984 844.312 457.513 831.374C411.058 824.258 368.374 805.715 330.648 777.822C321.445 771.017 312.245 763.882 304.115 755.8C313.523 756.183 322.339 759.576 331.677 760.209C332.907 760.408 334.119 760.622 335.337 760.885C373.836 793.853 419.032 806.534 468.652 811.742C486.634 813.63 504.901 814.793 522.973 813.672C540.584 812.58 558.175 810.755 575.426 806.942C639.142 792.859 696.188 755.938 739.07 707.239C760.674 682.705 777.915 655.094 791.403 625.366C793.883 619.9 798.233 611.872 797.853 605.846L801.113 601.803C810.855 589.523 819.413 576.717 827.735 563.442Z"/>
	<defs>
		<linearGradient id="gradient_3" gradientUnits="userSpaceOnUse" x1="749.39972" y1="752.40948" x2="381.60229" y2="631.20514">
			<stop offset="0" stop-color="#4B1A26"/>
			<stop offset="1" stop-color="#661720"/>
		</linearGradient>
	</defs>
	<path fill="url(#gradient_3)" d="M831.775 511.804C831.783 514.208 831.789 516.429 832.298 518.795C832.665 533.161 831.581 549.588 827.735 563.442C819.413 576.717 810.855 589.523 801.113 601.803L797.853 605.846C798.233 611.872 793.883 619.9 791.403 625.366C777.915 655.094 760.674 682.705 739.07 707.239C696.188 755.938 639.142 792.859 575.426 806.942C558.175 810.755 540.584 812.58 522.973 813.672C504.901 814.793 486.634 813.63 468.652 811.742C419.032 806.534 373.836 793.853 335.337 760.885C347.853 761.351 360.741 765.728 372.986 768.221C398.842 773.483 436.524 777.45 462.638 773.872L465.867 773.888C475.697 771.83 486.064 771.273 496.006 769.469C514.957 766.032 533.651 761.184 552.286 756.348C553.334 755.617 554.318 754.742 555.316 753.942L559.552 752.731C565.644 747.981 574.672 745.496 581.726 742.331C589.098 739.024 596.352 735.354 603.441 731.479C645.717 708.363 693.562 664.721 719.109 623.844L721.535 622.762C733.118 604.359 744.572 586.325 753.045 566.233L754.904 563.01C778.147 549.132 797.085 531.794 816.014 512.576C816.151 520.346 815.363 528.08 815.16 535.841C821.542 528.531 826.071 519.654 831.775 511.804Z"/>
	<path fill="#5E2630" d="M552.286 756.348C560.392 760.334 568.785 764.884 571.826 774.084C573.064 777.829 572.881 781.815 571.015 785.322C568.17 790.668 562.436 793.794 556.785 795.366C534.43 801.585 513.254 789.98 492.632 783.069C483.787 780.105 474.144 778.289 465.867 773.888C475.697 771.83 486.064 771.273 496.006 769.469C514.957 766.032 533.651 761.184 552.286 756.348Z"/>
	<path fill="#9D452C" d="M831.775 511.804C831.783 514.208 831.789 516.429 832.298 518.795C832.665 533.161 831.581 549.588 827.735 563.442C819.413 576.717 810.855 589.523 801.113 601.803L797.853 605.846C786.321 619.053 775.053 632.655 762.891 645.283C723.863 685.808 678.508 716.972 625.844 736.873C606.44 744.206 584.243 751.196 563.42 752.64C562.124 752.73 560.851 752.76 559.552 752.731C565.644 747.981 574.672 745.496 581.726 742.331C589.098 739.024 596.352 735.354 603.441 731.479C645.717 708.363 693.562 664.721 719.109 623.844L721.535 622.762C733.118 604.359 744.572 586.325 753.045 566.233L754.904 563.01C778.147 549.132 797.085 531.794 816.014 512.576C816.151 520.346 815.363 528.08 815.16 535.841C821.542 528.531 826.071 519.654 831.775 511.804Z"/>
	<path fill="#A6694A" d="M831.775 511.804C831.783 514.208 831.789 516.429 832.298 518.795C832.665 533.161 831.581 549.588 827.735 563.442C819.413 576.717 810.855 589.523 801.113 601.803C800.561 600.318 801.176 598.268 801.502 596.746C805.649 577.404 812.307 558.796 813.597 538.853L815.16 535.841C821.542 528.531 826.071 519.654 831.775 511.804Z"/>
	<path fill="#7C1C1B" d="M816.014 512.576C816.151 520.346 815.363 528.08 815.16 535.841L813.597 538.853C805.161 547.975 795.373 555.841 787.246 565.231C781.464 571.911 777.141 579.711 771.729 586.668C760.351 601.296 739.829 618.172 721.535 622.762C733.118 604.359 744.572 586.325 753.045 566.233L754.904 563.01C778.147 549.132 797.085 531.794 816.014 512.576Z"/>
	<path fill="#A6694A" d="M657.023 611.89C668.682 606.386 679.889 600.431 691.879 595.6C688.426 601.559 684.579 608.125 686.315 615.3C687.175 618.857 689.416 621.832 692.554 623.704C700.183 628.256 711.046 626.028 719.109 623.844C693.562 664.721 645.717 708.363 603.441 731.479C596.352 735.354 589.098 739.024 581.726 742.331C574.672 745.496 565.644 747.981 559.552 752.731L555.316 753.942C554.318 754.742 553.334 755.617 552.286 756.348C533.651 761.184 514.957 766.032 496.006 769.469C486.064 771.273 475.697 771.83 465.867 773.888L462.638 773.872C436.524 777.45 398.842 773.483 372.986 768.221C360.741 765.728 347.853 761.351 335.337 760.885C334.119 760.622 332.907 760.408 331.677 760.209L332.342 759.535C330.475 755.517 319.699 748.787 315.941 745.413C304.856 735.462 294.5 724.904 284.593 713.787L284.013 713.321C277.48 706.726 269.828 698.197 266.142 689.654C282.187 696.28 296.616 699.94 314.065 698.874L314.266 698.485C323.377 699.199 345.046 690.851 354.704 687.99L355.788 688.051C371.093 683.378 388.899 673.527 403.956 666.946L404.686 666.79C408.944 664.788 413.218 662.636 417.132 660.019L417.478 659.803C426.927 661.863 437.1 661.925 446.74 662.073C477.54 662.546 509.55 660.716 539.459 652.855L540.089 652.965C556.867 648.93 573.516 644.738 589.887 639.211C612.574 631.551 634.788 621.85 656.725 612.264L657.023 611.89Z"/>
	<path fill="#9D452C" d="M656.725 612.264C652.782 631.144 642.35 647.316 626.009 657.926C609.079 668.92 589.37 671.696 569.804 667.411C558.657 664.971 548.456 660.925 540.089 652.965C556.867 648.93 573.516 644.738 589.887 639.211C612.574 631.551 634.788 621.85 656.725 612.264Z"/>
	<path fill="#9D452C" d="M404.686 666.79C416.507 669.284 428.166 671.489 440.15 673.082C463.37 676.167 504.71 677.118 519.157 698.385C521.299 701.538 522.524 705.084 521.663 708.895C520.487 714.099 516.407 718.284 511.936 720.914C492.003 732.637 446.262 722.707 424.594 716.597C402.69 710.421 374.843 700.439 355.788 688.051C371.093 683.378 388.899 673.527 403.956 666.946L404.686 666.79Z"/>
	<path fill="#7C1C1B" d="M266.142 689.654C282.187 696.28 296.616 699.94 314.065 698.874C319.942 699.554 326.64 703.079 332.133 705.323C345.453 710.766 358.502 716.409 371.561 722.439C430.634 749.715 490.477 759.992 555.316 753.942C554.318 754.742 553.334 755.617 552.286 756.348C533.651 761.184 514.957 766.032 496.006 769.469C486.064 771.273 475.697 771.83 465.867 773.888L462.638 773.872C436.524 777.45 398.842 773.483 372.986 768.221C360.741 765.728 347.853 761.351 335.337 760.885C334.119 760.622 332.907 760.408 331.677 760.209L332.342 759.535C330.475 755.517 319.699 748.787 315.941 745.413C304.856 735.462 294.5 724.904 284.593 713.787L284.013 713.321C277.48 706.726 269.828 698.197 266.142 689.654Z"/>
	<path fill="#9D452C" d="M284.593 713.787C308.807 716.489 335.633 721.616 358.252 730.801C369.281 735.28 379.807 741.1 390.559 746.196C400.417 750.869 410.566 754.905 420.757 758.787C428.617 761.781 436.563 764.583 444.533 767.272C450.133 769.162 457.708 770.622 462.638 773.872C436.524 777.45 398.842 773.483 372.986 768.221C360.741 765.728 347.853 761.351 335.337 760.885C334.119 760.622 332.907 760.408 331.677 760.209L332.342 759.535C330.475 755.517 319.699 748.787 315.941 745.413C304.856 735.462 294.5 724.904 284.593 713.787Z"/>
	<defs>
		<linearGradient id="gradient_4" gradientUnits="userSpaceOnUse" x1="564.90741" y1="541.55164" x2="362.94937" y2="292.0676">
			<stop offset="0" stop-color="#C74E21"/>
			<stop offset="1" stop-color="#D97841"/>
		</linearGradient>
	</defs>
	<path fill="url(#gradient_4)" d="M472.105 209.251C484.934 207.578 497.872 206.297 510.83 206.409C517.866 206.469 524.904 207.318 531.899 208.019C547.807 209.613 563.312 211.748 578.945 215.215C587.69 217.154 596.226 220.123 604.94 222.01C621.117 227.912 637.138 235.106 652.477 242.94L654.529 244.783C683.855 260.022 707.686 281.256 729.65 305.75C733.28 309.798 739.062 314.357 740.772 319.59C741.071 320.506 741.092 321.444 741.101 322.398L741.825 321.784C744.502 323.799 746.607 328.757 748.205 331.694C759.266 352.02 764.537 366.974 771.542 388.829L771.787 388.943C774.592 402.061 775.898 415.143 776.902 428.499L776.794 429.705C777.822 452.608 775.933 474.515 771.848 497.076C770.073 506.881 767.408 516.576 766.006 526.434L765.136 529.348C762.729 541.099 758.515 551.672 754.904 563.01L753.045 566.233C744.572 586.325 733.118 604.359 721.535 622.762L719.109 623.844C711.046 626.028 700.183 628.256 692.554 623.704C689.416 621.832 687.175 618.857 686.315 615.3C684.579 608.125 688.426 601.559 691.879 595.6C679.889 600.431 668.682 606.386 657.023 611.89L656.725 612.264C634.788 621.85 612.574 631.551 589.887 639.211C573.516 644.738 556.867 648.93 540.089 652.965L539.459 652.855C509.55 660.716 477.54 662.546 446.74 662.073C437.1 661.925 426.927 661.863 417.478 659.803L417.132 660.019C413.218 662.636 408.944 664.788 404.686 666.79L403.956 666.946C388.899 673.527 371.093 683.378 355.788 688.051L354.704 687.99C345.046 690.851 323.377 699.199 314.266 698.485L314.065 698.874C296.616 699.94 282.187 696.28 266.142 689.654L263.458 687.565C255.221 684.759 247.372 680.881 239.5 677.21C231.879 669.259 226.737 656.256 222.18 646.267C217.015 635.541 212.737 624.613 208.633 613.444C207.022 609.004 205.76 604.576 204.59 600.008C203.791 597.202 203.253 594.266 202.622 591.416L222.515 600.549C220.649 590.182 217.516 579.867 215.113 569.594C214.141 565.439 212.866 561.141 212.544 556.878C213.881 556.119 215.372 556.361 216.883 556.357C215.76 555.714 213.676 555.871 212.348 555.808C210.968 546.408 209.451 536.763 208.998 527.273C208.739 521.825 209.129 516.433 208.98 511.044L208.953 510.323C206.588 505.944 208.539 495.416 209.018 490.418C211.02 469.511 213.577 449.009 219.216 428.72C222.141 418.193 226.196 408.02 229.316 397.548L229.591 398.088C232.733 404.423 234.667 411.376 237.475 417.873C245.312 436.003 256.32 453.071 270.496 466.827C279.784 461.532 289.026 454.677 297.596 448.277C288.305 439.775 274.191 421.753 273.257 408.663C279.033 410.94 284.741 413.028 290.877 414.151C313.443 418.281 332.675 411.206 346.986 393.402C352.194 386.922 356.314 379.599 361.269 372.932C364.774 368.216 369.355 364.414 372.941 359.77C381.641 348.503 389.335 336.504 398.974 325.973C411.143 312.678 428.23 302.681 442.979 292.48L443.314 292.49C452.773 284.785 494.515 267.546 507.395 262.922C514.339 260.43 521.531 259.009 528.307 256C517.706 244.039 505.783 232.151 492.829 222.723C486.179 217.883 479.001 213.737 472.105 209.251Z"/>
	<path fill="#F1C59C" d="M639.95 442.181C639.27 446.847 621.815 465.893 617.799 469.24C617.28 469.672 617.196 469.698 616.689 469.988C620.773 458.78 630.356 448.907 639.95 442.181Z"/>
	<path fill="#E5AC69" d="M573.364 460.487C573.937 460.465 574.509 460.447 575.083 460.452C577.676 460.477 580.118 461.228 581.918 463.193C583.059 464.44 583.581 465.995 583.481 467.678C583.297 470.792 581.353 472.526 579.169 474.498L578.606 474.523C575.643 474.635 573.041 474.412 570.83 472.193C569.663 471.022 569.064 469.556 569.082 467.907C569.119 464.653 571.173 462.614 573.364 460.487Z"/>
	<path fill="#D2763B" d="M635.077 339.525C636.513 339.465 638.102 339.39 639.524 339.616C641.447 339.922 643.53 341.536 644.666 343.062C645.847 344.65 646.289 346.495 645.915 348.442C645.363 351.31 643.369 352.864 641.027 354.334C639.822 354.558 638.473 354.692 637.248 354.557C635.338 354.346 633.299 353.17 632.106 351.677C630.835 350.085 630.362 348.044 630.603 346.04C630.971 342.988 632.777 341.337 635.077 339.525Z"/>
	<path fill="#E5AC69" d="M443.622 528.026C444.254 527.997 444.875 527.971 445.507 527.988C447.924 528.05 450.325 528.815 451.977 530.666C453.287 532.133 453.787 534.027 453.621 535.965C453.277 539.978 450.979 542.051 448.104 544.483C447.24 544.52 446.358 544.563 445.495 544.49C443.192 544.296 440.752 542.903 439.429 541.011C438.174 539.216 437.891 537.02 438.313 534.903C438.97 531.613 440.988 529.869 443.622 528.026Z"/>
	<path fill="#D2763B" d="M607.522 410.028C608.187 409.995 608.842 409.967 609.508 409.975C612.114 410.007 614.551 410.777 616.325 412.786C617.654 414.29 618.173 416.214 618.009 418.193C617.695 421.988 615.45 424.116 612.702 426.444C611.783 426.502 610.858 426.572 609.938 426.508C607.726 426.355 605.578 425.244 604.161 423.535C602.747 421.831 602.246 419.603 602.531 417.433C602.979 414.026 604.924 412.049 607.522 410.028Z"/>
	<path fill="#D2763B" d="M628.218 306.516C628.924 306.501 628.939 306.482 629.75 306.569C632.269 306.841 634.972 308.117 636.459 310.22C637.83 312.159 638.092 314.51 637.585 316.791C636.82 320.228 634.642 321.773 631.825 323.606C631.053 323.602 630.269 323.617 629.502 323.5C627.061 323.128 624.599 321.61 623.281 319.512C622.041 317.541 621.869 315.18 622.433 312.957C623.263 309.687 625.418 308.119 628.218 306.516Z"/>
	<path fill="#D2763B" d="M658.311 328.719C660.139 327.585 661.977 326.572 664.186 326.553C666.079 326.537 667.853 327.113 669.185 328.507C671.338 330.761 671.562 332.635 671.593 335.677L671.469 339.175C670.173 340.795 668.42 342.313 666.437 342.999C664.349 343.721 662.09 343.51 660.158 342.44C658.064 341.279 656.734 339.355 656.122 337.069C655.239 333.77 656.626 331.465 658.311 328.719Z"/>
	<path fill="#E5AC69" d="M246.047 463.066C248.704 462.997 251.311 463.026 253.599 464.57C256.413 466.47 257.237 469.521 257.909 472.663C256.193 476.636 255.013 479.175 250.975 481.072C247.129 481.666 245.545 481.306 242.046 479.615C241.3 478.441 240.538 477.232 239.948 475.971C238.987 473.921 238.795 471.173 239.584 469.039C240.715 465.982 243.239 464.397 246.047 463.066Z"/>
	<path fill="#E5AC69" d="M540.176 230.056C541.748 229.966 543.348 229.924 544.894 230.287C547.815 230.972 550.575 232.835 552.085 235.45C553.469 237.848 553.848 240.704 553.065 243.367C551.854 247.486 549.004 249.496 545.394 251.462C542.938 251.767 540.562 251.397 538.371 250.209C534.688 248.212 533.338 244.542 532.312 240.757C532.501 239.93 532.707 239.109 532.936 238.291C534.173 233.872 536.289 232.218 540.176 230.056Z"/>
	<path fill="#E5AC69" d="M334.301 534.607C338.287 534.157 342.069 534.515 345.762 536.191C350.269 538.237 353.54 542.068 355.196 546.702C356.993 551.733 356.778 557.248 354.318 562.021C351.582 567.331 347.452 569.771 342.021 571.592C337.938 572.474 333.832 572.115 330.039 570.297C325.592 568.166 322.375 564.122 320.827 559.485C319.156 554.477 319.451 548.955 321.863 544.237C324.592 538.902 328.846 536.443 334.301 534.607Z"/>
	<path fill="#D2763B" d="M563.474 346.137C575.741 348.987 585.343 353.747 592.267 364.7C597.944 373.679 600.087 384.723 597.63 395.106C595.183 405.445 588.43 414.156 579.415 419.673C570.675 425.021 559.71 427.205 549.703 424.692C547.112 424.042 544.612 422.976 542.04 422.345L541.956 422.084C556.242 401.292 563.596 371.398 563.413 346.421L563.474 346.137Z"/>
	<path fill="#F9D59F" d="M208.953 510.323C225.763 506.268 242.002 509.574 256.622 518.586C271.783 527.931 284.842 540.353 296.079 554.097C312.548 574.24 321.355 590.557 344.655 604.797C337.62 608.425 314.454 608.835 305.518 609.502C302.975 609.692 299.127 609.437 296.86 610.401C291.9 607.282 287.667 602.339 283.352 598.335C269.894 585.85 251.196 566.59 234.062 559.744C228.484 557.515 222.849 556.665 216.883 556.357C215.76 555.714 213.676 555.871 212.348 555.808C210.968 546.408 209.451 536.763 208.998 527.273C208.739 521.825 209.129 516.433 208.98 511.044L208.953 510.323Z"/>
	<path fill="#F1C59C" d="M344.655 604.797C351.969 608.216 359.251 611.548 366.98 613.952C401.307 624.63 435.414 618.672 464.535 597.95C470.633 593.611 476.28 588.509 482.102 583.803C500.919 568.593 515.219 563.895 539.081 561.764L540.466 562.275C538.403 566.745 532.118 570.905 528.724 574.623C505.837 599.692 477.354 621.55 449.016 640.252C442.985 644.232 436.807 648.002 430.569 651.647C426.209 654.194 421.339 656.532 417.478 659.803L417.132 660.019C413.218 662.636 408.944 664.788 404.686 666.79L403.956 666.946C400.784 665.345 396.693 664.631 393.269 663.515C382.882 660.131 370.143 656.35 360.976 650.376C350.446 647.317 340.701 641.005 330.854 636.301C318.857 628.659 307.924 620.062 297.026 610.935L296.86 610.401C299.127 609.437 302.975 609.692 305.518 609.502C314.454 608.835 337.62 608.425 344.655 604.797Z"/>
	<path fill="#E5AC69" d="M360.976 650.376C370.762 650.892 381.046 654.109 390.688 656.072C396.741 657.305 402.928 657.862 409.058 658.585C411.705 658.897 414.61 659.118 417.132 660.019C413.218 662.636 408.944 664.788 404.686 666.79L403.956 666.946C400.784 665.345 396.693 664.631 393.269 663.515C382.882 660.131 370.143 656.35 360.976 650.376Z"/>
	<path fill="#A6694A" d="M416.186 627.507C417.765 627.459 419.355 627.386 420.897 627.791C423.787 628.55 426.527 630.343 428.015 632.98C429.173 635.032 429.458 637.429 428.798 639.692C427.734 643.335 425.124 645.041 421.948 646.738C420.143 647.06 418.144 647.18 416.371 646.649C413.829 645.889 411.756 644.332 410.508 641.971C409.202 639.498 409.035 636.604 409.882 633.957C410.98 630.525 413.126 629.136 416.186 627.507Z"/>
	<path fill="#9D452C" d="M654.529 244.783C683.855 260.022 707.686 281.256 729.65 305.75C733.28 309.798 739.062 314.357 740.772 319.59C741.071 320.506 741.092 321.444 741.101 322.398C739.635 352.062 734.212 382.497 711.11 403.42C696.326 416.81 678.396 422.787 660.505 430.62C655.526 432.8 650.801 435.328 645.971 437.804C645.568 436.411 646.356 435.526 646.986 434.362C662.588 405.509 670.325 371.879 671.469 339.175L671.593 335.677C674.491 315.72 668.764 287.32 662.779 267.999C660.355 260.172 657.265 252.511 654.529 244.783Z"/>
	<path fill="#D2763B" d="M710.137 341.944C710.694 341.963 711.252 341.973 711.806 342.026C714.306 342.266 716.909 343.392 718.43 345.459C719.807 347.329 720.076 349.64 719.58 351.867C718.745 355.613 716.449 357.556 713.383 359.589C712.599 359.585 711.783 359.579 711.013 359.42C708.524 358.907 705.959 357.024 704.693 354.835C703.488 352.754 703.308 350.282 704.007 348.002C704.983 344.819 707.332 343.395 710.137 341.944Z"/>
	<path fill="#E5AC69" d="M222.515 600.549C220.649 590.182 217.516 579.867 215.113 569.594C214.141 565.439 212.866 561.141 212.544 556.878C213.881 556.119 215.372 556.361 216.883 556.357C222.849 556.665 228.484 557.515 234.062 559.744C251.196 566.59 269.894 585.85 283.352 598.335C287.667 602.339 291.9 607.282 296.86 610.401L297.026 610.935C307.924 620.062 318.857 628.659 330.854 636.301C340.701 641.005 350.446 647.317 360.976 650.376C370.143 656.35 382.882 660.131 393.269 663.515C396.693 664.631 400.784 665.345 403.956 666.946C388.899 673.527 371.093 683.378 355.788 688.051L354.704 687.99C345.046 690.851 323.377 699.199 314.266 698.485L314.065 698.874C296.616 699.94 282.187 696.28 266.142 689.654L263.458 687.565C255.221 684.759 247.372 680.881 239.5 677.21C231.879 669.259 226.737 656.256 222.18 646.267C217.015 635.541 212.737 624.613 208.633 613.444C207.022 609.004 205.76 604.576 204.59 600.008C203.791 597.202 203.253 594.266 202.622 591.416L222.515 600.549Z"/>
	<path fill="#F1C59C" d="M208.633 613.444C212.605 611.959 224.461 617.474 228.986 618.578C233.799 625.358 238.946 640.05 241.056 648.284C235.298 646.955 228.075 645.171 222.18 646.267C217.015 635.541 212.737 624.613 208.633 613.444Z"/>
	<path fill="#D2763B" d="M241.668 648.517C245.68 649.824 249.765 650.957 253.336 653.264C266.276 661.627 277.586 673.067 290.003 682.276C296.021 686.738 310.013 694.199 314.266 698.485L314.065 698.874C296.616 699.94 282.187 696.28 266.142 689.654L263.458 687.565C261.984 682.087 254.847 673.236 251.657 667.998C247.8 661.666 244.463 655.39 241.668 648.517Z"/>
	<path fill="#D2763B" d="M252.015 626.449C258.806 626.566 265.716 629.796 272.346 631.262C282.778 633.569 322.584 639.931 330.854 636.301C340.701 641.005 350.446 647.317 360.976 650.376C370.143 656.35 382.882 660.131 393.269 663.515C396.693 664.631 400.784 665.345 403.956 666.946C388.899 673.527 371.093 683.378 355.788 688.051L354.704 687.99C346.888 682.41 337.48 678.147 329.187 673.198C313.481 663.825 298.246 653.679 282.586 644.214C272.473 638.1 261.929 632.93 252.015 626.449Z"/>
	<path fill="#D2763B" d="M222.515 600.549C220.649 590.182 217.516 579.867 215.113 569.594C214.141 565.439 212.866 561.141 212.544 556.878C213.881 556.119 215.372 556.361 216.883 556.357C222.849 556.665 228.484 557.515 234.062 559.744C251.196 566.59 269.894 585.85 283.352 598.335C287.667 602.339 291.9 607.282 296.86 610.401L297.026 610.935C307.924 620.062 318.857 628.659 330.854 636.301C322.584 639.931 282.778 633.569 272.346 631.262C265.716 629.796 258.806 626.566 252.015 626.449C246.407 625.071 230.933 617.919 227.367 613.484C220.153 609.353 212.711 601.801 204.59 600.008C203.791 597.202 203.253 594.266 202.622 591.416L222.515 600.549Z"/>
	<path fill="#A6694A" d="M223.38 601.184C245.049 607.208 274.59 614.773 297.026 610.935C307.924 620.062 318.857 628.659 330.854 636.301C322.584 639.931 282.778 633.569 272.346 631.262C265.716 629.796 258.806 626.566 252.015 626.449C246.407 625.071 230.933 617.919 227.367 613.484C225.974 609.406 224.695 605.288 223.38 601.184Z"/>
	<path fill="#E5AC69" d="M741.101 322.398L741.825 321.784C744.502 323.799 746.607 328.757 748.205 331.694C759.266 352.02 764.537 366.974 771.542 388.829C759.39 411.792 742.039 438.714 717.773 449.947C706.421 455.202 694.867 458.991 685.504 467.683C672.71 479.56 663.684 495.731 654.069 510.164C644.524 524.49 633.789 538.508 621.347 550.445C597.945 572.898 564.152 581.801 542.886 606.956C535.222 616.022 528.565 627.948 532.244 640.132C533.64 644.757 536.41 649.149 539.459 652.855C509.55 660.716 477.54 662.546 446.74 662.073C437.1 661.925 426.927 661.863 417.478 659.803C421.339 656.532 426.209 654.194 430.569 651.647C436.807 648.002 442.985 644.232 449.016 640.252C477.354 621.55 505.837 599.692 528.724 574.623C532.118 570.905 538.403 566.745 540.466 562.275L539.081 561.764C540.823 561.28 542.969 561.552 544.838 561.2C544.1 560.84 544.394 561.124 544.029 560.282C544.106 560.157 544.182 560.031 544.262 559.908C549.787 551.272 558.146 543.528 564.994 535.865C572.305 527.685 579.111 519.205 585.988 510.669C589.449 506.374 608.957 480.281 612.155 479.563C613.569 476.362 614.799 472.936 616.689 469.988C617.196 469.698 617.28 469.672 617.799 469.24C621.815 465.893 639.27 446.847 639.95 442.181C641.462 440.557 644.115 439.089 645.971 437.804C650.801 435.328 655.526 432.8 660.505 430.62C678.396 422.787 696.326 416.81 711.11 403.42C734.212 382.497 739.635 352.062 741.101 322.398Z"/>
	<path fill="#9D452C" d="M719.752 416.432C720.33 416.47 720.909 416.512 721.482 416.602C723.723 416.955 726.064 418.263 727.295 420.207C728.351 421.876 728.492 423.821 727.964 425.702C727.111 428.745 724.981 429.961 722.364 431.409C721.655 431.461 720.807 431.419 720.098 431.292C718.305 430.972 716.5 430.173 715.427 428.648C714.107 426.771 714.132 424.453 714.669 422.304C715.409 419.342 717.242 417.942 719.752 416.432Z"/>
	<path fill="#9D452C" d="M544.838 561.2C544.1 560.84 544.394 561.124 544.029 560.282C544.106 560.157 544.182 560.031 544.262 559.908C549.787 551.272 558.146 543.528 564.994 535.865C572.305 527.685 579.111 519.205 585.988 510.669C589.449 506.374 608.957 480.281 612.155 479.563C603.592 505.916 602.696 539.59 574.81 553.639C565.465 558.346 555.232 560.518 544.838 561.2Z"/>
	<path fill="#D2763B" d="M771.542 388.829L771.787 388.943C774.592 402.061 775.898 415.143 776.902 428.499L776.794 429.705C777.822 452.608 775.933 474.515 771.848 497.076C770.073 506.881 767.408 516.576 766.006 526.434L765.136 529.348C762.729 541.099 758.515 551.672 754.904 563.01L753.045 566.233C744.572 586.325 733.118 604.359 721.535 622.762L719.109 623.844C711.046 626.028 700.183 628.256 692.554 623.704C689.416 621.832 687.175 618.857 686.315 615.3C684.579 608.125 688.426 601.559 691.879 595.6C679.889 600.431 668.682 606.386 657.023 611.89L656.725 612.264C634.788 621.85 612.574 631.551 589.887 639.211C573.516 644.738 556.867 648.93 540.089 652.965L539.459 652.855C536.41 649.149 533.64 644.757 532.244 640.132C528.565 627.948 535.222 616.022 542.886 606.956C564.152 581.801 597.945 572.898 621.347 550.445C633.789 538.508 644.524 524.49 654.069 510.164C663.684 495.731 672.71 479.56 685.504 467.683C694.867 458.991 706.421 455.202 717.773 449.947C742.039 438.714 759.39 411.792 771.542 388.829Z"/>
	<path fill="#E5AC69" d="M657.023 611.89C657.308 606.649 658.18 601.312 658.61 596.053C659.26 588.091 659.657 580.003 661.401 572.189C667.127 546.521 685.414 532.637 709.121 524.107C721.813 519.54 733.037 514.52 741.945 503.984C757.916 485.093 756.435 459.225 769.127 438.832C770.491 436.64 774.402 430.267 776.794 429.705C777.822 452.608 775.933 474.515 771.848 497.076C770.073 506.881 767.408 516.576 766.006 526.434L765.136 529.348C762.729 541.099 758.515 551.672 754.904 563.01L753.045 566.233C744.572 586.325 733.118 604.359 721.535 622.762L719.109 623.844C711.046 626.028 700.183 628.256 692.554 623.704C689.416 621.832 687.175 618.857 686.315 615.3C684.579 608.125 688.426 601.559 691.879 595.6C679.889 600.431 668.682 606.386 657.023 611.89Z"/>
	<path fill="#A6694A" d="M765.136 529.348C762.729 541.099 758.515 551.672 754.904 563.01L753.045 566.233C748.778 567.43 744.615 569.68 740.628 571.599C731.842 575.828 723.163 580.266 714.478 584.697C708.039 587.981 701.534 591.861 694.525 593.765C706.512 578.828 722.725 569.393 737.121 557.168C747.27 548.549 755.775 538.736 765.136 529.348Z"/>
	<path fill="#9D452C" d="M694.525 593.765C701.534 591.861 708.039 587.981 714.478 584.697C723.163 580.266 731.842 575.828 740.628 571.599C744.615 569.68 748.778 567.43 753.045 566.233C744.572 586.325 733.118 604.359 721.535 622.762L719.109 623.844C711.046 626.028 700.183 628.256 692.554 623.704C689.416 621.832 687.175 618.857 686.315 615.3C684.579 608.125 688.426 601.559 691.879 595.6C692.728 594.917 693.608 594.35 694.525 593.765Z"/>
	<defs>
		<linearGradient id="gradient_5" gradientUnits="userSpaceOnUse" x1="511.06662" y1="459.92587" x2="380.42145" y2="344.66931">
			<stop offset="0" stop-color="#DA773C"/>
			<stop offset="1" stop-color="#E49866"/>
		</linearGradient>
	</defs>
	<path fill="url(#gradient_5)" d="M528.307 256C531.505 258.305 534.496 262.606 536.802 265.818C548.999 282.806 558.092 303.187 561.418 323.909C562.568 331.073 561.426 339.275 563.474 346.137L563.413 346.421C563.596 371.398 556.242 401.292 541.956 422.084L542.04 422.345C535.821 430.703 530.336 439.442 523.567 447.393C495.365 480.52 455.785 506.742 412.165 513.08C368.584 519.412 322.323 507.289 287.131 480.956C281.3 476.592 275.798 471.816 270.496 466.827C279.784 461.532 289.026 454.677 297.596 448.277C288.305 439.775 274.191 421.753 273.257 408.663C279.033 410.94 284.741 413.028 290.877 414.151C313.443 418.281 332.675 411.206 346.986 393.402C352.194 386.922 356.314 379.599 361.269 372.932C364.774 368.216 369.355 364.414 372.941 359.77C381.641 348.503 389.335 336.504 398.974 325.973C411.143 312.678 428.23 302.681 442.979 292.48L443.314 292.49C452.773 284.785 494.515 267.546 507.395 262.922C514.339 260.43 521.531 259.009 528.307 256Z"/>
	<path fill="#A6694A" d="M452.897 480.397C454.965 480.471 457.047 480.541 458.669 482.011C459.597 482.852 459.975 483.898 459.848 485.139C459.601 487.541 457.852 488.966 456.199 490.5C454.519 490.482 452.613 490.526 451.192 489.47C450.179 488.718 449.564 487.832 449.479 486.541C449.298 483.782 451.091 482.136 452.897 480.397Z"/>
	<path fill="#F1C59C" d="M492.805 391.586C493.465 391.645 494.122 391.715 494.778 391.805C497.254 392.147 499.353 392.962 500.841 395.073C502.009 396.731 502.409 398.672 501.941 400.651C501.233 403.643 498.97 405.657 496.441 407.178C494.921 407.125 493.244 407.163 491.794 406.655C489.733 405.932 487.921 404.288 486.988 402.317C486.17 400.588 486.051 398.617 486.798 396.842C487.9 394.223 490.274 392.637 492.805 391.586Z"/>
	<path fill="#A6694A" d="M524.149 306.54C525.56 306.481 527.073 306.354 528.469 306.593C531.151 307.053 533.895 308.915 535.308 311.235C536.633 313.409 536.926 316.042 536.207 318.473C535.112 322.174 532.417 324.018 529.23 325.845C528.138 326.045 527.011 326.263 525.897 326.207C523.376 326.079 520.717 324.89 519.135 322.89C517.465 320.78 516.99 317.929 517.466 315.323C518.245 311.049 520.658 308.826 524.149 306.54Z"/>
	<path fill="#A6694A" d="M403.535 473.068C404.984 473.032 406.5 472.995 407.909 473.383C410.819 474.184 413.445 476.152 414.825 478.86C416.086 481.334 416.291 484.214 415.335 486.821C413.945 490.614 411.186 491.972 407.744 493.534C406.416 493.416 405.045 493.318 403.755 492.97C400.877 492.193 398.218 490.215 396.815 487.564C395.572 485.218 395.381 482.494 396.263 479.997C397.545 476.368 400.2 474.626 403.535 473.068Z"/>
	<path fill="#E5AC69" d="M541.956 422.084C535.918 418.726 530.542 415.189 526.467 409.488C520.441 401.057 518.498 390.441 520.229 380.291C522.137 369.099 528.892 359.43 538.159 353.049C545.196 348.202 554.808 344.839 563.413 346.421C563.596 371.398 556.242 401.292 541.956 422.084Z"/>
	<path fill="#E5AC69" d="M442.979 292.48L443.314 292.49C459.946 310.172 467.195 337.146 466.488 360.912C465.575 391.588 451.537 420.703 429.163 441.553C408.07 461.209 381.303 471.615 352.387 470.496C332.021 469.708 313.229 461.023 297.596 448.277C288.305 439.775 274.191 421.753 273.257 408.663C279.033 410.94 284.741 413.028 290.877 414.151C313.443 418.281 332.675 411.206 346.986 393.402C352.194 386.922 356.314 379.599 361.269 372.932C364.774 368.216 369.355 364.414 372.941 359.77C381.641 348.503 389.335 336.504 398.974 325.973C411.143 312.678 428.23 302.681 442.979 292.48Z"/>
	<path fill="#FCFDEE" d="M380.704 371.107C383.967 370.929 387.105 370.954 390.235 372.02C394.759 373.562 398.503 376.883 400.466 381.255C402.408 385.58 402.456 390.618 400.593 394.979C398.23 400.513 393.754 403.292 388.409 405.446C384.708 405.605 381.362 405.59 377.835 404.22C373.373 402.488 369.836 398.992 368.105 394.524C366.397 390.115 366.457 385.037 368.473 380.735C370.999 375.347 375.409 373.043 380.704 371.107Z"/>
</svg>
