<?xml version="1.0" encoding="utf-8" ?>
<svg xmlns="http://www.w3.org/2000/svg" xmlns:xlink="http://www.w3.org/1999/xlink" width="671" height="671">
	<path fill="#B65FEC" transform="scale(0.655491 0.655491)" d="M327.713 217.642C333.023 213.717 339.121 210.49 344.818 207.136C387.715 181.879 436.857 168.853 486.247 164.77C546.58 159.782 607.458 171.394 661.731 198.151C672.514 203.467 684.898 209.255 694.108 217.067C695.763 218.181 697.662 219.248 699.105 220.621C699.962 222.309 700.722 224.559 700.035 226.438C699.981 226.584 699.891 226.714 699.819 226.853C700.653 228.595 702.582 231.797 701.894 233.76C701.093 236.044 685.806 246.884 683.142 247.672C677.862 249.232 674.541 245.322 667.074 248.737C665.834 249.304 664.53 249.872 663.66 250.965C661.066 254.229 663.183 254.023 658.256 256.053C653.025 254.863 646.993 254.021 642.218 251.465C638.369 249.404 632.649 243.741 628.975 242.672C628.059 242.405 626.069 242.964 625.106 243.17C612.823 232.804 598.579 227.091 582.359 228.558C565.793 230.057 551.47 238.372 540.962 251.093C538.751 253.769 536.803 256.595 534.906 259.499C525.656 260.444 526.893 263.846 520.52 268.126C519.176 267.878 518.021 267.522 516.708 268.08C516.222 269.577 516.925 270.296 517.557 271.698L517.269 272.144C514.374 272.162 508.726 271.477 506.002 270.333C503.387 269.235 490.903 248.106 483.709 245.952C482.243 245.513 481.322 246.028 480.019 246.622C467.711 235.008 452.566 227.738 435.382 228.208C419.596 228.64 402.802 236.663 392.128 248.309C391.965 248.486 391.807 248.666 391.647 248.845C384.786 243.944 376.376 256.345 369.67 255.763C367.269 255.554 364.635 251.169 363.1 249.375C358.107 247.938 352.895 247.689 347.785 246.854C339.872 245.562 326.885 242.276 319.847 238.646C322.102 231.333 326.033 225.206 330.206 218.879L329.718 218.035L327.713 217.642Z"/>
	<path fill="#DC80F4" transform="scale(0.655491 0.655491)" d="M694.108 217.067C695.763 218.181 697.662 219.248 699.105 220.621C699.962 222.309 700.722 224.559 700.035 226.438C699.981 226.584 699.891 226.714 699.819 226.853C697.572 224.029 694.097 220.778 694.108 217.067Z"/>
	<defs>
		<linearGradient id="gradient_0" gradientUnits="userSpaceOnUse" x1="500.70966" y1="862.98627" x2="519.78192" y2="217.64433">
			<stop offset="0" stop-color="#871CE0"/>
			<stop offset="1" stop-color="#DA7BF3"/>
		</linearGradient>
	</defs>
	<path fill="url(#gradient_0)" transform="scale(0.655491 0.655491)" d="M327.713 217.642L329.718 218.035L330.206 218.879C326.033 225.206 322.102 231.333 319.847 238.646C326.885 242.276 339.872 245.562 347.785 246.854C352.895 247.689 358.107 247.938 363.1 249.375C364.635 251.169 367.269 255.554 369.67 255.763C376.376 256.345 384.786 243.944 391.647 248.845C391.807 248.666 391.965 248.486 392.128 248.309C402.802 236.663 419.596 228.64 435.382 228.208C452.566 227.738 467.711 235.008 480.019 246.622C481.322 246.028 482.243 245.513 483.709 245.952C490.903 248.106 503.387 269.235 506.002 270.333C508.726 271.477 514.374 272.162 517.269 272.144L517.557 271.698C516.925 270.296 516.222 269.577 516.708 268.08C518.021 267.522 519.176 267.878 520.52 268.126C526.893 263.846 525.656 260.444 534.906 259.499C536.803 256.595 538.751 253.769 540.962 251.093C551.47 238.372 565.793 230.057 582.359 228.558C598.579 227.091 612.823 232.804 625.106 243.17C626.069 242.964 628.059 242.405 628.975 242.672C632.649 243.741 638.369 249.404 642.218 251.465C646.993 254.021 653.025 254.863 658.256 256.053C663.183 254.023 661.066 254.229 663.66 250.965C664.53 249.872 665.834 249.304 667.074 248.737C674.541 245.322 677.862 249.232 683.142 247.672C685.806 246.884 701.093 236.044 701.894 233.76C702.582 231.797 700.653 228.595 699.819 226.853C699.891 226.714 699.981 226.584 700.035 226.438C700.722 224.559 699.962 222.309 699.105 220.621C702.62 222.829 705.982 225.408 709.295 227.909C749.917 258.57 780.656 298.742 799.068 346.154C801.439 352.26 803.537 358.596 805.112 364.951C806.577 370.865 807.218 377.923 809.953 383.38C812.94 389.342 818.906 394.013 823.048 399.189C835.664 414.954 843.723 435.452 846.399 455.357C850.363 484.832 842.929 514.759 827.63 540.076C823.082 547.602 817.751 554.528 812.426 561.508C812.651 599.591 811.944 629.849 791.224 663.845C770.764 697.413 741.402 717.562 703.468 726.649C696.054 736.99 690.046 748.271 683.554 759.197L652.617 811.054C645.595 822.828 637.41 839.784 627.11 848.675C615.212 858.946 598.766 863.455 583.249 862.195C555.03 859.903 532.589 840.633 527.755 812.534C525.404 798.869 526.554 784.195 526.675 770.363L527.076 718.448C527.219 709.513 528.785 695.464 522.328 688.343C519.681 685.424 515.897 684.04 512.003 683.999C508.002 683.956 504.189 685.352 501.354 688.211C499.223 690.36 497.615 693.264 497.049 696.241C495.329 705.291 496.545 717.655 496.571 727.098L497.007 795.939C497.135 814.739 495.256 830.055 481.418 843.927C469.725 855.649 453.41 862.159 436.882 862.109C423.683 862.07 411.316 857.661 400.782 849.767C379.379 833.725 354.704 789.251 341.745 764.829C336.445 754.84 331.716 741.727 323.738 733.605C314.859 724.564 299.371 722.295 288.204 716.813C275.385 710.52 263.775 701.135 253.788 690.991C228.087 664.887 215.298 631.34 212.804 595.217C212.02 583.86 212.441 572.345 212.548 560.967C193.039 536.572 179.222 509.532 177.818 477.689C176.607 450.222 183.975 422.946 200.001 400.466C204.786 393.754 210.322 387.786 215.898 381.738C216.341 379.671 216.648 377.563 217.018 375.481C229.495 305.316 270.699 257.436 327.713 217.642ZM391.647 248.845C386.714 254.943 382.276 261.134 378.324 267.915C385.858 262.861 393.969 259.575 402.947 258.196C419.75 255.615 437.226 259.994 450.909 270.101C455.383 273.406 461.629 278.387 462.337 284.253C462.773 287.863 461.195 291.299 459.017 294.085C447.922 308.277 437.879 296.827 425.524 292.38C420.266 290.488 414.804 289.976 409.276 290.752C403.754 291.526 397.942 293.619 393.604 297.173C379.791 308.487 388.375 323.599 379.835 334.308C377.271 337.525 373.462 339.071 369.438 339.446C365.25 339.835 360.982 338.282 357.881 335.468C353.779 331.744 352.015 326.081 351.87 320.688C351.363 301.745 360.295 285.199 372.972 271.848C367.046 272.385 361.206 273.136 355.447 274.68C339.181 279.043 325.462 288.911 317.087 303.642C309.379 317.201 306.789 332.917 311.099 348.028C314.76 360.863 324.071 373.163 335.853 379.567C348.652 386.524 367.52 388.436 379.734 379.193C385.591 374.762 389.528 367.982 397.054 365.992C401.426 364.836 405.665 365.815 409.493 368.106C413.441 370.468 416.15 373.775 417.132 378.32C418.188 383.207 416.782 387.962 414.036 392.046C405.376 404.924 386.336 413.86 371.566 416.786C351.628 420.737 331.876 416.819 315.004 405.455C297.512 393.675 286.624 377.139 282.535 356.488C276.232 360.252 270.546 364.384 265.457 369.708C248.1 387.868 243.938 407.791 244.568 432.153C252.517 423.411 261.878 414.768 273.038 410.39C278.232 408.352 284.379 407.085 289.641 409.558C293.36 411.305 296.581 414.869 297.852 418.786C298.75 421.555 298.838 424.574 298.16 427.401C295.343 439.163 281.334 440.41 272.935 446.739C264.375 453.191 257.473 462.278 252.816 471.883C243.969 490.132 242.481 511.263 249.333 530.414C255.429 547.453 267.994 562.209 284.452 569.979C296.572 575.701 312.05 577.891 325.03 574.071C329.866 572.647 334.342 570.277 339.091 568.614C342.785 567.32 346.429 567.025 349.995 568.846C353.868 570.823 356.88 574.614 358.213 578.726C359.555 582.866 358.93 587.214 356.903 591.025C353.739 596.973 347.168 601.288 340.837 603.289C310.841 612.771 284.792 605.135 257.773 590.926C262.63 604.865 269.074 618.9 278.931 630.05C299.35 653.147 319.231 656.866 348.528 658.619C343.412 654.153 337.482 649.206 335.214 642.567C333.848 638.568 334.126 633.977 336.164 630.249C338.344 626.26 342.978 622.809 347.331 621.573C356.344 619.012 363.685 630.083 370.755 633.975C376.287 637.021 382.39 637.665 388.425 635.752C397.978 632.724 398.3 624.079 402.285 616.523C404.171 612.946 406.71 610.04 410.74 608.954C415.194 607.754 420.385 608.345 424.333 610.767C428.152 613.109 430.776 616.905 431.741 621.272C433.69 630.093 428.594 639.313 423.797 646.38C413.37 661.743 399.894 666.876 382.299 670.215C387.659 674.18 392.97 678.043 398.96 681.021C413.989 688.492 434.008 691.276 450.124 685.768C466.177 680.282 481.169 668.664 488.662 653.247C495.05 640.103 498.785 609.568 493.581 595.551C490.912 588.362 485.363 582.705 478.441 579.503C469.424 575.331 457.677 575.482 449.122 580.806C445.056 583.337 441.381 586.875 436.79 588.456C432.65 589.881 428.106 589.4 424.244 587.377C420.462 585.397 417.155 581.882 415.909 577.747C414.636 573.521 415.3 568.811 417.482 565.011C423.672 554.23 437.847 547.509 449.416 544.595C463.939 540.936 482.219 542.208 495.258 550.07C495.456 537.153 496.893 490.196 493.51 480.571C490.935 473.247 484.619 468.171 477.763 465.123C466.592 460.156 455.77 460.37 446.277 468.805C442.8 471.895 439.485 475.468 434.997 477.056C430.971 478.48 426.674 478.107 422.859 476.235C418.881 474.285 415.616 470.726 414.234 466.494C413.037 462.828 413.446 458.809 415.221 455.396C420.76 444.74 436.989 435.727 448.102 432.53C463.731 428.033 480.839 430.067 495.079 437.991C495.5 425.02 496.962 399.521 493.122 387.852C491.29 382.282 487.828 377.568 482.989 374.235C466.682 363.006 450.028 373.348 437.765 366.619C434.197 364.661 431.912 361.534 430.957 357.593C429.937 353.385 431.004 349.124 433.331 345.542C436.238 341.07 440.391 339.266 445.421 338.154C449.366 337.282 453.512 337.137 457.537 336.998C471.939 336.5 483.816 339 495.989 346.798C496.188 334.511 496.593 322.233 497.015 309.953C497.894 284.351 498.105 266.663 480.019 246.622C467.711 235.008 452.566 227.738 435.382 228.208C419.596 228.64 402.802 236.663 392.128 248.309C391.965 248.486 391.807 248.666 391.647 248.845ZM534.906 259.499C531.667 265.597 529.015 271.734 527.846 278.583C525.635 291.538 527.634 305.816 528.193 318.926C528.589 328.191 528.521 337.463 528.983 346.728C540.324 338.413 554.267 335.793 568.169 336.699C575.953 337.206 585.576 338.946 590.83 345.29C593.346 348.328 594.066 351.406 593.549 355.271C592.483 363.249 586.846 368.677 578.726 369.14C574.702 369.369 570.466 368.492 566.447 368.171C557.342 367.445 547.262 369.515 539.939 375.203C522.805 388.512 531.36 419.661 529.148 438.538C538.453 432.842 548.633 429.935 559.582 430.131C575.046 430.407 590.919 438.062 601.578 449.147C605.442 453.166 608.748 458.226 608.514 464.016C608.337 468.423 606.138 472.796 602.917 475.772C589.943 487.759 581.369 470.976 571.492 465.185C567.805 463.024 563.507 461.985 559.258 461.912C550.981 461.772 542.22 465.362 536.422 471.261C532.795 474.95 530.341 479.496 529.192 484.533C526.999 494.146 528.366 504.766 528.468 514.574L528.506 549.142C538.2 545.355 547.71 542.383 558.242 542.542C572.964 542.766 589.837 548.261 600.15 559.182C603.599 562.835 606.566 567.555 606.222 572.76C605.939 577.034 603.641 580.962 600.346 583.633C585.889 595.355 577.107 578.357 563.854 576.907C554.893 575.927 545.485 577.957 538.453 583.811C532.433 588.824 529.189 595.74 528.416 603.47C526.364 623.97 528.357 647.937 542.008 664.289C553.39 677.922 569.78 686.741 587.487 688.29C607.919 690.077 625.678 683.165 641.19 670.172C628.52 668.018 616.676 664.878 607.014 655.898C599.183 648.621 591.61 637.336 591.355 626.3C591.247 621.639 592.319 616.463 595.817 613.132C599.478 609.645 605.344 608.344 610.264 608.652C623.325 609.469 621.439 624.622 628.505 632.079C631.183 634.906 634.635 636.623 638.42 637.421C656.601 641.256 661.145 620.121 675.788 621.046C680.044 621.315 684.624 623.805 687.426 626.972C690.639 630.603 691.887 634.866 691.4 639.64C690.647 647.028 685.6 651.558 680.146 655.896C695.93 658.241 714.753 653.774 728.026 645.012C745.717 633.333 751.215 615.955 755.267 596.224C746.53 600.768 737.589 604.502 727.938 606.605C712.584 609.951 689.171 610.029 675.581 600.953C671.554 598.265 668.378 594.413 667.538 589.542C666.794 585.225 668.107 580.801 670.67 577.304C679.122 565.772 691.783 573.682 702.656 575.887C707.665 576.903 713.084 576.951 718.134 576.214C736.324 573.56 752.237 562.394 762.934 547.787C774.84 531.528 779.939 510.727 776.836 490.809C774.057 472.974 764.507 453.916 748.217 444.882C742.849 441.906 736.569 440.541 731.632 436.788C727.723 433.815 725.077 429.857 724.588 424.899C724.201 420.981 725.22 417.047 727.772 414.002C730.29 410.997 733.954 409.283 737.842 409.003C753.377 407.883 767.904 416.994 779.063 426.789C779.06 422.268 779.031 417.772 778.527 413.271C775.584 387.043 761.317 369.044 741.177 353.116C737.141 371.664 729.592 387.33 714.724 399.602C699.038 412.548 678.879 418.854 658.615 416.755C641.613 414.993 622.545 406.744 611.624 393.169C608.594 389.402 606.334 384.711 607 379.763C607.596 375.339 610.031 371.737 613.553 369.087C620.514 363.851 629.011 364.451 635.545 370.095C638.691 372.813 641.329 376.202 644.789 378.547C650.039 382.105 656.542 384.352 662.816 385.108C673.42 386.384 683.792 382.851 692.11 376.293C703.491 367.319 710.029 353.492 711.591 339.254C713.35 323.234 709.056 305.665 698.868 293.023C685.884 276.911 667.58 273.49 648.125 271.372C655.347 278.282 661.622 285.676 666.095 294.679C670.839 304.228 675.364 317.846 671.536 328.443C670.073 332.492 666.92 335.936 662.986 337.699C659.012 339.479 653.37 339.782 649.328 338.076C637.594 333.123 640.587 316.897 636.427 307.069C633.65 300.507 628.791 295.629 622.178 292.972C612.943 289.262 602.995 289.562 593.991 293.848C590.152 295.675 586.595 298.138 582.637 299.716C579.018 301.158 575.075 301.342 571.513 299.609C567.716 297.763 564.373 293.141 563.034 289.221C562.002 286.201 562.176 283.158 563.598 280.296C567.976 271.484 581.216 264.195 590.133 261.003C607.454 254.801 625.888 257.751 642.175 265.457C637.033 257.445 631.972 249.853 625.106 243.17C612.823 232.804 598.579 227.091 582.359 228.558C565.793 230.057 551.47 238.372 540.962 251.093C538.751 253.769 536.803 256.595 534.906 259.499Z"/>
	<path fill="#B65FEC" transform="scale(0.655491 0.655491)" d="M681.749 447.585C684.551 447.536 687.279 447.682 689.982 448.507C693.957 449.721 697.113 452.338 699.049 456.014C704.544 466.451 700.075 480.942 696.805 491.416C706.035 496.523 726.717 504.057 730.754 514.016C732.158 517.479 731.852 521.304 730.239 524.641C728.149 528.962 724.121 532.236 719.597 533.736C708.497 537.416 690.287 524.532 680.346 519.282C670.004 526.312 660.46 532.048 648.318 535.556C635.634 538.469 620.694 537.224 608.367 533.264C601.227 530.971 592.766 527.093 589.367 519.961C587.456 515.951 587.447 511.466 588.943 507.326C590.398 503.302 592.79 499.493 596.888 497.8C604.221 494.771 610.672 498.951 617.215 501.776C626.042 505.586 636.209 505.287 645.087 501.69C656.591 497.029 666.069 486.378 667.495 473.752C668.122 468.206 667.604 461.726 669.911 456.569C672.226 451.393 676.781 449.463 681.749 447.585Z"/>
	<path fill="#B65FEC" transform="scale(0.655491 0.655491)" d="M337.397 447.58C337.538 447.574 337.679 447.563 337.82 447.561C360.539 447.28 354.288 467.005 357.748 480.637C359.101 485.967 361.911 490.63 365.894 494.414C376.858 504.831 390.088 507.293 403.853 501.156C408.812 498.945 414.636 495.52 420.208 495.522C424.469 495.525 428.592 497.486 431.436 500.631C434.343 503.847 435.699 508.179 435.38 512.482C435.002 517.581 432.114 521.617 428.349 524.889C415.784 535.808 396.24 537.515 380.375 536.453C367.096 535.094 355.704 529.723 346.727 519.885C336.06 525.192 324.887 530.961 313.299 533.896C308.144 535.202 302.825 535.828 298.102 532.839C294.397 530.495 291.993 526.571 291.253 522.283C287.777 502.156 310.084 505.199 320.641 497.997C322.591 496.667 323.987 494.779 325.275 492.838L325.623 492.305C325.107 481.053 318.907 465.664 325.176 455.311C327.978 450.683 332.363 448.782 337.397 447.58Z"/>
</svg>
